M48
; DRILL file {KiCad (7.0.0)} date Tue Aug 22 20:57:08 2023
; FORMAT={-:-/ absolute / inch / decimal}
; #@! TF.CreationDate,2023-08-22T20:57:08+01:00
; #@! TF.GenerationSoftware,Kicad,Pcbnew,(7.0.0)
; #@! TF.FileFunction,Plated,1,2,PTH
FMAT,2
INCH
; #@! TA.AperFunction,Plated,PTH,ViaDrill
T1C0.0157
%
G90
G05
T1
X4.3307Y-3.7205
X4.4094Y-3.2283
X4.4882Y-3.7992
X4.5079Y-3.1299
X4.8031Y-3.1299
X4.8858Y-3.1299
X5.1693Y-3.126
X5.3701Y-3.126
X5.4331Y-3.3661
X5.4528Y-3.7992
X5.5118Y-3.5236
X5.6063Y-3.126
X5.7874Y-3.6417
X5.7913Y-3.189
X5.8071Y-3.5236
X6.0197Y-3.1929
X6.122Y-3.248
X6.2205Y-3.3071
X6.2992Y-3.4449
X6.2992Y-3.7992
X6.5945Y-2.5773
X6.6381Y-2.6209
X6.7165Y-2.4724
X6.811Y-2.5773
T0
M30
