%TF.GenerationSoftware,KiCad,Pcbnew,(7.0.0)*%
%TF.CreationDate,2023-08-22T20:57:46+01:00*%
%TF.ProjectId,elecsoc_card,656c6563-736f-4635-9f63-6172642e6b69,rev?*%
%TF.SameCoordinates,Original*%
%TF.FileFunction,Paste,Top*%
%TF.FilePolarity,Positive*%
%FSLAX46Y46*%
G04 Gerber Fmt 4.6, Leading zero omitted, Abs format (unit mm)*
G04 Created by KiCad (PCBNEW (7.0.0)) date 2023-08-22 20:57:46*
%MOMM*%
%LPD*%
G01*
G04 APERTURE LIST*
G04 Aperture macros list*
%AMRoundRect*
0 Rectangle with rounded corners*
0 $1 Rounding radius*
0 $2 $3 $4 $5 $6 $7 $8 $9 X,Y pos of 4 corners*
0 Add a 4 corners polygon primitive as box body*
4,1,4,$2,$3,$4,$5,$6,$7,$8,$9,$2,$3,0*
0 Add four circle primitives for the rounded corners*
1,1,$1+$1,$2,$3*
1,1,$1+$1,$4,$5*
1,1,$1+$1,$6,$7*
1,1,$1+$1,$8,$9*
0 Add four rect primitives between the rounded corners*
20,1,$1+$1,$2,$3,$4,$5,0*
20,1,$1+$1,$4,$5,$6,$7,0*
20,1,$1+$1,$6,$7,$8,$9,0*
20,1,$1+$1,$8,$9,$2,$3,0*%
G04 Aperture macros list end*
%ADD10RoundRect,0.250000X0.450000X-0.325000X0.450000X0.325000X-0.450000X0.325000X-0.450000X-0.325000X0*%
%ADD11RoundRect,0.250000X-0.450000X0.350000X-0.450000X-0.350000X0.450000X-0.350000X0.450000X0.350000X0*%
%ADD12RoundRect,0.250000X-0.450000X0.325000X-0.450000X-0.325000X0.450000X-0.325000X0.450000X0.325000X0*%
%ADD13RoundRect,0.250000X0.450000X-0.350000X0.450000X0.350000X-0.450000X0.350000X-0.450000X-0.350000X0*%
%ADD14RoundRect,0.250000X-0.350000X-0.450000X0.350000X-0.450000X0.350000X0.450000X-0.350000X0.450000X0*%
%ADD15RoundRect,0.150000X0.825000X0.150000X-0.825000X0.150000X-0.825000X-0.150000X0.825000X-0.150000X0*%
%ADD16RoundRect,0.250000X-0.475000X0.337500X-0.475000X-0.337500X0.475000X-0.337500X0.475000X0.337500X0*%
G04 APERTURE END LIST*
D10*
%TO.C,D3*%
X133475000Y-79025000D03*
X133475000Y-76975000D03*
%TD*%
%TO.C,D8*%
X139975000Y-87525000D03*
X139975000Y-85475000D03*
%TD*%
D11*
%TO.C,R6*%
X155500000Y-69500000D03*
X155500000Y-71500000D03*
%TD*%
%TO.C,R7*%
X144500000Y-69500000D03*
X144500000Y-71500000D03*
%TD*%
D12*
%TO.C,D6*%
X158000000Y-85475000D03*
X158000000Y-87525000D03*
%TD*%
D10*
%TO.C,D4*%
X155475000Y-81025000D03*
X155475000Y-78975000D03*
%TD*%
D13*
%TO.C,R1*%
X160000000Y-68462500D03*
X160000000Y-66462500D03*
%TD*%
D11*
%TO.C,R8*%
X158000000Y-94500000D03*
X158000000Y-96500000D03*
%TD*%
%TO.C,R4*%
X124500000Y-69500000D03*
X124500000Y-71500000D03*
%TD*%
D14*
%TO.C,R2*%
X160000000Y-62962500D03*
X162000000Y-62962500D03*
%TD*%
D11*
%TO.C,R10*%
X112000000Y-94500000D03*
X112000000Y-96500000D03*
%TD*%
D10*
%TO.C,D5*%
X144475000Y-80025000D03*
X144475000Y-77975000D03*
%TD*%
D11*
%TO.C,R9*%
X135500000Y-94500000D03*
X135500000Y-96500000D03*
%TD*%
D12*
%TO.C,D7*%
X149000000Y-89475000D03*
X149000000Y-91525000D03*
%TD*%
D11*
%TO.C,R3*%
X112000000Y-69500000D03*
X112000000Y-71500000D03*
%TD*%
D15*
%TO.C,U1*%
X170600000Y-67810000D03*
X170600000Y-66540000D03*
X170600000Y-65270000D03*
X170600000Y-64000000D03*
X165650000Y-64000000D03*
X165650000Y-65270000D03*
X165650000Y-66540000D03*
X165650000Y-67810000D03*
%TD*%
D11*
%TO.C,R5*%
X133500000Y-69500000D03*
X133500000Y-71500000D03*
%TD*%
D16*
%TO.C,C1*%
X174500000Y-67962500D03*
X174500000Y-70037500D03*
%TD*%
D10*
%TO.C,D2*%
X124475000Y-77525000D03*
X124475000Y-75475000D03*
%TD*%
%TO.C,D1*%
X111975000Y-79525000D03*
X111975000Y-77475000D03*
%TD*%
M02*
