%TF.GenerationSoftware,KiCad,Pcbnew,7.0.6-7.0.6~ubuntu22.04.1*%
%TF.CreationDate,2023-09-06T21:51:48+02:00*%
%TF.ProjectId,elecsoc_card,656c6563-736f-4635-9f63-6172642e6b69,rev?*%
%TF.SameCoordinates,Original*%
%TF.FileFunction,Soldermask,Bot*%
%TF.FilePolarity,Negative*%
%FSLAX46Y46*%
G04 Gerber Fmt 4.6, Leading zero omitted, Abs format (unit mm)*
G04 Created by KiCad (PCBNEW 7.0.6-7.0.6~ubuntu22.04.1) date 2023-09-06 21:51:48*
%MOMM*%
%LPD*%
G01*
G04 APERTURE LIST*
%ADD10C,0.000000*%
%ADD11C,0.500000*%
G04 APERTURE END LIST*
D10*
G36*
X169439009Y-95697870D02*
G01*
X170003453Y-95697870D01*
X170003453Y-96262315D01*
X170567899Y-96262315D01*
X170567899Y-96826759D01*
X168874565Y-96826759D01*
X168874565Y-95697870D01*
X168310120Y-95697870D01*
X168310120Y-95133426D01*
X169439009Y-95133426D01*
X169439009Y-95697870D01*
G37*
G36*
X171132343Y-86666759D02*
G01*
X171696787Y-86666759D01*
X171696787Y-86102314D01*
X172825676Y-86102314D01*
X172825676Y-86666759D01*
X173954565Y-86666759D01*
X173954565Y-86102314D01*
X174519010Y-86102314D01*
X174519010Y-86666759D01*
X175083454Y-86666759D01*
X175083454Y-87231203D01*
X174519010Y-87231203D01*
X174519010Y-87795648D01*
X173954565Y-87795648D01*
X173954565Y-87231203D01*
X172825676Y-87231203D01*
X172825676Y-87795648D01*
X173390120Y-87795648D01*
X173390120Y-88360092D01*
X171132343Y-88360092D01*
X171132343Y-88924537D01*
X173954565Y-88924537D01*
X173954565Y-88360092D01*
X174519010Y-88360092D01*
X174519010Y-88924537D01*
X175083454Y-88924537D01*
X175083454Y-89488981D01*
X175647898Y-89488981D01*
X175647898Y-90617870D01*
X176212343Y-90617870D01*
X176212343Y-90053425D01*
X177341232Y-90053425D01*
X177341232Y-90617870D01*
X176776787Y-90617870D01*
X176776787Y-91182315D01*
X177341232Y-91182315D01*
X177341232Y-92311203D01*
X176776787Y-92311203D01*
X176776787Y-91746759D01*
X176212343Y-91746759D01*
X176212343Y-92311203D01*
X175083454Y-92311203D01*
X175083454Y-92875648D01*
X174519010Y-92875648D01*
X174519010Y-92311203D01*
X173954565Y-92311203D01*
X173954565Y-91746759D01*
X172825676Y-91746759D01*
X172825676Y-92311203D01*
X172825676Y-93440092D01*
X173390120Y-93440092D01*
X173390120Y-94004536D01*
X172825676Y-94004536D01*
X172825676Y-94568982D01*
X173390120Y-94568982D01*
X173390120Y-95133426D01*
X173390120Y-95697870D01*
X173954565Y-95697870D01*
X173954565Y-95133426D01*
X174519010Y-95133426D01*
X174519010Y-95697870D01*
X173954565Y-95697870D01*
X173954565Y-96262315D01*
X174519010Y-96262315D01*
X175083454Y-96262315D01*
X176212343Y-96262315D01*
X176212343Y-95697870D01*
X175083454Y-95697870D01*
X175083454Y-96262315D01*
X174519010Y-96262315D01*
X174519010Y-95697870D01*
X175083454Y-95697870D01*
X175083454Y-95133426D01*
X174519010Y-95133426D01*
X174519010Y-94568982D01*
X175083454Y-94568982D01*
X175083454Y-94004536D01*
X175647898Y-94004536D01*
X175647898Y-94568982D01*
X177341232Y-94568982D01*
X177341232Y-95133426D01*
X176776787Y-95133426D01*
X176776787Y-95697870D01*
X177341232Y-95697870D01*
X177341232Y-96826759D01*
X176776787Y-96826759D01*
X176776787Y-96262315D01*
X176212343Y-96262315D01*
X176212343Y-96826759D01*
X173390120Y-96826759D01*
X173390120Y-96262315D01*
X172261232Y-96262315D01*
X172261232Y-95697870D01*
X172825676Y-95697870D01*
X172825676Y-95133426D01*
X172261232Y-95133426D01*
X172261232Y-95697870D01*
X170567899Y-95697870D01*
X170567899Y-95133426D01*
X171696787Y-95133426D01*
X172261232Y-95133426D01*
X172261232Y-94568982D01*
X171696787Y-94568982D01*
X171696787Y-95133426D01*
X170567899Y-95133426D01*
X170567899Y-94568982D01*
X170003453Y-94568982D01*
X170003453Y-93440092D01*
X169439009Y-93440092D01*
X169439009Y-94568982D01*
X167745676Y-94568982D01*
X167745676Y-93440092D01*
X168874565Y-93440092D01*
X168874565Y-92875648D01*
X170003453Y-92875648D01*
X170003453Y-92311203D01*
X170567899Y-92311203D01*
X170567899Y-94004536D01*
X172261232Y-94004536D01*
X172261232Y-92311203D01*
X170567899Y-92311203D01*
X170003453Y-92311203D01*
X168874565Y-92311203D01*
X168874565Y-92875648D01*
X168310120Y-92875648D01*
X168310120Y-91746759D01*
X167745676Y-91746759D01*
X167745676Y-91182315D01*
X168874565Y-91182315D01*
X168874565Y-91746759D01*
X170003453Y-91746759D01*
X170003453Y-91182315D01*
X170567899Y-91182315D01*
X170567899Y-90617870D01*
X171132343Y-90617870D01*
X171132343Y-91182315D01*
X173390120Y-91182315D01*
X173390120Y-90617870D01*
X174519010Y-90617870D01*
X174519010Y-91182315D01*
X175083454Y-91182315D01*
X175083454Y-91746759D01*
X174519010Y-91746759D01*
X174519010Y-92311203D01*
X175083454Y-92311203D01*
X175083454Y-91746759D01*
X176212343Y-91746759D01*
X176212343Y-91182315D01*
X175083454Y-91182315D01*
X175083454Y-90617870D01*
X174519010Y-90617870D01*
X174519010Y-89488981D01*
X172825676Y-89488981D01*
X172825676Y-90053425D01*
X171132343Y-90053425D01*
X171132343Y-90617870D01*
X170567899Y-90617870D01*
X170003453Y-90617870D01*
X170003453Y-91182315D01*
X168874565Y-91182315D01*
X168874565Y-90617870D01*
X169439009Y-90617870D01*
X169439009Y-90053425D01*
X170567899Y-90053425D01*
X170567899Y-89488981D01*
X170003453Y-89488981D01*
X170003453Y-88924537D01*
X170567899Y-88924537D01*
X170567899Y-88360092D01*
X170003453Y-88360092D01*
X170003453Y-88924537D01*
X168874565Y-88924537D01*
X168874565Y-89488981D01*
X167745676Y-89488981D01*
X167745676Y-88360092D01*
X168310120Y-88360092D01*
X168310120Y-87795648D01*
X168874565Y-87795648D01*
X168874565Y-88360092D01*
X169439009Y-88360092D01*
X169439009Y-87795648D01*
X170567899Y-87795648D01*
X170567899Y-87231203D01*
X171696787Y-87231203D01*
X171696787Y-87795648D01*
X172261232Y-87795648D01*
X172261232Y-87231203D01*
X171696787Y-87231203D01*
X170567899Y-87231203D01*
X169439009Y-87231203D01*
X169439009Y-86666759D01*
X170003453Y-86666759D01*
X170567899Y-86666759D01*
X170567899Y-86102314D01*
X170003453Y-86102314D01*
X170003453Y-86666759D01*
X169439009Y-86666759D01*
X168874565Y-86666759D01*
X168874565Y-86102314D01*
X169439009Y-86102314D01*
X169439009Y-84973426D01*
X170003453Y-84973426D01*
X170003453Y-85537870D01*
X170567899Y-85537870D01*
X170567899Y-84973426D01*
X171132343Y-84973426D01*
X171132343Y-85537870D01*
X171696787Y-85537870D01*
X171696787Y-86102314D01*
X171132343Y-86102314D01*
X171132343Y-86666759D01*
G37*
G36*
X179599009Y-93440092D02*
G01*
X179034565Y-93440092D01*
X179034565Y-92311203D01*
X179599009Y-92311203D01*
X179599009Y-93440092D01*
G37*
G36*
X168310120Y-96262315D02*
G01*
X167745676Y-96262315D01*
X167745676Y-95697870D01*
X168310120Y-95697870D01*
X168310120Y-96262315D01*
G37*
G36*
X180163454Y-89488981D02*
G01*
X179599009Y-89488981D01*
X179599009Y-88924537D01*
X180163454Y-88924537D01*
X180163454Y-89488981D01*
G37*
G36*
X171696787Y-84408981D02*
G01*
X167745676Y-84408981D01*
X167745676Y-83844537D01*
X168310120Y-83844537D01*
X171132343Y-83844537D01*
X171132343Y-81022314D01*
X168310120Y-81022314D01*
X168310120Y-83844537D01*
X167745676Y-83844537D01*
X167745676Y-80457870D01*
X171696787Y-80457870D01*
X171696787Y-81022314D01*
X171696787Y-84408981D01*
G37*
G36*
X168310120Y-87231203D02*
G01*
X167745676Y-87231203D01*
X167745676Y-86666759D01*
X168310120Y-86666759D01*
X168310120Y-87231203D01*
G37*
G36*
X174519010Y-93440092D02*
G01*
X173954565Y-93440092D01*
X173954565Y-92875648D01*
X174519010Y-92875648D01*
X174519010Y-93440092D01*
G37*
G36*
X177341232Y-81022314D02*
G01*
X176776787Y-81022314D01*
X176776787Y-80457870D01*
X177341232Y-80457870D01*
X177341232Y-81022314D01*
G37*
G36*
X180727898Y-86666759D02*
G01*
X180163454Y-86666759D01*
X180163454Y-87231203D01*
X179599009Y-87231203D01*
X179599009Y-86102314D01*
X180727898Y-86102314D01*
X180727898Y-86666759D01*
G37*
G36*
X179034565Y-91746759D02*
G01*
X178470121Y-91746759D01*
X178470121Y-91182315D01*
X179034565Y-91182315D01*
X179034565Y-91746759D01*
G37*
G36*
X179599009Y-96826759D02*
G01*
X179034565Y-96826759D01*
X179034565Y-96262315D01*
X178470121Y-96262315D01*
X178470121Y-96826759D01*
X177905676Y-96826759D01*
X177905676Y-95697870D01*
X178470121Y-95697870D01*
X178470121Y-94568982D01*
X179034565Y-94568982D01*
X179034565Y-94004536D01*
X179599009Y-94004536D01*
X179599009Y-96826759D01*
G37*
G36*
X170567899Y-83280092D02*
G01*
X168874565Y-83280092D01*
X168874565Y-81586759D01*
X170567899Y-81586759D01*
X170567899Y-83280092D01*
G37*
G36*
X173390120Y-86102314D02*
G01*
X172825676Y-86102314D01*
X172825676Y-85537870D01*
X173390120Y-85537870D01*
X173390120Y-86102314D01*
G37*
G36*
X182421232Y-91746759D02*
G01*
X182985676Y-91746759D01*
X182985676Y-92311203D01*
X181292343Y-92311203D01*
X181292343Y-91746759D01*
X181856787Y-91746759D01*
X181856787Y-91182315D01*
X182421232Y-91182315D01*
X182421232Y-91746759D01*
G37*
G36*
X180727898Y-87795648D02*
G01*
X180163454Y-87795648D01*
X180163454Y-87231203D01*
X180727898Y-87231203D01*
X180727898Y-87795648D01*
G37*
G36*
X172825676Y-84408981D02*
G01*
X173390120Y-84408981D01*
X173390120Y-83844537D01*
X173954565Y-83844537D01*
X173954565Y-84973426D01*
X174519010Y-84973426D01*
X174519010Y-83844537D01*
X175083454Y-83844537D01*
X175083454Y-84973426D01*
X175647898Y-84973426D01*
X175647898Y-85537870D01*
X176212343Y-85537870D01*
X176212343Y-86102314D01*
X175647898Y-86102314D01*
X175647898Y-86666759D01*
X175083454Y-86666759D01*
X175083454Y-86102314D01*
X174519010Y-86102314D01*
X174519010Y-85537870D01*
X173390120Y-85537870D01*
X173390120Y-84973426D01*
X172261232Y-84973426D01*
X172261232Y-83844537D01*
X172825676Y-83844537D01*
X172825676Y-84408981D01*
G37*
G36*
X174519010Y-83844537D02*
G01*
X173954565Y-83844537D01*
X173954565Y-83280092D01*
X174519010Y-83280092D01*
X174519010Y-83844537D01*
G37*
G36*
X178470121Y-81586759D02*
G01*
X177905676Y-81586759D01*
X177905676Y-80457870D01*
X178470121Y-80457870D01*
X178470121Y-81586759D01*
G37*
G36*
X172261232Y-85537870D02*
G01*
X171696787Y-85537870D01*
X171696787Y-84973426D01*
X172261232Y-84973426D01*
X172261232Y-85537870D01*
G37*
G36*
X181292343Y-91182315D02*
G01*
X180163454Y-91182315D01*
X180163454Y-90617870D01*
X181292343Y-90617870D01*
X181292343Y-91182315D01*
G37*
G36*
X180727898Y-92311203D02*
G01*
X180163454Y-92311203D01*
X180163454Y-91746759D01*
X180727898Y-91746759D01*
X180727898Y-92311203D01*
G37*
G36*
X182985676Y-95697870D02*
G01*
X181292343Y-95697870D01*
X181292343Y-94004536D01*
X182985676Y-94004536D01*
X182985676Y-95697870D01*
G37*
G36*
X177905676Y-89488981D02*
G01*
X178470121Y-89488981D01*
X178470121Y-88924537D01*
X179034565Y-88924537D01*
X179034565Y-90617870D01*
X178470121Y-90617870D01*
X178470121Y-91182315D01*
X177905676Y-91182315D01*
X177905676Y-90053425D01*
X177341232Y-90053425D01*
X177341232Y-88924537D01*
X176776787Y-88924537D01*
X176776787Y-88360092D01*
X177905676Y-88360092D01*
X177905676Y-89488981D01*
G37*
G36*
X177341232Y-81586759D02*
G01*
X177341232Y-82715648D01*
X176212343Y-82715648D01*
X176212343Y-83280092D01*
X177905676Y-83280092D01*
X177905676Y-83844537D01*
X177341232Y-83844537D01*
X177341232Y-84408981D01*
X177905676Y-84408981D01*
X178470121Y-84408981D01*
X179034565Y-84408981D01*
X179034565Y-83844537D01*
X178470121Y-83844537D01*
X178470121Y-84408981D01*
X177905676Y-84408981D01*
X177905676Y-83844537D01*
X178470121Y-83844537D01*
X178470121Y-82715648D01*
X177905676Y-82715648D01*
X177905676Y-82151203D01*
X179599009Y-82151203D01*
X179599009Y-82715648D01*
X179034565Y-82715648D01*
X179034565Y-83280092D01*
X179599009Y-83280092D01*
X179599009Y-83844537D01*
X179599009Y-84408981D01*
X179034565Y-84408981D01*
X179034565Y-84973426D01*
X180727898Y-84973426D01*
X180727898Y-85537870D01*
X179599009Y-85537870D01*
X179599009Y-86102314D01*
X179034565Y-86102314D01*
X179034565Y-85537870D01*
X178470121Y-85537870D01*
X178470121Y-84973426D01*
X177905676Y-84973426D01*
X177905676Y-85537870D01*
X177341232Y-85537870D01*
X177341232Y-84408981D01*
X176776787Y-84408981D01*
X176776787Y-83844537D01*
X176212343Y-83844537D01*
X176212343Y-84408981D01*
X175647898Y-84408981D01*
X175647898Y-83844537D01*
X175083454Y-83844537D01*
X175083454Y-83280092D01*
X175647898Y-83280092D01*
X175647898Y-82715648D01*
X173954565Y-82715648D01*
X173954565Y-82151203D01*
X175083454Y-82151203D01*
X176212343Y-82151203D01*
X176212343Y-81586759D01*
X175083454Y-81586759D01*
X175083454Y-82151203D01*
X173954565Y-82151203D01*
X172825676Y-82151203D01*
X172825676Y-82715648D01*
X172261232Y-82715648D01*
X172261232Y-81586759D01*
X172825676Y-81586759D01*
X172825676Y-81022314D01*
X175647898Y-81022314D01*
X175647898Y-80457870D01*
X176212343Y-80457870D01*
X176212343Y-81022314D01*
X176776787Y-81022314D01*
X176776787Y-81586759D01*
X177341232Y-81586759D01*
G37*
G36*
X178470121Y-86666759D02*
G01*
X177905676Y-86666759D01*
X177905676Y-85537870D01*
X178470121Y-85537870D01*
X178470121Y-86666759D01*
G37*
G36*
X179599009Y-81586759D02*
G01*
X179034565Y-81586759D01*
X179034565Y-81022314D01*
X179599009Y-81022314D01*
X179599009Y-81586759D01*
G37*
G36*
X176212343Y-94004536D02*
G01*
X175647898Y-94004536D01*
X175647898Y-93440092D01*
X176212343Y-93440092D01*
X176212343Y-94004536D01*
G37*
G36*
X184114565Y-86102314D02*
G01*
X183550121Y-86102314D01*
X183550121Y-85537870D01*
X182985676Y-85537870D01*
X182985676Y-86666759D01*
X182421232Y-86666759D01*
X182421232Y-87231203D01*
X181856787Y-87231203D01*
X181856787Y-88360092D01*
X181292343Y-88360092D01*
X181292343Y-89488981D01*
X181856787Y-89488981D01*
X181856787Y-88924537D01*
X182421232Y-88924537D01*
X182421232Y-90617870D01*
X182985676Y-90617870D01*
X182985676Y-90053425D01*
X183550121Y-90053425D01*
X183550121Y-88924537D01*
X182421232Y-88924537D01*
X182421232Y-88360092D01*
X184114565Y-88360092D01*
X184114565Y-92311203D01*
X183550121Y-92311203D01*
X183550121Y-90617870D01*
X182985676Y-90617870D01*
X182985676Y-91182315D01*
X182421232Y-91182315D01*
X182421232Y-90617870D01*
X181856787Y-90617870D01*
X181856787Y-90053425D01*
X180163454Y-90053425D01*
X180163454Y-89488981D01*
X180727898Y-89488981D01*
X180727898Y-88924537D01*
X180163454Y-88924537D01*
X180163454Y-88360092D01*
X179599009Y-88360092D01*
X179599009Y-88924537D01*
X179034565Y-88924537D01*
X179034565Y-87795648D01*
X180163454Y-87795648D01*
X180163454Y-88360092D01*
X180727898Y-88360092D01*
X180727898Y-87795648D01*
X181292343Y-87795648D01*
X181292343Y-84973426D01*
X184114565Y-84973426D01*
X184114565Y-86102314D01*
G37*
G36*
X168874565Y-86102314D02*
G01*
X168310120Y-86102314D01*
X168310120Y-84973426D01*
X168874565Y-84973426D01*
X168874565Y-86102314D01*
G37*
G36*
X177341232Y-86102314D02*
G01*
X176776787Y-86102314D01*
X176776787Y-85537870D01*
X177341232Y-85537870D01*
X177341232Y-86102314D01*
G37*
G36*
X173954565Y-83280092D02*
G01*
X173390120Y-83280092D01*
X173390120Y-82715648D01*
X173954565Y-82715648D01*
X173954565Y-83280092D01*
G37*
G36*
X184114565Y-96826759D02*
G01*
X180163454Y-96826759D01*
X180163454Y-96262315D01*
X180727898Y-96262315D01*
X183550121Y-96262315D01*
X183550121Y-93440092D01*
X180727898Y-93440092D01*
X180727898Y-96262315D01*
X180163454Y-96262315D01*
X180163454Y-92875648D01*
X184114565Y-92875648D01*
X184114565Y-93440092D01*
X184114565Y-96826759D01*
G37*
G36*
X179034565Y-87795648D02*
G01*
X177905676Y-87795648D01*
X177905676Y-87231203D01*
X179034565Y-87231203D01*
X179034565Y-87795648D01*
G37*
G36*
X182985676Y-83280092D02*
G01*
X181292343Y-83280092D01*
X181292343Y-81586759D01*
X182985676Y-81586759D01*
X182985676Y-83280092D01*
G37*
G36*
X184114565Y-84408981D02*
G01*
X180163454Y-84408981D01*
X180163454Y-83844537D01*
X180727898Y-83844537D01*
X183550121Y-83844537D01*
X183550121Y-81022314D01*
X180727898Y-81022314D01*
X180727898Y-83844537D01*
X180163454Y-83844537D01*
X180163454Y-80457870D01*
X184114565Y-80457870D01*
X184114565Y-81022314D01*
X184114565Y-84408981D01*
G37*
G36*
X184114565Y-87795648D02*
G01*
X182985676Y-87795648D01*
X182985676Y-87231203D01*
X184114565Y-87231203D01*
X184114565Y-87795648D01*
G37*
G36*
X178470121Y-92311203D02*
G01*
X177905676Y-92311203D01*
X177905676Y-91746759D01*
X178470121Y-91746759D01*
X178470121Y-92311203D01*
G37*
G36*
X177905676Y-93440092D02*
G01*
X178470121Y-93440092D01*
X178470121Y-94568982D01*
X177341232Y-94568982D01*
X177341232Y-93440092D01*
X176776787Y-93440092D01*
X176776787Y-92875648D01*
X177905676Y-92875648D01*
X177905676Y-93440092D01*
G37*
G36*
X176776787Y-86666759D02*
G01*
X177341232Y-86666759D01*
X177341232Y-87795648D01*
X176212343Y-87795648D01*
X176212343Y-88360092D01*
X174519010Y-88360092D01*
X174519010Y-87795648D01*
X175083454Y-87795648D01*
X175083454Y-87231203D01*
X176212343Y-87231203D01*
X176212343Y-86102314D01*
X176776787Y-86102314D01*
X176776787Y-86666759D01*
G37*
G36*
X168874565Y-90617870D02*
G01*
X167745676Y-90617870D01*
X167745676Y-90053425D01*
X168874565Y-90053425D01*
X168874565Y-90617870D01*
G37*
G36*
X172825676Y-81022314D02*
G01*
X172261232Y-81022314D01*
X172261232Y-80457870D01*
X172825676Y-80457870D01*
X172825676Y-81022314D01*
G37*
G36*
X180163454Y-91746759D02*
G01*
X179599009Y-91746759D01*
X179599009Y-91182315D01*
X180163454Y-91182315D01*
X180163454Y-91746759D01*
G37*
G36*
X171696787Y-96826759D02*
G01*
X171132343Y-96826759D01*
X171132343Y-96262315D01*
X171696787Y-96262315D01*
X171696787Y-96826759D01*
G37*
G36*
X176776787Y-85537870D02*
G01*
X176212343Y-85537870D01*
X176212343Y-84973426D01*
X176776787Y-84973426D01*
X176776787Y-85537870D01*
G37*
G36*
X171696787Y-93440092D02*
G01*
X171132343Y-93440092D01*
X171132343Y-92875648D01*
X171696787Y-92875648D01*
X171696787Y-93440092D01*
G37*
D11*
X154652005Y-59338761D02*
X154747243Y-59434000D01*
X154747243Y-59434000D02*
X155032957Y-59529238D01*
X155032957Y-59529238D02*
X155223433Y-59529238D01*
X155223433Y-59529238D02*
X155509148Y-59434000D01*
X155509148Y-59434000D02*
X155699624Y-59243523D01*
X155699624Y-59243523D02*
X155794862Y-59053047D01*
X155794862Y-59053047D02*
X155890100Y-58672095D01*
X155890100Y-58672095D02*
X155890100Y-58386380D01*
X155890100Y-58386380D02*
X155794862Y-58005428D01*
X155794862Y-58005428D02*
X155699624Y-57814952D01*
X155699624Y-57814952D02*
X155509148Y-57624476D01*
X155509148Y-57624476D02*
X155223433Y-57529238D01*
X155223433Y-57529238D02*
X155032957Y-57529238D01*
X155032957Y-57529238D02*
X154747243Y-57624476D01*
X154747243Y-57624476D02*
X154652005Y-57719714D01*
X153509148Y-59529238D02*
X153699624Y-59434000D01*
X153699624Y-59434000D02*
X153794862Y-59338761D01*
X153794862Y-59338761D02*
X153890100Y-59148285D01*
X153890100Y-59148285D02*
X153890100Y-58576857D01*
X153890100Y-58576857D02*
X153794862Y-58386380D01*
X153794862Y-58386380D02*
X153699624Y-58291142D01*
X153699624Y-58291142D02*
X153509148Y-58195904D01*
X153509148Y-58195904D02*
X153223433Y-58195904D01*
X153223433Y-58195904D02*
X153032957Y-58291142D01*
X153032957Y-58291142D02*
X152937719Y-58386380D01*
X152937719Y-58386380D02*
X152842481Y-58576857D01*
X152842481Y-58576857D02*
X152842481Y-59148285D01*
X152842481Y-59148285D02*
X152937719Y-59338761D01*
X152937719Y-59338761D02*
X153032957Y-59434000D01*
X153032957Y-59434000D02*
X153223433Y-59529238D01*
X153223433Y-59529238D02*
X153509148Y-59529238D01*
X151985338Y-59529238D02*
X151985338Y-58195904D01*
X151985338Y-58386380D02*
X151890100Y-58291142D01*
X151890100Y-58291142D02*
X151699624Y-58195904D01*
X151699624Y-58195904D02*
X151413909Y-58195904D01*
X151413909Y-58195904D02*
X151223433Y-58291142D01*
X151223433Y-58291142D02*
X151128195Y-58481619D01*
X151128195Y-58481619D02*
X151128195Y-59529238D01*
X151128195Y-58481619D02*
X151032957Y-58291142D01*
X151032957Y-58291142D02*
X150842481Y-58195904D01*
X150842481Y-58195904D02*
X150556767Y-58195904D01*
X150556767Y-58195904D02*
X150366290Y-58291142D01*
X150366290Y-58291142D02*
X150271052Y-58481619D01*
X150271052Y-58481619D02*
X150271052Y-59529238D01*
X149318671Y-58195904D02*
X149318671Y-60195904D01*
X149318671Y-58291142D02*
X149128195Y-58195904D01*
X149128195Y-58195904D02*
X148747242Y-58195904D01*
X148747242Y-58195904D02*
X148556766Y-58291142D01*
X148556766Y-58291142D02*
X148461528Y-58386380D01*
X148461528Y-58386380D02*
X148366290Y-58576857D01*
X148366290Y-58576857D02*
X148366290Y-59148285D01*
X148366290Y-59148285D02*
X148461528Y-59338761D01*
X148461528Y-59338761D02*
X148556766Y-59434000D01*
X148556766Y-59434000D02*
X148747242Y-59529238D01*
X148747242Y-59529238D02*
X149128195Y-59529238D01*
X149128195Y-59529238D02*
X149318671Y-59434000D01*
X146652004Y-59529238D02*
X146652004Y-58481619D01*
X146652004Y-58481619D02*
X146747242Y-58291142D01*
X146747242Y-58291142D02*
X146937718Y-58195904D01*
X146937718Y-58195904D02*
X147318671Y-58195904D01*
X147318671Y-58195904D02*
X147509147Y-58291142D01*
X146652004Y-59434000D02*
X146842480Y-59529238D01*
X146842480Y-59529238D02*
X147318671Y-59529238D01*
X147318671Y-59529238D02*
X147509147Y-59434000D01*
X147509147Y-59434000D02*
X147604385Y-59243523D01*
X147604385Y-59243523D02*
X147604385Y-59053047D01*
X147604385Y-59053047D02*
X147509147Y-58862571D01*
X147509147Y-58862571D02*
X147318671Y-58767333D01*
X147318671Y-58767333D02*
X146842480Y-58767333D01*
X146842480Y-58767333D02*
X146652004Y-58672095D01*
X145699623Y-58195904D02*
X145699623Y-59529238D01*
X145699623Y-58386380D02*
X145604385Y-58291142D01*
X145604385Y-58291142D02*
X145413909Y-58195904D01*
X145413909Y-58195904D02*
X145128194Y-58195904D01*
X145128194Y-58195904D02*
X144937718Y-58291142D01*
X144937718Y-58291142D02*
X144842480Y-58481619D01*
X144842480Y-58481619D02*
X144842480Y-59529238D01*
X144080575Y-58195904D02*
X143604385Y-59529238D01*
X143128194Y-58195904D02*
X143604385Y-59529238D01*
X143604385Y-59529238D02*
X143794861Y-60005428D01*
X143794861Y-60005428D02*
X143890099Y-60100666D01*
X143890099Y-60100666D02*
X144080575Y-60195904D01*
X141128193Y-58195904D02*
X140366289Y-58195904D01*
X140842479Y-57529238D02*
X140842479Y-59243523D01*
X140842479Y-59243523D02*
X140747241Y-59434000D01*
X140747241Y-59434000D02*
X140556765Y-59529238D01*
X140556765Y-59529238D02*
X140366289Y-59529238D01*
X138842479Y-59529238D02*
X138842479Y-58481619D01*
X138842479Y-58481619D02*
X138937717Y-58291142D01*
X138937717Y-58291142D02*
X139128193Y-58195904D01*
X139128193Y-58195904D02*
X139509146Y-58195904D01*
X139509146Y-58195904D02*
X139699622Y-58291142D01*
X138842479Y-59434000D02*
X139032955Y-59529238D01*
X139032955Y-59529238D02*
X139509146Y-59529238D01*
X139509146Y-59529238D02*
X139699622Y-59434000D01*
X139699622Y-59434000D02*
X139794860Y-59243523D01*
X139794860Y-59243523D02*
X139794860Y-59053047D01*
X139794860Y-59053047D02*
X139699622Y-58862571D01*
X139699622Y-58862571D02*
X139509146Y-58767333D01*
X139509146Y-58767333D02*
X139032955Y-58767333D01*
X139032955Y-58767333D02*
X138842479Y-58672095D01*
X137604384Y-59529238D02*
X137794860Y-59434000D01*
X137794860Y-59434000D02*
X137890098Y-59243523D01*
X137890098Y-59243523D02*
X137890098Y-57529238D01*
X136842479Y-59529238D02*
X136842479Y-57529238D01*
X136652003Y-58767333D02*
X136080574Y-59529238D01*
X136080574Y-58195904D02*
X136842479Y-58957809D01*
X135318669Y-59434000D02*
X135128193Y-59529238D01*
X135128193Y-59529238D02*
X134747241Y-59529238D01*
X134747241Y-59529238D02*
X134556764Y-59434000D01*
X134556764Y-59434000D02*
X134461526Y-59243523D01*
X134461526Y-59243523D02*
X134461526Y-59148285D01*
X134461526Y-59148285D02*
X134556764Y-58957809D01*
X134556764Y-58957809D02*
X134747241Y-58862571D01*
X134747241Y-58862571D02*
X135032955Y-58862571D01*
X135032955Y-58862571D02*
X135223431Y-58767333D01*
X135223431Y-58767333D02*
X135318669Y-58576857D01*
X135318669Y-58576857D02*
X135318669Y-58481619D01*
X135318669Y-58481619D02*
X135223431Y-58291142D01*
X135223431Y-58291142D02*
X135032955Y-58195904D01*
X135032955Y-58195904D02*
X134747241Y-58195904D01*
X134747241Y-58195904D02*
X134556764Y-58291142D01*
X155690100Y-65234000D02*
X155404386Y-65329238D01*
X155404386Y-65329238D02*
X154928195Y-65329238D01*
X154928195Y-65329238D02*
X154737719Y-65234000D01*
X154737719Y-65234000D02*
X154642481Y-65138761D01*
X154642481Y-65138761D02*
X154547243Y-64948285D01*
X154547243Y-64948285D02*
X154547243Y-64757809D01*
X154547243Y-64757809D02*
X154642481Y-64567333D01*
X154642481Y-64567333D02*
X154737719Y-64472095D01*
X154737719Y-64472095D02*
X154928195Y-64376857D01*
X154928195Y-64376857D02*
X155309148Y-64281619D01*
X155309148Y-64281619D02*
X155499624Y-64186380D01*
X155499624Y-64186380D02*
X155594862Y-64091142D01*
X155594862Y-64091142D02*
X155690100Y-63900666D01*
X155690100Y-63900666D02*
X155690100Y-63710190D01*
X155690100Y-63710190D02*
X155594862Y-63519714D01*
X155594862Y-63519714D02*
X155499624Y-63424476D01*
X155499624Y-63424476D02*
X155309148Y-63329238D01*
X155309148Y-63329238D02*
X154832957Y-63329238D01*
X154832957Y-63329238D02*
X154547243Y-63424476D01*
X153690100Y-65329238D02*
X153690100Y-63995904D01*
X153690100Y-63329238D02*
X153785338Y-63424476D01*
X153785338Y-63424476D02*
X153690100Y-63519714D01*
X153690100Y-63519714D02*
X153594862Y-63424476D01*
X153594862Y-63424476D02*
X153690100Y-63329238D01*
X153690100Y-63329238D02*
X153690100Y-63519714D01*
X153023433Y-63995904D02*
X152261529Y-63995904D01*
X152737719Y-63329238D02*
X152737719Y-65043523D01*
X152737719Y-65043523D02*
X152642481Y-65234000D01*
X152642481Y-65234000D02*
X152452005Y-65329238D01*
X152452005Y-65329238D02*
X152261529Y-65329238D01*
X150832957Y-65234000D02*
X151023433Y-65329238D01*
X151023433Y-65329238D02*
X151404386Y-65329238D01*
X151404386Y-65329238D02*
X151594862Y-65234000D01*
X151594862Y-65234000D02*
X151690100Y-65043523D01*
X151690100Y-65043523D02*
X151690100Y-64281619D01*
X151690100Y-64281619D02*
X151594862Y-64091142D01*
X151594862Y-64091142D02*
X151404386Y-63995904D01*
X151404386Y-63995904D02*
X151023433Y-63995904D01*
X151023433Y-63995904D02*
X150832957Y-64091142D01*
X150832957Y-64091142D02*
X150737719Y-64281619D01*
X150737719Y-64281619D02*
X150737719Y-64472095D01*
X150737719Y-64472095D02*
X151690100Y-64662571D01*
X148642480Y-63995904D02*
X147880576Y-63995904D01*
X148356766Y-63329238D02*
X148356766Y-65043523D01*
X148356766Y-65043523D02*
X148261528Y-65234000D01*
X148261528Y-65234000D02*
X148071052Y-65329238D01*
X148071052Y-65329238D02*
X147880576Y-65329238D01*
X147213909Y-65329238D02*
X147213909Y-63995904D01*
X147213909Y-64376857D02*
X147118671Y-64186380D01*
X147118671Y-64186380D02*
X147023433Y-64091142D01*
X147023433Y-64091142D02*
X146832957Y-63995904D01*
X146832957Y-63995904D02*
X146642480Y-63995904D01*
X145975814Y-65329238D02*
X145975814Y-63995904D01*
X145975814Y-63329238D02*
X146071052Y-63424476D01*
X146071052Y-63424476D02*
X145975814Y-63519714D01*
X145975814Y-63519714D02*
X145880576Y-63424476D01*
X145880576Y-63424476D02*
X145975814Y-63329238D01*
X145975814Y-63329238D02*
X145975814Y-63519714D01*
X145023433Y-63995904D02*
X145023433Y-65995904D01*
X145023433Y-64091142D02*
X144832957Y-63995904D01*
X144832957Y-63995904D02*
X144452004Y-63995904D01*
X144452004Y-63995904D02*
X144261528Y-64091142D01*
X144261528Y-64091142D02*
X144166290Y-64186380D01*
X144166290Y-64186380D02*
X144071052Y-64376857D01*
X144071052Y-64376857D02*
X144071052Y-64948285D01*
X144071052Y-64948285D02*
X144166290Y-65138761D01*
X144166290Y-65138761D02*
X144261528Y-65234000D01*
X144261528Y-65234000D02*
X144452004Y-65329238D01*
X144452004Y-65329238D02*
X144832957Y-65329238D01*
X144832957Y-65329238D02*
X145023433Y-65234000D01*
X143309147Y-65234000D02*
X143118671Y-65329238D01*
X143118671Y-65329238D02*
X142737719Y-65329238D01*
X142737719Y-65329238D02*
X142547242Y-65234000D01*
X142547242Y-65234000D02*
X142452004Y-65043523D01*
X142452004Y-65043523D02*
X142452004Y-64948285D01*
X142452004Y-64948285D02*
X142547242Y-64757809D01*
X142547242Y-64757809D02*
X142737719Y-64662571D01*
X142737719Y-64662571D02*
X143023433Y-64662571D01*
X143023433Y-64662571D02*
X143213909Y-64567333D01*
X143213909Y-64567333D02*
X143309147Y-64376857D01*
X143309147Y-64376857D02*
X143309147Y-64281619D01*
X143309147Y-64281619D02*
X143213909Y-64091142D01*
X143213909Y-64091142D02*
X143023433Y-63995904D01*
X143023433Y-63995904D02*
X142737719Y-63995904D01*
X142737719Y-63995904D02*
X142547242Y-64091142D01*
X125452005Y-65338761D02*
X125547243Y-65434000D01*
X125547243Y-65434000D02*
X125832957Y-65529238D01*
X125832957Y-65529238D02*
X126023433Y-65529238D01*
X126023433Y-65529238D02*
X126309148Y-65434000D01*
X126309148Y-65434000D02*
X126499624Y-65243523D01*
X126499624Y-65243523D02*
X126594862Y-65053047D01*
X126594862Y-65053047D02*
X126690100Y-64672095D01*
X126690100Y-64672095D02*
X126690100Y-64386380D01*
X126690100Y-64386380D02*
X126594862Y-64005428D01*
X126594862Y-64005428D02*
X126499624Y-63814952D01*
X126499624Y-63814952D02*
X126309148Y-63624476D01*
X126309148Y-63624476D02*
X126023433Y-63529238D01*
X126023433Y-63529238D02*
X125832957Y-63529238D01*
X125832957Y-63529238D02*
X125547243Y-63624476D01*
X125547243Y-63624476D02*
X125452005Y-63719714D01*
X124309148Y-65529238D02*
X124499624Y-65434000D01*
X124499624Y-65434000D02*
X124594862Y-65338761D01*
X124594862Y-65338761D02*
X124690100Y-65148285D01*
X124690100Y-65148285D02*
X124690100Y-64576857D01*
X124690100Y-64576857D02*
X124594862Y-64386380D01*
X124594862Y-64386380D02*
X124499624Y-64291142D01*
X124499624Y-64291142D02*
X124309148Y-64195904D01*
X124309148Y-64195904D02*
X124023433Y-64195904D01*
X124023433Y-64195904D02*
X123832957Y-64291142D01*
X123832957Y-64291142D02*
X123737719Y-64386380D01*
X123737719Y-64386380D02*
X123642481Y-64576857D01*
X123642481Y-64576857D02*
X123642481Y-65148285D01*
X123642481Y-65148285D02*
X123737719Y-65338761D01*
X123737719Y-65338761D02*
X123832957Y-65434000D01*
X123832957Y-65434000D02*
X124023433Y-65529238D01*
X124023433Y-65529238D02*
X124309148Y-65529238D01*
X122785338Y-65529238D02*
X122785338Y-64195904D01*
X122785338Y-64386380D02*
X122690100Y-64291142D01*
X122690100Y-64291142D02*
X122499624Y-64195904D01*
X122499624Y-64195904D02*
X122213909Y-64195904D01*
X122213909Y-64195904D02*
X122023433Y-64291142D01*
X122023433Y-64291142D02*
X121928195Y-64481619D01*
X121928195Y-64481619D02*
X121928195Y-65529238D01*
X121928195Y-64481619D02*
X121832957Y-64291142D01*
X121832957Y-64291142D02*
X121642481Y-64195904D01*
X121642481Y-64195904D02*
X121356767Y-64195904D01*
X121356767Y-64195904D02*
X121166290Y-64291142D01*
X121166290Y-64291142D02*
X121071052Y-64481619D01*
X121071052Y-64481619D02*
X121071052Y-65529238D01*
X120118671Y-64195904D02*
X120118671Y-66195904D01*
X120118671Y-64291142D02*
X119928195Y-64195904D01*
X119928195Y-64195904D02*
X119547242Y-64195904D01*
X119547242Y-64195904D02*
X119356766Y-64291142D01*
X119356766Y-64291142D02*
X119261528Y-64386380D01*
X119261528Y-64386380D02*
X119166290Y-64576857D01*
X119166290Y-64576857D02*
X119166290Y-65148285D01*
X119166290Y-65148285D02*
X119261528Y-65338761D01*
X119261528Y-65338761D02*
X119356766Y-65434000D01*
X119356766Y-65434000D02*
X119547242Y-65529238D01*
X119547242Y-65529238D02*
X119928195Y-65529238D01*
X119928195Y-65529238D02*
X120118671Y-65434000D01*
X117547242Y-65434000D02*
X117737718Y-65529238D01*
X117737718Y-65529238D02*
X118118671Y-65529238D01*
X118118671Y-65529238D02*
X118309147Y-65434000D01*
X118309147Y-65434000D02*
X118404385Y-65243523D01*
X118404385Y-65243523D02*
X118404385Y-64481619D01*
X118404385Y-64481619D02*
X118309147Y-64291142D01*
X118309147Y-64291142D02*
X118118671Y-64195904D01*
X118118671Y-64195904D02*
X117737718Y-64195904D01*
X117737718Y-64195904D02*
X117547242Y-64291142D01*
X117547242Y-64291142D02*
X117452004Y-64481619D01*
X117452004Y-64481619D02*
X117452004Y-64672095D01*
X117452004Y-64672095D02*
X118404385Y-64862571D01*
X116880575Y-64195904D02*
X116118671Y-64195904D01*
X116594861Y-63529238D02*
X116594861Y-65243523D01*
X116594861Y-65243523D02*
X116499623Y-65434000D01*
X116499623Y-65434000D02*
X116309147Y-65529238D01*
X116309147Y-65529238D02*
X116118671Y-65529238D01*
X115452004Y-65529238D02*
X115452004Y-64195904D01*
X115452004Y-63529238D02*
X115547242Y-63624476D01*
X115547242Y-63624476D02*
X115452004Y-63719714D01*
X115452004Y-63719714D02*
X115356766Y-63624476D01*
X115356766Y-63624476D02*
X115452004Y-63529238D01*
X115452004Y-63529238D02*
X115452004Y-63719714D01*
X114785337Y-64195904D02*
X114023433Y-64195904D01*
X114499623Y-63529238D02*
X114499623Y-65243523D01*
X114499623Y-65243523D02*
X114404385Y-65434000D01*
X114404385Y-65434000D02*
X114213909Y-65529238D01*
X114213909Y-65529238D02*
X114023433Y-65529238D01*
X113356766Y-65529238D02*
X113356766Y-64195904D01*
X113356766Y-63529238D02*
X113452004Y-63624476D01*
X113452004Y-63624476D02*
X113356766Y-63719714D01*
X113356766Y-63719714D02*
X113261528Y-63624476D01*
X113261528Y-63624476D02*
X113356766Y-63529238D01*
X113356766Y-63529238D02*
X113356766Y-63719714D01*
X112118671Y-65529238D02*
X112309147Y-65434000D01*
X112309147Y-65434000D02*
X112404385Y-65338761D01*
X112404385Y-65338761D02*
X112499623Y-65148285D01*
X112499623Y-65148285D02*
X112499623Y-64576857D01*
X112499623Y-64576857D02*
X112404385Y-64386380D01*
X112404385Y-64386380D02*
X112309147Y-64291142D01*
X112309147Y-64291142D02*
X112118671Y-64195904D01*
X112118671Y-64195904D02*
X111832956Y-64195904D01*
X111832956Y-64195904D02*
X111642480Y-64291142D01*
X111642480Y-64291142D02*
X111547242Y-64386380D01*
X111547242Y-64386380D02*
X111452004Y-64576857D01*
X111452004Y-64576857D02*
X111452004Y-65148285D01*
X111452004Y-65148285D02*
X111547242Y-65338761D01*
X111547242Y-65338761D02*
X111642480Y-65434000D01*
X111642480Y-65434000D02*
X111832956Y-65529238D01*
X111832956Y-65529238D02*
X112118671Y-65529238D01*
X110594861Y-64195904D02*
X110594861Y-65529238D01*
X110594861Y-64386380D02*
X110499623Y-64291142D01*
X110499623Y-64291142D02*
X110309147Y-64195904D01*
X110309147Y-64195904D02*
X110023432Y-64195904D01*
X110023432Y-64195904D02*
X109832956Y-64291142D01*
X109832956Y-64291142D02*
X109737718Y-64481619D01*
X109737718Y-64481619D02*
X109737718Y-65529238D01*
X108880575Y-65434000D02*
X108690099Y-65529238D01*
X108690099Y-65529238D02*
X108309147Y-65529238D01*
X108309147Y-65529238D02*
X108118670Y-65434000D01*
X108118670Y-65434000D02*
X108023432Y-65243523D01*
X108023432Y-65243523D02*
X108023432Y-65148285D01*
X108023432Y-65148285D02*
X108118670Y-64957809D01*
X108118670Y-64957809D02*
X108309147Y-64862571D01*
X108309147Y-64862571D02*
X108594861Y-64862571D01*
X108594861Y-64862571D02*
X108785337Y-64767333D01*
X108785337Y-64767333D02*
X108880575Y-64576857D01*
X108880575Y-64576857D02*
X108880575Y-64481619D01*
X108880575Y-64481619D02*
X108785337Y-64291142D01*
X108785337Y-64291142D02*
X108594861Y-64195904D01*
X108594861Y-64195904D02*
X108309147Y-64195904D01*
X108309147Y-64195904D02*
X108118670Y-64291142D01*
X125452005Y-59529238D02*
X126118672Y-58576857D01*
X126594862Y-59529238D02*
X126594862Y-57529238D01*
X126594862Y-57529238D02*
X125832957Y-57529238D01*
X125832957Y-57529238D02*
X125642481Y-57624476D01*
X125642481Y-57624476D02*
X125547243Y-57719714D01*
X125547243Y-57719714D02*
X125452005Y-57910190D01*
X125452005Y-57910190D02*
X125452005Y-58195904D01*
X125452005Y-58195904D02*
X125547243Y-58386380D01*
X125547243Y-58386380D02*
X125642481Y-58481619D01*
X125642481Y-58481619D02*
X125832957Y-58576857D01*
X125832957Y-58576857D02*
X126594862Y-58576857D01*
X124309148Y-59529238D02*
X124499624Y-59434000D01*
X124499624Y-59434000D02*
X124594862Y-59338761D01*
X124594862Y-59338761D02*
X124690100Y-59148285D01*
X124690100Y-59148285D02*
X124690100Y-58576857D01*
X124690100Y-58576857D02*
X124594862Y-58386380D01*
X124594862Y-58386380D02*
X124499624Y-58291142D01*
X124499624Y-58291142D02*
X124309148Y-58195904D01*
X124309148Y-58195904D02*
X124023433Y-58195904D01*
X124023433Y-58195904D02*
X123832957Y-58291142D01*
X123832957Y-58291142D02*
X123737719Y-58386380D01*
X123737719Y-58386380D02*
X123642481Y-58576857D01*
X123642481Y-58576857D02*
X123642481Y-59148285D01*
X123642481Y-59148285D02*
X123737719Y-59338761D01*
X123737719Y-59338761D02*
X123832957Y-59434000D01*
X123832957Y-59434000D02*
X124023433Y-59529238D01*
X124023433Y-59529238D02*
X124309148Y-59529238D01*
X122785338Y-59529238D02*
X122785338Y-57529238D01*
X122785338Y-58291142D02*
X122594862Y-58195904D01*
X122594862Y-58195904D02*
X122213909Y-58195904D01*
X122213909Y-58195904D02*
X122023433Y-58291142D01*
X122023433Y-58291142D02*
X121928195Y-58386380D01*
X121928195Y-58386380D02*
X121832957Y-58576857D01*
X121832957Y-58576857D02*
X121832957Y-59148285D01*
X121832957Y-59148285D02*
X121928195Y-59338761D01*
X121928195Y-59338761D02*
X122023433Y-59434000D01*
X122023433Y-59434000D02*
X122213909Y-59529238D01*
X122213909Y-59529238D02*
X122594862Y-59529238D01*
X122594862Y-59529238D02*
X122785338Y-59434000D01*
X120690100Y-59529238D02*
X120880576Y-59434000D01*
X120880576Y-59434000D02*
X120975814Y-59338761D01*
X120975814Y-59338761D02*
X121071052Y-59148285D01*
X121071052Y-59148285D02*
X121071052Y-58576857D01*
X121071052Y-58576857D02*
X120975814Y-58386380D01*
X120975814Y-58386380D02*
X120880576Y-58291142D01*
X120880576Y-58291142D02*
X120690100Y-58195904D01*
X120690100Y-58195904D02*
X120404385Y-58195904D01*
X120404385Y-58195904D02*
X120213909Y-58291142D01*
X120213909Y-58291142D02*
X120118671Y-58386380D01*
X120118671Y-58386380D02*
X120023433Y-58576857D01*
X120023433Y-58576857D02*
X120023433Y-59148285D01*
X120023433Y-59148285D02*
X120118671Y-59338761D01*
X120118671Y-59338761D02*
X120213909Y-59434000D01*
X120213909Y-59434000D02*
X120404385Y-59529238D01*
X120404385Y-59529238D02*
X120690100Y-59529238D01*
X119452004Y-58195904D02*
X118690100Y-58195904D01*
X119166290Y-57529238D02*
X119166290Y-59243523D01*
X119166290Y-59243523D02*
X119071052Y-59434000D01*
X119071052Y-59434000D02*
X118880576Y-59529238D01*
X118880576Y-59529238D02*
X118690100Y-59529238D01*
X118023433Y-59529238D02*
X118023433Y-58195904D01*
X118023433Y-57529238D02*
X118118671Y-57624476D01*
X118118671Y-57624476D02*
X118023433Y-57719714D01*
X118023433Y-57719714D02*
X117928195Y-57624476D01*
X117928195Y-57624476D02*
X118023433Y-57529238D01*
X118023433Y-57529238D02*
X118023433Y-57719714D01*
X116213909Y-59434000D02*
X116404385Y-59529238D01*
X116404385Y-59529238D02*
X116785338Y-59529238D01*
X116785338Y-59529238D02*
X116975814Y-59434000D01*
X116975814Y-59434000D02*
X117071052Y-59338761D01*
X117071052Y-59338761D02*
X117166290Y-59148285D01*
X117166290Y-59148285D02*
X117166290Y-58576857D01*
X117166290Y-58576857D02*
X117071052Y-58386380D01*
X117071052Y-58386380D02*
X116975814Y-58291142D01*
X116975814Y-58291142D02*
X116785338Y-58195904D01*
X116785338Y-58195904D02*
X116404385Y-58195904D01*
X116404385Y-58195904D02*
X116213909Y-58291142D01*
X115452004Y-59434000D02*
X115261528Y-59529238D01*
X115261528Y-59529238D02*
X114880576Y-59529238D01*
X114880576Y-59529238D02*
X114690099Y-59434000D01*
X114690099Y-59434000D02*
X114594861Y-59243523D01*
X114594861Y-59243523D02*
X114594861Y-59148285D01*
X114594861Y-59148285D02*
X114690099Y-58957809D01*
X114690099Y-58957809D02*
X114880576Y-58862571D01*
X114880576Y-58862571D02*
X115166290Y-58862571D01*
X115166290Y-58862571D02*
X115356766Y-58767333D01*
X115356766Y-58767333D02*
X115452004Y-58576857D01*
X115452004Y-58576857D02*
X115452004Y-58481619D01*
X115452004Y-58481619D02*
X115356766Y-58291142D01*
X115356766Y-58291142D02*
X115166290Y-58195904D01*
X115166290Y-58195904D02*
X114880576Y-58195904D01*
X114880576Y-58195904D02*
X114690099Y-58291142D01*
X111356765Y-59434000D02*
X111547241Y-59529238D01*
X111547241Y-59529238D02*
X111928194Y-59529238D01*
X111928194Y-59529238D02*
X112118670Y-59434000D01*
X112118670Y-59434000D02*
X112213908Y-59338761D01*
X112213908Y-59338761D02*
X112309146Y-59148285D01*
X112309146Y-59148285D02*
X112309146Y-58576857D01*
X112309146Y-58576857D02*
X112213908Y-58386380D01*
X112213908Y-58386380D02*
X112118670Y-58291142D01*
X112118670Y-58291142D02*
X111928194Y-58195904D01*
X111928194Y-58195904D02*
X111547241Y-58195904D01*
X111547241Y-58195904D02*
X111356765Y-58291142D01*
X110213908Y-59529238D02*
X110404384Y-59434000D01*
X110404384Y-59434000D02*
X110499622Y-59243523D01*
X110499622Y-59243523D02*
X110499622Y-57529238D01*
X108594860Y-58195904D02*
X108594860Y-59529238D01*
X109452003Y-58195904D02*
X109452003Y-59243523D01*
X109452003Y-59243523D02*
X109356765Y-59434000D01*
X109356765Y-59434000D02*
X109166289Y-59529238D01*
X109166289Y-59529238D02*
X108880574Y-59529238D01*
X108880574Y-59529238D02*
X108690098Y-59434000D01*
X108690098Y-59434000D02*
X108594860Y-59338761D01*
X107642479Y-59529238D02*
X107642479Y-57529238D01*
X107642479Y-58291142D02*
X107452003Y-58195904D01*
X107452003Y-58195904D02*
X107071050Y-58195904D01*
X107071050Y-58195904D02*
X106880574Y-58291142D01*
X106880574Y-58291142D02*
X106785336Y-58386380D01*
X106785336Y-58386380D02*
X106690098Y-58576857D01*
X106690098Y-58576857D02*
X106690098Y-59148285D01*
X106690098Y-59148285D02*
X106785336Y-59338761D01*
X106785336Y-59338761D02*
X106880574Y-59434000D01*
X106880574Y-59434000D02*
X107071050Y-59529238D01*
X107071050Y-59529238D02*
X107452003Y-59529238D01*
X107452003Y-59529238D02*
X107642479Y-59434000D01*
X155880576Y-69529238D02*
X154737719Y-69529238D01*
X155309148Y-71529238D02*
X155309148Y-69529238D01*
X153309147Y-71434000D02*
X153499623Y-71529238D01*
X153499623Y-71529238D02*
X153880576Y-71529238D01*
X153880576Y-71529238D02*
X154071052Y-71434000D01*
X154071052Y-71434000D02*
X154166290Y-71243523D01*
X154166290Y-71243523D02*
X154166290Y-70481619D01*
X154166290Y-70481619D02*
X154071052Y-70291142D01*
X154071052Y-70291142D02*
X153880576Y-70195904D01*
X153880576Y-70195904D02*
X153499623Y-70195904D01*
X153499623Y-70195904D02*
X153309147Y-70291142D01*
X153309147Y-70291142D02*
X153213909Y-70481619D01*
X153213909Y-70481619D02*
X153213909Y-70672095D01*
X153213909Y-70672095D02*
X154166290Y-70862571D01*
X151499623Y-71434000D02*
X151690099Y-71529238D01*
X151690099Y-71529238D02*
X152071052Y-71529238D01*
X152071052Y-71529238D02*
X152261528Y-71434000D01*
X152261528Y-71434000D02*
X152356766Y-71338761D01*
X152356766Y-71338761D02*
X152452004Y-71148285D01*
X152452004Y-71148285D02*
X152452004Y-70576857D01*
X152452004Y-70576857D02*
X152356766Y-70386380D01*
X152356766Y-70386380D02*
X152261528Y-70291142D01*
X152261528Y-70291142D02*
X152071052Y-70195904D01*
X152071052Y-70195904D02*
X151690099Y-70195904D01*
X151690099Y-70195904D02*
X151499623Y-70291142D01*
X150642480Y-71529238D02*
X150642480Y-69529238D01*
X149785337Y-71529238D02*
X149785337Y-70481619D01*
X149785337Y-70481619D02*
X149880575Y-70291142D01*
X149880575Y-70291142D02*
X150071051Y-70195904D01*
X150071051Y-70195904D02*
X150356766Y-70195904D01*
X150356766Y-70195904D02*
X150547242Y-70291142D01*
X150547242Y-70291142D02*
X150642480Y-70386380D01*
X148928194Y-71434000D02*
X148642480Y-71529238D01*
X148642480Y-71529238D02*
X148166289Y-71529238D01*
X148166289Y-71529238D02*
X147975813Y-71434000D01*
X147975813Y-71434000D02*
X147880575Y-71338761D01*
X147880575Y-71338761D02*
X147785337Y-71148285D01*
X147785337Y-71148285D02*
X147785337Y-70957809D01*
X147785337Y-70957809D02*
X147880575Y-70767333D01*
X147880575Y-70767333D02*
X147975813Y-70672095D01*
X147975813Y-70672095D02*
X148166289Y-70576857D01*
X148166289Y-70576857D02*
X148547242Y-70481619D01*
X148547242Y-70481619D02*
X148737718Y-70386380D01*
X148737718Y-70386380D02*
X148832956Y-70291142D01*
X148832956Y-70291142D02*
X148928194Y-70100666D01*
X148928194Y-70100666D02*
X148928194Y-69910190D01*
X148928194Y-69910190D02*
X148832956Y-69719714D01*
X148832956Y-69719714D02*
X148737718Y-69624476D01*
X148737718Y-69624476D02*
X148547242Y-69529238D01*
X148547242Y-69529238D02*
X148071051Y-69529238D01*
X148071051Y-69529238D02*
X147785337Y-69624476D01*
X146166289Y-71434000D02*
X146356765Y-71529238D01*
X146356765Y-71529238D02*
X146737718Y-71529238D01*
X146737718Y-71529238D02*
X146928194Y-71434000D01*
X146928194Y-71434000D02*
X147023432Y-71243523D01*
X147023432Y-71243523D02*
X147023432Y-70481619D01*
X147023432Y-70481619D02*
X146928194Y-70291142D01*
X146928194Y-70291142D02*
X146737718Y-70195904D01*
X146737718Y-70195904D02*
X146356765Y-70195904D01*
X146356765Y-70195904D02*
X146166289Y-70291142D01*
X146166289Y-70291142D02*
X146071051Y-70481619D01*
X146071051Y-70481619D02*
X146071051Y-70672095D01*
X146071051Y-70672095D02*
X147023432Y-70862571D01*
X145309146Y-71434000D02*
X145118670Y-71529238D01*
X145118670Y-71529238D02*
X144737718Y-71529238D01*
X144737718Y-71529238D02*
X144547241Y-71434000D01*
X144547241Y-71434000D02*
X144452003Y-71243523D01*
X144452003Y-71243523D02*
X144452003Y-71148285D01*
X144452003Y-71148285D02*
X144547241Y-70957809D01*
X144547241Y-70957809D02*
X144737718Y-70862571D01*
X144737718Y-70862571D02*
X145023432Y-70862571D01*
X145023432Y-70862571D02*
X145213908Y-70767333D01*
X145213908Y-70767333D02*
X145309146Y-70576857D01*
X145309146Y-70576857D02*
X145309146Y-70481619D01*
X145309146Y-70481619D02*
X145213908Y-70291142D01*
X145213908Y-70291142D02*
X145023432Y-70195904D01*
X145023432Y-70195904D02*
X144737718Y-70195904D01*
X144737718Y-70195904D02*
X144547241Y-70291142D01*
X143594860Y-71529238D02*
X143594860Y-69529238D01*
X142737717Y-71529238D02*
X142737717Y-70481619D01*
X142737717Y-70481619D02*
X142832955Y-70291142D01*
X142832955Y-70291142D02*
X143023431Y-70195904D01*
X143023431Y-70195904D02*
X143309146Y-70195904D01*
X143309146Y-70195904D02*
X143499622Y-70291142D01*
X143499622Y-70291142D02*
X143594860Y-70386380D01*
X129290100Y-76634000D02*
X129004386Y-76729238D01*
X129004386Y-76729238D02*
X128528195Y-76729238D01*
X128528195Y-76729238D02*
X128337719Y-76634000D01*
X128337719Y-76634000D02*
X128242481Y-76538761D01*
X128242481Y-76538761D02*
X128147243Y-76348285D01*
X128147243Y-76348285D02*
X128147243Y-76157809D01*
X128147243Y-76157809D02*
X128242481Y-75967333D01*
X128242481Y-75967333D02*
X128337719Y-75872095D01*
X128337719Y-75872095D02*
X128528195Y-75776857D01*
X128528195Y-75776857D02*
X128909148Y-75681619D01*
X128909148Y-75681619D02*
X129099624Y-75586380D01*
X129099624Y-75586380D02*
X129194862Y-75491142D01*
X129194862Y-75491142D02*
X129290100Y-75300666D01*
X129290100Y-75300666D02*
X129290100Y-75110190D01*
X129290100Y-75110190D02*
X129194862Y-74919714D01*
X129194862Y-74919714D02*
X129099624Y-74824476D01*
X129099624Y-74824476D02*
X128909148Y-74729238D01*
X128909148Y-74729238D02*
X128432957Y-74729238D01*
X128432957Y-74729238D02*
X128147243Y-74824476D01*
X127290100Y-75395904D02*
X127290100Y-77395904D01*
X127290100Y-75491142D02*
X127099624Y-75395904D01*
X127099624Y-75395904D02*
X126718671Y-75395904D01*
X126718671Y-75395904D02*
X126528195Y-75491142D01*
X126528195Y-75491142D02*
X126432957Y-75586380D01*
X126432957Y-75586380D02*
X126337719Y-75776857D01*
X126337719Y-75776857D02*
X126337719Y-76348285D01*
X126337719Y-76348285D02*
X126432957Y-76538761D01*
X126432957Y-76538761D02*
X126528195Y-76634000D01*
X126528195Y-76634000D02*
X126718671Y-76729238D01*
X126718671Y-76729238D02*
X127099624Y-76729238D01*
X127099624Y-76729238D02*
X127290100Y-76634000D01*
X125194862Y-76729238D02*
X125385338Y-76634000D01*
X125385338Y-76634000D02*
X125480576Y-76538761D01*
X125480576Y-76538761D02*
X125575814Y-76348285D01*
X125575814Y-76348285D02*
X125575814Y-75776857D01*
X125575814Y-75776857D02*
X125480576Y-75586380D01*
X125480576Y-75586380D02*
X125385338Y-75491142D01*
X125385338Y-75491142D02*
X125194862Y-75395904D01*
X125194862Y-75395904D02*
X124909147Y-75395904D01*
X124909147Y-75395904D02*
X124718671Y-75491142D01*
X124718671Y-75491142D02*
X124623433Y-75586380D01*
X124623433Y-75586380D02*
X124528195Y-75776857D01*
X124528195Y-75776857D02*
X124528195Y-76348285D01*
X124528195Y-76348285D02*
X124623433Y-76538761D01*
X124623433Y-76538761D02*
X124718671Y-76634000D01*
X124718671Y-76634000D02*
X124909147Y-76729238D01*
X124909147Y-76729238D02*
X125194862Y-76729238D01*
X123671052Y-75395904D02*
X123671052Y-76729238D01*
X123671052Y-75586380D02*
X123575814Y-75491142D01*
X123575814Y-75491142D02*
X123385338Y-75395904D01*
X123385338Y-75395904D02*
X123099623Y-75395904D01*
X123099623Y-75395904D02*
X122909147Y-75491142D01*
X122909147Y-75491142D02*
X122813909Y-75681619D01*
X122813909Y-75681619D02*
X122813909Y-76729238D01*
X121956766Y-76634000D02*
X121766290Y-76729238D01*
X121766290Y-76729238D02*
X121385338Y-76729238D01*
X121385338Y-76729238D02*
X121194861Y-76634000D01*
X121194861Y-76634000D02*
X121099623Y-76443523D01*
X121099623Y-76443523D02*
X121099623Y-76348285D01*
X121099623Y-76348285D02*
X121194861Y-76157809D01*
X121194861Y-76157809D02*
X121385338Y-76062571D01*
X121385338Y-76062571D02*
X121671052Y-76062571D01*
X121671052Y-76062571D02*
X121861528Y-75967333D01*
X121861528Y-75967333D02*
X121956766Y-75776857D01*
X121956766Y-75776857D02*
X121956766Y-75681619D01*
X121956766Y-75681619D02*
X121861528Y-75491142D01*
X121861528Y-75491142D02*
X121671052Y-75395904D01*
X121671052Y-75395904D02*
X121385338Y-75395904D01*
X121385338Y-75395904D02*
X121194861Y-75491142D01*
X119956766Y-76729238D02*
X120147242Y-76634000D01*
X120147242Y-76634000D02*
X120242480Y-76538761D01*
X120242480Y-76538761D02*
X120337718Y-76348285D01*
X120337718Y-76348285D02*
X120337718Y-75776857D01*
X120337718Y-75776857D02*
X120242480Y-75586380D01*
X120242480Y-75586380D02*
X120147242Y-75491142D01*
X120147242Y-75491142D02*
X119956766Y-75395904D01*
X119956766Y-75395904D02*
X119671051Y-75395904D01*
X119671051Y-75395904D02*
X119480575Y-75491142D01*
X119480575Y-75491142D02*
X119385337Y-75586380D01*
X119385337Y-75586380D02*
X119290099Y-75776857D01*
X119290099Y-75776857D02*
X119290099Y-76348285D01*
X119290099Y-76348285D02*
X119385337Y-76538761D01*
X119385337Y-76538761D02*
X119480575Y-76634000D01*
X119480575Y-76634000D02*
X119671051Y-76729238D01*
X119671051Y-76729238D02*
X119956766Y-76729238D01*
X118432956Y-76729238D02*
X118432956Y-75395904D01*
X118432956Y-75776857D02*
X118337718Y-75586380D01*
X118337718Y-75586380D02*
X118242480Y-75491142D01*
X118242480Y-75491142D02*
X118052004Y-75395904D01*
X118052004Y-75395904D02*
X117861527Y-75395904D01*
X116432956Y-76634000D02*
X116623432Y-76729238D01*
X116623432Y-76729238D02*
X117004385Y-76729238D01*
X117004385Y-76729238D02*
X117194861Y-76634000D01*
X117194861Y-76634000D02*
X117290099Y-76443523D01*
X117290099Y-76443523D02*
X117290099Y-75681619D01*
X117290099Y-75681619D02*
X117194861Y-75491142D01*
X117194861Y-75491142D02*
X117004385Y-75395904D01*
X117004385Y-75395904D02*
X116623432Y-75395904D01*
X116623432Y-75395904D02*
X116432956Y-75491142D01*
X116432956Y-75491142D02*
X116337718Y-75681619D01*
X116337718Y-75681619D02*
X116337718Y-75872095D01*
X116337718Y-75872095D02*
X117290099Y-76062571D01*
X114623432Y-76729238D02*
X114623432Y-74729238D01*
X114623432Y-76634000D02*
X114813908Y-76729238D01*
X114813908Y-76729238D02*
X115194861Y-76729238D01*
X115194861Y-76729238D02*
X115385337Y-76634000D01*
X115385337Y-76634000D02*
X115480575Y-76538761D01*
X115480575Y-76538761D02*
X115575813Y-76348285D01*
X115575813Y-76348285D02*
X115575813Y-75776857D01*
X115575813Y-75776857D02*
X115480575Y-75586380D01*
X115480575Y-75586380D02*
X115385337Y-75491142D01*
X115385337Y-75491142D02*
X115194861Y-75395904D01*
X115194861Y-75395904D02*
X114813908Y-75395904D01*
X114813908Y-75395904D02*
X114623432Y-75491142D01*
X112147241Y-76729238D02*
X112147241Y-74729238D01*
X112147241Y-75491142D02*
X111956765Y-75395904D01*
X111956765Y-75395904D02*
X111575812Y-75395904D01*
X111575812Y-75395904D02*
X111385336Y-75491142D01*
X111385336Y-75491142D02*
X111290098Y-75586380D01*
X111290098Y-75586380D02*
X111194860Y-75776857D01*
X111194860Y-75776857D02*
X111194860Y-76348285D01*
X111194860Y-76348285D02*
X111290098Y-76538761D01*
X111290098Y-76538761D02*
X111385336Y-76634000D01*
X111385336Y-76634000D02*
X111575812Y-76729238D01*
X111575812Y-76729238D02*
X111956765Y-76729238D01*
X111956765Y-76729238D02*
X112147241Y-76634000D01*
X110528193Y-75395904D02*
X110052003Y-76729238D01*
X109575812Y-75395904D02*
X110052003Y-76729238D01*
X110052003Y-76729238D02*
X110242479Y-77205428D01*
X110242479Y-77205428D02*
X110337717Y-77300666D01*
X110337717Y-77300666D02*
X110528193Y-77395904D01*
X183459427Y-78412664D02*
X183459427Y-76412664D01*
X182507046Y-77079330D02*
X182507046Y-78412664D01*
X182507046Y-77269806D02*
X182411808Y-77174568D01*
X182411808Y-77174568D02*
X182221332Y-77079330D01*
X182221332Y-77079330D02*
X181935617Y-77079330D01*
X181935617Y-77079330D02*
X181745141Y-77174568D01*
X181745141Y-77174568D02*
X181649903Y-77365045D01*
X181649903Y-77365045D02*
X181649903Y-78412664D01*
X180792760Y-78317426D02*
X180602284Y-78412664D01*
X180602284Y-78412664D02*
X180221332Y-78412664D01*
X180221332Y-78412664D02*
X180030855Y-78317426D01*
X180030855Y-78317426D02*
X179935617Y-78126949D01*
X179935617Y-78126949D02*
X179935617Y-78031711D01*
X179935617Y-78031711D02*
X180030855Y-77841235D01*
X180030855Y-77841235D02*
X180221332Y-77745997D01*
X180221332Y-77745997D02*
X180507046Y-77745997D01*
X180507046Y-77745997D02*
X180697522Y-77650759D01*
X180697522Y-77650759D02*
X180792760Y-77460283D01*
X180792760Y-77460283D02*
X180792760Y-77365045D01*
X180792760Y-77365045D02*
X180697522Y-77174568D01*
X180697522Y-77174568D02*
X180507046Y-77079330D01*
X180507046Y-77079330D02*
X180221332Y-77079330D01*
X180221332Y-77079330D02*
X180030855Y-77174568D01*
X179364188Y-77079330D02*
X178602284Y-77079330D01*
X179078474Y-76412664D02*
X179078474Y-78126949D01*
X179078474Y-78126949D02*
X178983236Y-78317426D01*
X178983236Y-78317426D02*
X178792760Y-78412664D01*
X178792760Y-78412664D02*
X178602284Y-78412664D01*
X177078474Y-78412664D02*
X177078474Y-77365045D01*
X177078474Y-77365045D02*
X177173712Y-77174568D01*
X177173712Y-77174568D02*
X177364188Y-77079330D01*
X177364188Y-77079330D02*
X177745141Y-77079330D01*
X177745141Y-77079330D02*
X177935617Y-77174568D01*
X177078474Y-78317426D02*
X177268950Y-78412664D01*
X177268950Y-78412664D02*
X177745141Y-78412664D01*
X177745141Y-78412664D02*
X177935617Y-78317426D01*
X177935617Y-78317426D02*
X178030855Y-78126949D01*
X178030855Y-78126949D02*
X178030855Y-77936473D01*
X178030855Y-77936473D02*
X177935617Y-77745997D01*
X177935617Y-77745997D02*
X177745141Y-77650759D01*
X177745141Y-77650759D02*
X177268950Y-77650759D01*
X177268950Y-77650759D02*
X177078474Y-77555521D01*
X175268950Y-77079330D02*
X175268950Y-78698378D01*
X175268950Y-78698378D02*
X175364188Y-78888854D01*
X175364188Y-78888854D02*
X175459426Y-78984092D01*
X175459426Y-78984092D02*
X175649903Y-79079330D01*
X175649903Y-79079330D02*
X175935617Y-79079330D01*
X175935617Y-79079330D02*
X176126093Y-78984092D01*
X175268950Y-78317426D02*
X175459426Y-78412664D01*
X175459426Y-78412664D02*
X175840379Y-78412664D01*
X175840379Y-78412664D02*
X176030855Y-78317426D01*
X176030855Y-78317426D02*
X176126093Y-78222187D01*
X176126093Y-78222187D02*
X176221331Y-78031711D01*
X176221331Y-78031711D02*
X176221331Y-77460283D01*
X176221331Y-77460283D02*
X176126093Y-77269806D01*
X176126093Y-77269806D02*
X176030855Y-77174568D01*
X176030855Y-77174568D02*
X175840379Y-77079330D01*
X175840379Y-77079330D02*
X175459426Y-77079330D01*
X175459426Y-77079330D02*
X175268950Y-77174568D01*
X174316569Y-78412664D02*
X174316569Y-77079330D01*
X174316569Y-77460283D02*
X174221331Y-77269806D01*
X174221331Y-77269806D02*
X174126093Y-77174568D01*
X174126093Y-77174568D02*
X173935617Y-77079330D01*
X173935617Y-77079330D02*
X173745140Y-77079330D01*
X172221331Y-78412664D02*
X172221331Y-77365045D01*
X172221331Y-77365045D02*
X172316569Y-77174568D01*
X172316569Y-77174568D02*
X172507045Y-77079330D01*
X172507045Y-77079330D02*
X172887998Y-77079330D01*
X172887998Y-77079330D02*
X173078474Y-77174568D01*
X172221331Y-78317426D02*
X172411807Y-78412664D01*
X172411807Y-78412664D02*
X172887998Y-78412664D01*
X172887998Y-78412664D02*
X173078474Y-78317426D01*
X173078474Y-78317426D02*
X173173712Y-78126949D01*
X173173712Y-78126949D02*
X173173712Y-77936473D01*
X173173712Y-77936473D02*
X173078474Y-77745997D01*
X173078474Y-77745997D02*
X172887998Y-77650759D01*
X172887998Y-77650759D02*
X172411807Y-77650759D01*
X172411807Y-77650759D02*
X172221331Y-77555521D01*
X171268950Y-78412664D02*
X171268950Y-77079330D01*
X171268950Y-77269806D02*
X171173712Y-77174568D01*
X171173712Y-77174568D02*
X170983236Y-77079330D01*
X170983236Y-77079330D02*
X170697521Y-77079330D01*
X170697521Y-77079330D02*
X170507045Y-77174568D01*
X170507045Y-77174568D02*
X170411807Y-77365045D01*
X170411807Y-77365045D02*
X170411807Y-78412664D01*
X170411807Y-77365045D02*
X170316569Y-77174568D01*
X170316569Y-77174568D02*
X170126093Y-77079330D01*
X170126093Y-77079330D02*
X169840379Y-77079330D01*
X169840379Y-77079330D02*
X169649902Y-77174568D01*
X169649902Y-77174568D02*
X169554664Y-77365045D01*
X169554664Y-77365045D02*
X169554664Y-78412664D01*
M02*
