%TF.GenerationSoftware,KiCad,Pcbnew,7.0.6-7.0.6~ubuntu22.04.1*%
%TF.CreationDate,2023-09-06T21:51:48+02:00*%
%TF.ProjectId,elecsoc_card,656c6563-736f-4635-9f63-6172642e6b69,rev?*%
%TF.SameCoordinates,Original*%
%TF.FileFunction,Paste,Top*%
%TF.FilePolarity,Positive*%
%FSLAX46Y46*%
G04 Gerber Fmt 4.6, Leading zero omitted, Abs format (unit mm)*
G04 Created by KiCad (PCBNEW 7.0.6-7.0.6~ubuntu22.04.1) date 2023-09-06 21:51:48*
%MOMM*%
%LPD*%
G01*
G04 APERTURE LIST*
G04 Aperture macros list*
%AMRoundRect*
0 Rectangle with rounded corners*
0 $1 Rounding radius*
0 $2 $3 $4 $5 $6 $7 $8 $9 X,Y pos of 4 corners*
0 Add a 4 corners polygon primitive as box body*
4,1,4,$2,$3,$4,$5,$6,$7,$8,$9,$2,$3,0*
0 Add four circle primitives for the rounded corners*
1,1,$1+$1,$2,$3*
1,1,$1+$1,$4,$5*
1,1,$1+$1,$6,$7*
1,1,$1+$1,$8,$9*
0 Add four rect primitives between the rounded corners*
20,1,$1+$1,$2,$3,$4,$5,0*
20,1,$1+$1,$4,$5,$6,$7,0*
20,1,$1+$1,$6,$7,$8,$9,0*
20,1,$1+$1,$8,$9,$2,$3,0*%
G04 Aperture macros list end*
%ADD10RoundRect,0.250000X-0.350000X-0.450000X0.350000X-0.450000X0.350000X0.450000X-0.350000X0.450000X0*%
%ADD11RoundRect,0.250000X0.337500X0.475000X-0.337500X0.475000X-0.337500X-0.475000X0.337500X-0.475000X0*%
%ADD12RoundRect,0.250000X0.450000X-0.325000X0.450000X0.325000X-0.450000X0.325000X-0.450000X-0.325000X0*%
%ADD13RoundRect,0.250000X-0.450000X0.350000X-0.450000X-0.350000X0.450000X-0.350000X0.450000X0.350000X0*%
%ADD14RoundRect,0.150000X-0.825000X-0.150000X0.825000X-0.150000X0.825000X0.150000X-0.825000X0.150000X0*%
%ADD15RoundRect,0.250000X-0.475000X0.337500X-0.475000X-0.337500X0.475000X-0.337500X0.475000X0.337500X0*%
G04 APERTURE END LIST*
D10*
%TO.C,R11*%
X163000000Y-61500000D03*
X165000000Y-61500000D03*
%TD*%
D11*
%TO.C,C2*%
X165000000Y-63500000D03*
X162925000Y-63500000D03*
%TD*%
D12*
%TO.C,D3*%
X133475000Y-79025000D03*
X133475000Y-76975000D03*
%TD*%
D13*
%TO.C,R6*%
X155500000Y-69500000D03*
X155500000Y-71500000D03*
%TD*%
%TO.C,R7*%
X144500000Y-69500000D03*
X144500000Y-71500000D03*
%TD*%
D12*
%TO.C,D4*%
X155475000Y-81025000D03*
X155475000Y-78975000D03*
%TD*%
D10*
%TO.C,R1*%
X167125000Y-63705000D03*
X169125000Y-63705000D03*
%TD*%
D13*
%TO.C,R4*%
X124500000Y-69500000D03*
X124500000Y-71500000D03*
%TD*%
%TO.C,R2*%
X168925000Y-66105000D03*
X168925000Y-68105000D03*
%TD*%
D12*
%TO.C,D5*%
X144475000Y-80025000D03*
X144475000Y-77975000D03*
%TD*%
D13*
%TO.C,R8*%
X144200000Y-94600000D03*
X144200000Y-96600000D03*
%TD*%
%TO.C,R3*%
X112000000Y-69500000D03*
X112000000Y-71500000D03*
%TD*%
D12*
%TO.C,D8*%
X158700000Y-92050000D03*
X158700000Y-90000000D03*
%TD*%
D14*
%TO.C,U1*%
X161250000Y-66100000D03*
X161250000Y-67370000D03*
X161250000Y-68640000D03*
X161250000Y-69910000D03*
X166200000Y-69910000D03*
X166200000Y-68640000D03*
X166200000Y-67370000D03*
X166200000Y-66100000D03*
%TD*%
D12*
%TO.C,D7*%
X153200000Y-92050000D03*
X153200000Y-90000000D03*
%TD*%
D13*
%TO.C,R5*%
X133500000Y-69500000D03*
X133500000Y-71500000D03*
%TD*%
D15*
%TO.C,C1*%
X168925000Y-70267500D03*
X168925000Y-72342500D03*
%TD*%
D12*
%TO.C,D6*%
X144200000Y-92050000D03*
X144200000Y-90000000D03*
%TD*%
%TO.C,D2*%
X124475000Y-77525000D03*
X124475000Y-75475000D03*
%TD*%
D13*
%TO.C,R10*%
X158700000Y-94600000D03*
X158700000Y-96600000D03*
%TD*%
%TO.C,R9*%
X153200000Y-94600000D03*
X153200000Y-96600000D03*
%TD*%
D12*
%TO.C,D1*%
X111975000Y-79525000D03*
X111975000Y-77475000D03*
%TD*%
M02*
