%TF.GenerationSoftware,KiCad,Pcbnew,8.0.4*%
%TF.CreationDate,2024-08-13T13:18:40+01:00*%
%TF.ProjectId,elecsoc_card,656c6563-736f-4635-9f63-6172642e6b69,rev?*%
%TF.SameCoordinates,Original*%
%TF.FileFunction,Copper,L2,Bot*%
%TF.FilePolarity,Positive*%
%FSLAX46Y46*%
G04 Gerber Fmt 4.6, Leading zero omitted, Abs format (unit mm)*
G04 Created by KiCad (PCBNEW 8.0.4) date 2024-08-13 13:18:40*
%MOMM*%
%LPD*%
G01*
G04 APERTURE LIST*
%TA.AperFunction,NonConductor*%
%ADD10C,0.000000*%
%TD*%
%TA.AperFunction,NonConductor*%
%ADD11C,0.026458*%
%TD*%
%ADD12C,0.500000*%
%TA.AperFunction,NonConductor*%
%ADD13C,0.500000*%
%TD*%
%TA.AperFunction,ComponentPad*%
%ADD14R,1.700000X1.700000*%
%TD*%
%TA.AperFunction,ComponentPad*%
%ADD15O,1.700000X1.700000*%
%TD*%
%TA.AperFunction,ViaPad*%
%ADD16C,0.800000*%
%TD*%
%TA.AperFunction,Conductor*%
%ADD17C,0.250000*%
%TD*%
G04 APERTURE END LIST*
D10*
%TA.AperFunction,NonConductor*%
G36*
X169439009Y-95695648D02*
G01*
X170003453Y-95695648D01*
X170003453Y-96260093D01*
X170567899Y-96260093D01*
X170567899Y-96824537D01*
X168874565Y-96824537D01*
X168874565Y-95695648D01*
X168310120Y-95695648D01*
X168310120Y-95131204D01*
X169439009Y-95131204D01*
X169439009Y-95695648D01*
G37*
%TD.AperFunction*%
%TA.AperFunction,NonConductor*%
G36*
X179599009Y-96824537D02*
G01*
X179034565Y-96824537D01*
X179034565Y-96260093D01*
X178470121Y-96260093D01*
X178470121Y-96824537D01*
X177905676Y-96824537D01*
X177905676Y-95695648D01*
X178470121Y-95695648D01*
X178470121Y-94566760D01*
X179034565Y-94566760D01*
X179034565Y-94002314D01*
X179599009Y-94002314D01*
X179599009Y-96824537D01*
G37*
%TD.AperFunction*%
%TA.AperFunction,NonConductor*%
G36*
X170567899Y-83277870D02*
G01*
X168874565Y-83277870D01*
X168874565Y-81584537D01*
X170567899Y-81584537D01*
X170567899Y-83277870D01*
G37*
%TD.AperFunction*%
%TA.AperFunction,NonConductor*%
G36*
X172261232Y-85535648D02*
G01*
X171696787Y-85535648D01*
X171696787Y-84971204D01*
X172261232Y-84971204D01*
X172261232Y-85535648D01*
G37*
%TD.AperFunction*%
%TA.AperFunction,NonConductor*%
G36*
X168310120Y-96260093D02*
G01*
X167745676Y-96260093D01*
X167745676Y-95695648D01*
X168310120Y-95695648D01*
X168310120Y-96260093D01*
G37*
%TD.AperFunction*%
%TA.AperFunction,NonConductor*%
G36*
X181292343Y-91180093D02*
G01*
X180163454Y-91180093D01*
X180163454Y-90615648D01*
X181292343Y-90615648D01*
X181292343Y-91180093D01*
G37*
%TD.AperFunction*%
%TA.AperFunction,NonConductor*%
G36*
X179599009Y-81584537D02*
G01*
X179034565Y-81584537D01*
X179034565Y-81020092D01*
X179599009Y-81020092D01*
X179599009Y-81584537D01*
G37*
%TD.AperFunction*%
%TA.AperFunction,NonConductor*%
G36*
X173954565Y-83277870D02*
G01*
X173390120Y-83277870D01*
X173390120Y-82713426D01*
X173954565Y-82713426D01*
X173954565Y-83277870D01*
G37*
%TD.AperFunction*%
%TA.AperFunction,NonConductor*%
G36*
X184114565Y-96824537D02*
G01*
X180163454Y-96824537D01*
X180163454Y-93437870D01*
X180727898Y-93437870D01*
X180727898Y-96260093D01*
X183550121Y-96260093D01*
X183550121Y-93437870D01*
X180727898Y-93437870D01*
X180163454Y-93437870D01*
X180163454Y-92873426D01*
X184114565Y-92873426D01*
X184114565Y-93437870D01*
X184114565Y-96824537D01*
G37*
%TD.AperFunction*%
%TA.AperFunction,NonConductor*%
G36*
X184114565Y-87793426D02*
G01*
X182985676Y-87793426D01*
X182985676Y-87228981D01*
X184114565Y-87228981D01*
X184114565Y-87793426D01*
G37*
%TD.AperFunction*%
%TA.AperFunction,NonConductor*%
G36*
X180727898Y-86664537D02*
G01*
X180163454Y-86664537D01*
X180163454Y-87228981D01*
X179599009Y-87228981D01*
X179599009Y-86100092D01*
X180727898Y-86100092D01*
X180727898Y-86664537D01*
G37*
%TD.AperFunction*%
%TA.AperFunction,NonConductor*%
G36*
X178470121Y-81584537D02*
G01*
X177905676Y-81584537D01*
X177905676Y-80455648D01*
X178470121Y-80455648D01*
X178470121Y-81584537D01*
G37*
%TD.AperFunction*%
%TA.AperFunction,NonConductor*%
G36*
X176776787Y-86664537D02*
G01*
X177341232Y-86664537D01*
X177341232Y-87793426D01*
X176212343Y-87793426D01*
X176212343Y-88357870D01*
X174519010Y-88357870D01*
X174519010Y-87793426D01*
X175083454Y-87793426D01*
X175083454Y-87228981D01*
X176212343Y-87228981D01*
X176212343Y-86100092D01*
X176776787Y-86100092D01*
X176776787Y-86664537D01*
G37*
%TD.AperFunction*%
%TA.AperFunction,NonConductor*%
G36*
X174519010Y-93437870D02*
G01*
X173954565Y-93437870D01*
X173954565Y-92873426D01*
X174519010Y-92873426D01*
X174519010Y-93437870D01*
G37*
%TD.AperFunction*%
%TA.AperFunction,NonConductor*%
G36*
X182985676Y-95695648D02*
G01*
X181292343Y-95695648D01*
X181292343Y-94002314D01*
X182985676Y-94002314D01*
X182985676Y-95695648D01*
G37*
%TD.AperFunction*%
%TA.AperFunction,NonConductor*%
G36*
X173390120Y-86100092D02*
G01*
X172825676Y-86100092D01*
X172825676Y-85535648D01*
X173390120Y-85535648D01*
X173390120Y-86100092D01*
G37*
%TD.AperFunction*%
%TA.AperFunction,NonConductor*%
G36*
X168310120Y-87228981D02*
G01*
X167745676Y-87228981D01*
X167745676Y-86664537D01*
X168310120Y-86664537D01*
X168310120Y-87228981D01*
G37*
%TD.AperFunction*%
%TA.AperFunction,NonConductor*%
G36*
X168874565Y-86100092D02*
G01*
X168310120Y-86100092D01*
X168310120Y-84971204D01*
X168874565Y-84971204D01*
X168874565Y-86100092D01*
G37*
%TD.AperFunction*%
%TA.AperFunction,NonConductor*%
G36*
X176212343Y-94002314D02*
G01*
X175647898Y-94002314D01*
X175647898Y-93437870D01*
X176212343Y-93437870D01*
X176212343Y-94002314D01*
G37*
%TD.AperFunction*%
%TA.AperFunction,NonConductor*%
G36*
X177341232Y-86100092D02*
G01*
X176776787Y-86100092D01*
X176776787Y-85535648D01*
X177341232Y-85535648D01*
X177341232Y-86100092D01*
G37*
%TD.AperFunction*%
D11*
X116456689Y-80141543D02*
X116732515Y-80159457D01*
X116866797Y-80172512D01*
X116997660Y-80188294D01*
X117124356Y-80206798D01*
X117246137Y-80228022D01*
X117322760Y-80246892D01*
X117438405Y-80280457D01*
X117578233Y-80323821D01*
X117727404Y-80372092D01*
X117871076Y-80420378D01*
X117994409Y-80463784D01*
X118082564Y-80497418D01*
X118108812Y-80509041D01*
X118120700Y-80516386D01*
X118123249Y-80518637D01*
X118128083Y-80522010D01*
X118144104Y-80531845D01*
X118167761Y-80545350D01*
X118198050Y-80561979D01*
X118274505Y-80602438D01*
X118365440Y-80648875D01*
X118411946Y-80672589D01*
X118455331Y-80695388D01*
X118494647Y-80716724D01*
X118528944Y-80736050D01*
X118543914Y-80744789D01*
X118557273Y-80752820D01*
X118568902Y-80760075D01*
X118578683Y-80766485D01*
X118586497Y-80771983D01*
X118592225Y-80776499D01*
X118595749Y-80779965D01*
X118596648Y-80781283D01*
X118596950Y-80782313D01*
X118597123Y-80783294D01*
X118597634Y-80784464D01*
X118599640Y-80787351D01*
X118602900Y-80790925D01*
X118607348Y-80795137D01*
X118619534Y-80805280D01*
X118635657Y-80817390D01*
X118655178Y-80831075D01*
X118677555Y-80845945D01*
X118702248Y-80861607D01*
X118728718Y-80877672D01*
X118742143Y-80885732D01*
X118755197Y-80893745D01*
X118767812Y-80901663D01*
X118779920Y-80909435D01*
X118791453Y-80917013D01*
X118802344Y-80924347D01*
X118812525Y-80931389D01*
X118821928Y-80938089D01*
X118830485Y-80944398D01*
X118838128Y-80950268D01*
X118844791Y-80955648D01*
X118850404Y-80960490D01*
X118854900Y-80964745D01*
X118858212Y-80968363D01*
X118859402Y-80969918D01*
X118860271Y-80971296D01*
X118860810Y-80972490D01*
X118861010Y-80973494D01*
X118861724Y-80975812D01*
X118863713Y-80979099D01*
X118866913Y-80983292D01*
X118871258Y-80988332D01*
X118883120Y-81000703D01*
X118898774Y-81015726D01*
X118917696Y-81032911D01*
X118939363Y-81051770D01*
X118963249Y-81071814D01*
X118988831Y-81092557D01*
X119033958Y-81130008D01*
X119081049Y-81171898D01*
X119129762Y-81217820D01*
X119179752Y-81267367D01*
X119230675Y-81320134D01*
X119282186Y-81375713D01*
X119385601Y-81493684D01*
X119487244Y-81618027D01*
X119584362Y-81745490D01*
X119630365Y-81809376D01*
X119674205Y-81872822D01*
X119715537Y-81935422D01*
X119754019Y-81996770D01*
X119880731Y-82216254D01*
X119996173Y-82444192D01*
X120104791Y-82693270D01*
X120211030Y-82976174D01*
X120319334Y-83305589D01*
X120434148Y-83694200D01*
X120559916Y-84154694D01*
X120701084Y-84699755D01*
X120824565Y-85180767D01*
X120874051Y-85368348D01*
X120918362Y-85531480D01*
X120959745Y-85678290D01*
X121000448Y-85816904D01*
X121088798Y-86102047D01*
X121155198Y-86303753D01*
X121223890Y-86498281D01*
X121294869Y-86685619D01*
X121368127Y-86865752D01*
X121443656Y-87038669D01*
X121521449Y-87204357D01*
X121601499Y-87362802D01*
X121683799Y-87513992D01*
X121768342Y-87657914D01*
X121855119Y-87794555D01*
X121944124Y-87923902D01*
X122035350Y-88045941D01*
X122128788Y-88160661D01*
X122224433Y-88268049D01*
X122322276Y-88368090D01*
X122422310Y-88460773D01*
X122535454Y-88560114D01*
X122626501Y-88639392D01*
X122698804Y-88701334D01*
X122728973Y-88726655D01*
X122755713Y-88748665D01*
X122779442Y-88767702D01*
X122800579Y-88784109D01*
X122819544Y-88798226D01*
X122836754Y-88810393D01*
X122852628Y-88820952D01*
X122867587Y-88830242D01*
X122882048Y-88838605D01*
X122896430Y-88846381D01*
X122913995Y-88855964D01*
X122933513Y-88867260D01*
X122954333Y-88879856D01*
X122975805Y-88893334D01*
X122997277Y-88907280D01*
X123018097Y-88921276D01*
X123037615Y-88934908D01*
X123055180Y-88947759D01*
X123064227Y-88954167D01*
X123074905Y-88961026D01*
X123100614Y-88975850D01*
X123131222Y-88991731D01*
X123165644Y-89008170D01*
X123202794Y-89024667D01*
X123241588Y-89040723D01*
X123280939Y-89055839D01*
X123319764Y-89069515D01*
X123357238Y-89082314D01*
X123392721Y-89094916D01*
X123425397Y-89106998D01*
X123454453Y-89118237D01*
X123479076Y-89128309D01*
X123489470Y-89132807D01*
X123498450Y-89136892D01*
X123505916Y-89140524D01*
X123511764Y-89143662D01*
X123515893Y-89146265D01*
X123517281Y-89147354D01*
X123518201Y-89148295D01*
X123520823Y-89150176D01*
X123525873Y-89152346D01*
X123542721Y-89157443D01*
X123567686Y-89163381D01*
X123599704Y-89169954D01*
X123637715Y-89176957D01*
X123680656Y-89184182D01*
X123727465Y-89191425D01*
X123777081Y-89198479D01*
X123846024Y-89207196D01*
X123908005Y-89213455D01*
X123965151Y-89217262D01*
X123992576Y-89218248D01*
X124019590Y-89218622D01*
X124046460Y-89218386D01*
X124073451Y-89217540D01*
X124100831Y-89216085D01*
X124128863Y-89214022D01*
X124187954Y-89208074D01*
X124252851Y-89199700D01*
X124299627Y-89192786D01*
X124344328Y-89185472D01*
X124385899Y-89177979D01*
X124423286Y-89170530D01*
X124455435Y-89163345D01*
X124469216Y-89159922D01*
X124481292Y-89156648D01*
X124491531Y-89153551D01*
X124499801Y-89150659D01*
X124505971Y-89148000D01*
X124509909Y-89145602D01*
X124513377Y-89143156D01*
X124518169Y-89140360D01*
X124531383Y-89133847D01*
X124548866Y-89126320D01*
X124569937Y-89118038D01*
X124593911Y-89109260D01*
X124620107Y-89100243D01*
X124647841Y-89091248D01*
X124676430Y-89082532D01*
X124714517Y-89069742D01*
X124755884Y-89052988D01*
X124800047Y-89032600D01*
X124846524Y-89008906D01*
X124894829Y-88982233D01*
X124944480Y-88952911D01*
X124994992Y-88921265D01*
X125045882Y-88887626D01*
X125096666Y-88852320D01*
X125146860Y-88815677D01*
X125195980Y-88778023D01*
X125243543Y-88739687D01*
X125289065Y-88700997D01*
X125332061Y-88662282D01*
X125372049Y-88623868D01*
X125408544Y-88586085D01*
X125456165Y-88532890D01*
X125502747Y-88477346D01*
X125548188Y-88419639D01*
X125592382Y-88359955D01*
X125635225Y-88298479D01*
X125676612Y-88235399D01*
X125716438Y-88170900D01*
X125754599Y-88105167D01*
X125790989Y-88038388D01*
X125825505Y-87970749D01*
X125858041Y-87902434D01*
X125888494Y-87833631D01*
X125916757Y-87764525D01*
X125942727Y-87695303D01*
X125966299Y-87626150D01*
X125987368Y-87557253D01*
X126003084Y-87496274D01*
X126021984Y-87413256D01*
X126042440Y-87316567D01*
X126062825Y-87214573D01*
X126081512Y-87115642D01*
X126096875Y-87028140D01*
X126107286Y-86960435D01*
X126110126Y-86936620D01*
X126111118Y-86920893D01*
X126111352Y-86919800D01*
X126112045Y-86918677D01*
X126114763Y-86916352D01*
X126119182Y-86913935D01*
X126125210Y-86911446D01*
X126132756Y-86908905D01*
X126141727Y-86906331D01*
X126163580Y-86901162D01*
X126190038Y-86896094D01*
X126220367Y-86891282D01*
X126253836Y-86886882D01*
X126289712Y-86883048D01*
X126382022Y-86873605D01*
X126501337Y-86860431D01*
X126759347Y-86829867D01*
X126928372Y-86810350D01*
X127109841Y-86791977D01*
X127293712Y-86775482D01*
X127469941Y-86761597D01*
X127628485Y-86751055D01*
X127759302Y-86744589D01*
X127852348Y-86742931D01*
X127881568Y-86744134D01*
X127897580Y-86746815D01*
X127905361Y-86751240D01*
X127912022Y-86758429D01*
X127917551Y-86768852D01*
X127921938Y-86782975D01*
X127925171Y-86801269D01*
X127927239Y-86824202D01*
X127927830Y-86885857D01*
X127923621Y-86971689D01*
X127914519Y-87085446D01*
X127900433Y-87230878D01*
X127881271Y-87411733D01*
X127869503Y-87505603D01*
X127854325Y-87602998D01*
X127835939Y-87703262D01*
X127814549Y-87805739D01*
X127790359Y-87909772D01*
X127763573Y-88014705D01*
X127734394Y-88119882D01*
X127703026Y-88224647D01*
X127669673Y-88328343D01*
X127634539Y-88430315D01*
X127597827Y-88529905D01*
X127559741Y-88626458D01*
X127520485Y-88719317D01*
X127480263Y-88807826D01*
X127439278Y-88891329D01*
X127397734Y-88969170D01*
X127355109Y-89042917D01*
X127308885Y-89118015D01*
X127259346Y-89194122D01*
X127206775Y-89270897D01*
X127151455Y-89347999D01*
X127093670Y-89425087D01*
X127033703Y-89501818D01*
X126971837Y-89577853D01*
X126908355Y-89652849D01*
X126843541Y-89726466D01*
X126777678Y-89798362D01*
X126711049Y-89868196D01*
X126643937Y-89935627D01*
X126576625Y-90000313D01*
X126509397Y-90061913D01*
X126442537Y-90120086D01*
X126344067Y-90199453D01*
X126238953Y-90276710D01*
X126127888Y-90351561D01*
X126011564Y-90423709D01*
X125890673Y-90492857D01*
X125765908Y-90558709D01*
X125637960Y-90620968D01*
X125507523Y-90679337D01*
X125375288Y-90733520D01*
X125241948Y-90783220D01*
X125108196Y-90828140D01*
X124974723Y-90867984D01*
X124842221Y-90902455D01*
X124711384Y-90931257D01*
X124582904Y-90954092D01*
X124457472Y-90970664D01*
X124457470Y-90970666D01*
X124336723Y-90979450D01*
X124188113Y-90983688D01*
X124021561Y-90983703D01*
X123846986Y-90979820D01*
X123674308Y-90972361D01*
X123513445Y-90961652D01*
X123374317Y-90948016D01*
X123316004Y-90940202D01*
X123266845Y-90931777D01*
X123152934Y-90907086D01*
X123035688Y-90877448D01*
X122915919Y-90843222D01*
X122794437Y-90804771D01*
X122672056Y-90762455D01*
X122549588Y-90716636D01*
X122427843Y-90667675D01*
X122307635Y-90615933D01*
X122189775Y-90561771D01*
X122075076Y-90505551D01*
X121964348Y-90447634D01*
X121858404Y-90388381D01*
X121758057Y-90328152D01*
X121664118Y-90267311D01*
X121577398Y-90206216D01*
X121498711Y-90145231D01*
X121413761Y-90074361D01*
X121320329Y-89993966D01*
X121223029Y-89908242D01*
X121126476Y-89821383D01*
X121035284Y-89737583D01*
X120954068Y-89661037D01*
X120887444Y-89595940D01*
X120840024Y-89546487D01*
X120797100Y-89496407D01*
X120741439Y-89427893D01*
X120677852Y-89347245D01*
X120611148Y-89260761D01*
X120546136Y-89174739D01*
X120487625Y-89095479D01*
X120440424Y-89029278D01*
X120409344Y-88982436D01*
X120212350Y-88646769D01*
X120033224Y-88311378D01*
X119867285Y-87964611D01*
X119709852Y-87594815D01*
X119556242Y-87190334D01*
X119401774Y-86739517D01*
X119241767Y-86230708D01*
X119071539Y-85652254D01*
X118952737Y-85243898D01*
X118840647Y-84872371D01*
X118734134Y-84535481D01*
X118632061Y-84231037D01*
X118533292Y-83956846D01*
X118436694Y-83710717D01*
X118388853Y-83597490D01*
X118341129Y-83490457D01*
X118293379Y-83389344D01*
X118245461Y-83293876D01*
X118197235Y-83203779D01*
X118148557Y-83118780D01*
X118099285Y-83038605D01*
X118049279Y-82962979D01*
X117998395Y-82891629D01*
X117946492Y-82824280D01*
X117893428Y-82760659D01*
X117839061Y-82700491D01*
X117783248Y-82643504D01*
X117725849Y-82589421D01*
X117666721Y-82537971D01*
X117605722Y-82488878D01*
X117542710Y-82441869D01*
X117477543Y-82396670D01*
X117410079Y-82353006D01*
X117340177Y-82310605D01*
X117214603Y-82244704D01*
X117078257Y-82187755D01*
X116932757Y-82139747D01*
X116779716Y-82100671D01*
X116620753Y-82070516D01*
X116457482Y-82049274D01*
X116291521Y-82036934D01*
X116124484Y-82033488D01*
X115957988Y-82038925D01*
X115793649Y-82053235D01*
X115633083Y-82076410D01*
X115477906Y-82108439D01*
X115329734Y-82149313D01*
X115190184Y-82199022D01*
X115060870Y-82257557D01*
X114943410Y-82324908D01*
X114913179Y-82345182D01*
X114882125Y-82367369D01*
X114850631Y-82391105D01*
X114819081Y-82416027D01*
X114787856Y-82441771D01*
X114757339Y-82467972D01*
X114727913Y-82494267D01*
X114699960Y-82520292D01*
X114673863Y-82545682D01*
X114650005Y-82570075D01*
X114628767Y-82593105D01*
X114610533Y-82614410D01*
X114595685Y-82633625D01*
X114584605Y-82650386D01*
X114580599Y-82657733D01*
X114577677Y-82664329D01*
X114575889Y-82670131D01*
X114575283Y-82675091D01*
X114574898Y-82677572D01*
X114573767Y-82680965D01*
X114571930Y-82685210D01*
X114569423Y-82690249D01*
X114562555Y-82702467D01*
X114553468Y-82717145D01*
X114542466Y-82733807D01*
X114529854Y-82751978D01*
X114515937Y-82771183D01*
X114501018Y-82790948D01*
X114484026Y-82814365D01*
X114464166Y-82844040D01*
X114442159Y-82878765D01*
X114418726Y-82917329D01*
X114394588Y-82958523D01*
X114370467Y-83001139D01*
X114347084Y-83043966D01*
X114325161Y-83085796D01*
X114298012Y-83138302D01*
X114272393Y-83186690D01*
X114248079Y-83231268D01*
X114224847Y-83272342D01*
X114202474Y-83310222D01*
X114180737Y-83345216D01*
X114159412Y-83377630D01*
X114138277Y-83407773D01*
X114117107Y-83435953D01*
X114095680Y-83462477D01*
X114073771Y-83487653D01*
X114051159Y-83511790D01*
X114027619Y-83535195D01*
X114002929Y-83558176D01*
X113976864Y-83581041D01*
X113949203Y-83604097D01*
X113914735Y-83631294D01*
X113881216Y-83655449D01*
X113847537Y-83676741D01*
X113812593Y-83695347D01*
X113775276Y-83711444D01*
X113734478Y-83725210D01*
X113689094Y-83736822D01*
X113638015Y-83746458D01*
X113580135Y-83754296D01*
X113514347Y-83760513D01*
X113439544Y-83765286D01*
X113354618Y-83768793D01*
X113149972Y-83772720D01*
X112891552Y-83773713D01*
X112242299Y-83773713D01*
X112256751Y-83674494D01*
X112263674Y-83624486D01*
X112271839Y-83561673D01*
X112280225Y-83494086D01*
X112287812Y-83429754D01*
X112301497Y-83325208D01*
X112318917Y-83217896D01*
X112339880Y-83108400D01*
X112364193Y-82997297D01*
X112391663Y-82885167D01*
X112422097Y-82772589D01*
X112455302Y-82660143D01*
X112491086Y-82548408D01*
X112529256Y-82437964D01*
X112569618Y-82329389D01*
X112611981Y-82223263D01*
X112656150Y-82120166D01*
X112701934Y-82020677D01*
X112749140Y-81925375D01*
X112797574Y-81834839D01*
X112847043Y-81749650D01*
X112881690Y-81694848D01*
X112920556Y-81637570D01*
X112963157Y-81578353D01*
X113009007Y-81517735D01*
X113057621Y-81456253D01*
X113108514Y-81394443D01*
X113161201Y-81332842D01*
X113215196Y-81271989D01*
X113270014Y-81212419D01*
X113325169Y-81154671D01*
X113380176Y-81099280D01*
X113434551Y-81046785D01*
X113487807Y-80997721D01*
X113539460Y-80952627D01*
X113589023Y-80912040D01*
X113636013Y-80876495D01*
X113657820Y-80860528D01*
X113679223Y-80844405D01*
X113699678Y-80828566D01*
X113718640Y-80813452D01*
X113735566Y-80799504D01*
X113749910Y-80787162D01*
X113755945Y-80781731D01*
X113761130Y-80776867D01*
X113765398Y-80772625D01*
X113768680Y-80769060D01*
X113772442Y-80765375D01*
X113778114Y-80760782D01*
X113794728Y-80749134D01*
X113817602Y-80734654D01*
X113845813Y-80717877D01*
X113878438Y-80699337D01*
X113914556Y-80679571D01*
X113953243Y-80659115D01*
X113993577Y-80638502D01*
X114033632Y-80618135D01*
X114071523Y-80598378D01*
X114106381Y-80579720D01*
X114137341Y-80562646D01*
X114163536Y-80547643D01*
X114184100Y-80535197D01*
X114191999Y-80530085D01*
X114198166Y-80525794D01*
X114202491Y-80522386D01*
X114204867Y-80519922D01*
X114217317Y-80510537D01*
X114243468Y-80497357D01*
X114330288Y-80461770D01*
X114452170Y-80417485D01*
X114595956Y-80368825D01*
X114748487Y-80320115D01*
X114896605Y-80275677D01*
X115027153Y-80239837D01*
X115126972Y-80216917D01*
X115243886Y-80196944D01*
X115366365Y-80179745D01*
X115493660Y-80165316D01*
X115625022Y-80153653D01*
X115896954Y-80138610D01*
X116176173Y-80134584D01*
X116456689Y-80141543D01*
%TA.AperFunction,NonConductor*%
G36*
X116456689Y-80141543D02*
G01*
X116732515Y-80159457D01*
X116866797Y-80172512D01*
X116997660Y-80188294D01*
X117124356Y-80206798D01*
X117246137Y-80228022D01*
X117322760Y-80246892D01*
X117438405Y-80280457D01*
X117578233Y-80323821D01*
X117727404Y-80372092D01*
X117871076Y-80420378D01*
X117994409Y-80463784D01*
X118082564Y-80497418D01*
X118108812Y-80509041D01*
X118120700Y-80516386D01*
X118123249Y-80518637D01*
X118128083Y-80522010D01*
X118144104Y-80531845D01*
X118167761Y-80545350D01*
X118198050Y-80561979D01*
X118274505Y-80602438D01*
X118365440Y-80648875D01*
X118411946Y-80672589D01*
X118455331Y-80695388D01*
X118494647Y-80716724D01*
X118528944Y-80736050D01*
X118543914Y-80744789D01*
X118557273Y-80752820D01*
X118568902Y-80760075D01*
X118578683Y-80766485D01*
X118586497Y-80771983D01*
X118592225Y-80776499D01*
X118595749Y-80779965D01*
X118596648Y-80781283D01*
X118596950Y-80782313D01*
X118597123Y-80783294D01*
X118597634Y-80784464D01*
X118599640Y-80787351D01*
X118602900Y-80790925D01*
X118607348Y-80795137D01*
X118619534Y-80805280D01*
X118635657Y-80817390D01*
X118655178Y-80831075D01*
X118677555Y-80845945D01*
X118702248Y-80861607D01*
X118728718Y-80877672D01*
X118742143Y-80885732D01*
X118755197Y-80893745D01*
X118767812Y-80901663D01*
X118779920Y-80909435D01*
X118791453Y-80917013D01*
X118802344Y-80924347D01*
X118812525Y-80931389D01*
X118821928Y-80938089D01*
X118830485Y-80944398D01*
X118838128Y-80950268D01*
X118844791Y-80955648D01*
X118850404Y-80960490D01*
X118854900Y-80964745D01*
X118858212Y-80968363D01*
X118859402Y-80969918D01*
X118860271Y-80971296D01*
X118860810Y-80972490D01*
X118861010Y-80973494D01*
X118861724Y-80975812D01*
X118863713Y-80979099D01*
X118866913Y-80983292D01*
X118871258Y-80988332D01*
X118883120Y-81000703D01*
X118898774Y-81015726D01*
X118917696Y-81032911D01*
X118939363Y-81051770D01*
X118963249Y-81071814D01*
X118988831Y-81092557D01*
X119033958Y-81130008D01*
X119081049Y-81171898D01*
X119129762Y-81217820D01*
X119179752Y-81267367D01*
X119230675Y-81320134D01*
X119282186Y-81375713D01*
X119385601Y-81493684D01*
X119487244Y-81618027D01*
X119584362Y-81745490D01*
X119630365Y-81809376D01*
X119674205Y-81872822D01*
X119715537Y-81935422D01*
X119754019Y-81996770D01*
X119880731Y-82216254D01*
X119996173Y-82444192D01*
X120104791Y-82693270D01*
X120211030Y-82976174D01*
X120319334Y-83305589D01*
X120434148Y-83694200D01*
X120559916Y-84154694D01*
X120701084Y-84699755D01*
X120824565Y-85180767D01*
X120874051Y-85368348D01*
X120918362Y-85531480D01*
X120959745Y-85678290D01*
X121000448Y-85816904D01*
X121088798Y-86102047D01*
X121155198Y-86303753D01*
X121223890Y-86498281D01*
X121294869Y-86685619D01*
X121368127Y-86865752D01*
X121443656Y-87038669D01*
X121521449Y-87204357D01*
X121601499Y-87362802D01*
X121683799Y-87513992D01*
X121768342Y-87657914D01*
X121855119Y-87794555D01*
X121944124Y-87923902D01*
X122035350Y-88045941D01*
X122128788Y-88160661D01*
X122224433Y-88268049D01*
X122322276Y-88368090D01*
X122422310Y-88460773D01*
X122535454Y-88560114D01*
X122626501Y-88639392D01*
X122698804Y-88701334D01*
X122728973Y-88726655D01*
X122755713Y-88748665D01*
X122779442Y-88767702D01*
X122800579Y-88784109D01*
X122819544Y-88798226D01*
X122836754Y-88810393D01*
X122852628Y-88820952D01*
X122867587Y-88830242D01*
X122882048Y-88838605D01*
X122896430Y-88846381D01*
X122913995Y-88855964D01*
X122933513Y-88867260D01*
X122954333Y-88879856D01*
X122975805Y-88893334D01*
X122997277Y-88907280D01*
X123018097Y-88921276D01*
X123037615Y-88934908D01*
X123055180Y-88947759D01*
X123064227Y-88954167D01*
X123074905Y-88961026D01*
X123100614Y-88975850D01*
X123131222Y-88991731D01*
X123165644Y-89008170D01*
X123202794Y-89024667D01*
X123241588Y-89040723D01*
X123280939Y-89055839D01*
X123319764Y-89069515D01*
X123357238Y-89082314D01*
X123392721Y-89094916D01*
X123425397Y-89106998D01*
X123454453Y-89118237D01*
X123479076Y-89128309D01*
X123489470Y-89132807D01*
X123498450Y-89136892D01*
X123505916Y-89140524D01*
X123511764Y-89143662D01*
X123515893Y-89146265D01*
X123517281Y-89147354D01*
X123518201Y-89148295D01*
X123520823Y-89150176D01*
X123525873Y-89152346D01*
X123542721Y-89157443D01*
X123567686Y-89163381D01*
X123599704Y-89169954D01*
X123637715Y-89176957D01*
X123680656Y-89184182D01*
X123727465Y-89191425D01*
X123777081Y-89198479D01*
X123846024Y-89207196D01*
X123908005Y-89213455D01*
X123965151Y-89217262D01*
X123992576Y-89218248D01*
X124019590Y-89218622D01*
X124046460Y-89218386D01*
X124073451Y-89217540D01*
X124100831Y-89216085D01*
X124128863Y-89214022D01*
X124187954Y-89208074D01*
X124252851Y-89199700D01*
X124299627Y-89192786D01*
X124344328Y-89185472D01*
X124385899Y-89177979D01*
X124423286Y-89170530D01*
X124455435Y-89163345D01*
X124469216Y-89159922D01*
X124481292Y-89156648D01*
X124491531Y-89153551D01*
X124499801Y-89150659D01*
X124505971Y-89148000D01*
X124509909Y-89145602D01*
X124513377Y-89143156D01*
X124518169Y-89140360D01*
X124531383Y-89133847D01*
X124548866Y-89126320D01*
X124569937Y-89118038D01*
X124593911Y-89109260D01*
X124620107Y-89100243D01*
X124647841Y-89091248D01*
X124676430Y-89082532D01*
X124714517Y-89069742D01*
X124755884Y-89052988D01*
X124800047Y-89032600D01*
X124846524Y-89008906D01*
X124894829Y-88982233D01*
X124944480Y-88952911D01*
X124994992Y-88921265D01*
X125045882Y-88887626D01*
X125096666Y-88852320D01*
X125146860Y-88815677D01*
X125195980Y-88778023D01*
X125243543Y-88739687D01*
X125289065Y-88700997D01*
X125332061Y-88662282D01*
X125372049Y-88623868D01*
X125408544Y-88586085D01*
X125456165Y-88532890D01*
X125502747Y-88477346D01*
X125548188Y-88419639D01*
X125592382Y-88359955D01*
X125635225Y-88298479D01*
X125676612Y-88235399D01*
X125716438Y-88170900D01*
X125754599Y-88105167D01*
X125790989Y-88038388D01*
X125825505Y-87970749D01*
X125858041Y-87902434D01*
X125888494Y-87833631D01*
X125916757Y-87764525D01*
X125942727Y-87695303D01*
X125966299Y-87626150D01*
X125987368Y-87557253D01*
X126003084Y-87496274D01*
X126021984Y-87413256D01*
X126042440Y-87316567D01*
X126062825Y-87214573D01*
X126081512Y-87115642D01*
X126096875Y-87028140D01*
X126107286Y-86960435D01*
X126110126Y-86936620D01*
X126111118Y-86920893D01*
X126111352Y-86919800D01*
X126112045Y-86918677D01*
X126114763Y-86916352D01*
X126119182Y-86913935D01*
X126125210Y-86911446D01*
X126132756Y-86908905D01*
X126141727Y-86906331D01*
X126163580Y-86901162D01*
X126190038Y-86896094D01*
X126220367Y-86891282D01*
X126253836Y-86886882D01*
X126289712Y-86883048D01*
X126382022Y-86873605D01*
X126501337Y-86860431D01*
X126759347Y-86829867D01*
X126928372Y-86810350D01*
X127109841Y-86791977D01*
X127293712Y-86775482D01*
X127469941Y-86761597D01*
X127628485Y-86751055D01*
X127759302Y-86744589D01*
X127852348Y-86742931D01*
X127881568Y-86744134D01*
X127897580Y-86746815D01*
X127905361Y-86751240D01*
X127912022Y-86758429D01*
X127917551Y-86768852D01*
X127921938Y-86782975D01*
X127925171Y-86801269D01*
X127927239Y-86824202D01*
X127927830Y-86885857D01*
X127923621Y-86971689D01*
X127914519Y-87085446D01*
X127900433Y-87230878D01*
X127881271Y-87411733D01*
X127869503Y-87505603D01*
X127854325Y-87602998D01*
X127835939Y-87703262D01*
X127814549Y-87805739D01*
X127790359Y-87909772D01*
X127763573Y-88014705D01*
X127734394Y-88119882D01*
X127703026Y-88224647D01*
X127669673Y-88328343D01*
X127634539Y-88430315D01*
X127597827Y-88529905D01*
X127559741Y-88626458D01*
X127520485Y-88719317D01*
X127480263Y-88807826D01*
X127439278Y-88891329D01*
X127397734Y-88969170D01*
X127355109Y-89042917D01*
X127308885Y-89118015D01*
X127259346Y-89194122D01*
X127206775Y-89270897D01*
X127151455Y-89347999D01*
X127093670Y-89425087D01*
X127033703Y-89501818D01*
X126971837Y-89577853D01*
X126908355Y-89652849D01*
X126843541Y-89726466D01*
X126777678Y-89798362D01*
X126711049Y-89868196D01*
X126643937Y-89935627D01*
X126576625Y-90000313D01*
X126509397Y-90061913D01*
X126442537Y-90120086D01*
X126344067Y-90199453D01*
X126238953Y-90276710D01*
X126127888Y-90351561D01*
X126011564Y-90423709D01*
X125890673Y-90492857D01*
X125765908Y-90558709D01*
X125637960Y-90620968D01*
X125507523Y-90679337D01*
X125375288Y-90733520D01*
X125241948Y-90783220D01*
X125108196Y-90828140D01*
X124974723Y-90867984D01*
X124842221Y-90902455D01*
X124711384Y-90931257D01*
X124582904Y-90954092D01*
X124457472Y-90970664D01*
X124457470Y-90970666D01*
X124336723Y-90979450D01*
X124188113Y-90983688D01*
X124021561Y-90983703D01*
X123846986Y-90979820D01*
X123674308Y-90972361D01*
X123513445Y-90961652D01*
X123374317Y-90948016D01*
X123316004Y-90940202D01*
X123266845Y-90931777D01*
X123152934Y-90907086D01*
X123035688Y-90877448D01*
X122915919Y-90843222D01*
X122794437Y-90804771D01*
X122672056Y-90762455D01*
X122549588Y-90716636D01*
X122427843Y-90667675D01*
X122307635Y-90615933D01*
X122189775Y-90561771D01*
X122075076Y-90505551D01*
X121964348Y-90447634D01*
X121858404Y-90388381D01*
X121758057Y-90328152D01*
X121664118Y-90267311D01*
X121577398Y-90206216D01*
X121498711Y-90145231D01*
X121413761Y-90074361D01*
X121320329Y-89993966D01*
X121223029Y-89908242D01*
X121126476Y-89821383D01*
X121035284Y-89737583D01*
X120954068Y-89661037D01*
X120887444Y-89595940D01*
X120840024Y-89546487D01*
X120797100Y-89496407D01*
X120741439Y-89427893D01*
X120677852Y-89347245D01*
X120611148Y-89260761D01*
X120546136Y-89174739D01*
X120487625Y-89095479D01*
X120440424Y-89029278D01*
X120409344Y-88982436D01*
X120212350Y-88646769D01*
X120033224Y-88311378D01*
X119867285Y-87964611D01*
X119709852Y-87594815D01*
X119556242Y-87190334D01*
X119401774Y-86739517D01*
X119241767Y-86230708D01*
X119071539Y-85652254D01*
X118952737Y-85243898D01*
X118840647Y-84872371D01*
X118734134Y-84535481D01*
X118632061Y-84231037D01*
X118533292Y-83956846D01*
X118436694Y-83710717D01*
X118388853Y-83597490D01*
X118341129Y-83490457D01*
X118293379Y-83389344D01*
X118245461Y-83293876D01*
X118197235Y-83203779D01*
X118148557Y-83118780D01*
X118099285Y-83038605D01*
X118049279Y-82962979D01*
X117998395Y-82891629D01*
X117946492Y-82824280D01*
X117893428Y-82760659D01*
X117839061Y-82700491D01*
X117783248Y-82643504D01*
X117725849Y-82589421D01*
X117666721Y-82537971D01*
X117605722Y-82488878D01*
X117542710Y-82441869D01*
X117477543Y-82396670D01*
X117410079Y-82353006D01*
X117340177Y-82310605D01*
X117214603Y-82244704D01*
X117078257Y-82187755D01*
X116932757Y-82139747D01*
X116779716Y-82100671D01*
X116620753Y-82070516D01*
X116457482Y-82049274D01*
X116291521Y-82036934D01*
X116124484Y-82033488D01*
X115957988Y-82038925D01*
X115793649Y-82053235D01*
X115633083Y-82076410D01*
X115477906Y-82108439D01*
X115329734Y-82149313D01*
X115190184Y-82199022D01*
X115060870Y-82257557D01*
X114943410Y-82324908D01*
X114913179Y-82345182D01*
X114882125Y-82367369D01*
X114850631Y-82391105D01*
X114819081Y-82416027D01*
X114787856Y-82441771D01*
X114757339Y-82467972D01*
X114727913Y-82494267D01*
X114699960Y-82520292D01*
X114673863Y-82545682D01*
X114650005Y-82570075D01*
X114628767Y-82593105D01*
X114610533Y-82614410D01*
X114595685Y-82633625D01*
X114584605Y-82650386D01*
X114580599Y-82657733D01*
X114577677Y-82664329D01*
X114575889Y-82670131D01*
X114575283Y-82675091D01*
X114574898Y-82677572D01*
X114573767Y-82680965D01*
X114571930Y-82685210D01*
X114569423Y-82690249D01*
X114562555Y-82702467D01*
X114553468Y-82717145D01*
X114542466Y-82733807D01*
X114529854Y-82751978D01*
X114515937Y-82771183D01*
X114501018Y-82790948D01*
X114484026Y-82814365D01*
X114464166Y-82844040D01*
X114442159Y-82878765D01*
X114418726Y-82917329D01*
X114394588Y-82958523D01*
X114370467Y-83001139D01*
X114347084Y-83043966D01*
X114325161Y-83085796D01*
X114298012Y-83138302D01*
X114272393Y-83186690D01*
X114248079Y-83231268D01*
X114224847Y-83272342D01*
X114202474Y-83310222D01*
X114180737Y-83345216D01*
X114159412Y-83377630D01*
X114138277Y-83407773D01*
X114117107Y-83435953D01*
X114095680Y-83462477D01*
X114073771Y-83487653D01*
X114051159Y-83511790D01*
X114027619Y-83535195D01*
X114002929Y-83558176D01*
X113976864Y-83581041D01*
X113949203Y-83604097D01*
X113914735Y-83631294D01*
X113881216Y-83655449D01*
X113847537Y-83676741D01*
X113812593Y-83695347D01*
X113775276Y-83711444D01*
X113734478Y-83725210D01*
X113689094Y-83736822D01*
X113638015Y-83746458D01*
X113580135Y-83754296D01*
X113514347Y-83760513D01*
X113439544Y-83765286D01*
X113354618Y-83768793D01*
X113149972Y-83772720D01*
X112891552Y-83773713D01*
X112242299Y-83773713D01*
X112256751Y-83674494D01*
X112263674Y-83624486D01*
X112271839Y-83561673D01*
X112280225Y-83494086D01*
X112287812Y-83429754D01*
X112301497Y-83325208D01*
X112318917Y-83217896D01*
X112339880Y-83108400D01*
X112364193Y-82997297D01*
X112391663Y-82885167D01*
X112422097Y-82772589D01*
X112455302Y-82660143D01*
X112491086Y-82548408D01*
X112529256Y-82437964D01*
X112569618Y-82329389D01*
X112611981Y-82223263D01*
X112656150Y-82120166D01*
X112701934Y-82020677D01*
X112749140Y-81925375D01*
X112797574Y-81834839D01*
X112847043Y-81749650D01*
X112881690Y-81694848D01*
X112920556Y-81637570D01*
X112963157Y-81578353D01*
X113009007Y-81517735D01*
X113057621Y-81456253D01*
X113108514Y-81394443D01*
X113161201Y-81332842D01*
X113215196Y-81271989D01*
X113270014Y-81212419D01*
X113325169Y-81154671D01*
X113380176Y-81099280D01*
X113434551Y-81046785D01*
X113487807Y-80997721D01*
X113539460Y-80952627D01*
X113589023Y-80912040D01*
X113636013Y-80876495D01*
X113657820Y-80860528D01*
X113679223Y-80844405D01*
X113699678Y-80828566D01*
X113718640Y-80813452D01*
X113735566Y-80799504D01*
X113749910Y-80787162D01*
X113755945Y-80781731D01*
X113761130Y-80776867D01*
X113765398Y-80772625D01*
X113768680Y-80769060D01*
X113772442Y-80765375D01*
X113778114Y-80760782D01*
X113794728Y-80749134D01*
X113817602Y-80734654D01*
X113845813Y-80717877D01*
X113878438Y-80699337D01*
X113914556Y-80679571D01*
X113953243Y-80659115D01*
X113993577Y-80638502D01*
X114033632Y-80618135D01*
X114071523Y-80598378D01*
X114106381Y-80579720D01*
X114137341Y-80562646D01*
X114163536Y-80547643D01*
X114184100Y-80535197D01*
X114191999Y-80530085D01*
X114198166Y-80525794D01*
X114202491Y-80522386D01*
X114204867Y-80519922D01*
X114217317Y-80510537D01*
X114243468Y-80497357D01*
X114330288Y-80461770D01*
X114452170Y-80417485D01*
X114595956Y-80368825D01*
X114748487Y-80320115D01*
X114896605Y-80275677D01*
X115027153Y-80239837D01*
X115126972Y-80216917D01*
X115243886Y-80196944D01*
X115366365Y-80179745D01*
X115493660Y-80165316D01*
X115625022Y-80153653D01*
X115896954Y-80138610D01*
X116176173Y-80134584D01*
X116456689Y-80141543D01*
G37*
%TD.AperFunction*%
D10*
%TA.AperFunction,NonConductor*%
G36*
X177341232Y-81020092D02*
G01*
X176776787Y-81020092D01*
X176776787Y-80455648D01*
X177341232Y-80455648D01*
X177341232Y-81020092D01*
G37*
%TD.AperFunction*%
D11*
X124283512Y-93388875D02*
X124284712Y-93470692D01*
X124281012Y-93608074D01*
X124276382Y-93673833D01*
X124269895Y-93737644D01*
X124261546Y-93799511D01*
X124251332Y-93859438D01*
X124239249Y-93917430D01*
X124225295Y-93973493D01*
X124209465Y-94027629D01*
X124191757Y-94079845D01*
X124172166Y-94130145D01*
X124150689Y-94178533D01*
X124127324Y-94225015D01*
X124102065Y-94269593D01*
X124074910Y-94312275D01*
X124045855Y-94353063D01*
X124014897Y-94391962D01*
X123982032Y-94428978D01*
X123947257Y-94464115D01*
X123910568Y-94497377D01*
X123871962Y-94528769D01*
X123831436Y-94558296D01*
X123788985Y-94585962D01*
X123744607Y-94611772D01*
X123698297Y-94635731D01*
X123650053Y-94657843D01*
X123599870Y-94678113D01*
X123547746Y-94696545D01*
X123493677Y-94713145D01*
X123437660Y-94727916D01*
X123379690Y-94740863D01*
X123319765Y-94751992D01*
X123319765Y-94751995D01*
X123249833Y-94762020D01*
X123175635Y-94769247D01*
X123096302Y-94773680D01*
X123010964Y-94775319D01*
X122918750Y-94774168D01*
X122818792Y-94770229D01*
X122710218Y-94763504D01*
X122592161Y-94753995D01*
X122432738Y-94739656D01*
X122301688Y-94727324D01*
X122196340Y-94716675D01*
X122114021Y-94707384D01*
X122080664Y-94703146D01*
X122052062Y-94699126D01*
X122027882Y-94695283D01*
X122007790Y-94691577D01*
X121991451Y-94687966D01*
X121978533Y-94684410D01*
X121968701Y-94680869D01*
X121961622Y-94677302D01*
X121958150Y-94674553D01*
X121955028Y-94670819D01*
X121952255Y-94666109D01*
X121949834Y-94660431D01*
X121947763Y-94653794D01*
X121946045Y-94646205D01*
X121944679Y-94637674D01*
X121943667Y-94628208D01*
X121943009Y-94617817D01*
X121942706Y-94606508D01*
X121942759Y-94594290D01*
X121943168Y-94581173D01*
X121943934Y-94567163D01*
X121945057Y-94552269D01*
X121948381Y-94519866D01*
X121950860Y-94499797D01*
X121953326Y-94481739D01*
X121955813Y-94465614D01*
X121957077Y-94458252D01*
X121958360Y-94451346D01*
X121959667Y-94444883D01*
X121961002Y-94438857D01*
X121962371Y-94433255D01*
X121963776Y-94428070D01*
X121965225Y-94423291D01*
X121966719Y-94418909D01*
X121968266Y-94414915D01*
X121969868Y-94411297D01*
X121971531Y-94408048D01*
X121973258Y-94405156D01*
X121975056Y-94402614D01*
X121976927Y-94400410D01*
X121978878Y-94398536D01*
X121980911Y-94396981D01*
X121983033Y-94395737D01*
X121985247Y-94394793D01*
X121987559Y-94394140D01*
X121989972Y-94393769D01*
X121992491Y-94393668D01*
X121995121Y-94393830D01*
X121997866Y-94394245D01*
X122000732Y-94394902D01*
X122003722Y-94395792D01*
X122006841Y-94396906D01*
X122023115Y-94400976D01*
X122053453Y-94406382D01*
X122149329Y-94420271D01*
X122280486Y-94436706D01*
X122432943Y-94453820D01*
X122589585Y-94468590D01*
X122735665Y-94478399D01*
X122804863Y-94481409D01*
X122871563Y-94483138D01*
X122935813Y-94483571D01*
X122997661Y-94482695D01*
X123057154Y-94480496D01*
X123114340Y-94476960D01*
X123169267Y-94472074D01*
X123221982Y-94465823D01*
X123272533Y-94458194D01*
X123320968Y-94449173D01*
X123367333Y-94438746D01*
X123411678Y-94426900D01*
X123454049Y-94413620D01*
X123494494Y-94398892D01*
X123533061Y-94382704D01*
X123569798Y-94365041D01*
X123604751Y-94345889D01*
X123637970Y-94325235D01*
X123669501Y-94303065D01*
X123699392Y-94279364D01*
X123727691Y-94254119D01*
X123754445Y-94227317D01*
X123779703Y-94198943D01*
X123803511Y-94168984D01*
X123825918Y-94137426D01*
X123846970Y-94104254D01*
X123866716Y-94069456D01*
X123885204Y-94033018D01*
X123901499Y-93997487D01*
X123917381Y-93959903D01*
X123932456Y-93921406D01*
X123946326Y-93883135D01*
X123958595Y-93846232D01*
X123968867Y-93811834D01*
X123976745Y-93781083D01*
X123979663Y-93767431D01*
X123981834Y-93755118D01*
X123999103Y-93642670D01*
X121844502Y-93642670D01*
X121862172Y-93397930D01*
X121865837Y-93351630D01*
X122138163Y-93351630D01*
X124001214Y-93351630D01*
X123983857Y-93239182D01*
X123972247Y-93174119D01*
X123957984Y-93112175D01*
X123941066Y-93053349D01*
X123921490Y-92997635D01*
X123910705Y-92970946D01*
X123899255Y-92945033D01*
X123887139Y-92919898D01*
X123874357Y-92895539D01*
X123860910Y-92871957D01*
X123846796Y-92849151D01*
X123832016Y-92827120D01*
X123816569Y-92805864D01*
X123800455Y-92785384D01*
X123783673Y-92765678D01*
X123766224Y-92746746D01*
X123748108Y-92728588D01*
X123729323Y-92711203D01*
X123709869Y-92694592D01*
X123689747Y-92678753D01*
X123668956Y-92663687D01*
X123647496Y-92649393D01*
X123625366Y-92635871D01*
X123602566Y-92623119D01*
X123579097Y-92611139D01*
X123554957Y-92599930D01*
X123530147Y-92589491D01*
X123504665Y-92579822D01*
X123478513Y-92570922D01*
X123440797Y-92560371D01*
X123397443Y-92550994D01*
X123349269Y-92542807D01*
X123297091Y-92535829D01*
X123241725Y-92530078D01*
X123183988Y-92525571D01*
X123124695Y-92522327D01*
X123064664Y-92520363D01*
X123004709Y-92519697D01*
X122945649Y-92520348D01*
X122888299Y-92522332D01*
X122833474Y-92525669D01*
X122781993Y-92530375D01*
X122734671Y-92536468D01*
X122692324Y-92543968D01*
X122655768Y-92552891D01*
X122611167Y-92567651D01*
X122568001Y-92585686D01*
X122526395Y-92606851D01*
X122486475Y-92631000D01*
X122448368Y-92657985D01*
X122412199Y-92687662D01*
X122378093Y-92719883D01*
X122346176Y-92754503D01*
X122316575Y-92791376D01*
X122289415Y-92830355D01*
X122264822Y-92871294D01*
X122242921Y-92914047D01*
X122223838Y-92958468D01*
X122207700Y-93004410D01*
X122194631Y-93051728D01*
X122184758Y-93100275D01*
X122176731Y-93147109D01*
X122167990Y-93196393D01*
X122159592Y-93242266D01*
X122152590Y-93278869D01*
X122138163Y-93351630D01*
X121865837Y-93351630D01*
X121866299Y-93345797D01*
X121871265Y-93291420D01*
X121876883Y-93236399D01*
X121882964Y-93182336D01*
X121889319Y-93130830D01*
X121895760Y-93083484D01*
X121902097Y-93041897D01*
X121908143Y-93007670D01*
X121922031Y-92945743D01*
X121939222Y-92885552D01*
X121959622Y-92827214D01*
X121983138Y-92770848D01*
X122009677Y-92716572D01*
X122039146Y-92664503D01*
X122071451Y-92614761D01*
X122106499Y-92567461D01*
X122144197Y-92522724D01*
X122184451Y-92480667D01*
X122227168Y-92441408D01*
X122272256Y-92405064D01*
X122319619Y-92371755D01*
X122369166Y-92341598D01*
X122420803Y-92314711D01*
X122474436Y-92291212D01*
X122524104Y-92272406D01*
X122547441Y-92264581D01*
X122570518Y-92257723D01*
X122593888Y-92251769D01*
X122618106Y-92246656D01*
X122643725Y-92242320D01*
X122671299Y-92238697D01*
X122701382Y-92235725D01*
X122734527Y-92233340D01*
X122812221Y-92230077D01*
X122908809Y-92228401D01*
X123028723Y-92227805D01*
X123122098Y-92228265D01*
X123207692Y-92230104D01*
X123286174Y-92233529D01*
X123358214Y-92238746D01*
X123424479Y-92245961D01*
X123485640Y-92255381D01*
X123542364Y-92267213D01*
X123569271Y-92274098D01*
X123595320Y-92281663D01*
X123620595Y-92289933D01*
X123645178Y-92298936D01*
X123669154Y-92308696D01*
X123692606Y-92319240D01*
X123715618Y-92330593D01*
X123738274Y-92342781D01*
X123760656Y-92355829D01*
X123782849Y-92369764D01*
X123827001Y-92400398D01*
X123871399Y-92434887D01*
X123916711Y-92473439D01*
X123963607Y-92516259D01*
X124003304Y-92556004D01*
X124040283Y-92598102D01*
X124074566Y-92642617D01*
X124106173Y-92689616D01*
X124135127Y-92739161D01*
X124161450Y-92791317D01*
X124185162Y-92846149D01*
X124206287Y-92903721D01*
X124224845Y-92964099D01*
X124240858Y-93027345D01*
X124254348Y-93093526D01*
X124265337Y-93162704D01*
X124273846Y-93234946D01*
X124279897Y-93310314D01*
X124281798Y-93351630D01*
X124283512Y-93388875D01*
%TA.AperFunction,NonConductor*%
G36*
X124283512Y-93388875D02*
G01*
X124284712Y-93470692D01*
X124281012Y-93608074D01*
X124276382Y-93673833D01*
X124269895Y-93737644D01*
X124261546Y-93799511D01*
X124251332Y-93859438D01*
X124239249Y-93917430D01*
X124225295Y-93973493D01*
X124209465Y-94027629D01*
X124191757Y-94079845D01*
X124172166Y-94130145D01*
X124150689Y-94178533D01*
X124127324Y-94225015D01*
X124102065Y-94269593D01*
X124074910Y-94312275D01*
X124045855Y-94353063D01*
X124014897Y-94391962D01*
X123982032Y-94428978D01*
X123947257Y-94464115D01*
X123910568Y-94497377D01*
X123871962Y-94528769D01*
X123831436Y-94558296D01*
X123788985Y-94585962D01*
X123744607Y-94611772D01*
X123698297Y-94635731D01*
X123650053Y-94657843D01*
X123599870Y-94678113D01*
X123547746Y-94696545D01*
X123493677Y-94713145D01*
X123437660Y-94727916D01*
X123379690Y-94740863D01*
X123319765Y-94751992D01*
X123319765Y-94751995D01*
X123249833Y-94762020D01*
X123175635Y-94769247D01*
X123096302Y-94773680D01*
X123010964Y-94775319D01*
X122918750Y-94774168D01*
X122818792Y-94770229D01*
X122710218Y-94763504D01*
X122592161Y-94753995D01*
X122432738Y-94739656D01*
X122301688Y-94727324D01*
X122196340Y-94716675D01*
X122114021Y-94707384D01*
X122080664Y-94703146D01*
X122052062Y-94699126D01*
X122027882Y-94695283D01*
X122007790Y-94691577D01*
X121991451Y-94687966D01*
X121978533Y-94684410D01*
X121968701Y-94680869D01*
X121961622Y-94677302D01*
X121958150Y-94674553D01*
X121955028Y-94670819D01*
X121952255Y-94666109D01*
X121949834Y-94660431D01*
X121947763Y-94653794D01*
X121946045Y-94646205D01*
X121944679Y-94637674D01*
X121943667Y-94628208D01*
X121943009Y-94617817D01*
X121942706Y-94606508D01*
X121942759Y-94594290D01*
X121943168Y-94581173D01*
X121943934Y-94567163D01*
X121945057Y-94552269D01*
X121948381Y-94519866D01*
X121950860Y-94499797D01*
X121953326Y-94481739D01*
X121955813Y-94465614D01*
X121957077Y-94458252D01*
X121958360Y-94451346D01*
X121959667Y-94444883D01*
X121961002Y-94438857D01*
X121962371Y-94433255D01*
X121963776Y-94428070D01*
X121965225Y-94423291D01*
X121966719Y-94418909D01*
X121968266Y-94414915D01*
X121969868Y-94411297D01*
X121971531Y-94408048D01*
X121973258Y-94405156D01*
X121975056Y-94402614D01*
X121976927Y-94400410D01*
X121978878Y-94398536D01*
X121980911Y-94396981D01*
X121983033Y-94395737D01*
X121985247Y-94394793D01*
X121987559Y-94394140D01*
X121989972Y-94393769D01*
X121992491Y-94393668D01*
X121995121Y-94393830D01*
X121997866Y-94394245D01*
X122000732Y-94394902D01*
X122003722Y-94395792D01*
X122006841Y-94396906D01*
X122023115Y-94400976D01*
X122053453Y-94406382D01*
X122149329Y-94420271D01*
X122280486Y-94436706D01*
X122432943Y-94453820D01*
X122589585Y-94468590D01*
X122735665Y-94478399D01*
X122804863Y-94481409D01*
X122871563Y-94483138D01*
X122935813Y-94483571D01*
X122997661Y-94482695D01*
X123057154Y-94480496D01*
X123114340Y-94476960D01*
X123169267Y-94472074D01*
X123221982Y-94465823D01*
X123272533Y-94458194D01*
X123320968Y-94449173D01*
X123367333Y-94438746D01*
X123411678Y-94426900D01*
X123454049Y-94413620D01*
X123494494Y-94398892D01*
X123533061Y-94382704D01*
X123569798Y-94365041D01*
X123604751Y-94345889D01*
X123637970Y-94325235D01*
X123669501Y-94303065D01*
X123699392Y-94279364D01*
X123727691Y-94254119D01*
X123754445Y-94227317D01*
X123779703Y-94198943D01*
X123803511Y-94168984D01*
X123825918Y-94137426D01*
X123846970Y-94104254D01*
X123866716Y-94069456D01*
X123885204Y-94033018D01*
X123901499Y-93997487D01*
X123917381Y-93959903D01*
X123932456Y-93921406D01*
X123946326Y-93883135D01*
X123958595Y-93846232D01*
X123968867Y-93811834D01*
X123976745Y-93781083D01*
X123979663Y-93767431D01*
X123981834Y-93755118D01*
X123999103Y-93642670D01*
X121844502Y-93642670D01*
X121862172Y-93397930D01*
X121865837Y-93351630D01*
X122138163Y-93351630D01*
X124001214Y-93351630D01*
X123983857Y-93239182D01*
X123972247Y-93174119D01*
X123957984Y-93112175D01*
X123941066Y-93053349D01*
X123921490Y-92997635D01*
X123910705Y-92970946D01*
X123899255Y-92945033D01*
X123887139Y-92919898D01*
X123874357Y-92895539D01*
X123860910Y-92871957D01*
X123846796Y-92849151D01*
X123832016Y-92827120D01*
X123816569Y-92805864D01*
X123800455Y-92785384D01*
X123783673Y-92765678D01*
X123766224Y-92746746D01*
X123748108Y-92728588D01*
X123729323Y-92711203D01*
X123709869Y-92694592D01*
X123689747Y-92678753D01*
X123668956Y-92663687D01*
X123647496Y-92649393D01*
X123625366Y-92635871D01*
X123602566Y-92623119D01*
X123579097Y-92611139D01*
X123554957Y-92599930D01*
X123530147Y-92589491D01*
X123504665Y-92579822D01*
X123478513Y-92570922D01*
X123440797Y-92560371D01*
X123397443Y-92550994D01*
X123349269Y-92542807D01*
X123297091Y-92535829D01*
X123241725Y-92530078D01*
X123183988Y-92525571D01*
X123124695Y-92522327D01*
X123064664Y-92520363D01*
X123004709Y-92519697D01*
X122945649Y-92520348D01*
X122888299Y-92522332D01*
X122833474Y-92525669D01*
X122781993Y-92530375D01*
X122734671Y-92536468D01*
X122692324Y-92543968D01*
X122655768Y-92552891D01*
X122611167Y-92567651D01*
X122568001Y-92585686D01*
X122526395Y-92606851D01*
X122486475Y-92631000D01*
X122448368Y-92657985D01*
X122412199Y-92687662D01*
X122378093Y-92719883D01*
X122346176Y-92754503D01*
X122316575Y-92791376D01*
X122289415Y-92830355D01*
X122264822Y-92871294D01*
X122242921Y-92914047D01*
X122223838Y-92958468D01*
X122207700Y-93004410D01*
X122194631Y-93051728D01*
X122184758Y-93100275D01*
X122176731Y-93147109D01*
X122167990Y-93196393D01*
X122159592Y-93242266D01*
X122152590Y-93278869D01*
X122138163Y-93351630D01*
X121865837Y-93351630D01*
X121866299Y-93345797D01*
X121871265Y-93291420D01*
X121876883Y-93236399D01*
X121882964Y-93182336D01*
X121889319Y-93130830D01*
X121895760Y-93083484D01*
X121902097Y-93041897D01*
X121908143Y-93007670D01*
X121922031Y-92945743D01*
X121939222Y-92885552D01*
X121959622Y-92827214D01*
X121983138Y-92770848D01*
X122009677Y-92716572D01*
X122039146Y-92664503D01*
X122071451Y-92614761D01*
X122106499Y-92567461D01*
X122144197Y-92522724D01*
X122184451Y-92480667D01*
X122227168Y-92441408D01*
X122272256Y-92405064D01*
X122319619Y-92371755D01*
X122369166Y-92341598D01*
X122420803Y-92314711D01*
X122474436Y-92291212D01*
X122524104Y-92272406D01*
X122547441Y-92264581D01*
X122570518Y-92257723D01*
X122593888Y-92251769D01*
X122618106Y-92246656D01*
X122643725Y-92242320D01*
X122671299Y-92238697D01*
X122701382Y-92235725D01*
X122734527Y-92233340D01*
X122812221Y-92230077D01*
X122908809Y-92228401D01*
X123028723Y-92227805D01*
X123122098Y-92228265D01*
X123207692Y-92230104D01*
X123286174Y-92233529D01*
X123358214Y-92238746D01*
X123424479Y-92245961D01*
X123485640Y-92255381D01*
X123542364Y-92267213D01*
X123569271Y-92274098D01*
X123595320Y-92281663D01*
X123620595Y-92289933D01*
X123645178Y-92298936D01*
X123669154Y-92308696D01*
X123692606Y-92319240D01*
X123715618Y-92330593D01*
X123738274Y-92342781D01*
X123760656Y-92355829D01*
X123782849Y-92369764D01*
X123827001Y-92400398D01*
X123871399Y-92434887D01*
X123916711Y-92473439D01*
X123963607Y-92516259D01*
X124003304Y-92556004D01*
X124040283Y-92598102D01*
X124074566Y-92642617D01*
X124106173Y-92689616D01*
X124135127Y-92739161D01*
X124161450Y-92791317D01*
X124185162Y-92846149D01*
X124206287Y-92903721D01*
X124224845Y-92964099D01*
X124240858Y-93027345D01*
X124254348Y-93093526D01*
X124265337Y-93162704D01*
X124273846Y-93234946D01*
X124279897Y-93310314D01*
X124281798Y-93351630D01*
X124283512Y-93388875D01*
G37*
%TD.AperFunction*%
D10*
%TA.AperFunction,NonConductor*%
G36*
X179034565Y-87793426D02*
G01*
X177905676Y-87793426D01*
X177905676Y-87228981D01*
X179034565Y-87228981D01*
X179034565Y-87793426D01*
G37*
%TD.AperFunction*%
%TA.AperFunction,NonConductor*%
G36*
X184114565Y-84406759D02*
G01*
X180163454Y-84406759D01*
X180163454Y-81020092D01*
X180727898Y-81020092D01*
X180727898Y-83842315D01*
X183550121Y-83842315D01*
X183550121Y-81020092D01*
X180727898Y-81020092D01*
X180163454Y-81020092D01*
X180163454Y-80455648D01*
X184114565Y-80455648D01*
X184114565Y-81020092D01*
X184114565Y-84406759D01*
G37*
%TD.AperFunction*%
D11*
X117680670Y-93607464D02*
X117676788Y-93679846D01*
X117671351Y-93749020D01*
X117664358Y-93813918D01*
X117655809Y-93873471D01*
X117645704Y-93926611D01*
X117634044Y-93972269D01*
X117594577Y-94090114D01*
X117549548Y-94197876D01*
X117498627Y-94295728D01*
X117470852Y-94340992D01*
X117441480Y-94383843D01*
X117410468Y-94424303D01*
X117377777Y-94462393D01*
X117343363Y-94498135D01*
X117307186Y-94531550D01*
X117269204Y-94562660D01*
X117229377Y-94591486D01*
X117187661Y-94618051D01*
X117144017Y-94642375D01*
X117098402Y-94664480D01*
X117050775Y-94684388D01*
X117001095Y-94702120D01*
X116949320Y-94717698D01*
X116839321Y-94742477D01*
X116720445Y-94758897D01*
X116592363Y-94767132D01*
X116454741Y-94767352D01*
X116307250Y-94759732D01*
X116149557Y-94744442D01*
X116000704Y-94726231D01*
X115869235Y-94708697D01*
X115814471Y-94700807D01*
X115769395Y-94693834D01*
X115735787Y-94688028D01*
X115715429Y-94683637D01*
X115694720Y-94678307D01*
X115686380Y-94676730D01*
X115679294Y-94676102D01*
X115676201Y-94676196D01*
X115673397Y-94676590D01*
X115670873Y-94677305D01*
X115668622Y-94678362D01*
X115666635Y-94679782D01*
X115664903Y-94681586D01*
X115663418Y-94683795D01*
X115662173Y-94686430D01*
X115661158Y-94689512D01*
X115660366Y-94693061D01*
X115659416Y-94701647D01*
X115659256Y-94712356D01*
X115659820Y-94725354D01*
X115661042Y-94740811D01*
X115662856Y-94758894D01*
X115667992Y-94803608D01*
X115671640Y-94830254D01*
X115676221Y-94856538D01*
X115681721Y-94882442D01*
X115688125Y-94907949D01*
X115695418Y-94933043D01*
X115703587Y-94957706D01*
X115712616Y-94981923D01*
X115722490Y-95005676D01*
X115733197Y-95028948D01*
X115744721Y-95051722D01*
X115757047Y-95073982D01*
X115770161Y-95095711D01*
X115798696Y-95137508D01*
X115830208Y-95176979D01*
X115864583Y-95213987D01*
X115901705Y-95248400D01*
X115921259Y-95264591D01*
X115941456Y-95280083D01*
X115962282Y-95294858D01*
X115983722Y-95308899D01*
X116005762Y-95322191D01*
X116028386Y-95334716D01*
X116051581Y-95346458D01*
X116075332Y-95357399D01*
X116099625Y-95367523D01*
X116124445Y-95376812D01*
X116149777Y-95385251D01*
X116175608Y-95392821D01*
X116206310Y-95398616D01*
X116250323Y-95403182D01*
X116371561Y-95408805D01*
X116525887Y-95410042D01*
X116699867Y-95407244D01*
X116880067Y-95400764D01*
X117053052Y-95390954D01*
X117205387Y-95378165D01*
X117323638Y-95362749D01*
X117357739Y-95357149D01*
X117389976Y-95352350D01*
X117419614Y-95348425D01*
X117445916Y-95345450D01*
X117468147Y-95343499D01*
X117477506Y-95342931D01*
X117485571Y-95342647D01*
X117492250Y-95342656D01*
X117497451Y-95342967D01*
X117501083Y-95343591D01*
X117502281Y-95344022D01*
X117503052Y-95344535D01*
X117504229Y-95346318D01*
X117505533Y-95349402D01*
X117508467Y-95359178D01*
X117511746Y-95373274D01*
X117515262Y-95391101D01*
X117518906Y-95412072D01*
X117522569Y-95435598D01*
X117526142Y-95461091D01*
X117529517Y-95487963D01*
X117545231Y-95620640D01*
X117323644Y-95650185D01*
X117229255Y-95662463D01*
X117136059Y-95674051D01*
X117054800Y-95683646D01*
X116996222Y-95689944D01*
X116996209Y-95689942D01*
X116966579Y-95691920D01*
X116922756Y-95693599D01*
X116800996Y-95695971D01*
X116647858Y-95696865D01*
X116480271Y-95696091D01*
X116352644Y-95694499D01*
X116299207Y-95693446D01*
X116251834Y-95692110D01*
X116209885Y-95690408D01*
X116172720Y-95688257D01*
X116139700Y-95685575D01*
X116110185Y-95682277D01*
X116083534Y-95678282D01*
X116059108Y-95673505D01*
X116036267Y-95667865D01*
X116014371Y-95661276D01*
X115992780Y-95653658D01*
X115970854Y-95644926D01*
X115947954Y-95634997D01*
X115923440Y-95623789D01*
X115889617Y-95607393D01*
X115856779Y-95590130D01*
X115824946Y-95572015D01*
X115794137Y-95553066D01*
X115764370Y-95533298D01*
X115735666Y-95512729D01*
X115708042Y-95491375D01*
X115681519Y-95469253D01*
X115656115Y-95446378D01*
X115631850Y-95422769D01*
X115608742Y-95398441D01*
X115586810Y-95373411D01*
X115566075Y-95347695D01*
X115546554Y-95321310D01*
X115528268Y-95294273D01*
X115511234Y-95266601D01*
X115465968Y-95184436D01*
X115447489Y-95143931D01*
X115431532Y-95100881D01*
X115417912Y-95053090D01*
X115406444Y-94998361D01*
X115396942Y-94934497D01*
X115389222Y-94859301D01*
X115378382Y-94666128D01*
X115372443Y-94401268D01*
X115369335Y-93586188D01*
X115369095Y-92561121D01*
X115660076Y-92561121D01*
X115660076Y-93470530D01*
X115660112Y-93624279D01*
X115660262Y-93759718D01*
X115660591Y-93878028D01*
X115661163Y-93980394D01*
X115661561Y-94025968D01*
X115662043Y-94068000D01*
X115662619Y-94106637D01*
X115663295Y-94142028D01*
X115664081Y-94174320D01*
X115664984Y-94203662D01*
X115666012Y-94230201D01*
X115667174Y-94254086D01*
X115668477Y-94275464D01*
X115669929Y-94294483D01*
X115671539Y-94311291D01*
X115673314Y-94326037D01*
X115674267Y-94332682D01*
X115675263Y-94338867D01*
X115676305Y-94344611D01*
X115677394Y-94349931D01*
X115678530Y-94354846D01*
X115679714Y-94359376D01*
X115680948Y-94363537D01*
X115682232Y-94367349D01*
X115683567Y-94370830D01*
X115684956Y-94373999D01*
X115686397Y-94376874D01*
X115687893Y-94379474D01*
X115689445Y-94381817D01*
X115691053Y-94383922D01*
X115692718Y-94385806D01*
X115694442Y-94387490D01*
X115696226Y-94388991D01*
X115698070Y-94390327D01*
X115699975Y-94391517D01*
X115701943Y-94392580D01*
X115706071Y-94394398D01*
X115710460Y-94395928D01*
X115726439Y-94399920D01*
X115752667Y-94405151D01*
X115830339Y-94418440D01*
X115932408Y-94434020D01*
X116047805Y-94450110D01*
X116167382Y-94464523D01*
X116279652Y-94474890D01*
X116384881Y-94481148D01*
X116483337Y-94483229D01*
X116530108Y-94482683D01*
X116575286Y-94481069D01*
X116618903Y-94478378D01*
X116660994Y-94474601D01*
X116701592Y-94469732D01*
X116740730Y-94463761D01*
X116778441Y-94456681D01*
X116814758Y-94448483D01*
X116849716Y-94439159D01*
X116883348Y-94428701D01*
X116915686Y-94417100D01*
X116946764Y-94404349D01*
X116976615Y-94390439D01*
X117005274Y-94375362D01*
X117032773Y-94359110D01*
X117059145Y-94341675D01*
X117084424Y-94323048D01*
X117108643Y-94303221D01*
X117131836Y-94282187D01*
X117154036Y-94259936D01*
X117175276Y-94236460D01*
X117195590Y-94211753D01*
X117215010Y-94185804D01*
X117233571Y-94158607D01*
X117254582Y-94124942D01*
X117273888Y-94090915D01*
X117291538Y-94056313D01*
X117307580Y-94020924D01*
X117322063Y-93984535D01*
X117335034Y-93946934D01*
X117346541Y-93907907D01*
X117356633Y-93867243D01*
X117365358Y-93824729D01*
X117372763Y-93780151D01*
X117378897Y-93733298D01*
X117383808Y-93683957D01*
X117387544Y-93631916D01*
X117390153Y-93576961D01*
X117391683Y-93518880D01*
X117392182Y-93457461D01*
X117391583Y-93387943D01*
X117389736Y-93322883D01*
X117386567Y-93262012D01*
X117382002Y-93205059D01*
X117375966Y-93151755D01*
X117368385Y-93101831D01*
X117359185Y-93055018D01*
X117348291Y-93011045D01*
X117335629Y-92969645D01*
X117321124Y-92930546D01*
X117304703Y-92893480D01*
X117286290Y-92858177D01*
X117265812Y-92824369D01*
X117243194Y-92791785D01*
X117218362Y-92760156D01*
X117191242Y-92729212D01*
X117159958Y-92696366D01*
X117129530Y-92667046D01*
X117099211Y-92641060D01*
X117068251Y-92618216D01*
X117035903Y-92598321D01*
X117001418Y-92581182D01*
X116964049Y-92566607D01*
X116923046Y-92554404D01*
X116877663Y-92544380D01*
X116827150Y-92536342D01*
X116770759Y-92530098D01*
X116707742Y-92525456D01*
X116637351Y-92522222D01*
X116558838Y-92520205D01*
X116374451Y-92519050D01*
X116278875Y-92519644D01*
X116184752Y-92521010D01*
X116094497Y-92523062D01*
X116010525Y-92525711D01*
X115935250Y-92528869D01*
X115871087Y-92532447D01*
X115820450Y-92536359D01*
X115785753Y-92540516D01*
X115660076Y-92561121D01*
X115369095Y-92561121D01*
X115369034Y-92299393D01*
X115507940Y-92282551D01*
X115731614Y-92257846D01*
X115948172Y-92238623D01*
X116154237Y-92224977D01*
X116346430Y-92217000D01*
X116521374Y-92214788D01*
X116601322Y-92215872D01*
X116675691Y-92218432D01*
X116744058Y-92222481D01*
X116806001Y-92228029D01*
X116861099Y-92235088D01*
X116908928Y-92243670D01*
X116978974Y-92260481D01*
X117045277Y-92280446D01*
X117107935Y-92303655D01*
X117167041Y-92330200D01*
X117222691Y-92360173D01*
X117274980Y-92393665D01*
X117324003Y-92430768D01*
X117369856Y-92471574D01*
X117412633Y-92516175D01*
X117452429Y-92564661D01*
X117489340Y-92617125D01*
X117523461Y-92673659D01*
X117554887Y-92734354D01*
X117583712Y-92799301D01*
X117610033Y-92868593D01*
X117633944Y-92942321D01*
X117645614Y-92988006D01*
X117655729Y-93041169D01*
X117664289Y-93100742D01*
X117671295Y-93165656D01*
X117676745Y-93234843D01*
X117680641Y-93307233D01*
X117683766Y-93457352D01*
X117683764Y-93457461D01*
X117680670Y-93607464D01*
%TA.AperFunction,NonConductor*%
G36*
X117680670Y-93607464D02*
G01*
X117676788Y-93679846D01*
X117671351Y-93749020D01*
X117664358Y-93813918D01*
X117655809Y-93873471D01*
X117645704Y-93926611D01*
X117634044Y-93972269D01*
X117594577Y-94090114D01*
X117549548Y-94197876D01*
X117498627Y-94295728D01*
X117470852Y-94340992D01*
X117441480Y-94383843D01*
X117410468Y-94424303D01*
X117377777Y-94462393D01*
X117343363Y-94498135D01*
X117307186Y-94531550D01*
X117269204Y-94562660D01*
X117229377Y-94591486D01*
X117187661Y-94618051D01*
X117144017Y-94642375D01*
X117098402Y-94664480D01*
X117050775Y-94684388D01*
X117001095Y-94702120D01*
X116949320Y-94717698D01*
X116839321Y-94742477D01*
X116720445Y-94758897D01*
X116592363Y-94767132D01*
X116454741Y-94767352D01*
X116307250Y-94759732D01*
X116149557Y-94744442D01*
X116000704Y-94726231D01*
X115869235Y-94708697D01*
X115814471Y-94700807D01*
X115769395Y-94693834D01*
X115735787Y-94688028D01*
X115715429Y-94683637D01*
X115694720Y-94678307D01*
X115686380Y-94676730D01*
X115679294Y-94676102D01*
X115676201Y-94676196D01*
X115673397Y-94676590D01*
X115670873Y-94677305D01*
X115668622Y-94678362D01*
X115666635Y-94679782D01*
X115664903Y-94681586D01*
X115663418Y-94683795D01*
X115662173Y-94686430D01*
X115661158Y-94689512D01*
X115660366Y-94693061D01*
X115659416Y-94701647D01*
X115659256Y-94712356D01*
X115659820Y-94725354D01*
X115661042Y-94740811D01*
X115662856Y-94758894D01*
X115667992Y-94803608D01*
X115671640Y-94830254D01*
X115676221Y-94856538D01*
X115681721Y-94882442D01*
X115688125Y-94907949D01*
X115695418Y-94933043D01*
X115703587Y-94957706D01*
X115712616Y-94981923D01*
X115722490Y-95005676D01*
X115733197Y-95028948D01*
X115744721Y-95051722D01*
X115757047Y-95073982D01*
X115770161Y-95095711D01*
X115798696Y-95137508D01*
X115830208Y-95176979D01*
X115864583Y-95213987D01*
X115901705Y-95248400D01*
X115921259Y-95264591D01*
X115941456Y-95280083D01*
X115962282Y-95294858D01*
X115983722Y-95308899D01*
X116005762Y-95322191D01*
X116028386Y-95334716D01*
X116051581Y-95346458D01*
X116075332Y-95357399D01*
X116099625Y-95367523D01*
X116124445Y-95376812D01*
X116149777Y-95385251D01*
X116175608Y-95392821D01*
X116206310Y-95398616D01*
X116250323Y-95403182D01*
X116371561Y-95408805D01*
X116525887Y-95410042D01*
X116699867Y-95407244D01*
X116880067Y-95400764D01*
X117053052Y-95390954D01*
X117205387Y-95378165D01*
X117323638Y-95362749D01*
X117357739Y-95357149D01*
X117389976Y-95352350D01*
X117419614Y-95348425D01*
X117445916Y-95345450D01*
X117468147Y-95343499D01*
X117477506Y-95342931D01*
X117485571Y-95342647D01*
X117492250Y-95342656D01*
X117497451Y-95342967D01*
X117501083Y-95343591D01*
X117502281Y-95344022D01*
X117503052Y-95344535D01*
X117504229Y-95346318D01*
X117505533Y-95349402D01*
X117508467Y-95359178D01*
X117511746Y-95373274D01*
X117515262Y-95391101D01*
X117518906Y-95412072D01*
X117522569Y-95435598D01*
X117526142Y-95461091D01*
X117529517Y-95487963D01*
X117545231Y-95620640D01*
X117323644Y-95650185D01*
X117229255Y-95662463D01*
X117136059Y-95674051D01*
X117054800Y-95683646D01*
X116996222Y-95689944D01*
X116996209Y-95689942D01*
X116966579Y-95691920D01*
X116922756Y-95693599D01*
X116800996Y-95695971D01*
X116647858Y-95696865D01*
X116480271Y-95696091D01*
X116352644Y-95694499D01*
X116299207Y-95693446D01*
X116251834Y-95692110D01*
X116209885Y-95690408D01*
X116172720Y-95688257D01*
X116139700Y-95685575D01*
X116110185Y-95682277D01*
X116083534Y-95678282D01*
X116059108Y-95673505D01*
X116036267Y-95667865D01*
X116014371Y-95661276D01*
X115992780Y-95653658D01*
X115970854Y-95644926D01*
X115947954Y-95634997D01*
X115923440Y-95623789D01*
X115889617Y-95607393D01*
X115856779Y-95590130D01*
X115824946Y-95572015D01*
X115794137Y-95553066D01*
X115764370Y-95533298D01*
X115735666Y-95512729D01*
X115708042Y-95491375D01*
X115681519Y-95469253D01*
X115656115Y-95446378D01*
X115631850Y-95422769D01*
X115608742Y-95398441D01*
X115586810Y-95373411D01*
X115566075Y-95347695D01*
X115546554Y-95321310D01*
X115528268Y-95294273D01*
X115511234Y-95266601D01*
X115465968Y-95184436D01*
X115447489Y-95143931D01*
X115431532Y-95100881D01*
X115417912Y-95053090D01*
X115406444Y-94998361D01*
X115396942Y-94934497D01*
X115389222Y-94859301D01*
X115378382Y-94666128D01*
X115372443Y-94401268D01*
X115369335Y-93586188D01*
X115369095Y-92561121D01*
X115660076Y-92561121D01*
X115660076Y-93470530D01*
X115660112Y-93624279D01*
X115660262Y-93759718D01*
X115660591Y-93878028D01*
X115661163Y-93980394D01*
X115661561Y-94025968D01*
X115662043Y-94068000D01*
X115662619Y-94106637D01*
X115663295Y-94142028D01*
X115664081Y-94174320D01*
X115664984Y-94203662D01*
X115666012Y-94230201D01*
X115667174Y-94254086D01*
X115668477Y-94275464D01*
X115669929Y-94294483D01*
X115671539Y-94311291D01*
X115673314Y-94326037D01*
X115674267Y-94332682D01*
X115675263Y-94338867D01*
X115676305Y-94344611D01*
X115677394Y-94349931D01*
X115678530Y-94354846D01*
X115679714Y-94359376D01*
X115680948Y-94363537D01*
X115682232Y-94367349D01*
X115683567Y-94370830D01*
X115684956Y-94373999D01*
X115686397Y-94376874D01*
X115687893Y-94379474D01*
X115689445Y-94381817D01*
X115691053Y-94383922D01*
X115692718Y-94385806D01*
X115694442Y-94387490D01*
X115696226Y-94388991D01*
X115698070Y-94390327D01*
X115699975Y-94391517D01*
X115701943Y-94392580D01*
X115706071Y-94394398D01*
X115710460Y-94395928D01*
X115726439Y-94399920D01*
X115752667Y-94405151D01*
X115830339Y-94418440D01*
X115932408Y-94434020D01*
X116047805Y-94450110D01*
X116167382Y-94464523D01*
X116279652Y-94474890D01*
X116384881Y-94481148D01*
X116483337Y-94483229D01*
X116530108Y-94482683D01*
X116575286Y-94481069D01*
X116618903Y-94478378D01*
X116660994Y-94474601D01*
X116701592Y-94469732D01*
X116740730Y-94463761D01*
X116778441Y-94456681D01*
X116814758Y-94448483D01*
X116849716Y-94439159D01*
X116883348Y-94428701D01*
X116915686Y-94417100D01*
X116946764Y-94404349D01*
X116976615Y-94390439D01*
X117005274Y-94375362D01*
X117032773Y-94359110D01*
X117059145Y-94341675D01*
X117084424Y-94323048D01*
X117108643Y-94303221D01*
X117131836Y-94282187D01*
X117154036Y-94259936D01*
X117175276Y-94236460D01*
X117195590Y-94211753D01*
X117215010Y-94185804D01*
X117233571Y-94158607D01*
X117254582Y-94124942D01*
X117273888Y-94090915D01*
X117291538Y-94056313D01*
X117307580Y-94020924D01*
X117322063Y-93984535D01*
X117335034Y-93946934D01*
X117346541Y-93907907D01*
X117356633Y-93867243D01*
X117365358Y-93824729D01*
X117372763Y-93780151D01*
X117378897Y-93733298D01*
X117383808Y-93683957D01*
X117387544Y-93631916D01*
X117390153Y-93576961D01*
X117391683Y-93518880D01*
X117392182Y-93457461D01*
X117391583Y-93387943D01*
X117389736Y-93322883D01*
X117386567Y-93262012D01*
X117382002Y-93205059D01*
X117375966Y-93151755D01*
X117368385Y-93101831D01*
X117359185Y-93055018D01*
X117348291Y-93011045D01*
X117335629Y-92969645D01*
X117321124Y-92930546D01*
X117304703Y-92893480D01*
X117286290Y-92858177D01*
X117265812Y-92824369D01*
X117243194Y-92791785D01*
X117218362Y-92760156D01*
X117191242Y-92729212D01*
X117159958Y-92696366D01*
X117129530Y-92667046D01*
X117099211Y-92641060D01*
X117068251Y-92618216D01*
X117035903Y-92598321D01*
X117001418Y-92581182D01*
X116964049Y-92566607D01*
X116923046Y-92554404D01*
X116877663Y-92544380D01*
X116827150Y-92536342D01*
X116770759Y-92530098D01*
X116707742Y-92525456D01*
X116637351Y-92522222D01*
X116558838Y-92520205D01*
X116374451Y-92519050D01*
X116278875Y-92519644D01*
X116184752Y-92521010D01*
X116094497Y-92523062D01*
X116010525Y-92525711D01*
X115935250Y-92528869D01*
X115871087Y-92532447D01*
X115820450Y-92536359D01*
X115785753Y-92540516D01*
X115660076Y-92561121D01*
X115369095Y-92561121D01*
X115369034Y-92299393D01*
X115507940Y-92282551D01*
X115731614Y-92257846D01*
X115948172Y-92238623D01*
X116154237Y-92224977D01*
X116346430Y-92217000D01*
X116521374Y-92214788D01*
X116601322Y-92215872D01*
X116675691Y-92218432D01*
X116744058Y-92222481D01*
X116806001Y-92228029D01*
X116861099Y-92235088D01*
X116908928Y-92243670D01*
X116978974Y-92260481D01*
X117045277Y-92280446D01*
X117107935Y-92303655D01*
X117167041Y-92330200D01*
X117222691Y-92360173D01*
X117274980Y-92393665D01*
X117324003Y-92430768D01*
X117369856Y-92471574D01*
X117412633Y-92516175D01*
X117452429Y-92564661D01*
X117489340Y-92617125D01*
X117523461Y-92673659D01*
X117554887Y-92734354D01*
X117583712Y-92799301D01*
X117610033Y-92868593D01*
X117633944Y-92942321D01*
X117645614Y-92988006D01*
X117655729Y-93041169D01*
X117664289Y-93100742D01*
X117671295Y-93165656D01*
X117676745Y-93234843D01*
X117680641Y-93307233D01*
X117683766Y-93457352D01*
X117683764Y-93457461D01*
X117680670Y-93607464D01*
G37*
%TD.AperFunction*%
D10*
%TA.AperFunction,NonConductor*%
G36*
X176776787Y-85535648D02*
G01*
X176212343Y-85535648D01*
X176212343Y-84971204D01*
X176776787Y-84971204D01*
X176776787Y-85535648D01*
G37*
%TD.AperFunction*%
%TA.AperFunction,NonConductor*%
G36*
X177341232Y-81584537D02*
G01*
X177341232Y-82713426D01*
X176212343Y-82713426D01*
X176212343Y-83277870D01*
X177905676Y-83277870D01*
X177905676Y-83842315D01*
X177341232Y-83842315D01*
X177341232Y-84406759D01*
X177905676Y-84406759D01*
X177905676Y-83842315D01*
X178470121Y-83842315D01*
X178470121Y-84406759D01*
X179034565Y-84406759D01*
X179034565Y-83842315D01*
X178470121Y-83842315D01*
X178470121Y-82713426D01*
X177905676Y-82713426D01*
X177905676Y-82148981D01*
X179599009Y-82148981D01*
X179599009Y-82713426D01*
X179034565Y-82713426D01*
X179034565Y-83277870D01*
X179599009Y-83277870D01*
X179599009Y-83842315D01*
X179599009Y-84406759D01*
X179034565Y-84406759D01*
X179034565Y-84971204D01*
X180727898Y-84971204D01*
X180727898Y-85535648D01*
X179599009Y-85535648D01*
X179599009Y-86100092D01*
X179034565Y-86100092D01*
X179034565Y-85535648D01*
X178470121Y-85535648D01*
X178470121Y-84971204D01*
X177905676Y-84971204D01*
X177905676Y-85535648D01*
X177341232Y-85535648D01*
X177341232Y-84406759D01*
X176776787Y-84406759D01*
X176776787Y-83842315D01*
X176212343Y-83842315D01*
X176212343Y-84406759D01*
X175647898Y-84406759D01*
X175647898Y-83842315D01*
X175083454Y-83842315D01*
X175083454Y-83277870D01*
X175647898Y-83277870D01*
X175647898Y-82713426D01*
X173954565Y-82713426D01*
X173954565Y-82148981D01*
X172825676Y-82148981D01*
X172825676Y-82713426D01*
X172261232Y-82713426D01*
X172261232Y-81584537D01*
X172825676Y-81584537D01*
X175083454Y-81584537D01*
X175083454Y-82148981D01*
X176212343Y-82148981D01*
X176212343Y-81584537D01*
X175083454Y-81584537D01*
X172825676Y-81584537D01*
X172825676Y-81020092D01*
X175647898Y-81020092D01*
X175647898Y-80455648D01*
X176212343Y-80455648D01*
X176212343Y-81020092D01*
X176776787Y-81020092D01*
X176776787Y-81584537D01*
X177341232Y-81584537D01*
G37*
%TD.AperFunction*%
%TA.AperFunction,NonConductor*%
G36*
X172825676Y-81020092D02*
G01*
X172261232Y-81020092D01*
X172261232Y-80455648D01*
X172825676Y-80455648D01*
X172825676Y-81020092D01*
G37*
%TD.AperFunction*%
%TA.AperFunction,NonConductor*%
G36*
X178470121Y-92308981D02*
G01*
X177905676Y-92308981D01*
X177905676Y-91744537D01*
X178470121Y-91744537D01*
X178470121Y-92308981D01*
G37*
%TD.AperFunction*%
%TA.AperFunction,NonConductor*%
G36*
X184114565Y-86100092D02*
G01*
X183550121Y-86100092D01*
X183550121Y-85535648D01*
X182985676Y-85535648D01*
X182985676Y-86664537D01*
X182421232Y-86664537D01*
X182421232Y-87228981D01*
X181856787Y-87228981D01*
X181856787Y-88357870D01*
X181292343Y-88357870D01*
X181292343Y-89486759D01*
X181856787Y-89486759D01*
X181856787Y-88922315D01*
X182421232Y-88922315D01*
X182421232Y-90615648D01*
X182985676Y-90615648D01*
X182985676Y-90051203D01*
X183550121Y-90051203D01*
X183550121Y-88922315D01*
X182421232Y-88922315D01*
X182421232Y-88357870D01*
X184114565Y-88357870D01*
X184114565Y-92308981D01*
X183550121Y-92308981D01*
X183550121Y-90615648D01*
X182985676Y-90615648D01*
X182985676Y-91180093D01*
X182421232Y-91180093D01*
X182421232Y-90615648D01*
X181856787Y-90615648D01*
X181856787Y-90051203D01*
X180163454Y-90051203D01*
X180163454Y-89486759D01*
X180727898Y-89486759D01*
X180727898Y-88922315D01*
X180163454Y-88922315D01*
X180163454Y-88357870D01*
X179599009Y-88357870D01*
X179599009Y-88922315D01*
X179034565Y-88922315D01*
X179034565Y-87793426D01*
X180163454Y-87793426D01*
X180163454Y-88357870D01*
X180727898Y-88357870D01*
X180727898Y-87793426D01*
X181292343Y-87793426D01*
X181292343Y-84971204D01*
X184114565Y-84971204D01*
X184114565Y-86100092D01*
G37*
%TD.AperFunction*%
%TA.AperFunction,NonConductor*%
G36*
X180727898Y-87793426D02*
G01*
X180163454Y-87793426D01*
X180163454Y-87228981D01*
X180727898Y-87228981D01*
X180727898Y-87793426D01*
G37*
%TD.AperFunction*%
%TA.AperFunction,NonConductor*%
G36*
X171696787Y-84406759D02*
G01*
X167745676Y-84406759D01*
X167745676Y-81020092D01*
X168310120Y-81020092D01*
X168310120Y-83842315D01*
X171132343Y-83842315D01*
X171132343Y-81020092D01*
X168310120Y-81020092D01*
X167745676Y-81020092D01*
X167745676Y-80455648D01*
X171696787Y-80455648D01*
X171696787Y-81020092D01*
X171696787Y-84406759D01*
G37*
%TD.AperFunction*%
%TA.AperFunction,NonConductor*%
G36*
X178470121Y-86664537D02*
G01*
X177905676Y-86664537D01*
X177905676Y-85535648D01*
X178470121Y-85535648D01*
X178470121Y-86664537D01*
G37*
%TD.AperFunction*%
%TA.AperFunction,NonConductor*%
G36*
X171132343Y-86664537D02*
G01*
X171696787Y-86664537D01*
X171696787Y-86100092D01*
X172825676Y-86100092D01*
X172825676Y-86664537D01*
X173954565Y-86664537D01*
X173954565Y-86100092D01*
X174519010Y-86100092D01*
X174519010Y-86664537D01*
X175083454Y-86664537D01*
X175083454Y-87228981D01*
X174519010Y-87228981D01*
X174519010Y-87793426D01*
X173954565Y-87793426D01*
X173954565Y-87228981D01*
X172825676Y-87228981D01*
X172825676Y-87793426D01*
X173390120Y-87793426D01*
X173390120Y-88357870D01*
X171132343Y-88357870D01*
X171132343Y-88922315D01*
X173954565Y-88922315D01*
X173954565Y-88357870D01*
X174519010Y-88357870D01*
X174519010Y-88922315D01*
X175083454Y-88922315D01*
X175083454Y-89486759D01*
X175647898Y-89486759D01*
X175647898Y-90615648D01*
X176212343Y-90615648D01*
X176212343Y-90051203D01*
X177341232Y-90051203D01*
X177341232Y-90615648D01*
X176776787Y-90615648D01*
X176776787Y-91180093D01*
X177341232Y-91180093D01*
X177341232Y-92308981D01*
X176776787Y-92308981D01*
X176776787Y-91744537D01*
X176212343Y-91744537D01*
X176212343Y-92308981D01*
X175083454Y-92308981D01*
X175083454Y-92873426D01*
X174519010Y-92873426D01*
X174519010Y-92308981D01*
X173954565Y-92308981D01*
X173954565Y-91744537D01*
X172825676Y-91744537D01*
X172825676Y-92308981D01*
X172825676Y-93437870D01*
X173390120Y-93437870D01*
X173390120Y-94002314D01*
X172825676Y-94002314D01*
X172825676Y-94566760D01*
X173390120Y-94566760D01*
X173390120Y-95131204D01*
X173390120Y-95695648D01*
X173954565Y-95695648D01*
X173954565Y-95131204D01*
X174519010Y-95131204D01*
X174519010Y-95695648D01*
X173954565Y-95695648D01*
X173954565Y-96260093D01*
X174519010Y-96260093D01*
X174519010Y-95695648D01*
X175083454Y-95695648D01*
X175083454Y-96260093D01*
X176212343Y-96260093D01*
X176212343Y-95695648D01*
X175083454Y-95695648D01*
X175083454Y-95131204D01*
X174519010Y-95131204D01*
X174519010Y-94566760D01*
X175083454Y-94566760D01*
X175083454Y-94002314D01*
X175647898Y-94002314D01*
X175647898Y-94566760D01*
X177341232Y-94566760D01*
X177341232Y-95131204D01*
X176776787Y-95131204D01*
X176776787Y-95695648D01*
X177341232Y-95695648D01*
X177341232Y-96824537D01*
X176776787Y-96824537D01*
X176776787Y-96260093D01*
X176212343Y-96260093D01*
X176212343Y-96824537D01*
X173390120Y-96824537D01*
X173390120Y-96260093D01*
X172261232Y-96260093D01*
X172261232Y-95695648D01*
X170567899Y-95695648D01*
X170567899Y-94566760D01*
X171696787Y-94566760D01*
X171696787Y-95131204D01*
X172261232Y-95131204D01*
X172261232Y-95695648D01*
X172825676Y-95695648D01*
X172825676Y-95131204D01*
X172261232Y-95131204D01*
X172261232Y-94566760D01*
X171696787Y-94566760D01*
X170567899Y-94566760D01*
X170003453Y-94566760D01*
X170003453Y-94002314D01*
X170567899Y-94002314D01*
X172261232Y-94002314D01*
X172261232Y-92308981D01*
X170567899Y-92308981D01*
X170567899Y-94002314D01*
X170003453Y-94002314D01*
X170003453Y-93437870D01*
X169439009Y-93437870D01*
X169439009Y-94566760D01*
X167745676Y-94566760D01*
X167745676Y-93437870D01*
X168874565Y-93437870D01*
X168874565Y-92873426D01*
X168310120Y-92873426D01*
X168310120Y-92308981D01*
X168874565Y-92308981D01*
X168874565Y-92873426D01*
X170003453Y-92873426D01*
X170003453Y-92308981D01*
X168874565Y-92308981D01*
X168310120Y-92308981D01*
X168310120Y-91744537D01*
X167745676Y-91744537D01*
X167745676Y-91180093D01*
X168874565Y-91180093D01*
X168874565Y-91744537D01*
X170003453Y-91744537D01*
X170003453Y-91180093D01*
X168874565Y-91180093D01*
X168874565Y-90615648D01*
X169439009Y-90615648D01*
X170003453Y-90615648D01*
X170003453Y-91180093D01*
X170567899Y-91180093D01*
X171132343Y-91180093D01*
X173390120Y-91180093D01*
X173390120Y-90615648D01*
X174519010Y-90615648D01*
X174519010Y-91180093D01*
X175083454Y-91180093D01*
X175083454Y-91744537D01*
X174519010Y-91744537D01*
X174519010Y-92308981D01*
X175083454Y-92308981D01*
X175083454Y-91744537D01*
X176212343Y-91744537D01*
X176212343Y-91180093D01*
X175083454Y-91180093D01*
X175083454Y-90615648D01*
X174519010Y-90615648D01*
X174519010Y-89486759D01*
X172825676Y-89486759D01*
X172825676Y-90051203D01*
X171132343Y-90051203D01*
X171132343Y-90615648D01*
X171132343Y-91180093D01*
X170567899Y-91180093D01*
X170567899Y-90615648D01*
X170003453Y-90615648D01*
X169439009Y-90615648D01*
X169439009Y-90051203D01*
X170567899Y-90051203D01*
X170567899Y-89486759D01*
X170003453Y-89486759D01*
X170003453Y-88922315D01*
X168874565Y-88922315D01*
X168874565Y-89486759D01*
X167745676Y-89486759D01*
X167745676Y-88357870D01*
X168310120Y-88357870D01*
X168310120Y-87793426D01*
X168874565Y-87793426D01*
X168874565Y-88357870D01*
X169439009Y-88357870D01*
X170003453Y-88357870D01*
X170003453Y-88922315D01*
X170567899Y-88922315D01*
X170567899Y-88357870D01*
X170003453Y-88357870D01*
X169439009Y-88357870D01*
X169439009Y-87793426D01*
X170567899Y-87793426D01*
X171696787Y-87793426D01*
X172261232Y-87793426D01*
X172261232Y-87228981D01*
X171696787Y-87228981D01*
X171696787Y-87793426D01*
X170567899Y-87793426D01*
X170567899Y-87228981D01*
X169439009Y-87228981D01*
X169439009Y-86664537D01*
X168874565Y-86664537D01*
X168874565Y-86100092D01*
X169439009Y-86100092D01*
X170003453Y-86100092D01*
X170003453Y-86664537D01*
X170567899Y-86664537D01*
X170567899Y-86100092D01*
X170003453Y-86100092D01*
X169439009Y-86100092D01*
X169439009Y-84971204D01*
X170003453Y-84971204D01*
X170003453Y-85535648D01*
X170567899Y-85535648D01*
X170567899Y-84971204D01*
X171132343Y-84971204D01*
X171132343Y-85535648D01*
X171696787Y-85535648D01*
X171696787Y-86100092D01*
X171132343Y-86100092D01*
X171132343Y-86664537D01*
G37*
%TD.AperFunction*%
D11*
X118653300Y-84946567D02*
X118678987Y-85024367D01*
X118736612Y-85213283D01*
X118913519Y-85811004D01*
X119055672Y-86291575D01*
X119184115Y-86712509D01*
X119301661Y-87081923D01*
X119411122Y-87407934D01*
X119515309Y-87698660D01*
X119617034Y-87962218D01*
X119719111Y-88206726D01*
X119824349Y-88440299D01*
X119848852Y-88493449D01*
X119871711Y-88544321D01*
X119892426Y-88591708D01*
X119910496Y-88634406D01*
X119925422Y-88671208D01*
X119936702Y-88700910D01*
X119940819Y-88712722D01*
X119943837Y-88722306D01*
X119945694Y-88729513D01*
X119946327Y-88734191D01*
X119942811Y-88748349D01*
X119932721Y-88772156D01*
X119895565Y-88844217D01*
X119840349Y-88941379D01*
X119772566Y-89054647D01*
X119697706Y-89175027D01*
X119621262Y-89293523D01*
X119548724Y-89401140D01*
X119485585Y-89488883D01*
X119427358Y-89563072D01*
X119364925Y-89637432D01*
X119298673Y-89711637D01*
X119228990Y-89785361D01*
X119156263Y-89858278D01*
X119080881Y-89930063D01*
X119003230Y-90000389D01*
X118923698Y-90068932D01*
X118842672Y-90135365D01*
X118760540Y-90199362D01*
X118677690Y-90260598D01*
X118594508Y-90318747D01*
X118511383Y-90373483D01*
X118428703Y-90424480D01*
X118346853Y-90471413D01*
X118266223Y-90513956D01*
X118182708Y-90554205D01*
X118095255Y-90592856D01*
X118004140Y-90629838D01*
X117909640Y-90665083D01*
X117812033Y-90698522D01*
X117711595Y-90730084D01*
X117608606Y-90759701D01*
X117503340Y-90787304D01*
X117396077Y-90812823D01*
X117287093Y-90836189D01*
X117176665Y-90857332D01*
X117065071Y-90876183D01*
X116952588Y-90892674D01*
X116839493Y-90906733D01*
X116726063Y-90918294D01*
X116612577Y-90927285D01*
X116612577Y-90927286D01*
X116516927Y-90931002D01*
X116394424Y-90931605D01*
X116253513Y-90929414D01*
X116102639Y-90924750D01*
X115950245Y-90917931D01*
X115804778Y-90909278D01*
X115674682Y-90899110D01*
X115568401Y-90887748D01*
X115429367Y-90866147D01*
X115277448Y-90836184D01*
X115117829Y-90799291D01*
X114955694Y-90756900D01*
X114796229Y-90710444D01*
X114644618Y-90661355D01*
X114506046Y-90611066D01*
X114443270Y-90585919D01*
X114385698Y-90561008D01*
X114160553Y-90450116D01*
X113947352Y-90326286D01*
X113746172Y-90189634D01*
X113557088Y-90040277D01*
X113380177Y-89878330D01*
X113215514Y-89703911D01*
X113063175Y-89517135D01*
X112923235Y-89318119D01*
X112795771Y-89106978D01*
X112680859Y-88883830D01*
X112578573Y-88648790D01*
X112488990Y-88401974D01*
X112412186Y-88143500D01*
X112348237Y-87873483D01*
X112297218Y-87592039D01*
X112259205Y-87299285D01*
X112241756Y-87133921D01*
X114070537Y-87133921D01*
X114099456Y-87246369D01*
X114132317Y-87367403D01*
X114167537Y-87484143D01*
X114205094Y-87596554D01*
X114244969Y-87704599D01*
X114287141Y-87808243D01*
X114331589Y-87907448D01*
X114378292Y-88002179D01*
X114427231Y-88092400D01*
X114478383Y-88178074D01*
X114531730Y-88259165D01*
X114587250Y-88335638D01*
X114644922Y-88407454D01*
X114704726Y-88474580D01*
X114766642Y-88536977D01*
X114830648Y-88594611D01*
X114896724Y-88647445D01*
X114965499Y-88697252D01*
X114999044Y-88720016D01*
X115032386Y-88741528D01*
X115065795Y-88761922D01*
X115099540Y-88781328D01*
X115133890Y-88799879D01*
X115169116Y-88817706D01*
X115205486Y-88834943D01*
X115243269Y-88851719D01*
X115282736Y-88868169D01*
X115324155Y-88884423D01*
X115413929Y-88916871D01*
X115514745Y-88950121D01*
X115590723Y-88973596D01*
X115656485Y-88991651D01*
X115687502Y-88998867D01*
X115718328Y-89004992D01*
X115749749Y-89010116D01*
X115782552Y-89014326D01*
X115817526Y-89017710D01*
X115855457Y-89020357D01*
X115943341Y-89023791D01*
X116052504Y-89025334D01*
X116189245Y-89025692D01*
X116282163Y-89025096D01*
X116369074Y-89023224D01*
X116450569Y-89019952D01*
X116527241Y-89015152D01*
X116599681Y-89008700D01*
X116668481Y-89000470D01*
X116734233Y-88990336D01*
X116797528Y-88978172D01*
X116858959Y-88963854D01*
X116919117Y-88947254D01*
X116978594Y-88928248D01*
X117037982Y-88906711D01*
X117097873Y-88882515D01*
X117158858Y-88855536D01*
X117221529Y-88825648D01*
X117286478Y-88792725D01*
X117371822Y-88744601D01*
X117456270Y-88689631D01*
X117539527Y-88628187D01*
X117621302Y-88560639D01*
X117701300Y-88487358D01*
X117779229Y-88408716D01*
X117854795Y-88325084D01*
X117927705Y-88236831D01*
X117997666Y-88144330D01*
X118064385Y-88047951D01*
X118127568Y-87948065D01*
X118186923Y-87845043D01*
X118242155Y-87739256D01*
X118292973Y-87631075D01*
X118339083Y-87520870D01*
X118380191Y-87409014D01*
X118447751Y-87199764D01*
X118503113Y-86999804D01*
X118526533Y-86901074D01*
X118547282Y-86801986D01*
X118565483Y-86701646D01*
X118581264Y-86599161D01*
X118594750Y-86493636D01*
X118606066Y-86384179D01*
X118622694Y-86149890D01*
X118632153Y-85889146D01*
X118635451Y-85594797D01*
X118636030Y-85458987D01*
X118637227Y-85333511D01*
X118638970Y-85221029D01*
X118641186Y-85124198D01*
X118643800Y-85045678D01*
X118646739Y-84988127D01*
X118648308Y-84968046D01*
X118649930Y-84954204D01*
X118651597Y-84946934D01*
X118652445Y-84945867D01*
X118653300Y-84946567D01*
%TA.AperFunction,NonConductor*%
G36*
X118653300Y-84946567D02*
G01*
X118678987Y-85024367D01*
X118736612Y-85213283D01*
X118913519Y-85811004D01*
X119055672Y-86291575D01*
X119184115Y-86712509D01*
X119301661Y-87081923D01*
X119411122Y-87407934D01*
X119515309Y-87698660D01*
X119617034Y-87962218D01*
X119719111Y-88206726D01*
X119824349Y-88440299D01*
X119848852Y-88493449D01*
X119871711Y-88544321D01*
X119892426Y-88591708D01*
X119910496Y-88634406D01*
X119925422Y-88671208D01*
X119936702Y-88700910D01*
X119940819Y-88712722D01*
X119943837Y-88722306D01*
X119945694Y-88729513D01*
X119946327Y-88734191D01*
X119942811Y-88748349D01*
X119932721Y-88772156D01*
X119895565Y-88844217D01*
X119840349Y-88941379D01*
X119772566Y-89054647D01*
X119697706Y-89175027D01*
X119621262Y-89293523D01*
X119548724Y-89401140D01*
X119485585Y-89488883D01*
X119427358Y-89563072D01*
X119364925Y-89637432D01*
X119298673Y-89711637D01*
X119228990Y-89785361D01*
X119156263Y-89858278D01*
X119080881Y-89930063D01*
X119003230Y-90000389D01*
X118923698Y-90068932D01*
X118842672Y-90135365D01*
X118760540Y-90199362D01*
X118677690Y-90260598D01*
X118594508Y-90318747D01*
X118511383Y-90373483D01*
X118428703Y-90424480D01*
X118346853Y-90471413D01*
X118266223Y-90513956D01*
X118182708Y-90554205D01*
X118095255Y-90592856D01*
X118004140Y-90629838D01*
X117909640Y-90665083D01*
X117812033Y-90698522D01*
X117711595Y-90730084D01*
X117608606Y-90759701D01*
X117503340Y-90787304D01*
X117396077Y-90812823D01*
X117287093Y-90836189D01*
X117176665Y-90857332D01*
X117065071Y-90876183D01*
X116952588Y-90892674D01*
X116839493Y-90906733D01*
X116726063Y-90918294D01*
X116612577Y-90927285D01*
X116612577Y-90927286D01*
X116516927Y-90931002D01*
X116394424Y-90931605D01*
X116253513Y-90929414D01*
X116102639Y-90924750D01*
X115950245Y-90917931D01*
X115804778Y-90909278D01*
X115674682Y-90899110D01*
X115568401Y-90887748D01*
X115429367Y-90866147D01*
X115277448Y-90836184D01*
X115117829Y-90799291D01*
X114955694Y-90756900D01*
X114796229Y-90710444D01*
X114644618Y-90661355D01*
X114506046Y-90611066D01*
X114443270Y-90585919D01*
X114385698Y-90561008D01*
X114160553Y-90450116D01*
X113947352Y-90326286D01*
X113746172Y-90189634D01*
X113557088Y-90040277D01*
X113380177Y-89878330D01*
X113215514Y-89703911D01*
X113063175Y-89517135D01*
X112923235Y-89318119D01*
X112795771Y-89106978D01*
X112680859Y-88883830D01*
X112578573Y-88648790D01*
X112488990Y-88401974D01*
X112412186Y-88143500D01*
X112348237Y-87873483D01*
X112297218Y-87592039D01*
X112259205Y-87299285D01*
X112241756Y-87133921D01*
X114070537Y-87133921D01*
X114099456Y-87246369D01*
X114132317Y-87367403D01*
X114167537Y-87484143D01*
X114205094Y-87596554D01*
X114244969Y-87704599D01*
X114287141Y-87808243D01*
X114331589Y-87907448D01*
X114378292Y-88002179D01*
X114427231Y-88092400D01*
X114478383Y-88178074D01*
X114531730Y-88259165D01*
X114587250Y-88335638D01*
X114644922Y-88407454D01*
X114704726Y-88474580D01*
X114766642Y-88536977D01*
X114830648Y-88594611D01*
X114896724Y-88647445D01*
X114965499Y-88697252D01*
X114999044Y-88720016D01*
X115032386Y-88741528D01*
X115065795Y-88761922D01*
X115099540Y-88781328D01*
X115133890Y-88799879D01*
X115169116Y-88817706D01*
X115205486Y-88834943D01*
X115243269Y-88851719D01*
X115282736Y-88868169D01*
X115324155Y-88884423D01*
X115413929Y-88916871D01*
X115514745Y-88950121D01*
X115590723Y-88973596D01*
X115656485Y-88991651D01*
X115687502Y-88998867D01*
X115718328Y-89004992D01*
X115749749Y-89010116D01*
X115782552Y-89014326D01*
X115817526Y-89017710D01*
X115855457Y-89020357D01*
X115943341Y-89023791D01*
X116052504Y-89025334D01*
X116189245Y-89025692D01*
X116282163Y-89025096D01*
X116369074Y-89023224D01*
X116450569Y-89019952D01*
X116527241Y-89015152D01*
X116599681Y-89008700D01*
X116668481Y-89000470D01*
X116734233Y-88990336D01*
X116797528Y-88978172D01*
X116858959Y-88963854D01*
X116919117Y-88947254D01*
X116978594Y-88928248D01*
X117037982Y-88906711D01*
X117097873Y-88882515D01*
X117158858Y-88855536D01*
X117221529Y-88825648D01*
X117286478Y-88792725D01*
X117371822Y-88744601D01*
X117456270Y-88689631D01*
X117539527Y-88628187D01*
X117621302Y-88560639D01*
X117701300Y-88487358D01*
X117779229Y-88408716D01*
X117854795Y-88325084D01*
X117927705Y-88236831D01*
X117997666Y-88144330D01*
X118064385Y-88047951D01*
X118127568Y-87948065D01*
X118186923Y-87845043D01*
X118242155Y-87739256D01*
X118292973Y-87631075D01*
X118339083Y-87520870D01*
X118380191Y-87409014D01*
X118447751Y-87199764D01*
X118503113Y-86999804D01*
X118526533Y-86901074D01*
X118547282Y-86801986D01*
X118565483Y-86701646D01*
X118581264Y-86599161D01*
X118594750Y-86493636D01*
X118606066Y-86384179D01*
X118622694Y-86149890D01*
X118632153Y-85889146D01*
X118635451Y-85594797D01*
X118636030Y-85458987D01*
X118637227Y-85333511D01*
X118638970Y-85221029D01*
X118641186Y-85124198D01*
X118643800Y-85045678D01*
X118646739Y-84988127D01*
X118648308Y-84968046D01*
X118649930Y-84954204D01*
X118651597Y-84946934D01*
X118652445Y-84945867D01*
X118653300Y-84946567D01*
G37*
%TD.AperFunction*%
X127804451Y-94725672D02*
X127520024Y-94735677D01*
X127520024Y-94735674D01*
X127362613Y-94739052D01*
X127144274Y-94740856D01*
X126893876Y-94740970D01*
X126640285Y-94739274D01*
X126479945Y-94737073D01*
X126344398Y-94734077D01*
X126230688Y-94730085D01*
X126135858Y-94724898D01*
X126094599Y-94721793D01*
X126056952Y-94718315D01*
X126022547Y-94714437D01*
X125991015Y-94710135D01*
X125961986Y-94705384D01*
X125935090Y-94700159D01*
X125909959Y-94694434D01*
X125886222Y-94688186D01*
X125770175Y-94651062D01*
X125662667Y-94607282D01*
X125563554Y-94556608D01*
X125472695Y-94498798D01*
X125430314Y-94467143D01*
X125389944Y-94433613D01*
X125351564Y-94398180D01*
X125315158Y-94360814D01*
X125280708Y-94321483D01*
X125248195Y-94280159D01*
X125217602Y-94236811D01*
X125188911Y-94191409D01*
X125137162Y-94094324D01*
X125092805Y-93988665D01*
X125055697Y-93874190D01*
X125025694Y-93750661D01*
X125002653Y-93617837D01*
X124986431Y-93475478D01*
X124976884Y-93323344D01*
X124974016Y-93169112D01*
X125244366Y-93169112D01*
X125246133Y-93250173D01*
X125250799Y-93331220D01*
X125258426Y-93411892D01*
X125271770Y-93512166D01*
X125288404Y-93606475D01*
X125308433Y-93694973D01*
X125319754Y-93737091D01*
X125331963Y-93777815D01*
X125345074Y-93817163D01*
X125359100Y-93855155D01*
X125374054Y-93891810D01*
X125389949Y-93927148D01*
X125406799Y-93961187D01*
X125424617Y-93993948D01*
X125443416Y-94025449D01*
X125463209Y-94055710D01*
X125484009Y-94084751D01*
X125505831Y-94112589D01*
X125528686Y-94139246D01*
X125552588Y-94164739D01*
X125577551Y-94189089D01*
X125603587Y-94212315D01*
X125630711Y-94234436D01*
X125658934Y-94255471D01*
X125688270Y-94275439D01*
X125718733Y-94294361D01*
X125750336Y-94312255D01*
X125783092Y-94329141D01*
X125817014Y-94345037D01*
X125852115Y-94359964D01*
X125888409Y-94373941D01*
X125925909Y-94386986D01*
X125925910Y-94386991D01*
X125980981Y-94403915D01*
X126035915Y-94417289D01*
X126096615Y-94427600D01*
X126168985Y-94435333D01*
X126258925Y-94440975D01*
X126372340Y-94445012D01*
X126693201Y-94450219D01*
X126933223Y-94451794D01*
X127146672Y-94451338D01*
X127310326Y-94449020D01*
X127366223Y-94447215D01*
X127400961Y-94445009D01*
X127513409Y-94433379D01*
X127513409Y-91900936D01*
X127321587Y-91886127D01*
X127111453Y-91871409D01*
X126917635Y-91861111D01*
X126739310Y-91855407D01*
X126575655Y-91854470D01*
X126425848Y-91858473D01*
X126355879Y-91862381D01*
X126289064Y-91867589D01*
X126225299Y-91874118D01*
X126164482Y-91881990D01*
X126106509Y-91891226D01*
X126051278Y-91901849D01*
X125998686Y-91913880D01*
X125948630Y-91927340D01*
X125901007Y-91942251D01*
X125855714Y-91958635D01*
X125812649Y-91976514D01*
X125771708Y-91995908D01*
X125732789Y-92016839D01*
X125695789Y-92039330D01*
X125660604Y-92063401D01*
X125627133Y-92089075D01*
X125595272Y-92116373D01*
X125564919Y-92145316D01*
X125535970Y-92175927D01*
X125508322Y-92208226D01*
X125481873Y-92242236D01*
X125456521Y-92277978D01*
X125426335Y-92326431D01*
X125398230Y-92379555D01*
X125372268Y-92436989D01*
X125348512Y-92498374D01*
X125327025Y-92563348D01*
X125307870Y-92631550D01*
X125291110Y-92702622D01*
X125276807Y-92776202D01*
X125265026Y-92851930D01*
X125255828Y-92929445D01*
X125249277Y-93008388D01*
X125245435Y-93088397D01*
X125244366Y-93169112D01*
X124974016Y-93169112D01*
X124973869Y-93161196D01*
X124975271Y-93052164D01*
X124979245Y-92948435D01*
X124985853Y-92849807D01*
X124995152Y-92756080D01*
X125007205Y-92667053D01*
X125022070Y-92582525D01*
X125039807Y-92502296D01*
X125060477Y-92426165D01*
X125084139Y-92353930D01*
X125110855Y-92285392D01*
X125140682Y-92220349D01*
X125173682Y-92158601D01*
X125209915Y-92099947D01*
X125249440Y-92044186D01*
X125292317Y-91991117D01*
X125338607Y-91940540D01*
X125399385Y-91882184D01*
X125463352Y-91829288D01*
X125531234Y-91781702D01*
X125603756Y-91739279D01*
X125681645Y-91701868D01*
X125765626Y-91669320D01*
X125856426Y-91641486D01*
X125954771Y-91618217D01*
X126061386Y-91599363D01*
X126176998Y-91584776D01*
X126302333Y-91574307D01*
X126438116Y-91567805D01*
X126585074Y-91565122D01*
X126743933Y-91566109D01*
X126915418Y-91570616D01*
X127100255Y-91578495D01*
X127332149Y-91590767D01*
X127530993Y-91602719D01*
X127675634Y-91612982D01*
X127721019Y-91617052D01*
X127744920Y-91620186D01*
X127804451Y-91632845D01*
X127804451Y-94433379D01*
X127804451Y-94725672D01*
%TA.AperFunction,NonConductor*%
G36*
X127804451Y-94725672D02*
G01*
X127520024Y-94735677D01*
X127520024Y-94735674D01*
X127362613Y-94739052D01*
X127144274Y-94740856D01*
X126893876Y-94740970D01*
X126640285Y-94739274D01*
X126479945Y-94737073D01*
X126344398Y-94734077D01*
X126230688Y-94730085D01*
X126135858Y-94724898D01*
X126094599Y-94721793D01*
X126056952Y-94718315D01*
X126022547Y-94714437D01*
X125991015Y-94710135D01*
X125961986Y-94705384D01*
X125935090Y-94700159D01*
X125909959Y-94694434D01*
X125886222Y-94688186D01*
X125770175Y-94651062D01*
X125662667Y-94607282D01*
X125563554Y-94556608D01*
X125472695Y-94498798D01*
X125430314Y-94467143D01*
X125389944Y-94433613D01*
X125351564Y-94398180D01*
X125315158Y-94360814D01*
X125280708Y-94321483D01*
X125248195Y-94280159D01*
X125217602Y-94236811D01*
X125188911Y-94191409D01*
X125137162Y-94094324D01*
X125092805Y-93988665D01*
X125055697Y-93874190D01*
X125025694Y-93750661D01*
X125002653Y-93617837D01*
X124986431Y-93475478D01*
X124976884Y-93323344D01*
X124974016Y-93169112D01*
X125244366Y-93169112D01*
X125246133Y-93250173D01*
X125250799Y-93331220D01*
X125258426Y-93411892D01*
X125271770Y-93512166D01*
X125288404Y-93606475D01*
X125308433Y-93694973D01*
X125319754Y-93737091D01*
X125331963Y-93777815D01*
X125345074Y-93817163D01*
X125359100Y-93855155D01*
X125374054Y-93891810D01*
X125389949Y-93927148D01*
X125406799Y-93961187D01*
X125424617Y-93993948D01*
X125443416Y-94025449D01*
X125463209Y-94055710D01*
X125484009Y-94084751D01*
X125505831Y-94112589D01*
X125528686Y-94139246D01*
X125552588Y-94164739D01*
X125577551Y-94189089D01*
X125603587Y-94212315D01*
X125630711Y-94234436D01*
X125658934Y-94255471D01*
X125688270Y-94275439D01*
X125718733Y-94294361D01*
X125750336Y-94312255D01*
X125783092Y-94329141D01*
X125817014Y-94345037D01*
X125852115Y-94359964D01*
X125888409Y-94373941D01*
X125925909Y-94386986D01*
X125925910Y-94386991D01*
X125980981Y-94403915D01*
X126035915Y-94417289D01*
X126096615Y-94427600D01*
X126168985Y-94435333D01*
X126258925Y-94440975D01*
X126372340Y-94445012D01*
X126693201Y-94450219D01*
X126933223Y-94451794D01*
X127146672Y-94451338D01*
X127310326Y-94449020D01*
X127366223Y-94447215D01*
X127400961Y-94445009D01*
X127513409Y-94433379D01*
X127513409Y-91900936D01*
X127321587Y-91886127D01*
X127111453Y-91871409D01*
X126917635Y-91861111D01*
X126739310Y-91855407D01*
X126575655Y-91854470D01*
X126425848Y-91858473D01*
X126355879Y-91862381D01*
X126289064Y-91867589D01*
X126225299Y-91874118D01*
X126164482Y-91881990D01*
X126106509Y-91891226D01*
X126051278Y-91901849D01*
X125998686Y-91913880D01*
X125948630Y-91927340D01*
X125901007Y-91942251D01*
X125855714Y-91958635D01*
X125812649Y-91976514D01*
X125771708Y-91995908D01*
X125732789Y-92016839D01*
X125695789Y-92039330D01*
X125660604Y-92063401D01*
X125627133Y-92089075D01*
X125595272Y-92116373D01*
X125564919Y-92145316D01*
X125535970Y-92175927D01*
X125508322Y-92208226D01*
X125481873Y-92242236D01*
X125456521Y-92277978D01*
X125426335Y-92326431D01*
X125398230Y-92379555D01*
X125372268Y-92436989D01*
X125348512Y-92498374D01*
X125327025Y-92563348D01*
X125307870Y-92631550D01*
X125291110Y-92702622D01*
X125276807Y-92776202D01*
X125265026Y-92851930D01*
X125255828Y-92929445D01*
X125249277Y-93008388D01*
X125245435Y-93088397D01*
X125244366Y-93169112D01*
X124974016Y-93169112D01*
X124973869Y-93161196D01*
X124975271Y-93052164D01*
X124979245Y-92948435D01*
X124985853Y-92849807D01*
X124995152Y-92756080D01*
X125007205Y-92667053D01*
X125022070Y-92582525D01*
X125039807Y-92502296D01*
X125060477Y-92426165D01*
X125084139Y-92353930D01*
X125110855Y-92285392D01*
X125140682Y-92220349D01*
X125173682Y-92158601D01*
X125209915Y-92099947D01*
X125249440Y-92044186D01*
X125292317Y-91991117D01*
X125338607Y-91940540D01*
X125399385Y-91882184D01*
X125463352Y-91829288D01*
X125531234Y-91781702D01*
X125603756Y-91739279D01*
X125681645Y-91701868D01*
X125765626Y-91669320D01*
X125856426Y-91641486D01*
X125954771Y-91618217D01*
X126061386Y-91599363D01*
X126176998Y-91584776D01*
X126302333Y-91574307D01*
X126438116Y-91567805D01*
X126585074Y-91565122D01*
X126743933Y-91566109D01*
X126915418Y-91570616D01*
X127100255Y-91578495D01*
X127332149Y-91590767D01*
X127530993Y-91602719D01*
X127675634Y-91612982D01*
X127721019Y-91617052D01*
X127744920Y-91620186D01*
X127804451Y-91632845D01*
X127804451Y-94433379D01*
X127804451Y-94725672D01*
G37*
%TD.AperFunction*%
D10*
%TA.AperFunction,NonConductor*%
G36*
X179034565Y-91744537D02*
G01*
X178470121Y-91744537D01*
X178470121Y-91180093D01*
X179034565Y-91180093D01*
X179034565Y-91744537D01*
G37*
%TD.AperFunction*%
D11*
X120377650Y-92229359D02*
X120542233Y-92235375D01*
X120673376Y-92245771D01*
X120722155Y-92252622D01*
X120757469Y-92260581D01*
X120791614Y-92271909D01*
X120825417Y-92284989D01*
X120858742Y-92299716D01*
X120891453Y-92315987D01*
X120923417Y-92333696D01*
X120954498Y-92352738D01*
X120984560Y-92373009D01*
X121013470Y-92394404D01*
X121041091Y-92416819D01*
X121067288Y-92440149D01*
X121091927Y-92464289D01*
X121114873Y-92489134D01*
X121135990Y-92514581D01*
X121155144Y-92540523D01*
X121172198Y-92566857D01*
X121187019Y-92593477D01*
X121196486Y-92612479D01*
X121205043Y-92630739D01*
X121212733Y-92648465D01*
X121219595Y-92665863D01*
X121225670Y-92683139D01*
X121230998Y-92700500D01*
X121235621Y-92718152D01*
X121239580Y-92736302D01*
X121242914Y-92755157D01*
X121245664Y-92774922D01*
X121247872Y-92795805D01*
X121249578Y-92818011D01*
X121250822Y-92841749D01*
X121251645Y-92867222D01*
X121252192Y-92924207D01*
X121249724Y-93000961D01*
X121242242Y-93071434D01*
X121229218Y-93136016D01*
X121220465Y-93166218D01*
X121210129Y-93195094D01*
X121198146Y-93222691D01*
X121184449Y-93249057D01*
X121168973Y-93274242D01*
X121151653Y-93298295D01*
X121132422Y-93321262D01*
X121111215Y-93343194D01*
X121087966Y-93364139D01*
X121062610Y-93384145D01*
X121035081Y-93403260D01*
X121005313Y-93421534D01*
X120938800Y-93455752D01*
X120862543Y-93487187D01*
X120776020Y-93516226D01*
X120678703Y-93543259D01*
X120570068Y-93568674D01*
X120449590Y-93592859D01*
X120316744Y-93616204D01*
X120212019Y-93634007D01*
X120117442Y-93651152D01*
X120032459Y-93667890D01*
X119956518Y-93684468D01*
X119921765Y-93692775D01*
X119889065Y-93701136D01*
X119858348Y-93709582D01*
X119829546Y-93718143D01*
X119802590Y-93726851D01*
X119777410Y-93735737D01*
X119753937Y-93744832D01*
X119732101Y-93754167D01*
X119711835Y-93763774D01*
X119693068Y-93773683D01*
X119675732Y-93783926D01*
X119659757Y-93794533D01*
X119645074Y-93805536D01*
X119631615Y-93816966D01*
X119619309Y-93828854D01*
X119608088Y-93841231D01*
X119597882Y-93854129D01*
X119588623Y-93867577D01*
X119580241Y-93881608D01*
X119572667Y-93896253D01*
X119565832Y-93911542D01*
X119559667Y-93927508D01*
X119554103Y-93944180D01*
X119549070Y-93961590D01*
X119543186Y-93985703D01*
X119538635Y-94009371D01*
X119535407Y-94032584D01*
X119533494Y-94055333D01*
X119532889Y-94077606D01*
X119533582Y-94099396D01*
X119535566Y-94120691D01*
X119538831Y-94141483D01*
X119543371Y-94161762D01*
X119549176Y-94181518D01*
X119556239Y-94200741D01*
X119564550Y-94219422D01*
X119574102Y-94237551D01*
X119584887Y-94255118D01*
X119596895Y-94272114D01*
X119610119Y-94288530D01*
X119624551Y-94304354D01*
X119640182Y-94319578D01*
X119657003Y-94334193D01*
X119675007Y-94348187D01*
X119694186Y-94361552D01*
X119714530Y-94374278D01*
X119736032Y-94386356D01*
X119758683Y-94397775D01*
X119782475Y-94408526D01*
X119807400Y-94418599D01*
X119833450Y-94427985D01*
X119860615Y-94436674D01*
X119918261Y-94451921D01*
X119980272Y-94464265D01*
X120034804Y-94471722D01*
X120097924Y-94477278D01*
X120168348Y-94481005D01*
X120244792Y-94482977D01*
X120410603Y-94481948D01*
X120585081Y-94474782D01*
X120757951Y-94462065D01*
X120918939Y-94444386D01*
X120991766Y-94433869D01*
X121057769Y-94422333D01*
X121115664Y-94409850D01*
X121164167Y-94396494D01*
X121171459Y-94394433D01*
X121178099Y-94393149D01*
X121184137Y-94392721D01*
X121186946Y-94392852D01*
X121189623Y-94393228D01*
X121192174Y-94393857D01*
X121194607Y-94394749D01*
X121196926Y-94395915D01*
X121199139Y-94397364D01*
X121201252Y-94399106D01*
X121203271Y-94401151D01*
X121205202Y-94403509D01*
X121207051Y-94406189D01*
X121210532Y-94412558D01*
X121213762Y-94420337D01*
X121216792Y-94429604D01*
X121219673Y-94440438D01*
X121222455Y-94452919D01*
X121225188Y-94467126D01*
X121227922Y-94483137D01*
X121230708Y-94501032D01*
X121232468Y-94513441D01*
X121234035Y-94525874D01*
X121235407Y-94538252D01*
X121236584Y-94550495D01*
X121238339Y-94574251D01*
X121238914Y-94585604D01*
X121239285Y-94596500D01*
X121239449Y-94606860D01*
X121239404Y-94616602D01*
X121239150Y-94625646D01*
X121238682Y-94633912D01*
X121238000Y-94641320D01*
X121237101Y-94647789D01*
X121235984Y-94653240D01*
X121234646Y-94657592D01*
X121231759Y-94662336D01*
X121226750Y-94666974D01*
X121219572Y-94671516D01*
X121210179Y-94675971D01*
X121198523Y-94680350D01*
X121184558Y-94684662D01*
X121149512Y-94693125D01*
X121104666Y-94701440D01*
X121049645Y-94709684D01*
X120984073Y-94717938D01*
X120907577Y-94726279D01*
X120782905Y-94739360D01*
X120674847Y-94751265D01*
X120594977Y-94760681D01*
X120569229Y-94764046D01*
X120554868Y-94766297D01*
X120554868Y-94766289D01*
X120531989Y-94769913D01*
X120503991Y-94772747D01*
X120435073Y-94776135D01*
X120352972Y-94776636D01*
X120262545Y-94774432D01*
X120168651Y-94769707D01*
X120076148Y-94762642D01*
X119989895Y-94753421D01*
X119914748Y-94742226D01*
X119845658Y-94728212D01*
X119780230Y-94711471D01*
X119718480Y-94692018D01*
X119688991Y-94681279D01*
X119660428Y-94669867D01*
X119632793Y-94657784D01*
X119606090Y-94645033D01*
X119580319Y-94631614D01*
X119555483Y-94617530D01*
X119531585Y-94602782D01*
X119508626Y-94587373D01*
X119486609Y-94571303D01*
X119465536Y-94554576D01*
X119445409Y-94537192D01*
X119426230Y-94519154D01*
X119408002Y-94500463D01*
X119390727Y-94481122D01*
X119374406Y-94461131D01*
X119359043Y-94440493D01*
X119344638Y-94419210D01*
X119331196Y-94397283D01*
X119318716Y-94374714D01*
X119307203Y-94351506D01*
X119296658Y-94327659D01*
X119287083Y-94303176D01*
X119278480Y-94278059D01*
X119270853Y-94252308D01*
X119264202Y-94225927D01*
X119258529Y-94198917D01*
X119253797Y-94171898D01*
X119249916Y-94145246D01*
X119246884Y-94118966D01*
X119244698Y-94093066D01*
X119243356Y-94067551D01*
X119242855Y-94042428D01*
X119243193Y-94017702D01*
X119244368Y-93993380D01*
X119246377Y-93969467D01*
X119249218Y-93945970D01*
X119252887Y-93922896D01*
X119257384Y-93900249D01*
X119262705Y-93878037D01*
X119268849Y-93856265D01*
X119275811Y-93834939D01*
X119283591Y-93814066D01*
X119292186Y-93793652D01*
X119301593Y-93773702D01*
X119311810Y-93754223D01*
X119322834Y-93735222D01*
X119334664Y-93716703D01*
X119347296Y-93698674D01*
X119360728Y-93681140D01*
X119374958Y-93664107D01*
X119389983Y-93647582D01*
X119405801Y-93631571D01*
X119422410Y-93616080D01*
X119439807Y-93601114D01*
X119457989Y-93586681D01*
X119476955Y-93572786D01*
X119496701Y-93559435D01*
X119517225Y-93546635D01*
X119579968Y-93512242D01*
X119613549Y-93496304D01*
X119649141Y-93481058D01*
X119687147Y-93466397D01*
X119727968Y-93452209D01*
X119819671Y-93424818D01*
X119927473Y-93398010D01*
X120054597Y-93370909D01*
X120204264Y-93342640D01*
X120379699Y-93312328D01*
X120450687Y-93300196D01*
X120514574Y-93288597D01*
X120571843Y-93277313D01*
X120622974Y-93266121D01*
X120646390Y-93260491D01*
X120668451Y-93254801D01*
X120689220Y-93249024D01*
X120708755Y-93243132D01*
X120727118Y-93237098D01*
X120744368Y-93230895D01*
X120760565Y-93224493D01*
X120775771Y-93217866D01*
X120790045Y-93210987D01*
X120803447Y-93203827D01*
X120816037Y-93196359D01*
X120827877Y-93188556D01*
X120839026Y-93180390D01*
X120849543Y-93171833D01*
X120859491Y-93162857D01*
X120868928Y-93153436D01*
X120877915Y-93143541D01*
X120886513Y-93133145D01*
X120894781Y-93122220D01*
X120902779Y-93110739D01*
X120910569Y-93098674D01*
X120918209Y-93085998D01*
X120933285Y-93058700D01*
X120942842Y-93038595D01*
X120950929Y-93017546D01*
X120957553Y-92995692D01*
X120962722Y-92973176D01*
X120966444Y-92950138D01*
X120968726Y-92926720D01*
X120969577Y-92903064D01*
X120969003Y-92879310D01*
X120967012Y-92855599D01*
X120963612Y-92832074D01*
X120958811Y-92808875D01*
X120952616Y-92786145D01*
X120945035Y-92764023D01*
X120936076Y-92742651D01*
X120925745Y-92722171D01*
X120914052Y-92702724D01*
X120897200Y-92679165D01*
X120878621Y-92657447D01*
X120858113Y-92637506D01*
X120835478Y-92619276D01*
X120810515Y-92602692D01*
X120783024Y-92587688D01*
X120752805Y-92574198D01*
X120719658Y-92562159D01*
X120683382Y-92551503D01*
X120643778Y-92542166D01*
X120600646Y-92534083D01*
X120553786Y-92527187D01*
X120502996Y-92521414D01*
X120448079Y-92516698D01*
X120388832Y-92512973D01*
X120325057Y-92510175D01*
X120216663Y-92507891D01*
X120105539Y-92508633D01*
X119992203Y-92512364D01*
X119877176Y-92519049D01*
X119760977Y-92528651D01*
X119644126Y-92541132D01*
X119527142Y-92556457D01*
X119410546Y-92574589D01*
X119311327Y-92591254D01*
X119311327Y-92299760D01*
X119529608Y-92263741D01*
X119588221Y-92255541D01*
X119657191Y-92248387D01*
X119819400Y-92237236D01*
X120002621Y-92230324D01*
X120193242Y-92227687D01*
X120377650Y-92229359D01*
%TA.AperFunction,NonConductor*%
G36*
X120377650Y-92229359D02*
G01*
X120542233Y-92235375D01*
X120673376Y-92245771D01*
X120722155Y-92252622D01*
X120757469Y-92260581D01*
X120791614Y-92271909D01*
X120825417Y-92284989D01*
X120858742Y-92299716D01*
X120891453Y-92315987D01*
X120923417Y-92333696D01*
X120954498Y-92352738D01*
X120984560Y-92373009D01*
X121013470Y-92394404D01*
X121041091Y-92416819D01*
X121067288Y-92440149D01*
X121091927Y-92464289D01*
X121114873Y-92489134D01*
X121135990Y-92514581D01*
X121155144Y-92540523D01*
X121172198Y-92566857D01*
X121187019Y-92593477D01*
X121196486Y-92612479D01*
X121205043Y-92630739D01*
X121212733Y-92648465D01*
X121219595Y-92665863D01*
X121225670Y-92683139D01*
X121230998Y-92700500D01*
X121235621Y-92718152D01*
X121239580Y-92736302D01*
X121242914Y-92755157D01*
X121245664Y-92774922D01*
X121247872Y-92795805D01*
X121249578Y-92818011D01*
X121250822Y-92841749D01*
X121251645Y-92867222D01*
X121252192Y-92924207D01*
X121249724Y-93000961D01*
X121242242Y-93071434D01*
X121229218Y-93136016D01*
X121220465Y-93166218D01*
X121210129Y-93195094D01*
X121198146Y-93222691D01*
X121184449Y-93249057D01*
X121168973Y-93274242D01*
X121151653Y-93298295D01*
X121132422Y-93321262D01*
X121111215Y-93343194D01*
X121087966Y-93364139D01*
X121062610Y-93384145D01*
X121035081Y-93403260D01*
X121005313Y-93421534D01*
X120938800Y-93455752D01*
X120862543Y-93487187D01*
X120776020Y-93516226D01*
X120678703Y-93543259D01*
X120570068Y-93568674D01*
X120449590Y-93592859D01*
X120316744Y-93616204D01*
X120212019Y-93634007D01*
X120117442Y-93651152D01*
X120032459Y-93667890D01*
X119956518Y-93684468D01*
X119921765Y-93692775D01*
X119889065Y-93701136D01*
X119858348Y-93709582D01*
X119829546Y-93718143D01*
X119802590Y-93726851D01*
X119777410Y-93735737D01*
X119753937Y-93744832D01*
X119732101Y-93754167D01*
X119711835Y-93763774D01*
X119693068Y-93773683D01*
X119675732Y-93783926D01*
X119659757Y-93794533D01*
X119645074Y-93805536D01*
X119631615Y-93816966D01*
X119619309Y-93828854D01*
X119608088Y-93841231D01*
X119597882Y-93854129D01*
X119588623Y-93867577D01*
X119580241Y-93881608D01*
X119572667Y-93896253D01*
X119565832Y-93911542D01*
X119559667Y-93927508D01*
X119554103Y-93944180D01*
X119549070Y-93961590D01*
X119543186Y-93985703D01*
X119538635Y-94009371D01*
X119535407Y-94032584D01*
X119533494Y-94055333D01*
X119532889Y-94077606D01*
X119533582Y-94099396D01*
X119535566Y-94120691D01*
X119538831Y-94141483D01*
X119543371Y-94161762D01*
X119549176Y-94181518D01*
X119556239Y-94200741D01*
X119564550Y-94219422D01*
X119574102Y-94237551D01*
X119584887Y-94255118D01*
X119596895Y-94272114D01*
X119610119Y-94288530D01*
X119624551Y-94304354D01*
X119640182Y-94319578D01*
X119657003Y-94334193D01*
X119675007Y-94348187D01*
X119694186Y-94361552D01*
X119714530Y-94374278D01*
X119736032Y-94386356D01*
X119758683Y-94397775D01*
X119782475Y-94408526D01*
X119807400Y-94418599D01*
X119833450Y-94427985D01*
X119860615Y-94436674D01*
X119918261Y-94451921D01*
X119980272Y-94464265D01*
X120034804Y-94471722D01*
X120097924Y-94477278D01*
X120168348Y-94481005D01*
X120244792Y-94482977D01*
X120410603Y-94481948D01*
X120585081Y-94474782D01*
X120757951Y-94462065D01*
X120918939Y-94444386D01*
X120991766Y-94433869D01*
X121057769Y-94422333D01*
X121115664Y-94409850D01*
X121164167Y-94396494D01*
X121171459Y-94394433D01*
X121178099Y-94393149D01*
X121184137Y-94392721D01*
X121186946Y-94392852D01*
X121189623Y-94393228D01*
X121192174Y-94393857D01*
X121194607Y-94394749D01*
X121196926Y-94395915D01*
X121199139Y-94397364D01*
X121201252Y-94399106D01*
X121203271Y-94401151D01*
X121205202Y-94403509D01*
X121207051Y-94406189D01*
X121210532Y-94412558D01*
X121213762Y-94420337D01*
X121216792Y-94429604D01*
X121219673Y-94440438D01*
X121222455Y-94452919D01*
X121225188Y-94467126D01*
X121227922Y-94483137D01*
X121230708Y-94501032D01*
X121232468Y-94513441D01*
X121234035Y-94525874D01*
X121235407Y-94538252D01*
X121236584Y-94550495D01*
X121238339Y-94574251D01*
X121238914Y-94585604D01*
X121239285Y-94596500D01*
X121239449Y-94606860D01*
X121239404Y-94616602D01*
X121239150Y-94625646D01*
X121238682Y-94633912D01*
X121238000Y-94641320D01*
X121237101Y-94647789D01*
X121235984Y-94653240D01*
X121234646Y-94657592D01*
X121231759Y-94662336D01*
X121226750Y-94666974D01*
X121219572Y-94671516D01*
X121210179Y-94675971D01*
X121198523Y-94680350D01*
X121184558Y-94684662D01*
X121149512Y-94693125D01*
X121104666Y-94701440D01*
X121049645Y-94709684D01*
X120984073Y-94717938D01*
X120907577Y-94726279D01*
X120782905Y-94739360D01*
X120674847Y-94751265D01*
X120594977Y-94760681D01*
X120569229Y-94764046D01*
X120554868Y-94766297D01*
X120554868Y-94766289D01*
X120531989Y-94769913D01*
X120503991Y-94772747D01*
X120435073Y-94776135D01*
X120352972Y-94776636D01*
X120262545Y-94774432D01*
X120168651Y-94769707D01*
X120076148Y-94762642D01*
X119989895Y-94753421D01*
X119914748Y-94742226D01*
X119845658Y-94728212D01*
X119780230Y-94711471D01*
X119718480Y-94692018D01*
X119688991Y-94681279D01*
X119660428Y-94669867D01*
X119632793Y-94657784D01*
X119606090Y-94645033D01*
X119580319Y-94631614D01*
X119555483Y-94617530D01*
X119531585Y-94602782D01*
X119508626Y-94587373D01*
X119486609Y-94571303D01*
X119465536Y-94554576D01*
X119445409Y-94537192D01*
X119426230Y-94519154D01*
X119408002Y-94500463D01*
X119390727Y-94481122D01*
X119374406Y-94461131D01*
X119359043Y-94440493D01*
X119344638Y-94419210D01*
X119331196Y-94397283D01*
X119318716Y-94374714D01*
X119307203Y-94351506D01*
X119296658Y-94327659D01*
X119287083Y-94303176D01*
X119278480Y-94278059D01*
X119270853Y-94252308D01*
X119264202Y-94225927D01*
X119258529Y-94198917D01*
X119253797Y-94171898D01*
X119249916Y-94145246D01*
X119246884Y-94118966D01*
X119244698Y-94093066D01*
X119243356Y-94067551D01*
X119242855Y-94042428D01*
X119243193Y-94017702D01*
X119244368Y-93993380D01*
X119246377Y-93969467D01*
X119249218Y-93945970D01*
X119252887Y-93922896D01*
X119257384Y-93900249D01*
X119262705Y-93878037D01*
X119268849Y-93856265D01*
X119275811Y-93834939D01*
X119283591Y-93814066D01*
X119292186Y-93793652D01*
X119301593Y-93773702D01*
X119311810Y-93754223D01*
X119322834Y-93735222D01*
X119334664Y-93716703D01*
X119347296Y-93698674D01*
X119360728Y-93681140D01*
X119374958Y-93664107D01*
X119389983Y-93647582D01*
X119405801Y-93631571D01*
X119422410Y-93616080D01*
X119439807Y-93601114D01*
X119457989Y-93586681D01*
X119476955Y-93572786D01*
X119496701Y-93559435D01*
X119517225Y-93546635D01*
X119579968Y-93512242D01*
X119613549Y-93496304D01*
X119649141Y-93481058D01*
X119687147Y-93466397D01*
X119727968Y-93452209D01*
X119819671Y-93424818D01*
X119927473Y-93398010D01*
X120054597Y-93370909D01*
X120204264Y-93342640D01*
X120379699Y-93312328D01*
X120450687Y-93300196D01*
X120514574Y-93288597D01*
X120571843Y-93277313D01*
X120622974Y-93266121D01*
X120646390Y-93260491D01*
X120668451Y-93254801D01*
X120689220Y-93249024D01*
X120708755Y-93243132D01*
X120727118Y-93237098D01*
X120744368Y-93230895D01*
X120760565Y-93224493D01*
X120775771Y-93217866D01*
X120790045Y-93210987D01*
X120803447Y-93203827D01*
X120816037Y-93196359D01*
X120827877Y-93188556D01*
X120839026Y-93180390D01*
X120849543Y-93171833D01*
X120859491Y-93162857D01*
X120868928Y-93153436D01*
X120877915Y-93143541D01*
X120886513Y-93133145D01*
X120894781Y-93122220D01*
X120902779Y-93110739D01*
X120910569Y-93098674D01*
X120918209Y-93085998D01*
X120933285Y-93058700D01*
X120942842Y-93038595D01*
X120950929Y-93017546D01*
X120957553Y-92995692D01*
X120962722Y-92973176D01*
X120966444Y-92950138D01*
X120968726Y-92926720D01*
X120969577Y-92903064D01*
X120969003Y-92879310D01*
X120967012Y-92855599D01*
X120963612Y-92832074D01*
X120958811Y-92808875D01*
X120952616Y-92786145D01*
X120945035Y-92764023D01*
X120936076Y-92742651D01*
X120925745Y-92722171D01*
X120914052Y-92702724D01*
X120897200Y-92679165D01*
X120878621Y-92657447D01*
X120858113Y-92637506D01*
X120835478Y-92619276D01*
X120810515Y-92602692D01*
X120783024Y-92587688D01*
X120752805Y-92574198D01*
X120719658Y-92562159D01*
X120683382Y-92551503D01*
X120643778Y-92542166D01*
X120600646Y-92534083D01*
X120553786Y-92527187D01*
X120502996Y-92521414D01*
X120448079Y-92516698D01*
X120388832Y-92512973D01*
X120325057Y-92510175D01*
X120216663Y-92507891D01*
X120105539Y-92508633D01*
X119992203Y-92512364D01*
X119877176Y-92519049D01*
X119760977Y-92528651D01*
X119644126Y-92541132D01*
X119527142Y-92556457D01*
X119410546Y-92574589D01*
X119311327Y-92591254D01*
X119311327Y-92299760D01*
X119529608Y-92263741D01*
X119588221Y-92255541D01*
X119657191Y-92248387D01*
X119819400Y-92237236D01*
X120002621Y-92230324D01*
X120193242Y-92227687D01*
X120377650Y-92229359D01*
G37*
%TD.AperFunction*%
X121749333Y-80413779D02*
X121841304Y-80414698D01*
X121924300Y-80416406D01*
X121999116Y-80419046D01*
X122066551Y-80422760D01*
X122127400Y-80427692D01*
X122182463Y-80433986D01*
X122232534Y-80441784D01*
X122278412Y-80451229D01*
X122320894Y-80462466D01*
X122360777Y-80475637D01*
X122398858Y-80490886D01*
X122435934Y-80508356D01*
X122472803Y-80528189D01*
X122510261Y-80550530D01*
X122549105Y-80575522D01*
X122577551Y-80595535D01*
X122606184Y-80617952D01*
X122634855Y-80642588D01*
X122663420Y-80669256D01*
X122691731Y-80697770D01*
X122719644Y-80727942D01*
X122747010Y-80759587D01*
X122773685Y-80792518D01*
X122799522Y-80826548D01*
X122824374Y-80861491D01*
X122848096Y-80897160D01*
X122870541Y-80933370D01*
X122891563Y-80969933D01*
X122911016Y-81006663D01*
X122928753Y-81043374D01*
X122944629Y-81079878D01*
X123002263Y-81220482D01*
X123017549Y-84739442D01*
X123027053Y-86626385D01*
X123031945Y-87255319D01*
X123037572Y-87714636D01*
X123044414Y-88034390D01*
X123048442Y-88151324D01*
X123052954Y-88244638D01*
X123058011Y-88318089D01*
X123063672Y-88375435D01*
X123069998Y-88420432D01*
X123077049Y-88456837D01*
X123094219Y-88535525D01*
X123108285Y-88603085D01*
X123113700Y-88630444D01*
X123117794Y-88652324D01*
X123120386Y-88667825D01*
X123121062Y-88672903D01*
X123121295Y-88676049D01*
X123121293Y-88676050D01*
X123120180Y-88680653D01*
X123116888Y-88683383D01*
X123111516Y-88684310D01*
X123104164Y-88683503D01*
X123083914Y-88676964D01*
X123056927Y-88664319D01*
X123023996Y-88646123D01*
X122985910Y-88622929D01*
X122897437Y-88563761D01*
X122797837Y-88491246D01*
X122693435Y-88409813D01*
X122590558Y-88323891D01*
X122541669Y-88280632D01*
X122495533Y-88237911D01*
X122406066Y-88149385D01*
X122319164Y-88056143D01*
X122234699Y-87957957D01*
X122152541Y-87854602D01*
X122072564Y-87745851D01*
X121994636Y-87631475D01*
X121918631Y-87511249D01*
X121844420Y-87384946D01*
X121771873Y-87252338D01*
X121700863Y-87113199D01*
X121631260Y-86967302D01*
X121562936Y-86814420D01*
X121495763Y-86654326D01*
X121429612Y-86486793D01*
X121364354Y-86311595D01*
X121299860Y-86128504D01*
X121150179Y-85691942D01*
X121143067Y-83052723D01*
X121135955Y-80413504D01*
X121647588Y-80413504D01*
X121749333Y-80413779D01*
%TA.AperFunction,NonConductor*%
G36*
X121749333Y-80413779D02*
G01*
X121841304Y-80414698D01*
X121924300Y-80416406D01*
X121999116Y-80419046D01*
X122066551Y-80422760D01*
X122127400Y-80427692D01*
X122182463Y-80433986D01*
X122232534Y-80441784D01*
X122278412Y-80451229D01*
X122320894Y-80462466D01*
X122360777Y-80475637D01*
X122398858Y-80490886D01*
X122435934Y-80508356D01*
X122472803Y-80528189D01*
X122510261Y-80550530D01*
X122549105Y-80575522D01*
X122577551Y-80595535D01*
X122606184Y-80617952D01*
X122634855Y-80642588D01*
X122663420Y-80669256D01*
X122691731Y-80697770D01*
X122719644Y-80727942D01*
X122747010Y-80759587D01*
X122773685Y-80792518D01*
X122799522Y-80826548D01*
X122824374Y-80861491D01*
X122848096Y-80897160D01*
X122870541Y-80933370D01*
X122891563Y-80969933D01*
X122911016Y-81006663D01*
X122928753Y-81043374D01*
X122944629Y-81079878D01*
X123002263Y-81220482D01*
X123017549Y-84739442D01*
X123027053Y-86626385D01*
X123031945Y-87255319D01*
X123037572Y-87714636D01*
X123044414Y-88034390D01*
X123048442Y-88151324D01*
X123052954Y-88244638D01*
X123058011Y-88318089D01*
X123063672Y-88375435D01*
X123069998Y-88420432D01*
X123077049Y-88456837D01*
X123094219Y-88535525D01*
X123108285Y-88603085D01*
X123113700Y-88630444D01*
X123117794Y-88652324D01*
X123120386Y-88667825D01*
X123121062Y-88672903D01*
X123121295Y-88676049D01*
X123121293Y-88676050D01*
X123120180Y-88680653D01*
X123116888Y-88683383D01*
X123111516Y-88684310D01*
X123104164Y-88683503D01*
X123083914Y-88676964D01*
X123056927Y-88664319D01*
X123023996Y-88646123D01*
X122985910Y-88622929D01*
X122897437Y-88563761D01*
X122797837Y-88491246D01*
X122693435Y-88409813D01*
X122590558Y-88323891D01*
X122541669Y-88280632D01*
X122495533Y-88237911D01*
X122406066Y-88149385D01*
X122319164Y-88056143D01*
X122234699Y-87957957D01*
X122152541Y-87854602D01*
X122072564Y-87745851D01*
X121994636Y-87631475D01*
X121918631Y-87511249D01*
X121844420Y-87384946D01*
X121771873Y-87252338D01*
X121700863Y-87113199D01*
X121631260Y-86967302D01*
X121562936Y-86814420D01*
X121495763Y-86654326D01*
X121429612Y-86486793D01*
X121364354Y-86311595D01*
X121299860Y-86128504D01*
X121150179Y-85691942D01*
X121143067Y-83052723D01*
X121135955Y-80413504D01*
X121647588Y-80413504D01*
X121749333Y-80413779D01*
G37*
%TD.AperFunction*%
D10*
%TA.AperFunction,NonConductor*%
G36*
X168874565Y-90615648D02*
G01*
X167745676Y-90615648D01*
X167745676Y-90051203D01*
X168874565Y-90051203D01*
X168874565Y-90615648D01*
G37*
%TD.AperFunction*%
%TA.AperFunction,NonConductor*%
G36*
X172825676Y-84406759D02*
G01*
X173390120Y-84406759D01*
X173390120Y-83842315D01*
X173954565Y-83842315D01*
X173954565Y-84971204D01*
X174519010Y-84971204D01*
X174519010Y-83842315D01*
X175083454Y-83842315D01*
X175083454Y-84971204D01*
X175647898Y-84971204D01*
X175647898Y-85535648D01*
X176212343Y-85535648D01*
X176212343Y-86100092D01*
X175647898Y-86100092D01*
X175647898Y-86664537D01*
X175083454Y-86664537D01*
X175083454Y-86100092D01*
X174519010Y-86100092D01*
X174519010Y-85535648D01*
X173390120Y-85535648D01*
X173390120Y-84971204D01*
X172261232Y-84971204D01*
X172261232Y-83842315D01*
X172825676Y-83842315D01*
X172825676Y-84406759D01*
G37*
%TD.AperFunction*%
%TA.AperFunction,NonConductor*%
G36*
X174519010Y-83842315D02*
G01*
X173954565Y-83842315D01*
X173954565Y-83277870D01*
X174519010Y-83277870D01*
X174519010Y-83842315D01*
G37*
%TD.AperFunction*%
%TA.AperFunction,NonConductor*%
G36*
X171696787Y-93437870D02*
G01*
X171132343Y-93437870D01*
X171132343Y-92873426D01*
X171696787Y-92873426D01*
X171696787Y-93437870D01*
G37*
%TD.AperFunction*%
%TA.AperFunction,NonConductor*%
G36*
X180727898Y-92308981D02*
G01*
X180163454Y-92308981D01*
X180163454Y-91744537D01*
X180727898Y-91744537D01*
X180727898Y-92308981D01*
G37*
%TD.AperFunction*%
%TA.AperFunction,NonConductor*%
G36*
X177905676Y-93437870D02*
G01*
X178470121Y-93437870D01*
X178470121Y-94566760D01*
X177341232Y-94566760D01*
X177341232Y-93437870D01*
X176776787Y-93437870D01*
X176776787Y-92873426D01*
X177905676Y-92873426D01*
X177905676Y-93437870D01*
G37*
%TD.AperFunction*%
D11*
X118623410Y-94727462D02*
X118332368Y-94727462D01*
X118332368Y-92266837D01*
X118623410Y-92266837D01*
X118623410Y-94727462D01*
%TA.AperFunction,NonConductor*%
G36*
X118623410Y-94727462D02*
G01*
X118332368Y-94727462D01*
X118332368Y-92266837D01*
X118623410Y-92266837D01*
X118623410Y-94727462D01*
G37*
%TD.AperFunction*%
D10*
%TA.AperFunction,NonConductor*%
G36*
X180163454Y-89486759D02*
G01*
X179599009Y-89486759D01*
X179599009Y-88922315D01*
X180163454Y-88922315D01*
X180163454Y-89486759D01*
G37*
%TD.AperFunction*%
%TA.AperFunction,NonConductor*%
G36*
X179599009Y-93437870D02*
G01*
X179034565Y-93437870D01*
X179034565Y-92308981D01*
X179599009Y-92308981D01*
X179599009Y-93437870D01*
G37*
%TD.AperFunction*%
D11*
X118431588Y-91350271D02*
X118452464Y-91353570D01*
X118473766Y-91356656D01*
X118494897Y-91359464D01*
X118515262Y-91361924D01*
X118534262Y-91363972D01*
X118551301Y-91365538D01*
X118565782Y-91366558D01*
X118577108Y-91366962D01*
X118584255Y-91367365D01*
X118590643Y-91368602D01*
X118596313Y-91370863D01*
X118601307Y-91374335D01*
X118605666Y-91379207D01*
X118609430Y-91385666D01*
X118612641Y-91393900D01*
X118615339Y-91404097D01*
X118617566Y-91416446D01*
X118619363Y-91431134D01*
X118620771Y-91448350D01*
X118621831Y-91468281D01*
X118623070Y-91517042D01*
X118623411Y-91578921D01*
X118623411Y-91790586D01*
X118332369Y-91790586D01*
X118332369Y-91333871D01*
X118431588Y-91350271D01*
%TA.AperFunction,NonConductor*%
G36*
X118431588Y-91350271D02*
G01*
X118452464Y-91353570D01*
X118473766Y-91356656D01*
X118494897Y-91359464D01*
X118515262Y-91361924D01*
X118534262Y-91363972D01*
X118551301Y-91365538D01*
X118565782Y-91366558D01*
X118577108Y-91366962D01*
X118584255Y-91367365D01*
X118590643Y-91368602D01*
X118596313Y-91370863D01*
X118601307Y-91374335D01*
X118605666Y-91379207D01*
X118609430Y-91385666D01*
X118612641Y-91393900D01*
X118615339Y-91404097D01*
X118617566Y-91416446D01*
X118619363Y-91431134D01*
X118620771Y-91448350D01*
X118621831Y-91468281D01*
X118623070Y-91517042D01*
X118623411Y-91578921D01*
X118623411Y-91790586D01*
X118332369Y-91790586D01*
X118332369Y-91333871D01*
X118431588Y-91350271D01*
G37*
%TD.AperFunction*%
X113753645Y-92228384D02*
X113862786Y-92230578D01*
X113973439Y-92233995D01*
X114082375Y-92238484D01*
X114186365Y-92243897D01*
X114282182Y-92250081D01*
X114366596Y-92256888D01*
X114436379Y-92264167D01*
X114734035Y-92300359D01*
X114734035Y-93513911D01*
X114734037Y-94727460D01*
X114442994Y-94727460D01*
X114442994Y-92561121D01*
X114317316Y-92540206D01*
X114282080Y-92535993D01*
X114229894Y-92532041D01*
X114084771Y-92525272D01*
X113902131Y-92520604D01*
X113702160Y-92518741D01*
X113548086Y-92518837D01*
X113484173Y-92519214D01*
X113428015Y-92519911D01*
X113378864Y-92521002D01*
X113335976Y-92522563D01*
X113298602Y-92524669D01*
X113265998Y-92527394D01*
X113237418Y-92530813D01*
X113224403Y-92532807D01*
X113212114Y-92535002D01*
X113200457Y-92537409D01*
X113189340Y-92540035D01*
X113178669Y-92542892D01*
X113168351Y-92545988D01*
X113148401Y-92552934D01*
X113128742Y-92560950D01*
X113108628Y-92570110D01*
X113087314Y-92580489D01*
X113057788Y-92595959D01*
X113029577Y-92612389D01*
X113002636Y-92629832D01*
X112976921Y-92648339D01*
X112952384Y-92667962D01*
X112928983Y-92688755D01*
X112906670Y-92710768D01*
X112885402Y-92734054D01*
X112865133Y-92758666D01*
X112845817Y-92784654D01*
X112827410Y-92812072D01*
X112809866Y-92840972D01*
X112793140Y-92871405D01*
X112777187Y-92903424D01*
X112761962Y-92937081D01*
X112747419Y-92972428D01*
X112728303Y-93024312D01*
X112713505Y-93076670D01*
X112702319Y-93138901D01*
X112694044Y-93220403D01*
X112687975Y-93330575D01*
X112683409Y-93478816D01*
X112675974Y-93927097D01*
X112665114Y-94727462D01*
X112379244Y-94727462D01*
X112379444Y-94085848D01*
X112380183Y-93898989D01*
X112382427Y-93729043D01*
X112386397Y-93574896D01*
X112392318Y-93435436D01*
X112400412Y-93309551D01*
X112410901Y-93196129D01*
X112424009Y-93094058D01*
X112431614Y-93046931D01*
X112439957Y-93002224D01*
X112449067Y-92959799D01*
X112458970Y-92919517D01*
X112469695Y-92881237D01*
X112481270Y-92844823D01*
X112493722Y-92810133D01*
X112507079Y-92777030D01*
X112521370Y-92745373D01*
X112536621Y-92715025D01*
X112552861Y-92685847D01*
X112570118Y-92657698D01*
X112588420Y-92630440D01*
X112607793Y-92603934D01*
X112628267Y-92578042D01*
X112649869Y-92552623D01*
X112696569Y-92502651D01*
X112715357Y-92483993D01*
X112734045Y-92466152D01*
X112752661Y-92449107D01*
X112771234Y-92432840D01*
X112789793Y-92417330D01*
X112808366Y-92402557D01*
X112826983Y-92388501D01*
X112845671Y-92375143D01*
X112864460Y-92362461D01*
X112883379Y-92350438D01*
X112902455Y-92339051D01*
X112921718Y-92328283D01*
X112941196Y-92318111D01*
X112960918Y-92308518D01*
X112980913Y-92299482D01*
X113001209Y-92290984D01*
X113052784Y-92271150D01*
X113100653Y-92255903D01*
X113125091Y-92249814D01*
X113150873Y-92244650D01*
X113178758Y-92240336D01*
X113209502Y-92236799D01*
X113282596Y-92231757D01*
X113376213Y-92228932D01*
X113496410Y-92227731D01*
X113649244Y-92227563D01*
X113753645Y-92228384D01*
%TA.AperFunction,NonConductor*%
G36*
X113753645Y-92228384D02*
G01*
X113862786Y-92230578D01*
X113973439Y-92233995D01*
X114082375Y-92238484D01*
X114186365Y-92243897D01*
X114282182Y-92250081D01*
X114366596Y-92256888D01*
X114436379Y-92264167D01*
X114734035Y-92300359D01*
X114734035Y-93513911D01*
X114734037Y-94727460D01*
X114442994Y-94727460D01*
X114442994Y-92561121D01*
X114317316Y-92540206D01*
X114282080Y-92535993D01*
X114229894Y-92532041D01*
X114084771Y-92525272D01*
X113902131Y-92520604D01*
X113702160Y-92518741D01*
X113548086Y-92518837D01*
X113484173Y-92519214D01*
X113428015Y-92519911D01*
X113378864Y-92521002D01*
X113335976Y-92522563D01*
X113298602Y-92524669D01*
X113265998Y-92527394D01*
X113237418Y-92530813D01*
X113224403Y-92532807D01*
X113212114Y-92535002D01*
X113200457Y-92537409D01*
X113189340Y-92540035D01*
X113178669Y-92542892D01*
X113168351Y-92545988D01*
X113148401Y-92552934D01*
X113128742Y-92560950D01*
X113108628Y-92570110D01*
X113087314Y-92580489D01*
X113057788Y-92595959D01*
X113029577Y-92612389D01*
X113002636Y-92629832D01*
X112976921Y-92648339D01*
X112952384Y-92667962D01*
X112928983Y-92688755D01*
X112906670Y-92710768D01*
X112885402Y-92734054D01*
X112865133Y-92758666D01*
X112845817Y-92784654D01*
X112827410Y-92812072D01*
X112809866Y-92840972D01*
X112793140Y-92871405D01*
X112777187Y-92903424D01*
X112761962Y-92937081D01*
X112747419Y-92972428D01*
X112728303Y-93024312D01*
X112713505Y-93076670D01*
X112702319Y-93138901D01*
X112694044Y-93220403D01*
X112687975Y-93330575D01*
X112683409Y-93478816D01*
X112675974Y-93927097D01*
X112665114Y-94727462D01*
X112379244Y-94727462D01*
X112379444Y-94085848D01*
X112380183Y-93898989D01*
X112382427Y-93729043D01*
X112386397Y-93574896D01*
X112392318Y-93435436D01*
X112400412Y-93309551D01*
X112410901Y-93196129D01*
X112424009Y-93094058D01*
X112431614Y-93046931D01*
X112439957Y-93002224D01*
X112449067Y-92959799D01*
X112458970Y-92919517D01*
X112469695Y-92881237D01*
X112481270Y-92844823D01*
X112493722Y-92810133D01*
X112507079Y-92777030D01*
X112521370Y-92745373D01*
X112536621Y-92715025D01*
X112552861Y-92685847D01*
X112570118Y-92657698D01*
X112588420Y-92630440D01*
X112607793Y-92603934D01*
X112628267Y-92578042D01*
X112649869Y-92552623D01*
X112696569Y-92502651D01*
X112715357Y-92483993D01*
X112734045Y-92466152D01*
X112752661Y-92449107D01*
X112771234Y-92432840D01*
X112789793Y-92417330D01*
X112808366Y-92402557D01*
X112826983Y-92388501D01*
X112845671Y-92375143D01*
X112864460Y-92362461D01*
X112883379Y-92350438D01*
X112902455Y-92339051D01*
X112921718Y-92328283D01*
X112941196Y-92318111D01*
X112960918Y-92308518D01*
X112980913Y-92299482D01*
X113001209Y-92290984D01*
X113052784Y-92271150D01*
X113100653Y-92255903D01*
X113125091Y-92249814D01*
X113150873Y-92244650D01*
X113178758Y-92240336D01*
X113209502Y-92236799D01*
X113282596Y-92231757D01*
X113376213Y-92228932D01*
X113496410Y-92227731D01*
X113649244Y-92227563D01*
X113753645Y-92228384D01*
G37*
%TD.AperFunction*%
D10*
%TA.AperFunction,NonConductor*%
G36*
X177905676Y-89486759D02*
G01*
X178470121Y-89486759D01*
X178470121Y-88922315D01*
X179034565Y-88922315D01*
X179034565Y-90615648D01*
X178470121Y-90615648D01*
X178470121Y-91180093D01*
X177905676Y-91180093D01*
X177905676Y-90051203D01*
X177341232Y-90051203D01*
X177341232Y-88922315D01*
X176776787Y-88922315D01*
X176776787Y-88357870D01*
X177905676Y-88357870D01*
X177905676Y-89486759D01*
G37*
%TD.AperFunction*%
%TA.AperFunction,NonConductor*%
G36*
X180163454Y-91744537D02*
G01*
X179599009Y-91744537D01*
X179599009Y-91180093D01*
X180163454Y-91180093D01*
X180163454Y-91744537D01*
G37*
%TD.AperFunction*%
%TA.AperFunction,NonConductor*%
G36*
X182421232Y-91744537D02*
G01*
X182985676Y-91744537D01*
X182985676Y-92308981D01*
X181292343Y-92308981D01*
X181292343Y-91744537D01*
X181856787Y-91744537D01*
X181856787Y-91180093D01*
X182421232Y-91180093D01*
X182421232Y-91744537D01*
G37*
%TD.AperFunction*%
%TA.AperFunction,NonConductor*%
G36*
X182985676Y-83277870D02*
G01*
X181292343Y-83277870D01*
X181292343Y-81584537D01*
X182985676Y-81584537D01*
X182985676Y-83277870D01*
G37*
%TD.AperFunction*%
%TA.AperFunction,NonConductor*%
G36*
X171696787Y-96824537D02*
G01*
X171132343Y-96824537D01*
X171132343Y-96260093D01*
X171696787Y-96260093D01*
X171696787Y-96824537D01*
G37*
%TD.AperFunction*%
D12*
D13*
X125452005Y-65338761D02*
X125547243Y-65434000D01*
X125547243Y-65434000D02*
X125832957Y-65529238D01*
X125832957Y-65529238D02*
X126023433Y-65529238D01*
X126023433Y-65529238D02*
X126309148Y-65434000D01*
X126309148Y-65434000D02*
X126499624Y-65243523D01*
X126499624Y-65243523D02*
X126594862Y-65053047D01*
X126594862Y-65053047D02*
X126690100Y-64672095D01*
X126690100Y-64672095D02*
X126690100Y-64386380D01*
X126690100Y-64386380D02*
X126594862Y-64005428D01*
X126594862Y-64005428D02*
X126499624Y-63814952D01*
X126499624Y-63814952D02*
X126309148Y-63624476D01*
X126309148Y-63624476D02*
X126023433Y-63529238D01*
X126023433Y-63529238D02*
X125832957Y-63529238D01*
X125832957Y-63529238D02*
X125547243Y-63624476D01*
X125547243Y-63624476D02*
X125452005Y-63719714D01*
X124309148Y-65529238D02*
X124499624Y-65434000D01*
X124499624Y-65434000D02*
X124594862Y-65338761D01*
X124594862Y-65338761D02*
X124690100Y-65148285D01*
X124690100Y-65148285D02*
X124690100Y-64576857D01*
X124690100Y-64576857D02*
X124594862Y-64386380D01*
X124594862Y-64386380D02*
X124499624Y-64291142D01*
X124499624Y-64291142D02*
X124309148Y-64195904D01*
X124309148Y-64195904D02*
X124023433Y-64195904D01*
X124023433Y-64195904D02*
X123832957Y-64291142D01*
X123832957Y-64291142D02*
X123737719Y-64386380D01*
X123737719Y-64386380D02*
X123642481Y-64576857D01*
X123642481Y-64576857D02*
X123642481Y-65148285D01*
X123642481Y-65148285D02*
X123737719Y-65338761D01*
X123737719Y-65338761D02*
X123832957Y-65434000D01*
X123832957Y-65434000D02*
X124023433Y-65529238D01*
X124023433Y-65529238D02*
X124309148Y-65529238D01*
X122785338Y-65529238D02*
X122785338Y-64195904D01*
X122785338Y-64386380D02*
X122690100Y-64291142D01*
X122690100Y-64291142D02*
X122499624Y-64195904D01*
X122499624Y-64195904D02*
X122213909Y-64195904D01*
X122213909Y-64195904D02*
X122023433Y-64291142D01*
X122023433Y-64291142D02*
X121928195Y-64481619D01*
X121928195Y-64481619D02*
X121928195Y-65529238D01*
X121928195Y-64481619D02*
X121832957Y-64291142D01*
X121832957Y-64291142D02*
X121642481Y-64195904D01*
X121642481Y-64195904D02*
X121356767Y-64195904D01*
X121356767Y-64195904D02*
X121166290Y-64291142D01*
X121166290Y-64291142D02*
X121071052Y-64481619D01*
X121071052Y-64481619D02*
X121071052Y-65529238D01*
X120118671Y-64195904D02*
X120118671Y-66195904D01*
X120118671Y-64291142D02*
X119928195Y-64195904D01*
X119928195Y-64195904D02*
X119547242Y-64195904D01*
X119547242Y-64195904D02*
X119356766Y-64291142D01*
X119356766Y-64291142D02*
X119261528Y-64386380D01*
X119261528Y-64386380D02*
X119166290Y-64576857D01*
X119166290Y-64576857D02*
X119166290Y-65148285D01*
X119166290Y-65148285D02*
X119261528Y-65338761D01*
X119261528Y-65338761D02*
X119356766Y-65434000D01*
X119356766Y-65434000D02*
X119547242Y-65529238D01*
X119547242Y-65529238D02*
X119928195Y-65529238D01*
X119928195Y-65529238D02*
X120118671Y-65434000D01*
X117547242Y-65434000D02*
X117737718Y-65529238D01*
X117737718Y-65529238D02*
X118118671Y-65529238D01*
X118118671Y-65529238D02*
X118309147Y-65434000D01*
X118309147Y-65434000D02*
X118404385Y-65243523D01*
X118404385Y-65243523D02*
X118404385Y-64481619D01*
X118404385Y-64481619D02*
X118309147Y-64291142D01*
X118309147Y-64291142D02*
X118118671Y-64195904D01*
X118118671Y-64195904D02*
X117737718Y-64195904D01*
X117737718Y-64195904D02*
X117547242Y-64291142D01*
X117547242Y-64291142D02*
X117452004Y-64481619D01*
X117452004Y-64481619D02*
X117452004Y-64672095D01*
X117452004Y-64672095D02*
X118404385Y-64862571D01*
X116880575Y-64195904D02*
X116118671Y-64195904D01*
X116594861Y-63529238D02*
X116594861Y-65243523D01*
X116594861Y-65243523D02*
X116499623Y-65434000D01*
X116499623Y-65434000D02*
X116309147Y-65529238D01*
X116309147Y-65529238D02*
X116118671Y-65529238D01*
X115452004Y-65529238D02*
X115452004Y-64195904D01*
X115452004Y-63529238D02*
X115547242Y-63624476D01*
X115547242Y-63624476D02*
X115452004Y-63719714D01*
X115452004Y-63719714D02*
X115356766Y-63624476D01*
X115356766Y-63624476D02*
X115452004Y-63529238D01*
X115452004Y-63529238D02*
X115452004Y-63719714D01*
X114785337Y-64195904D02*
X114023433Y-64195904D01*
X114499623Y-63529238D02*
X114499623Y-65243523D01*
X114499623Y-65243523D02*
X114404385Y-65434000D01*
X114404385Y-65434000D02*
X114213909Y-65529238D01*
X114213909Y-65529238D02*
X114023433Y-65529238D01*
X113356766Y-65529238D02*
X113356766Y-64195904D01*
X113356766Y-63529238D02*
X113452004Y-63624476D01*
X113452004Y-63624476D02*
X113356766Y-63719714D01*
X113356766Y-63719714D02*
X113261528Y-63624476D01*
X113261528Y-63624476D02*
X113356766Y-63529238D01*
X113356766Y-63529238D02*
X113356766Y-63719714D01*
X112118671Y-65529238D02*
X112309147Y-65434000D01*
X112309147Y-65434000D02*
X112404385Y-65338761D01*
X112404385Y-65338761D02*
X112499623Y-65148285D01*
X112499623Y-65148285D02*
X112499623Y-64576857D01*
X112499623Y-64576857D02*
X112404385Y-64386380D01*
X112404385Y-64386380D02*
X112309147Y-64291142D01*
X112309147Y-64291142D02*
X112118671Y-64195904D01*
X112118671Y-64195904D02*
X111832956Y-64195904D01*
X111832956Y-64195904D02*
X111642480Y-64291142D01*
X111642480Y-64291142D02*
X111547242Y-64386380D01*
X111547242Y-64386380D02*
X111452004Y-64576857D01*
X111452004Y-64576857D02*
X111452004Y-65148285D01*
X111452004Y-65148285D02*
X111547242Y-65338761D01*
X111547242Y-65338761D02*
X111642480Y-65434000D01*
X111642480Y-65434000D02*
X111832956Y-65529238D01*
X111832956Y-65529238D02*
X112118671Y-65529238D01*
X110594861Y-64195904D02*
X110594861Y-65529238D01*
X110594861Y-64386380D02*
X110499623Y-64291142D01*
X110499623Y-64291142D02*
X110309147Y-64195904D01*
X110309147Y-64195904D02*
X110023432Y-64195904D01*
X110023432Y-64195904D02*
X109832956Y-64291142D01*
X109832956Y-64291142D02*
X109737718Y-64481619D01*
X109737718Y-64481619D02*
X109737718Y-65529238D01*
X108880575Y-65434000D02*
X108690099Y-65529238D01*
X108690099Y-65529238D02*
X108309147Y-65529238D01*
X108309147Y-65529238D02*
X108118670Y-65434000D01*
X108118670Y-65434000D02*
X108023432Y-65243523D01*
X108023432Y-65243523D02*
X108023432Y-65148285D01*
X108023432Y-65148285D02*
X108118670Y-64957809D01*
X108118670Y-64957809D02*
X108309147Y-64862571D01*
X108309147Y-64862571D02*
X108594861Y-64862571D01*
X108594861Y-64862571D02*
X108785337Y-64767333D01*
X108785337Y-64767333D02*
X108880575Y-64576857D01*
X108880575Y-64576857D02*
X108880575Y-64481619D01*
X108880575Y-64481619D02*
X108785337Y-64291142D01*
X108785337Y-64291142D02*
X108594861Y-64195904D01*
X108594861Y-64195904D02*
X108309147Y-64195904D01*
X108309147Y-64195904D02*
X108118670Y-64291142D01*
D12*
D13*
X125452005Y-59529238D02*
X126118672Y-58576857D01*
X126594862Y-59529238D02*
X126594862Y-57529238D01*
X126594862Y-57529238D02*
X125832957Y-57529238D01*
X125832957Y-57529238D02*
X125642481Y-57624476D01*
X125642481Y-57624476D02*
X125547243Y-57719714D01*
X125547243Y-57719714D02*
X125452005Y-57910190D01*
X125452005Y-57910190D02*
X125452005Y-58195904D01*
X125452005Y-58195904D02*
X125547243Y-58386380D01*
X125547243Y-58386380D02*
X125642481Y-58481619D01*
X125642481Y-58481619D02*
X125832957Y-58576857D01*
X125832957Y-58576857D02*
X126594862Y-58576857D01*
X124309148Y-59529238D02*
X124499624Y-59434000D01*
X124499624Y-59434000D02*
X124594862Y-59338761D01*
X124594862Y-59338761D02*
X124690100Y-59148285D01*
X124690100Y-59148285D02*
X124690100Y-58576857D01*
X124690100Y-58576857D02*
X124594862Y-58386380D01*
X124594862Y-58386380D02*
X124499624Y-58291142D01*
X124499624Y-58291142D02*
X124309148Y-58195904D01*
X124309148Y-58195904D02*
X124023433Y-58195904D01*
X124023433Y-58195904D02*
X123832957Y-58291142D01*
X123832957Y-58291142D02*
X123737719Y-58386380D01*
X123737719Y-58386380D02*
X123642481Y-58576857D01*
X123642481Y-58576857D02*
X123642481Y-59148285D01*
X123642481Y-59148285D02*
X123737719Y-59338761D01*
X123737719Y-59338761D02*
X123832957Y-59434000D01*
X123832957Y-59434000D02*
X124023433Y-59529238D01*
X124023433Y-59529238D02*
X124309148Y-59529238D01*
X122785338Y-59529238D02*
X122785338Y-57529238D01*
X122785338Y-58291142D02*
X122594862Y-58195904D01*
X122594862Y-58195904D02*
X122213909Y-58195904D01*
X122213909Y-58195904D02*
X122023433Y-58291142D01*
X122023433Y-58291142D02*
X121928195Y-58386380D01*
X121928195Y-58386380D02*
X121832957Y-58576857D01*
X121832957Y-58576857D02*
X121832957Y-59148285D01*
X121832957Y-59148285D02*
X121928195Y-59338761D01*
X121928195Y-59338761D02*
X122023433Y-59434000D01*
X122023433Y-59434000D02*
X122213909Y-59529238D01*
X122213909Y-59529238D02*
X122594862Y-59529238D01*
X122594862Y-59529238D02*
X122785338Y-59434000D01*
X120690100Y-59529238D02*
X120880576Y-59434000D01*
X120880576Y-59434000D02*
X120975814Y-59338761D01*
X120975814Y-59338761D02*
X121071052Y-59148285D01*
X121071052Y-59148285D02*
X121071052Y-58576857D01*
X121071052Y-58576857D02*
X120975814Y-58386380D01*
X120975814Y-58386380D02*
X120880576Y-58291142D01*
X120880576Y-58291142D02*
X120690100Y-58195904D01*
X120690100Y-58195904D02*
X120404385Y-58195904D01*
X120404385Y-58195904D02*
X120213909Y-58291142D01*
X120213909Y-58291142D02*
X120118671Y-58386380D01*
X120118671Y-58386380D02*
X120023433Y-58576857D01*
X120023433Y-58576857D02*
X120023433Y-59148285D01*
X120023433Y-59148285D02*
X120118671Y-59338761D01*
X120118671Y-59338761D02*
X120213909Y-59434000D01*
X120213909Y-59434000D02*
X120404385Y-59529238D01*
X120404385Y-59529238D02*
X120690100Y-59529238D01*
X119452004Y-58195904D02*
X118690100Y-58195904D01*
X119166290Y-57529238D02*
X119166290Y-59243523D01*
X119166290Y-59243523D02*
X119071052Y-59434000D01*
X119071052Y-59434000D02*
X118880576Y-59529238D01*
X118880576Y-59529238D02*
X118690100Y-59529238D01*
X118023433Y-59529238D02*
X118023433Y-58195904D01*
X118023433Y-57529238D02*
X118118671Y-57624476D01*
X118118671Y-57624476D02*
X118023433Y-57719714D01*
X118023433Y-57719714D02*
X117928195Y-57624476D01*
X117928195Y-57624476D02*
X118023433Y-57529238D01*
X118023433Y-57529238D02*
X118023433Y-57719714D01*
X116213909Y-59434000D02*
X116404385Y-59529238D01*
X116404385Y-59529238D02*
X116785338Y-59529238D01*
X116785338Y-59529238D02*
X116975814Y-59434000D01*
X116975814Y-59434000D02*
X117071052Y-59338761D01*
X117071052Y-59338761D02*
X117166290Y-59148285D01*
X117166290Y-59148285D02*
X117166290Y-58576857D01*
X117166290Y-58576857D02*
X117071052Y-58386380D01*
X117071052Y-58386380D02*
X116975814Y-58291142D01*
X116975814Y-58291142D02*
X116785338Y-58195904D01*
X116785338Y-58195904D02*
X116404385Y-58195904D01*
X116404385Y-58195904D02*
X116213909Y-58291142D01*
X115452004Y-59434000D02*
X115261528Y-59529238D01*
X115261528Y-59529238D02*
X114880576Y-59529238D01*
X114880576Y-59529238D02*
X114690099Y-59434000D01*
X114690099Y-59434000D02*
X114594861Y-59243523D01*
X114594861Y-59243523D02*
X114594861Y-59148285D01*
X114594861Y-59148285D02*
X114690099Y-58957809D01*
X114690099Y-58957809D02*
X114880576Y-58862571D01*
X114880576Y-58862571D02*
X115166290Y-58862571D01*
X115166290Y-58862571D02*
X115356766Y-58767333D01*
X115356766Y-58767333D02*
X115452004Y-58576857D01*
X115452004Y-58576857D02*
X115452004Y-58481619D01*
X115452004Y-58481619D02*
X115356766Y-58291142D01*
X115356766Y-58291142D02*
X115166290Y-58195904D01*
X115166290Y-58195904D02*
X114880576Y-58195904D01*
X114880576Y-58195904D02*
X114690099Y-58291142D01*
X111356765Y-59434000D02*
X111547241Y-59529238D01*
X111547241Y-59529238D02*
X111928194Y-59529238D01*
X111928194Y-59529238D02*
X112118670Y-59434000D01*
X112118670Y-59434000D02*
X112213908Y-59338761D01*
X112213908Y-59338761D02*
X112309146Y-59148285D01*
X112309146Y-59148285D02*
X112309146Y-58576857D01*
X112309146Y-58576857D02*
X112213908Y-58386380D01*
X112213908Y-58386380D02*
X112118670Y-58291142D01*
X112118670Y-58291142D02*
X111928194Y-58195904D01*
X111928194Y-58195904D02*
X111547241Y-58195904D01*
X111547241Y-58195904D02*
X111356765Y-58291142D01*
X110213908Y-59529238D02*
X110404384Y-59434000D01*
X110404384Y-59434000D02*
X110499622Y-59243523D01*
X110499622Y-59243523D02*
X110499622Y-57529238D01*
X108594860Y-58195904D02*
X108594860Y-59529238D01*
X109452003Y-58195904D02*
X109452003Y-59243523D01*
X109452003Y-59243523D02*
X109356765Y-59434000D01*
X109356765Y-59434000D02*
X109166289Y-59529238D01*
X109166289Y-59529238D02*
X108880574Y-59529238D01*
X108880574Y-59529238D02*
X108690098Y-59434000D01*
X108690098Y-59434000D02*
X108594860Y-59338761D01*
X107642479Y-59529238D02*
X107642479Y-57529238D01*
X107642479Y-58291142D02*
X107452003Y-58195904D01*
X107452003Y-58195904D02*
X107071050Y-58195904D01*
X107071050Y-58195904D02*
X106880574Y-58291142D01*
X106880574Y-58291142D02*
X106785336Y-58386380D01*
X106785336Y-58386380D02*
X106690098Y-58576857D01*
X106690098Y-58576857D02*
X106690098Y-59148285D01*
X106690098Y-59148285D02*
X106785336Y-59338761D01*
X106785336Y-59338761D02*
X106880574Y-59434000D01*
X106880574Y-59434000D02*
X107071050Y-59529238D01*
X107071050Y-59529238D02*
X107452003Y-59529238D01*
X107452003Y-59529238D02*
X107642479Y-59434000D01*
D12*
D13*
X129290100Y-76634000D02*
X129004386Y-76729238D01*
X129004386Y-76729238D02*
X128528195Y-76729238D01*
X128528195Y-76729238D02*
X128337719Y-76634000D01*
X128337719Y-76634000D02*
X128242481Y-76538761D01*
X128242481Y-76538761D02*
X128147243Y-76348285D01*
X128147243Y-76348285D02*
X128147243Y-76157809D01*
X128147243Y-76157809D02*
X128242481Y-75967333D01*
X128242481Y-75967333D02*
X128337719Y-75872095D01*
X128337719Y-75872095D02*
X128528195Y-75776857D01*
X128528195Y-75776857D02*
X128909148Y-75681619D01*
X128909148Y-75681619D02*
X129099624Y-75586380D01*
X129099624Y-75586380D02*
X129194862Y-75491142D01*
X129194862Y-75491142D02*
X129290100Y-75300666D01*
X129290100Y-75300666D02*
X129290100Y-75110190D01*
X129290100Y-75110190D02*
X129194862Y-74919714D01*
X129194862Y-74919714D02*
X129099624Y-74824476D01*
X129099624Y-74824476D02*
X128909148Y-74729238D01*
X128909148Y-74729238D02*
X128432957Y-74729238D01*
X128432957Y-74729238D02*
X128147243Y-74824476D01*
X127290100Y-75395904D02*
X127290100Y-77395904D01*
X127290100Y-75491142D02*
X127099624Y-75395904D01*
X127099624Y-75395904D02*
X126718671Y-75395904D01*
X126718671Y-75395904D02*
X126528195Y-75491142D01*
X126528195Y-75491142D02*
X126432957Y-75586380D01*
X126432957Y-75586380D02*
X126337719Y-75776857D01*
X126337719Y-75776857D02*
X126337719Y-76348285D01*
X126337719Y-76348285D02*
X126432957Y-76538761D01*
X126432957Y-76538761D02*
X126528195Y-76634000D01*
X126528195Y-76634000D02*
X126718671Y-76729238D01*
X126718671Y-76729238D02*
X127099624Y-76729238D01*
X127099624Y-76729238D02*
X127290100Y-76634000D01*
X125194862Y-76729238D02*
X125385338Y-76634000D01*
X125385338Y-76634000D02*
X125480576Y-76538761D01*
X125480576Y-76538761D02*
X125575814Y-76348285D01*
X125575814Y-76348285D02*
X125575814Y-75776857D01*
X125575814Y-75776857D02*
X125480576Y-75586380D01*
X125480576Y-75586380D02*
X125385338Y-75491142D01*
X125385338Y-75491142D02*
X125194862Y-75395904D01*
X125194862Y-75395904D02*
X124909147Y-75395904D01*
X124909147Y-75395904D02*
X124718671Y-75491142D01*
X124718671Y-75491142D02*
X124623433Y-75586380D01*
X124623433Y-75586380D02*
X124528195Y-75776857D01*
X124528195Y-75776857D02*
X124528195Y-76348285D01*
X124528195Y-76348285D02*
X124623433Y-76538761D01*
X124623433Y-76538761D02*
X124718671Y-76634000D01*
X124718671Y-76634000D02*
X124909147Y-76729238D01*
X124909147Y-76729238D02*
X125194862Y-76729238D01*
X123671052Y-75395904D02*
X123671052Y-76729238D01*
X123671052Y-75586380D02*
X123575814Y-75491142D01*
X123575814Y-75491142D02*
X123385338Y-75395904D01*
X123385338Y-75395904D02*
X123099623Y-75395904D01*
X123099623Y-75395904D02*
X122909147Y-75491142D01*
X122909147Y-75491142D02*
X122813909Y-75681619D01*
X122813909Y-75681619D02*
X122813909Y-76729238D01*
X121956766Y-76634000D02*
X121766290Y-76729238D01*
X121766290Y-76729238D02*
X121385338Y-76729238D01*
X121385338Y-76729238D02*
X121194861Y-76634000D01*
X121194861Y-76634000D02*
X121099623Y-76443523D01*
X121099623Y-76443523D02*
X121099623Y-76348285D01*
X121099623Y-76348285D02*
X121194861Y-76157809D01*
X121194861Y-76157809D02*
X121385338Y-76062571D01*
X121385338Y-76062571D02*
X121671052Y-76062571D01*
X121671052Y-76062571D02*
X121861528Y-75967333D01*
X121861528Y-75967333D02*
X121956766Y-75776857D01*
X121956766Y-75776857D02*
X121956766Y-75681619D01*
X121956766Y-75681619D02*
X121861528Y-75491142D01*
X121861528Y-75491142D02*
X121671052Y-75395904D01*
X121671052Y-75395904D02*
X121385338Y-75395904D01*
X121385338Y-75395904D02*
X121194861Y-75491142D01*
X119956766Y-76729238D02*
X120147242Y-76634000D01*
X120147242Y-76634000D02*
X120242480Y-76538761D01*
X120242480Y-76538761D02*
X120337718Y-76348285D01*
X120337718Y-76348285D02*
X120337718Y-75776857D01*
X120337718Y-75776857D02*
X120242480Y-75586380D01*
X120242480Y-75586380D02*
X120147242Y-75491142D01*
X120147242Y-75491142D02*
X119956766Y-75395904D01*
X119956766Y-75395904D02*
X119671051Y-75395904D01*
X119671051Y-75395904D02*
X119480575Y-75491142D01*
X119480575Y-75491142D02*
X119385337Y-75586380D01*
X119385337Y-75586380D02*
X119290099Y-75776857D01*
X119290099Y-75776857D02*
X119290099Y-76348285D01*
X119290099Y-76348285D02*
X119385337Y-76538761D01*
X119385337Y-76538761D02*
X119480575Y-76634000D01*
X119480575Y-76634000D02*
X119671051Y-76729238D01*
X119671051Y-76729238D02*
X119956766Y-76729238D01*
X118432956Y-76729238D02*
X118432956Y-75395904D01*
X118432956Y-75776857D02*
X118337718Y-75586380D01*
X118337718Y-75586380D02*
X118242480Y-75491142D01*
X118242480Y-75491142D02*
X118052004Y-75395904D01*
X118052004Y-75395904D02*
X117861527Y-75395904D01*
X116432956Y-76634000D02*
X116623432Y-76729238D01*
X116623432Y-76729238D02*
X117004385Y-76729238D01*
X117004385Y-76729238D02*
X117194861Y-76634000D01*
X117194861Y-76634000D02*
X117290099Y-76443523D01*
X117290099Y-76443523D02*
X117290099Y-75681619D01*
X117290099Y-75681619D02*
X117194861Y-75491142D01*
X117194861Y-75491142D02*
X117004385Y-75395904D01*
X117004385Y-75395904D02*
X116623432Y-75395904D01*
X116623432Y-75395904D02*
X116432956Y-75491142D01*
X116432956Y-75491142D02*
X116337718Y-75681619D01*
X116337718Y-75681619D02*
X116337718Y-75872095D01*
X116337718Y-75872095D02*
X117290099Y-76062571D01*
X114623432Y-76729238D02*
X114623432Y-74729238D01*
X114623432Y-76634000D02*
X114813908Y-76729238D01*
X114813908Y-76729238D02*
X115194861Y-76729238D01*
X115194861Y-76729238D02*
X115385337Y-76634000D01*
X115385337Y-76634000D02*
X115480575Y-76538761D01*
X115480575Y-76538761D02*
X115575813Y-76348285D01*
X115575813Y-76348285D02*
X115575813Y-75776857D01*
X115575813Y-75776857D02*
X115480575Y-75586380D01*
X115480575Y-75586380D02*
X115385337Y-75491142D01*
X115385337Y-75491142D02*
X115194861Y-75395904D01*
X115194861Y-75395904D02*
X114813908Y-75395904D01*
X114813908Y-75395904D02*
X114623432Y-75491142D01*
X112147241Y-76729238D02*
X112147241Y-74729238D01*
X112147241Y-75491142D02*
X111956765Y-75395904D01*
X111956765Y-75395904D02*
X111575812Y-75395904D01*
X111575812Y-75395904D02*
X111385336Y-75491142D01*
X111385336Y-75491142D02*
X111290098Y-75586380D01*
X111290098Y-75586380D02*
X111194860Y-75776857D01*
X111194860Y-75776857D02*
X111194860Y-76348285D01*
X111194860Y-76348285D02*
X111290098Y-76538761D01*
X111290098Y-76538761D02*
X111385336Y-76634000D01*
X111385336Y-76634000D02*
X111575812Y-76729238D01*
X111575812Y-76729238D02*
X111956765Y-76729238D01*
X111956765Y-76729238D02*
X112147241Y-76634000D01*
X110528193Y-75395904D02*
X110052003Y-76729238D01*
X109575812Y-75395904D02*
X110052003Y-76729238D01*
X110052003Y-76729238D02*
X110242479Y-77205428D01*
X110242479Y-77205428D02*
X110337717Y-77300666D01*
X110337717Y-77300666D02*
X110528193Y-77395904D01*
D12*
D13*
X154652005Y-59338761D02*
X154747243Y-59434000D01*
X154747243Y-59434000D02*
X155032957Y-59529238D01*
X155032957Y-59529238D02*
X155223433Y-59529238D01*
X155223433Y-59529238D02*
X155509148Y-59434000D01*
X155509148Y-59434000D02*
X155699624Y-59243523D01*
X155699624Y-59243523D02*
X155794862Y-59053047D01*
X155794862Y-59053047D02*
X155890100Y-58672095D01*
X155890100Y-58672095D02*
X155890100Y-58386380D01*
X155890100Y-58386380D02*
X155794862Y-58005428D01*
X155794862Y-58005428D02*
X155699624Y-57814952D01*
X155699624Y-57814952D02*
X155509148Y-57624476D01*
X155509148Y-57624476D02*
X155223433Y-57529238D01*
X155223433Y-57529238D02*
X155032957Y-57529238D01*
X155032957Y-57529238D02*
X154747243Y-57624476D01*
X154747243Y-57624476D02*
X154652005Y-57719714D01*
X153509148Y-59529238D02*
X153699624Y-59434000D01*
X153699624Y-59434000D02*
X153794862Y-59338761D01*
X153794862Y-59338761D02*
X153890100Y-59148285D01*
X153890100Y-59148285D02*
X153890100Y-58576857D01*
X153890100Y-58576857D02*
X153794862Y-58386380D01*
X153794862Y-58386380D02*
X153699624Y-58291142D01*
X153699624Y-58291142D02*
X153509148Y-58195904D01*
X153509148Y-58195904D02*
X153223433Y-58195904D01*
X153223433Y-58195904D02*
X153032957Y-58291142D01*
X153032957Y-58291142D02*
X152937719Y-58386380D01*
X152937719Y-58386380D02*
X152842481Y-58576857D01*
X152842481Y-58576857D02*
X152842481Y-59148285D01*
X152842481Y-59148285D02*
X152937719Y-59338761D01*
X152937719Y-59338761D02*
X153032957Y-59434000D01*
X153032957Y-59434000D02*
X153223433Y-59529238D01*
X153223433Y-59529238D02*
X153509148Y-59529238D01*
X151985338Y-59529238D02*
X151985338Y-58195904D01*
X151985338Y-58386380D02*
X151890100Y-58291142D01*
X151890100Y-58291142D02*
X151699624Y-58195904D01*
X151699624Y-58195904D02*
X151413909Y-58195904D01*
X151413909Y-58195904D02*
X151223433Y-58291142D01*
X151223433Y-58291142D02*
X151128195Y-58481619D01*
X151128195Y-58481619D02*
X151128195Y-59529238D01*
X151128195Y-58481619D02*
X151032957Y-58291142D01*
X151032957Y-58291142D02*
X150842481Y-58195904D01*
X150842481Y-58195904D02*
X150556767Y-58195904D01*
X150556767Y-58195904D02*
X150366290Y-58291142D01*
X150366290Y-58291142D02*
X150271052Y-58481619D01*
X150271052Y-58481619D02*
X150271052Y-59529238D01*
X149318671Y-58195904D02*
X149318671Y-60195904D01*
X149318671Y-58291142D02*
X149128195Y-58195904D01*
X149128195Y-58195904D02*
X148747242Y-58195904D01*
X148747242Y-58195904D02*
X148556766Y-58291142D01*
X148556766Y-58291142D02*
X148461528Y-58386380D01*
X148461528Y-58386380D02*
X148366290Y-58576857D01*
X148366290Y-58576857D02*
X148366290Y-59148285D01*
X148366290Y-59148285D02*
X148461528Y-59338761D01*
X148461528Y-59338761D02*
X148556766Y-59434000D01*
X148556766Y-59434000D02*
X148747242Y-59529238D01*
X148747242Y-59529238D02*
X149128195Y-59529238D01*
X149128195Y-59529238D02*
X149318671Y-59434000D01*
X146652004Y-59529238D02*
X146652004Y-58481619D01*
X146652004Y-58481619D02*
X146747242Y-58291142D01*
X146747242Y-58291142D02*
X146937718Y-58195904D01*
X146937718Y-58195904D02*
X147318671Y-58195904D01*
X147318671Y-58195904D02*
X147509147Y-58291142D01*
X146652004Y-59434000D02*
X146842480Y-59529238D01*
X146842480Y-59529238D02*
X147318671Y-59529238D01*
X147318671Y-59529238D02*
X147509147Y-59434000D01*
X147509147Y-59434000D02*
X147604385Y-59243523D01*
X147604385Y-59243523D02*
X147604385Y-59053047D01*
X147604385Y-59053047D02*
X147509147Y-58862571D01*
X147509147Y-58862571D02*
X147318671Y-58767333D01*
X147318671Y-58767333D02*
X146842480Y-58767333D01*
X146842480Y-58767333D02*
X146652004Y-58672095D01*
X145699623Y-58195904D02*
X145699623Y-59529238D01*
X145699623Y-58386380D02*
X145604385Y-58291142D01*
X145604385Y-58291142D02*
X145413909Y-58195904D01*
X145413909Y-58195904D02*
X145128194Y-58195904D01*
X145128194Y-58195904D02*
X144937718Y-58291142D01*
X144937718Y-58291142D02*
X144842480Y-58481619D01*
X144842480Y-58481619D02*
X144842480Y-59529238D01*
X144080575Y-58195904D02*
X143604385Y-59529238D01*
X143128194Y-58195904D02*
X143604385Y-59529238D01*
X143604385Y-59529238D02*
X143794861Y-60005428D01*
X143794861Y-60005428D02*
X143890099Y-60100666D01*
X143890099Y-60100666D02*
X144080575Y-60195904D01*
X141128193Y-58195904D02*
X140366289Y-58195904D01*
X140842479Y-57529238D02*
X140842479Y-59243523D01*
X140842479Y-59243523D02*
X140747241Y-59434000D01*
X140747241Y-59434000D02*
X140556765Y-59529238D01*
X140556765Y-59529238D02*
X140366289Y-59529238D01*
X138842479Y-59529238D02*
X138842479Y-58481619D01*
X138842479Y-58481619D02*
X138937717Y-58291142D01*
X138937717Y-58291142D02*
X139128193Y-58195904D01*
X139128193Y-58195904D02*
X139509146Y-58195904D01*
X139509146Y-58195904D02*
X139699622Y-58291142D01*
X138842479Y-59434000D02*
X139032955Y-59529238D01*
X139032955Y-59529238D02*
X139509146Y-59529238D01*
X139509146Y-59529238D02*
X139699622Y-59434000D01*
X139699622Y-59434000D02*
X139794860Y-59243523D01*
X139794860Y-59243523D02*
X139794860Y-59053047D01*
X139794860Y-59053047D02*
X139699622Y-58862571D01*
X139699622Y-58862571D02*
X139509146Y-58767333D01*
X139509146Y-58767333D02*
X139032955Y-58767333D01*
X139032955Y-58767333D02*
X138842479Y-58672095D01*
X137604384Y-59529238D02*
X137794860Y-59434000D01*
X137794860Y-59434000D02*
X137890098Y-59243523D01*
X137890098Y-59243523D02*
X137890098Y-57529238D01*
X136842479Y-59529238D02*
X136842479Y-57529238D01*
X136652003Y-58767333D02*
X136080574Y-59529238D01*
X136080574Y-58195904D02*
X136842479Y-58957809D01*
X135318669Y-59434000D02*
X135128193Y-59529238D01*
X135128193Y-59529238D02*
X134747241Y-59529238D01*
X134747241Y-59529238D02*
X134556764Y-59434000D01*
X134556764Y-59434000D02*
X134461526Y-59243523D01*
X134461526Y-59243523D02*
X134461526Y-59148285D01*
X134461526Y-59148285D02*
X134556764Y-58957809D01*
X134556764Y-58957809D02*
X134747241Y-58862571D01*
X134747241Y-58862571D02*
X135032955Y-58862571D01*
X135032955Y-58862571D02*
X135223431Y-58767333D01*
X135223431Y-58767333D02*
X135318669Y-58576857D01*
X135318669Y-58576857D02*
X135318669Y-58481619D01*
X135318669Y-58481619D02*
X135223431Y-58291142D01*
X135223431Y-58291142D02*
X135032955Y-58195904D01*
X135032955Y-58195904D02*
X134747241Y-58195904D01*
X134747241Y-58195904D02*
X134556764Y-58291142D01*
D12*
D13*
X155880576Y-69529238D02*
X154737719Y-69529238D01*
X155309148Y-71529238D02*
X155309148Y-69529238D01*
X153309147Y-71434000D02*
X153499623Y-71529238D01*
X153499623Y-71529238D02*
X153880576Y-71529238D01*
X153880576Y-71529238D02*
X154071052Y-71434000D01*
X154071052Y-71434000D02*
X154166290Y-71243523D01*
X154166290Y-71243523D02*
X154166290Y-70481619D01*
X154166290Y-70481619D02*
X154071052Y-70291142D01*
X154071052Y-70291142D02*
X153880576Y-70195904D01*
X153880576Y-70195904D02*
X153499623Y-70195904D01*
X153499623Y-70195904D02*
X153309147Y-70291142D01*
X153309147Y-70291142D02*
X153213909Y-70481619D01*
X153213909Y-70481619D02*
X153213909Y-70672095D01*
X153213909Y-70672095D02*
X154166290Y-70862571D01*
X151499623Y-71434000D02*
X151690099Y-71529238D01*
X151690099Y-71529238D02*
X152071052Y-71529238D01*
X152071052Y-71529238D02*
X152261528Y-71434000D01*
X152261528Y-71434000D02*
X152356766Y-71338761D01*
X152356766Y-71338761D02*
X152452004Y-71148285D01*
X152452004Y-71148285D02*
X152452004Y-70576857D01*
X152452004Y-70576857D02*
X152356766Y-70386380D01*
X152356766Y-70386380D02*
X152261528Y-70291142D01*
X152261528Y-70291142D02*
X152071052Y-70195904D01*
X152071052Y-70195904D02*
X151690099Y-70195904D01*
X151690099Y-70195904D02*
X151499623Y-70291142D01*
X150642480Y-71529238D02*
X150642480Y-69529238D01*
X149785337Y-71529238D02*
X149785337Y-70481619D01*
X149785337Y-70481619D02*
X149880575Y-70291142D01*
X149880575Y-70291142D02*
X150071051Y-70195904D01*
X150071051Y-70195904D02*
X150356766Y-70195904D01*
X150356766Y-70195904D02*
X150547242Y-70291142D01*
X150547242Y-70291142D02*
X150642480Y-70386380D01*
X148928194Y-71434000D02*
X148642480Y-71529238D01*
X148642480Y-71529238D02*
X148166289Y-71529238D01*
X148166289Y-71529238D02*
X147975813Y-71434000D01*
X147975813Y-71434000D02*
X147880575Y-71338761D01*
X147880575Y-71338761D02*
X147785337Y-71148285D01*
X147785337Y-71148285D02*
X147785337Y-70957809D01*
X147785337Y-70957809D02*
X147880575Y-70767333D01*
X147880575Y-70767333D02*
X147975813Y-70672095D01*
X147975813Y-70672095D02*
X148166289Y-70576857D01*
X148166289Y-70576857D02*
X148547242Y-70481619D01*
X148547242Y-70481619D02*
X148737718Y-70386380D01*
X148737718Y-70386380D02*
X148832956Y-70291142D01*
X148832956Y-70291142D02*
X148928194Y-70100666D01*
X148928194Y-70100666D02*
X148928194Y-69910190D01*
X148928194Y-69910190D02*
X148832956Y-69719714D01*
X148832956Y-69719714D02*
X148737718Y-69624476D01*
X148737718Y-69624476D02*
X148547242Y-69529238D01*
X148547242Y-69529238D02*
X148071051Y-69529238D01*
X148071051Y-69529238D02*
X147785337Y-69624476D01*
X146166289Y-71434000D02*
X146356765Y-71529238D01*
X146356765Y-71529238D02*
X146737718Y-71529238D01*
X146737718Y-71529238D02*
X146928194Y-71434000D01*
X146928194Y-71434000D02*
X147023432Y-71243523D01*
X147023432Y-71243523D02*
X147023432Y-70481619D01*
X147023432Y-70481619D02*
X146928194Y-70291142D01*
X146928194Y-70291142D02*
X146737718Y-70195904D01*
X146737718Y-70195904D02*
X146356765Y-70195904D01*
X146356765Y-70195904D02*
X146166289Y-70291142D01*
X146166289Y-70291142D02*
X146071051Y-70481619D01*
X146071051Y-70481619D02*
X146071051Y-70672095D01*
X146071051Y-70672095D02*
X147023432Y-70862571D01*
X145309146Y-71434000D02*
X145118670Y-71529238D01*
X145118670Y-71529238D02*
X144737718Y-71529238D01*
X144737718Y-71529238D02*
X144547241Y-71434000D01*
X144547241Y-71434000D02*
X144452003Y-71243523D01*
X144452003Y-71243523D02*
X144452003Y-71148285D01*
X144452003Y-71148285D02*
X144547241Y-70957809D01*
X144547241Y-70957809D02*
X144737718Y-70862571D01*
X144737718Y-70862571D02*
X145023432Y-70862571D01*
X145023432Y-70862571D02*
X145213908Y-70767333D01*
X145213908Y-70767333D02*
X145309146Y-70576857D01*
X145309146Y-70576857D02*
X145309146Y-70481619D01*
X145309146Y-70481619D02*
X145213908Y-70291142D01*
X145213908Y-70291142D02*
X145023432Y-70195904D01*
X145023432Y-70195904D02*
X144737718Y-70195904D01*
X144737718Y-70195904D02*
X144547241Y-70291142D01*
X143594860Y-71529238D02*
X143594860Y-69529238D01*
X142737717Y-71529238D02*
X142737717Y-70481619D01*
X142737717Y-70481619D02*
X142832955Y-70291142D01*
X142832955Y-70291142D02*
X143023431Y-70195904D01*
X143023431Y-70195904D02*
X143309146Y-70195904D01*
X143309146Y-70195904D02*
X143499622Y-70291142D01*
X143499622Y-70291142D02*
X143594860Y-70386380D01*
D12*
D13*
X155690100Y-65234000D02*
X155404386Y-65329238D01*
X155404386Y-65329238D02*
X154928195Y-65329238D01*
X154928195Y-65329238D02*
X154737719Y-65234000D01*
X154737719Y-65234000D02*
X154642481Y-65138761D01*
X154642481Y-65138761D02*
X154547243Y-64948285D01*
X154547243Y-64948285D02*
X154547243Y-64757809D01*
X154547243Y-64757809D02*
X154642481Y-64567333D01*
X154642481Y-64567333D02*
X154737719Y-64472095D01*
X154737719Y-64472095D02*
X154928195Y-64376857D01*
X154928195Y-64376857D02*
X155309148Y-64281619D01*
X155309148Y-64281619D02*
X155499624Y-64186380D01*
X155499624Y-64186380D02*
X155594862Y-64091142D01*
X155594862Y-64091142D02*
X155690100Y-63900666D01*
X155690100Y-63900666D02*
X155690100Y-63710190D01*
X155690100Y-63710190D02*
X155594862Y-63519714D01*
X155594862Y-63519714D02*
X155499624Y-63424476D01*
X155499624Y-63424476D02*
X155309148Y-63329238D01*
X155309148Y-63329238D02*
X154832957Y-63329238D01*
X154832957Y-63329238D02*
X154547243Y-63424476D01*
X153690100Y-65329238D02*
X153690100Y-63995904D01*
X153690100Y-63329238D02*
X153785338Y-63424476D01*
X153785338Y-63424476D02*
X153690100Y-63519714D01*
X153690100Y-63519714D02*
X153594862Y-63424476D01*
X153594862Y-63424476D02*
X153690100Y-63329238D01*
X153690100Y-63329238D02*
X153690100Y-63519714D01*
X153023433Y-63995904D02*
X152261529Y-63995904D01*
X152737719Y-63329238D02*
X152737719Y-65043523D01*
X152737719Y-65043523D02*
X152642481Y-65234000D01*
X152642481Y-65234000D02*
X152452005Y-65329238D01*
X152452005Y-65329238D02*
X152261529Y-65329238D01*
X150832957Y-65234000D02*
X151023433Y-65329238D01*
X151023433Y-65329238D02*
X151404386Y-65329238D01*
X151404386Y-65329238D02*
X151594862Y-65234000D01*
X151594862Y-65234000D02*
X151690100Y-65043523D01*
X151690100Y-65043523D02*
X151690100Y-64281619D01*
X151690100Y-64281619D02*
X151594862Y-64091142D01*
X151594862Y-64091142D02*
X151404386Y-63995904D01*
X151404386Y-63995904D02*
X151023433Y-63995904D01*
X151023433Y-63995904D02*
X150832957Y-64091142D01*
X150832957Y-64091142D02*
X150737719Y-64281619D01*
X150737719Y-64281619D02*
X150737719Y-64472095D01*
X150737719Y-64472095D02*
X151690100Y-64662571D01*
X148642480Y-63995904D02*
X147880576Y-63995904D01*
X148356766Y-63329238D02*
X148356766Y-65043523D01*
X148356766Y-65043523D02*
X148261528Y-65234000D01*
X148261528Y-65234000D02*
X148071052Y-65329238D01*
X148071052Y-65329238D02*
X147880576Y-65329238D01*
X147213909Y-65329238D02*
X147213909Y-63995904D01*
X147213909Y-64376857D02*
X147118671Y-64186380D01*
X147118671Y-64186380D02*
X147023433Y-64091142D01*
X147023433Y-64091142D02*
X146832957Y-63995904D01*
X146832957Y-63995904D02*
X146642480Y-63995904D01*
X145975814Y-65329238D02*
X145975814Y-63995904D01*
X145975814Y-63329238D02*
X146071052Y-63424476D01*
X146071052Y-63424476D02*
X145975814Y-63519714D01*
X145975814Y-63519714D02*
X145880576Y-63424476D01*
X145880576Y-63424476D02*
X145975814Y-63329238D01*
X145975814Y-63329238D02*
X145975814Y-63519714D01*
X145023433Y-63995904D02*
X145023433Y-65995904D01*
X145023433Y-64091142D02*
X144832957Y-63995904D01*
X144832957Y-63995904D02*
X144452004Y-63995904D01*
X144452004Y-63995904D02*
X144261528Y-64091142D01*
X144261528Y-64091142D02*
X144166290Y-64186380D01*
X144166290Y-64186380D02*
X144071052Y-64376857D01*
X144071052Y-64376857D02*
X144071052Y-64948285D01*
X144071052Y-64948285D02*
X144166290Y-65138761D01*
X144166290Y-65138761D02*
X144261528Y-65234000D01*
X144261528Y-65234000D02*
X144452004Y-65329238D01*
X144452004Y-65329238D02*
X144832957Y-65329238D01*
X144832957Y-65329238D02*
X145023433Y-65234000D01*
X143309147Y-65234000D02*
X143118671Y-65329238D01*
X143118671Y-65329238D02*
X142737719Y-65329238D01*
X142737719Y-65329238D02*
X142547242Y-65234000D01*
X142547242Y-65234000D02*
X142452004Y-65043523D01*
X142452004Y-65043523D02*
X142452004Y-64948285D01*
X142452004Y-64948285D02*
X142547242Y-64757809D01*
X142547242Y-64757809D02*
X142737719Y-64662571D01*
X142737719Y-64662571D02*
X143023433Y-64662571D01*
X143023433Y-64662571D02*
X143213909Y-64567333D01*
X143213909Y-64567333D02*
X143309147Y-64376857D01*
X143309147Y-64376857D02*
X143309147Y-64281619D01*
X143309147Y-64281619D02*
X143213909Y-64091142D01*
X143213909Y-64091142D02*
X143023433Y-63995904D01*
X143023433Y-63995904D02*
X142737719Y-63995904D01*
X142737719Y-63995904D02*
X142547242Y-64091142D01*
D12*
D13*
X183459427Y-78412664D02*
X183459427Y-76412664D01*
X182507046Y-77079330D02*
X182507046Y-78412664D01*
X182507046Y-77269806D02*
X182411808Y-77174568D01*
X182411808Y-77174568D02*
X182221332Y-77079330D01*
X182221332Y-77079330D02*
X181935617Y-77079330D01*
X181935617Y-77079330D02*
X181745141Y-77174568D01*
X181745141Y-77174568D02*
X181649903Y-77365045D01*
X181649903Y-77365045D02*
X181649903Y-78412664D01*
X180792760Y-78317426D02*
X180602284Y-78412664D01*
X180602284Y-78412664D02*
X180221332Y-78412664D01*
X180221332Y-78412664D02*
X180030855Y-78317426D01*
X180030855Y-78317426D02*
X179935617Y-78126949D01*
X179935617Y-78126949D02*
X179935617Y-78031711D01*
X179935617Y-78031711D02*
X180030855Y-77841235D01*
X180030855Y-77841235D02*
X180221332Y-77745997D01*
X180221332Y-77745997D02*
X180507046Y-77745997D01*
X180507046Y-77745997D02*
X180697522Y-77650759D01*
X180697522Y-77650759D02*
X180792760Y-77460283D01*
X180792760Y-77460283D02*
X180792760Y-77365045D01*
X180792760Y-77365045D02*
X180697522Y-77174568D01*
X180697522Y-77174568D02*
X180507046Y-77079330D01*
X180507046Y-77079330D02*
X180221332Y-77079330D01*
X180221332Y-77079330D02*
X180030855Y-77174568D01*
X179364188Y-77079330D02*
X178602284Y-77079330D01*
X179078474Y-76412664D02*
X179078474Y-78126949D01*
X179078474Y-78126949D02*
X178983236Y-78317426D01*
X178983236Y-78317426D02*
X178792760Y-78412664D01*
X178792760Y-78412664D02*
X178602284Y-78412664D01*
X177078474Y-78412664D02*
X177078474Y-77365045D01*
X177078474Y-77365045D02*
X177173712Y-77174568D01*
X177173712Y-77174568D02*
X177364188Y-77079330D01*
X177364188Y-77079330D02*
X177745141Y-77079330D01*
X177745141Y-77079330D02*
X177935617Y-77174568D01*
X177078474Y-78317426D02*
X177268950Y-78412664D01*
X177268950Y-78412664D02*
X177745141Y-78412664D01*
X177745141Y-78412664D02*
X177935617Y-78317426D01*
X177935617Y-78317426D02*
X178030855Y-78126949D01*
X178030855Y-78126949D02*
X178030855Y-77936473D01*
X178030855Y-77936473D02*
X177935617Y-77745997D01*
X177935617Y-77745997D02*
X177745141Y-77650759D01*
X177745141Y-77650759D02*
X177268950Y-77650759D01*
X177268950Y-77650759D02*
X177078474Y-77555521D01*
X175268950Y-77079330D02*
X175268950Y-78698378D01*
X175268950Y-78698378D02*
X175364188Y-78888854D01*
X175364188Y-78888854D02*
X175459426Y-78984092D01*
X175459426Y-78984092D02*
X175649903Y-79079330D01*
X175649903Y-79079330D02*
X175935617Y-79079330D01*
X175935617Y-79079330D02*
X176126093Y-78984092D01*
X175268950Y-78317426D02*
X175459426Y-78412664D01*
X175459426Y-78412664D02*
X175840379Y-78412664D01*
X175840379Y-78412664D02*
X176030855Y-78317426D01*
X176030855Y-78317426D02*
X176126093Y-78222187D01*
X176126093Y-78222187D02*
X176221331Y-78031711D01*
X176221331Y-78031711D02*
X176221331Y-77460283D01*
X176221331Y-77460283D02*
X176126093Y-77269806D01*
X176126093Y-77269806D02*
X176030855Y-77174568D01*
X176030855Y-77174568D02*
X175840379Y-77079330D01*
X175840379Y-77079330D02*
X175459426Y-77079330D01*
X175459426Y-77079330D02*
X175268950Y-77174568D01*
X174316569Y-78412664D02*
X174316569Y-77079330D01*
X174316569Y-77460283D02*
X174221331Y-77269806D01*
X174221331Y-77269806D02*
X174126093Y-77174568D01*
X174126093Y-77174568D02*
X173935617Y-77079330D01*
X173935617Y-77079330D02*
X173745140Y-77079330D01*
X172221331Y-78412664D02*
X172221331Y-77365045D01*
X172221331Y-77365045D02*
X172316569Y-77174568D01*
X172316569Y-77174568D02*
X172507045Y-77079330D01*
X172507045Y-77079330D02*
X172887998Y-77079330D01*
X172887998Y-77079330D02*
X173078474Y-77174568D01*
X172221331Y-78317426D02*
X172411807Y-78412664D01*
X172411807Y-78412664D02*
X172887998Y-78412664D01*
X172887998Y-78412664D02*
X173078474Y-78317426D01*
X173078474Y-78317426D02*
X173173712Y-78126949D01*
X173173712Y-78126949D02*
X173173712Y-77936473D01*
X173173712Y-77936473D02*
X173078474Y-77745997D01*
X173078474Y-77745997D02*
X172887998Y-77650759D01*
X172887998Y-77650759D02*
X172411807Y-77650759D01*
X172411807Y-77650759D02*
X172221331Y-77555521D01*
X171268950Y-78412664D02*
X171268950Y-77079330D01*
X171268950Y-77269806D02*
X171173712Y-77174568D01*
X171173712Y-77174568D02*
X170983236Y-77079330D01*
X170983236Y-77079330D02*
X170697521Y-77079330D01*
X170697521Y-77079330D02*
X170507045Y-77174568D01*
X170507045Y-77174568D02*
X170411807Y-77365045D01*
X170411807Y-77365045D02*
X170411807Y-78412664D01*
X170411807Y-77365045D02*
X170316569Y-77174568D01*
X170316569Y-77174568D02*
X170126093Y-77079330D01*
X170126093Y-77079330D02*
X169840379Y-77079330D01*
X169840379Y-77079330D02*
X169649902Y-77174568D01*
X169649902Y-77174568D02*
X169554664Y-77365045D01*
X169554664Y-77365045D02*
X169554664Y-78412664D01*
D14*
%TO.P,J2,1,Pin_1*%
%TO.N,+5V*%
X103500000Y-72625000D03*
D15*
%TO.P,J2,2,Pin_2*%
%TO.N,GND*%
X103500000Y-75165000D03*
%TD*%
D16*
%TO.N,GND*%
X157000000Y-66600000D03*
X101700000Y-97600000D03*
%TO.N,Net-(U1-THR)*%
X154800000Y-56671355D03*
X157000000Y-64500000D03*
%TO.N,GND*%
X161200000Y-64400000D03*
X165800000Y-71800000D03*
%TO.N,/555 Output*%
X158800000Y-68775500D03*
X155400000Y-83200000D03*
X142000000Y-89800000D03*
X146600000Y-90000000D03*
X151400000Y-90000000D03*
X144400000Y-83400000D03*
%TO.N,+5V*%
X163400000Y-69000000D03*
X164200000Y-66600000D03*
%TO.N,Net-(U1-DIS)*%
X168300000Y-67370000D03*
X167000000Y-60100000D03*
%TD*%
D17*
%TO.N,GND*%
X159200000Y-64400000D02*
X157000000Y-66600000D01*
X161200000Y-64400000D02*
X159200000Y-64400000D01*
X101700000Y-97600000D02*
X101200000Y-97100000D01*
X101200000Y-97100000D02*
X101200000Y-78900000D01*
X101200000Y-78900000D02*
X103500000Y-76600000D01*
X103500000Y-76600000D02*
X103500000Y-75165000D01*
%TO.N,Net-(U1-THR)*%
X157000000Y-64500000D02*
X157000000Y-57200000D01*
X157000000Y-57200000D02*
X156471355Y-56671355D01*
X156471355Y-56671355D02*
X154800000Y-56671355D01*
%TO.N,GND*%
X165800000Y-71800000D02*
X165174695Y-71800000D01*
X161200000Y-67825305D02*
X161200000Y-64400000D01*
X165174695Y-71800000D02*
X161200000Y-67825305D01*
%TO.N,/555 Output*%
X146600000Y-90000000D02*
X151400000Y-90000000D01*
X155400000Y-86000000D02*
X151400000Y-90000000D01*
X144400000Y-83400000D02*
X142000000Y-85800000D01*
X158800000Y-68775500D02*
X158800000Y-79800000D01*
X142000000Y-85800000D02*
X142000000Y-89800000D01*
X158800000Y-79800000D02*
X155400000Y-83200000D01*
X155400000Y-83200000D02*
X155400000Y-86000000D01*
%TO.N,+5V*%
X163400000Y-69000000D02*
X164200000Y-68200000D01*
X164200000Y-68200000D02*
X164200000Y-66600000D01*
%TO.N,Net-(U1-DIS)*%
X168200000Y-67270000D02*
X168200000Y-63500000D01*
X168300000Y-67370000D02*
X168200000Y-67270000D01*
X167000000Y-62300000D02*
X167000000Y-60100000D01*
X168200000Y-63500000D02*
X167000000Y-62300000D01*
%TD*%
M02*
