%TF.GenerationSoftware,KiCad,Pcbnew,8.0.4*%
%TF.CreationDate,2024-08-13T13:12:50+01:00*%
%TF.ProjectId,elecsoc_card,656c6563-736f-4635-9f63-6172642e6b69,rev?*%
%TF.SameCoordinates,Original*%
%TF.FileFunction,Soldermask,Bot*%
%TF.FilePolarity,Negative*%
%FSLAX46Y46*%
G04 Gerber Fmt 4.6, Leading zero omitted, Abs format (unit mm)*
G04 Created by KiCad (PCBNEW 8.0.4) date 2024-08-13 13:12:50*
%MOMM*%
%LPD*%
G01*
G04 APERTURE LIST*
%ADD10C,0.000000*%
%ADD11C,0.026458*%
%ADD12C,0.500000*%
%ADD13R,1.700000X1.700000*%
%ADD14O,1.700000X1.700000*%
G04 APERTURE END LIST*
D10*
G36*
X169439009Y-95697870D02*
G01*
X170003453Y-95697870D01*
X170003453Y-96262315D01*
X170567899Y-96262315D01*
X170567899Y-96826759D01*
X168874565Y-96826759D01*
X168874565Y-95697870D01*
X168310120Y-95697870D01*
X168310120Y-95133426D01*
X169439009Y-95133426D01*
X169439009Y-95697870D01*
G37*
G36*
X171132343Y-86666759D02*
G01*
X171696787Y-86666759D01*
X171696787Y-86102314D01*
X172825676Y-86102314D01*
X172825676Y-86666759D01*
X173954565Y-86666759D01*
X173954565Y-86102314D01*
X174519010Y-86102314D01*
X174519010Y-86666759D01*
X175083454Y-86666759D01*
X175083454Y-87231203D01*
X174519010Y-87231203D01*
X174519010Y-87795648D01*
X173954565Y-87795648D01*
X173954565Y-87231203D01*
X172825676Y-87231203D01*
X172825676Y-87795648D01*
X173390120Y-87795648D01*
X173390120Y-88360092D01*
X171132343Y-88360092D01*
X171132343Y-88924537D01*
X173954565Y-88924537D01*
X173954565Y-88360092D01*
X174519010Y-88360092D01*
X174519010Y-88924537D01*
X175083454Y-88924537D01*
X175083454Y-89488981D01*
X175647898Y-89488981D01*
X175647898Y-90617870D01*
X176212343Y-90617870D01*
X176212343Y-90053425D01*
X177341232Y-90053425D01*
X177341232Y-90617870D01*
X176776787Y-90617870D01*
X176776787Y-91182315D01*
X177341232Y-91182315D01*
X177341232Y-92311203D01*
X176776787Y-92311203D01*
X176776787Y-91746759D01*
X176212343Y-91746759D01*
X176212343Y-92311203D01*
X175083454Y-92311203D01*
X175083454Y-92875648D01*
X174519010Y-92875648D01*
X174519010Y-92311203D01*
X173954565Y-92311203D01*
X173954565Y-91746759D01*
X172825676Y-91746759D01*
X172825676Y-92311203D01*
X172825676Y-93440092D01*
X173390120Y-93440092D01*
X173390120Y-94004536D01*
X172825676Y-94004536D01*
X172825676Y-94568982D01*
X173390120Y-94568982D01*
X173390120Y-95133426D01*
X173390120Y-95697870D01*
X173954565Y-95697870D01*
X173954565Y-95133426D01*
X174519010Y-95133426D01*
X174519010Y-95697870D01*
X173954565Y-95697870D01*
X173954565Y-96262315D01*
X174519010Y-96262315D01*
X174519010Y-95697870D01*
X175083454Y-95697870D01*
X175083454Y-96262315D01*
X176212343Y-96262315D01*
X176212343Y-95697870D01*
X175083454Y-95697870D01*
X175083454Y-95133426D01*
X174519010Y-95133426D01*
X174519010Y-94568982D01*
X175083454Y-94568982D01*
X175083454Y-94004536D01*
X175647898Y-94004536D01*
X175647898Y-94568982D01*
X177341232Y-94568982D01*
X177341232Y-95133426D01*
X176776787Y-95133426D01*
X176776787Y-95697870D01*
X177341232Y-95697870D01*
X177341232Y-96826759D01*
X176776787Y-96826759D01*
X176776787Y-96262315D01*
X176212343Y-96262315D01*
X176212343Y-96826759D01*
X173390120Y-96826759D01*
X173390120Y-96262315D01*
X172261232Y-96262315D01*
X172261232Y-95697870D01*
X170567899Y-95697870D01*
X170567899Y-94568982D01*
X171696787Y-94568982D01*
X171696787Y-95133426D01*
X172261232Y-95133426D01*
X172261232Y-95697870D01*
X172825676Y-95697870D01*
X172825676Y-95133426D01*
X172261232Y-95133426D01*
X172261232Y-94568982D01*
X171696787Y-94568982D01*
X170567899Y-94568982D01*
X170003453Y-94568982D01*
X170003453Y-94004536D01*
X170567899Y-94004536D01*
X172261232Y-94004536D01*
X172261232Y-92311203D01*
X170567899Y-92311203D01*
X170567899Y-94004536D01*
X170003453Y-94004536D01*
X170003453Y-93440092D01*
X169439009Y-93440092D01*
X169439009Y-94568982D01*
X167745676Y-94568982D01*
X167745676Y-93440092D01*
X168874565Y-93440092D01*
X168874565Y-92875648D01*
X168310120Y-92875648D01*
X168310120Y-92311203D01*
X168874565Y-92311203D01*
X168874565Y-92875648D01*
X170003453Y-92875648D01*
X170003453Y-92311203D01*
X168874565Y-92311203D01*
X168310120Y-92311203D01*
X168310120Y-91746759D01*
X167745676Y-91746759D01*
X167745676Y-91182315D01*
X168874565Y-91182315D01*
X168874565Y-91746759D01*
X170003453Y-91746759D01*
X170003453Y-91182315D01*
X168874565Y-91182315D01*
X168874565Y-90617870D01*
X169439009Y-90617870D01*
X170003453Y-90617870D01*
X170003453Y-91182315D01*
X170567899Y-91182315D01*
X171132343Y-91182315D01*
X173390120Y-91182315D01*
X173390120Y-90617870D01*
X174519010Y-90617870D01*
X174519010Y-91182315D01*
X175083454Y-91182315D01*
X175083454Y-91746759D01*
X174519010Y-91746759D01*
X174519010Y-92311203D01*
X175083454Y-92311203D01*
X175083454Y-91746759D01*
X176212343Y-91746759D01*
X176212343Y-91182315D01*
X175083454Y-91182315D01*
X175083454Y-90617870D01*
X174519010Y-90617870D01*
X174519010Y-89488981D01*
X172825676Y-89488981D01*
X172825676Y-90053425D01*
X171132343Y-90053425D01*
X171132343Y-90617870D01*
X171132343Y-91182315D01*
X170567899Y-91182315D01*
X170567899Y-90617870D01*
X170003453Y-90617870D01*
X169439009Y-90617870D01*
X169439009Y-90053425D01*
X170567899Y-90053425D01*
X170567899Y-89488981D01*
X170003453Y-89488981D01*
X170003453Y-88924537D01*
X168874565Y-88924537D01*
X168874565Y-89488981D01*
X167745676Y-89488981D01*
X167745676Y-88360092D01*
X168310120Y-88360092D01*
X168310120Y-87795648D01*
X168874565Y-87795648D01*
X168874565Y-88360092D01*
X169439009Y-88360092D01*
X170003453Y-88360092D01*
X170003453Y-88924537D01*
X170567899Y-88924537D01*
X170567899Y-88360092D01*
X170003453Y-88360092D01*
X169439009Y-88360092D01*
X169439009Y-87795648D01*
X170567899Y-87795648D01*
X171696787Y-87795648D01*
X172261232Y-87795648D01*
X172261232Y-87231203D01*
X171696787Y-87231203D01*
X171696787Y-87795648D01*
X170567899Y-87795648D01*
X170567899Y-87231203D01*
X169439009Y-87231203D01*
X169439009Y-86666759D01*
X168874565Y-86666759D01*
X168874565Y-86102314D01*
X169439009Y-86102314D01*
X170003453Y-86102314D01*
X170003453Y-86666759D01*
X170567899Y-86666759D01*
X170567899Y-86102314D01*
X170003453Y-86102314D01*
X169439009Y-86102314D01*
X169439009Y-84973426D01*
X170003453Y-84973426D01*
X170003453Y-85537870D01*
X170567899Y-85537870D01*
X170567899Y-84973426D01*
X171132343Y-84973426D01*
X171132343Y-85537870D01*
X171696787Y-85537870D01*
X171696787Y-86102314D01*
X171132343Y-86102314D01*
X171132343Y-86666759D01*
G37*
G36*
X179599009Y-93440092D02*
G01*
X179034565Y-93440092D01*
X179034565Y-92311203D01*
X179599009Y-92311203D01*
X179599009Y-93440092D01*
G37*
D11*
X118624211Y-94677094D02*
X118333169Y-94677094D01*
X118333169Y-92216469D01*
X118624211Y-92216469D01*
X118624211Y-94677094D01*
G36*
X118624211Y-94677094D02*
G01*
X118333169Y-94677094D01*
X118333169Y-92216469D01*
X118624211Y-92216469D01*
X118624211Y-94677094D01*
G37*
X124284313Y-93338507D02*
X124285513Y-93420324D01*
X124281813Y-93557706D01*
X124277183Y-93623465D01*
X124270696Y-93687276D01*
X124262347Y-93749143D01*
X124252133Y-93809070D01*
X124240050Y-93867062D01*
X124226096Y-93923125D01*
X124210266Y-93977261D01*
X124192558Y-94029477D01*
X124172967Y-94079777D01*
X124151490Y-94128165D01*
X124128125Y-94174647D01*
X124102866Y-94219225D01*
X124075711Y-94261907D01*
X124046656Y-94302695D01*
X124015698Y-94341594D01*
X123982833Y-94378610D01*
X123948058Y-94413747D01*
X123911369Y-94447009D01*
X123872763Y-94478401D01*
X123832237Y-94507928D01*
X123789786Y-94535594D01*
X123745408Y-94561404D01*
X123699098Y-94585363D01*
X123650854Y-94607475D01*
X123600671Y-94627745D01*
X123548547Y-94646177D01*
X123494478Y-94662777D01*
X123438461Y-94677548D01*
X123380491Y-94690495D01*
X123320566Y-94701624D01*
X123320566Y-94701627D01*
X123250634Y-94711652D01*
X123176436Y-94718879D01*
X123097103Y-94723312D01*
X123011765Y-94724951D01*
X122919551Y-94723800D01*
X122819593Y-94719861D01*
X122711019Y-94713136D01*
X122592962Y-94703627D01*
X122433539Y-94689288D01*
X122302489Y-94676956D01*
X122197141Y-94666307D01*
X122114822Y-94657016D01*
X122081465Y-94652778D01*
X122052863Y-94648758D01*
X122028683Y-94644915D01*
X122008591Y-94641209D01*
X121992252Y-94637598D01*
X121979334Y-94634042D01*
X121969502Y-94630501D01*
X121962423Y-94626934D01*
X121958951Y-94624185D01*
X121955829Y-94620451D01*
X121953056Y-94615741D01*
X121950635Y-94610063D01*
X121948564Y-94603426D01*
X121946846Y-94595837D01*
X121945480Y-94587306D01*
X121944468Y-94577840D01*
X121943810Y-94567449D01*
X121943507Y-94556140D01*
X121943560Y-94543922D01*
X121943969Y-94530805D01*
X121944735Y-94516795D01*
X121945858Y-94501901D01*
X121949182Y-94469498D01*
X121951661Y-94449429D01*
X121954127Y-94431371D01*
X121956614Y-94415246D01*
X121957878Y-94407884D01*
X121959161Y-94400978D01*
X121960468Y-94394515D01*
X121961803Y-94388489D01*
X121963172Y-94382887D01*
X121964577Y-94377702D01*
X121966026Y-94372923D01*
X121967520Y-94368541D01*
X121969067Y-94364547D01*
X121970669Y-94360929D01*
X121972332Y-94357680D01*
X121974059Y-94354788D01*
X121975857Y-94352246D01*
X121977728Y-94350042D01*
X121979679Y-94348168D01*
X121981712Y-94346613D01*
X121983834Y-94345369D01*
X121986048Y-94344425D01*
X121988360Y-94343772D01*
X121990773Y-94343401D01*
X121993292Y-94343300D01*
X121995922Y-94343462D01*
X121998667Y-94343877D01*
X122001533Y-94344534D01*
X122004523Y-94345424D01*
X122007642Y-94346538D01*
X122023916Y-94350608D01*
X122054254Y-94356014D01*
X122150130Y-94369903D01*
X122281287Y-94386338D01*
X122433744Y-94403452D01*
X122590386Y-94418222D01*
X122736466Y-94428031D01*
X122805664Y-94431041D01*
X122872364Y-94432770D01*
X122936614Y-94433203D01*
X122998462Y-94432327D01*
X123057955Y-94430128D01*
X123115141Y-94426592D01*
X123170068Y-94421706D01*
X123222783Y-94415455D01*
X123273334Y-94407826D01*
X123321769Y-94398805D01*
X123368134Y-94388378D01*
X123412479Y-94376532D01*
X123454850Y-94363252D01*
X123495295Y-94348524D01*
X123533862Y-94332336D01*
X123570599Y-94314673D01*
X123605552Y-94295521D01*
X123638771Y-94274867D01*
X123670302Y-94252697D01*
X123700193Y-94228996D01*
X123728492Y-94203751D01*
X123755246Y-94176949D01*
X123780504Y-94148575D01*
X123804312Y-94118616D01*
X123826719Y-94087058D01*
X123847771Y-94053886D01*
X123867517Y-94019088D01*
X123886005Y-93982650D01*
X123902300Y-93947119D01*
X123918182Y-93909535D01*
X123933257Y-93871038D01*
X123947127Y-93832767D01*
X123959396Y-93795864D01*
X123969668Y-93761466D01*
X123977546Y-93730715D01*
X123980464Y-93717063D01*
X123982635Y-93704750D01*
X123999904Y-93592302D01*
X121845303Y-93592302D01*
X121862973Y-93347562D01*
X121866638Y-93301262D01*
X122138964Y-93301262D01*
X124002015Y-93301262D01*
X123984658Y-93188814D01*
X123973048Y-93123751D01*
X123958785Y-93061807D01*
X123941867Y-93002981D01*
X123922291Y-92947267D01*
X123911506Y-92920578D01*
X123900056Y-92894665D01*
X123887940Y-92869530D01*
X123875158Y-92845171D01*
X123861711Y-92821589D01*
X123847597Y-92798783D01*
X123832817Y-92776752D01*
X123817370Y-92755496D01*
X123801256Y-92735016D01*
X123784474Y-92715310D01*
X123767025Y-92696378D01*
X123748909Y-92678220D01*
X123730124Y-92660835D01*
X123710670Y-92644224D01*
X123690548Y-92628385D01*
X123669757Y-92613319D01*
X123648297Y-92599025D01*
X123626167Y-92585503D01*
X123603367Y-92572751D01*
X123579898Y-92560771D01*
X123555758Y-92549562D01*
X123530948Y-92539123D01*
X123505466Y-92529454D01*
X123479314Y-92520554D01*
X123441598Y-92510003D01*
X123398244Y-92500626D01*
X123350070Y-92492439D01*
X123297892Y-92485461D01*
X123242526Y-92479710D01*
X123184789Y-92475203D01*
X123125496Y-92471959D01*
X123065465Y-92469995D01*
X123005510Y-92469329D01*
X122946450Y-92469980D01*
X122889100Y-92471964D01*
X122834275Y-92475301D01*
X122782794Y-92480007D01*
X122735472Y-92486100D01*
X122693125Y-92493600D01*
X122656569Y-92502523D01*
X122611968Y-92517283D01*
X122568802Y-92535318D01*
X122527196Y-92556483D01*
X122487276Y-92580632D01*
X122449169Y-92607617D01*
X122413000Y-92637294D01*
X122378894Y-92669515D01*
X122346977Y-92704135D01*
X122317376Y-92741008D01*
X122290216Y-92779987D01*
X122265623Y-92820926D01*
X122243722Y-92863679D01*
X122224639Y-92908100D01*
X122208501Y-92954042D01*
X122195432Y-93001360D01*
X122185559Y-93049907D01*
X122177532Y-93096741D01*
X122168791Y-93146025D01*
X122160393Y-93191898D01*
X122153391Y-93228501D01*
X122138964Y-93301262D01*
X121866638Y-93301262D01*
X121867100Y-93295429D01*
X121872066Y-93241052D01*
X121877684Y-93186031D01*
X121883765Y-93131968D01*
X121890120Y-93080462D01*
X121896561Y-93033116D01*
X121902898Y-92991529D01*
X121908944Y-92957302D01*
X121922832Y-92895375D01*
X121940023Y-92835184D01*
X121960423Y-92776846D01*
X121983939Y-92720480D01*
X122010478Y-92666204D01*
X122039947Y-92614135D01*
X122072252Y-92564393D01*
X122107300Y-92517093D01*
X122144998Y-92472356D01*
X122185252Y-92430299D01*
X122227969Y-92391040D01*
X122273057Y-92354696D01*
X122320420Y-92321387D01*
X122369967Y-92291230D01*
X122421604Y-92264343D01*
X122475237Y-92240844D01*
X122524905Y-92222038D01*
X122548242Y-92214213D01*
X122571319Y-92207355D01*
X122594689Y-92201401D01*
X122618907Y-92196288D01*
X122644526Y-92191952D01*
X122672100Y-92188329D01*
X122702183Y-92185357D01*
X122735328Y-92182972D01*
X122813022Y-92179709D01*
X122909610Y-92178033D01*
X123029524Y-92177437D01*
X123122899Y-92177897D01*
X123208493Y-92179736D01*
X123286975Y-92183161D01*
X123359015Y-92188378D01*
X123425280Y-92195593D01*
X123486441Y-92205013D01*
X123543165Y-92216845D01*
X123570072Y-92223730D01*
X123596121Y-92231295D01*
X123621396Y-92239565D01*
X123645979Y-92248568D01*
X123669955Y-92258328D01*
X123693407Y-92268872D01*
X123716419Y-92280225D01*
X123739075Y-92292413D01*
X123761457Y-92305461D01*
X123783650Y-92319396D01*
X123827802Y-92350030D01*
X123872200Y-92384519D01*
X123917512Y-92423071D01*
X123964408Y-92465891D01*
X124004105Y-92505636D01*
X124041084Y-92547734D01*
X124075367Y-92592249D01*
X124106974Y-92639248D01*
X124135928Y-92688793D01*
X124162251Y-92740949D01*
X124185963Y-92795781D01*
X124207088Y-92853353D01*
X124225646Y-92913731D01*
X124241659Y-92976977D01*
X124255149Y-93043158D01*
X124266138Y-93112336D01*
X124274647Y-93184578D01*
X124280698Y-93259946D01*
X124282599Y-93301262D01*
X124284313Y-93338507D01*
G36*
X124284313Y-93338507D02*
G01*
X124285513Y-93420324D01*
X124281813Y-93557706D01*
X124277183Y-93623465D01*
X124270696Y-93687276D01*
X124262347Y-93749143D01*
X124252133Y-93809070D01*
X124240050Y-93867062D01*
X124226096Y-93923125D01*
X124210266Y-93977261D01*
X124192558Y-94029477D01*
X124172967Y-94079777D01*
X124151490Y-94128165D01*
X124128125Y-94174647D01*
X124102866Y-94219225D01*
X124075711Y-94261907D01*
X124046656Y-94302695D01*
X124015698Y-94341594D01*
X123982833Y-94378610D01*
X123948058Y-94413747D01*
X123911369Y-94447009D01*
X123872763Y-94478401D01*
X123832237Y-94507928D01*
X123789786Y-94535594D01*
X123745408Y-94561404D01*
X123699098Y-94585363D01*
X123650854Y-94607475D01*
X123600671Y-94627745D01*
X123548547Y-94646177D01*
X123494478Y-94662777D01*
X123438461Y-94677548D01*
X123380491Y-94690495D01*
X123320566Y-94701624D01*
X123320566Y-94701627D01*
X123250634Y-94711652D01*
X123176436Y-94718879D01*
X123097103Y-94723312D01*
X123011765Y-94724951D01*
X122919551Y-94723800D01*
X122819593Y-94719861D01*
X122711019Y-94713136D01*
X122592962Y-94703627D01*
X122433539Y-94689288D01*
X122302489Y-94676956D01*
X122197141Y-94666307D01*
X122114822Y-94657016D01*
X122081465Y-94652778D01*
X122052863Y-94648758D01*
X122028683Y-94644915D01*
X122008591Y-94641209D01*
X121992252Y-94637598D01*
X121979334Y-94634042D01*
X121969502Y-94630501D01*
X121962423Y-94626934D01*
X121958951Y-94624185D01*
X121955829Y-94620451D01*
X121953056Y-94615741D01*
X121950635Y-94610063D01*
X121948564Y-94603426D01*
X121946846Y-94595837D01*
X121945480Y-94587306D01*
X121944468Y-94577840D01*
X121943810Y-94567449D01*
X121943507Y-94556140D01*
X121943560Y-94543922D01*
X121943969Y-94530805D01*
X121944735Y-94516795D01*
X121945858Y-94501901D01*
X121949182Y-94469498D01*
X121951661Y-94449429D01*
X121954127Y-94431371D01*
X121956614Y-94415246D01*
X121957878Y-94407884D01*
X121959161Y-94400978D01*
X121960468Y-94394515D01*
X121961803Y-94388489D01*
X121963172Y-94382887D01*
X121964577Y-94377702D01*
X121966026Y-94372923D01*
X121967520Y-94368541D01*
X121969067Y-94364547D01*
X121970669Y-94360929D01*
X121972332Y-94357680D01*
X121974059Y-94354788D01*
X121975857Y-94352246D01*
X121977728Y-94350042D01*
X121979679Y-94348168D01*
X121981712Y-94346613D01*
X121983834Y-94345369D01*
X121986048Y-94344425D01*
X121988360Y-94343772D01*
X121990773Y-94343401D01*
X121993292Y-94343300D01*
X121995922Y-94343462D01*
X121998667Y-94343877D01*
X122001533Y-94344534D01*
X122004523Y-94345424D01*
X122007642Y-94346538D01*
X122023916Y-94350608D01*
X122054254Y-94356014D01*
X122150130Y-94369903D01*
X122281287Y-94386338D01*
X122433744Y-94403452D01*
X122590386Y-94418222D01*
X122736466Y-94428031D01*
X122805664Y-94431041D01*
X122872364Y-94432770D01*
X122936614Y-94433203D01*
X122998462Y-94432327D01*
X123057955Y-94430128D01*
X123115141Y-94426592D01*
X123170068Y-94421706D01*
X123222783Y-94415455D01*
X123273334Y-94407826D01*
X123321769Y-94398805D01*
X123368134Y-94388378D01*
X123412479Y-94376532D01*
X123454850Y-94363252D01*
X123495295Y-94348524D01*
X123533862Y-94332336D01*
X123570599Y-94314673D01*
X123605552Y-94295521D01*
X123638771Y-94274867D01*
X123670302Y-94252697D01*
X123700193Y-94228996D01*
X123728492Y-94203751D01*
X123755246Y-94176949D01*
X123780504Y-94148575D01*
X123804312Y-94118616D01*
X123826719Y-94087058D01*
X123847771Y-94053886D01*
X123867517Y-94019088D01*
X123886005Y-93982650D01*
X123902300Y-93947119D01*
X123918182Y-93909535D01*
X123933257Y-93871038D01*
X123947127Y-93832767D01*
X123959396Y-93795864D01*
X123969668Y-93761466D01*
X123977546Y-93730715D01*
X123980464Y-93717063D01*
X123982635Y-93704750D01*
X123999904Y-93592302D01*
X121845303Y-93592302D01*
X121862973Y-93347562D01*
X121866638Y-93301262D01*
X122138964Y-93301262D01*
X124002015Y-93301262D01*
X123984658Y-93188814D01*
X123973048Y-93123751D01*
X123958785Y-93061807D01*
X123941867Y-93002981D01*
X123922291Y-92947267D01*
X123911506Y-92920578D01*
X123900056Y-92894665D01*
X123887940Y-92869530D01*
X123875158Y-92845171D01*
X123861711Y-92821589D01*
X123847597Y-92798783D01*
X123832817Y-92776752D01*
X123817370Y-92755496D01*
X123801256Y-92735016D01*
X123784474Y-92715310D01*
X123767025Y-92696378D01*
X123748909Y-92678220D01*
X123730124Y-92660835D01*
X123710670Y-92644224D01*
X123690548Y-92628385D01*
X123669757Y-92613319D01*
X123648297Y-92599025D01*
X123626167Y-92585503D01*
X123603367Y-92572751D01*
X123579898Y-92560771D01*
X123555758Y-92549562D01*
X123530948Y-92539123D01*
X123505466Y-92529454D01*
X123479314Y-92520554D01*
X123441598Y-92510003D01*
X123398244Y-92500626D01*
X123350070Y-92492439D01*
X123297892Y-92485461D01*
X123242526Y-92479710D01*
X123184789Y-92475203D01*
X123125496Y-92471959D01*
X123065465Y-92469995D01*
X123005510Y-92469329D01*
X122946450Y-92469980D01*
X122889100Y-92471964D01*
X122834275Y-92475301D01*
X122782794Y-92480007D01*
X122735472Y-92486100D01*
X122693125Y-92493600D01*
X122656569Y-92502523D01*
X122611968Y-92517283D01*
X122568802Y-92535318D01*
X122527196Y-92556483D01*
X122487276Y-92580632D01*
X122449169Y-92607617D01*
X122413000Y-92637294D01*
X122378894Y-92669515D01*
X122346977Y-92704135D01*
X122317376Y-92741008D01*
X122290216Y-92779987D01*
X122265623Y-92820926D01*
X122243722Y-92863679D01*
X122224639Y-92908100D01*
X122208501Y-92954042D01*
X122195432Y-93001360D01*
X122185559Y-93049907D01*
X122177532Y-93096741D01*
X122168791Y-93146025D01*
X122160393Y-93191898D01*
X122153391Y-93228501D01*
X122138964Y-93301262D01*
X121866638Y-93301262D01*
X121867100Y-93295429D01*
X121872066Y-93241052D01*
X121877684Y-93186031D01*
X121883765Y-93131968D01*
X121890120Y-93080462D01*
X121896561Y-93033116D01*
X121902898Y-92991529D01*
X121908944Y-92957302D01*
X121922832Y-92895375D01*
X121940023Y-92835184D01*
X121960423Y-92776846D01*
X121983939Y-92720480D01*
X122010478Y-92666204D01*
X122039947Y-92614135D01*
X122072252Y-92564393D01*
X122107300Y-92517093D01*
X122144998Y-92472356D01*
X122185252Y-92430299D01*
X122227969Y-92391040D01*
X122273057Y-92354696D01*
X122320420Y-92321387D01*
X122369967Y-92291230D01*
X122421604Y-92264343D01*
X122475237Y-92240844D01*
X122524905Y-92222038D01*
X122548242Y-92214213D01*
X122571319Y-92207355D01*
X122594689Y-92201401D01*
X122618907Y-92196288D01*
X122644526Y-92191952D01*
X122672100Y-92188329D01*
X122702183Y-92185357D01*
X122735328Y-92182972D01*
X122813022Y-92179709D01*
X122909610Y-92178033D01*
X123029524Y-92177437D01*
X123122899Y-92177897D01*
X123208493Y-92179736D01*
X123286975Y-92183161D01*
X123359015Y-92188378D01*
X123425280Y-92195593D01*
X123486441Y-92205013D01*
X123543165Y-92216845D01*
X123570072Y-92223730D01*
X123596121Y-92231295D01*
X123621396Y-92239565D01*
X123645979Y-92248568D01*
X123669955Y-92258328D01*
X123693407Y-92268872D01*
X123716419Y-92280225D01*
X123739075Y-92292413D01*
X123761457Y-92305461D01*
X123783650Y-92319396D01*
X123827802Y-92350030D01*
X123872200Y-92384519D01*
X123917512Y-92423071D01*
X123964408Y-92465891D01*
X124004105Y-92505636D01*
X124041084Y-92547734D01*
X124075367Y-92592249D01*
X124106974Y-92639248D01*
X124135928Y-92688793D01*
X124162251Y-92740949D01*
X124185963Y-92795781D01*
X124207088Y-92853353D01*
X124225646Y-92913731D01*
X124241659Y-92976977D01*
X124255149Y-93043158D01*
X124266138Y-93112336D01*
X124274647Y-93184578D01*
X124280698Y-93259946D01*
X124282599Y-93301262D01*
X124284313Y-93338507D01*
G37*
D10*
G36*
X168310120Y-96262315D02*
G01*
X167745676Y-96262315D01*
X167745676Y-95697870D01*
X168310120Y-95697870D01*
X168310120Y-96262315D01*
G37*
G36*
X180163454Y-89488981D02*
G01*
X179599009Y-89488981D01*
X179599009Y-88924537D01*
X180163454Y-88924537D01*
X180163454Y-89488981D01*
G37*
G36*
X171696787Y-84408981D02*
G01*
X167745676Y-84408981D01*
X167745676Y-81022314D01*
X168310120Y-81022314D01*
X168310120Y-83844537D01*
X171132343Y-83844537D01*
X171132343Y-81022314D01*
X168310120Y-81022314D01*
X167745676Y-81022314D01*
X167745676Y-80457870D01*
X171696787Y-80457870D01*
X171696787Y-81022314D01*
X171696787Y-84408981D01*
G37*
G36*
X168310120Y-87231203D02*
G01*
X167745676Y-87231203D01*
X167745676Y-86666759D01*
X168310120Y-86666759D01*
X168310120Y-87231203D01*
G37*
D11*
X120378451Y-92178991D02*
X120543034Y-92185007D01*
X120674177Y-92195403D01*
X120722956Y-92202254D01*
X120758270Y-92210213D01*
X120792415Y-92221541D01*
X120826218Y-92234621D01*
X120859543Y-92249348D01*
X120892254Y-92265619D01*
X120924218Y-92283328D01*
X120955299Y-92302370D01*
X120985361Y-92322641D01*
X121014271Y-92344036D01*
X121041892Y-92366451D01*
X121068089Y-92389781D01*
X121092728Y-92413921D01*
X121115674Y-92438766D01*
X121136791Y-92464213D01*
X121155945Y-92490155D01*
X121172999Y-92516489D01*
X121187820Y-92543109D01*
X121197287Y-92562111D01*
X121205844Y-92580371D01*
X121213534Y-92598097D01*
X121220396Y-92615495D01*
X121226471Y-92632771D01*
X121231799Y-92650132D01*
X121236422Y-92667784D01*
X121240381Y-92685934D01*
X121243715Y-92704789D01*
X121246465Y-92724554D01*
X121248673Y-92745437D01*
X121250379Y-92767643D01*
X121251623Y-92791381D01*
X121252446Y-92816854D01*
X121252993Y-92873839D01*
X121250525Y-92950593D01*
X121243043Y-93021066D01*
X121230019Y-93085648D01*
X121221266Y-93115850D01*
X121210930Y-93144726D01*
X121198947Y-93172323D01*
X121185250Y-93198689D01*
X121169774Y-93223874D01*
X121152454Y-93247927D01*
X121133223Y-93270894D01*
X121112016Y-93292826D01*
X121088767Y-93313771D01*
X121063411Y-93333777D01*
X121035882Y-93352892D01*
X121006114Y-93371166D01*
X120939601Y-93405384D01*
X120863344Y-93436819D01*
X120776821Y-93465858D01*
X120679504Y-93492891D01*
X120570869Y-93518306D01*
X120450391Y-93542491D01*
X120317545Y-93565836D01*
X120212820Y-93583639D01*
X120118243Y-93600784D01*
X120033260Y-93617522D01*
X119957319Y-93634100D01*
X119922566Y-93642407D01*
X119889866Y-93650768D01*
X119859149Y-93659214D01*
X119830347Y-93667775D01*
X119803391Y-93676483D01*
X119778211Y-93685369D01*
X119754738Y-93694464D01*
X119732902Y-93703799D01*
X119712636Y-93713406D01*
X119693869Y-93723315D01*
X119676533Y-93733558D01*
X119660558Y-93744165D01*
X119645875Y-93755168D01*
X119632416Y-93766598D01*
X119620110Y-93778486D01*
X119608889Y-93790863D01*
X119598683Y-93803761D01*
X119589424Y-93817209D01*
X119581042Y-93831240D01*
X119573468Y-93845885D01*
X119566633Y-93861174D01*
X119560468Y-93877140D01*
X119554904Y-93893812D01*
X119549871Y-93911222D01*
X119543987Y-93935335D01*
X119539436Y-93959003D01*
X119536208Y-93982216D01*
X119534295Y-94004965D01*
X119533690Y-94027238D01*
X119534383Y-94049028D01*
X119536367Y-94070323D01*
X119539632Y-94091115D01*
X119544172Y-94111394D01*
X119549977Y-94131150D01*
X119557040Y-94150373D01*
X119565351Y-94169054D01*
X119574903Y-94187183D01*
X119585688Y-94204750D01*
X119597696Y-94221746D01*
X119610920Y-94238162D01*
X119625352Y-94253986D01*
X119640983Y-94269210D01*
X119657804Y-94283825D01*
X119675808Y-94297819D01*
X119694987Y-94311184D01*
X119715331Y-94323910D01*
X119736833Y-94335988D01*
X119759484Y-94347407D01*
X119783276Y-94358158D01*
X119808201Y-94368231D01*
X119834251Y-94377617D01*
X119861416Y-94386306D01*
X119919062Y-94401553D01*
X119981073Y-94413897D01*
X120035605Y-94421354D01*
X120098725Y-94426910D01*
X120169149Y-94430637D01*
X120245593Y-94432609D01*
X120411404Y-94431580D01*
X120585882Y-94424414D01*
X120758752Y-94411697D01*
X120919740Y-94394018D01*
X120992567Y-94383501D01*
X121058570Y-94371965D01*
X121116465Y-94359482D01*
X121164968Y-94346126D01*
X121172260Y-94344065D01*
X121178900Y-94342781D01*
X121184938Y-94342353D01*
X121187747Y-94342484D01*
X121190424Y-94342860D01*
X121192975Y-94343489D01*
X121195408Y-94344381D01*
X121197727Y-94345547D01*
X121199940Y-94346996D01*
X121202053Y-94348738D01*
X121204072Y-94350783D01*
X121206003Y-94353141D01*
X121207852Y-94355821D01*
X121211333Y-94362190D01*
X121214563Y-94369969D01*
X121217593Y-94379236D01*
X121220474Y-94390070D01*
X121223256Y-94402551D01*
X121225989Y-94416758D01*
X121228723Y-94432769D01*
X121231509Y-94450664D01*
X121233269Y-94463073D01*
X121234836Y-94475506D01*
X121236208Y-94487884D01*
X121237385Y-94500127D01*
X121239140Y-94523883D01*
X121239715Y-94535236D01*
X121240086Y-94546132D01*
X121240250Y-94556492D01*
X121240205Y-94566234D01*
X121239951Y-94575278D01*
X121239483Y-94583544D01*
X121238801Y-94590952D01*
X121237902Y-94597421D01*
X121236785Y-94602872D01*
X121235447Y-94607224D01*
X121232560Y-94611968D01*
X121227551Y-94616606D01*
X121220373Y-94621148D01*
X121210980Y-94625603D01*
X121199324Y-94629982D01*
X121185359Y-94634294D01*
X121150313Y-94642757D01*
X121105467Y-94651072D01*
X121050446Y-94659316D01*
X120984874Y-94667570D01*
X120908378Y-94675911D01*
X120783706Y-94688992D01*
X120675648Y-94700897D01*
X120595778Y-94710313D01*
X120570030Y-94713678D01*
X120555669Y-94715929D01*
X120555669Y-94715921D01*
X120532790Y-94719545D01*
X120504792Y-94722379D01*
X120435874Y-94725767D01*
X120353773Y-94726268D01*
X120263346Y-94724064D01*
X120169452Y-94719339D01*
X120076949Y-94712274D01*
X119990696Y-94703053D01*
X119915549Y-94691858D01*
X119846459Y-94677844D01*
X119781031Y-94661103D01*
X119719281Y-94641650D01*
X119689792Y-94630911D01*
X119661229Y-94619499D01*
X119633594Y-94607416D01*
X119606891Y-94594665D01*
X119581120Y-94581246D01*
X119556284Y-94567162D01*
X119532386Y-94552414D01*
X119509427Y-94537005D01*
X119487410Y-94520935D01*
X119466337Y-94504208D01*
X119446210Y-94486824D01*
X119427031Y-94468786D01*
X119408803Y-94450095D01*
X119391528Y-94430754D01*
X119375207Y-94410763D01*
X119359844Y-94390125D01*
X119345439Y-94368842D01*
X119331997Y-94346915D01*
X119319517Y-94324346D01*
X119308004Y-94301138D01*
X119297459Y-94277291D01*
X119287884Y-94252808D01*
X119279281Y-94227691D01*
X119271654Y-94201940D01*
X119265003Y-94175559D01*
X119259330Y-94148549D01*
X119254598Y-94121530D01*
X119250717Y-94094878D01*
X119247685Y-94068598D01*
X119245499Y-94042698D01*
X119244157Y-94017183D01*
X119243656Y-93992060D01*
X119243994Y-93967334D01*
X119245169Y-93943012D01*
X119247178Y-93919099D01*
X119250019Y-93895602D01*
X119253688Y-93872528D01*
X119258185Y-93849881D01*
X119263506Y-93827669D01*
X119269650Y-93805897D01*
X119276612Y-93784571D01*
X119284392Y-93763698D01*
X119292987Y-93743284D01*
X119302394Y-93723334D01*
X119312611Y-93703855D01*
X119323635Y-93684854D01*
X119335465Y-93666335D01*
X119348097Y-93648306D01*
X119361529Y-93630772D01*
X119375759Y-93613739D01*
X119390784Y-93597214D01*
X119406602Y-93581203D01*
X119423211Y-93565712D01*
X119440608Y-93550746D01*
X119458790Y-93536313D01*
X119477756Y-93522418D01*
X119497502Y-93509067D01*
X119518026Y-93496267D01*
X119580769Y-93461874D01*
X119614350Y-93445936D01*
X119649942Y-93430690D01*
X119687948Y-93416029D01*
X119728769Y-93401841D01*
X119820472Y-93374450D01*
X119928274Y-93347642D01*
X120055398Y-93320541D01*
X120205065Y-93292272D01*
X120380500Y-93261960D01*
X120451488Y-93249828D01*
X120515375Y-93238229D01*
X120572644Y-93226945D01*
X120623775Y-93215753D01*
X120647191Y-93210123D01*
X120669252Y-93204433D01*
X120690021Y-93198656D01*
X120709556Y-93192764D01*
X120727919Y-93186730D01*
X120745169Y-93180527D01*
X120761366Y-93174125D01*
X120776572Y-93167498D01*
X120790846Y-93160619D01*
X120804248Y-93153459D01*
X120816838Y-93145991D01*
X120828678Y-93138188D01*
X120839827Y-93130022D01*
X120850344Y-93121465D01*
X120860292Y-93112489D01*
X120869729Y-93103068D01*
X120878716Y-93093173D01*
X120887314Y-93082777D01*
X120895582Y-93071852D01*
X120903580Y-93060371D01*
X120911370Y-93048306D01*
X120919010Y-93035630D01*
X120934086Y-93008332D01*
X120943643Y-92988227D01*
X120951730Y-92967178D01*
X120958354Y-92945324D01*
X120963523Y-92922808D01*
X120967245Y-92899770D01*
X120969527Y-92876352D01*
X120970378Y-92852696D01*
X120969804Y-92828942D01*
X120967813Y-92805231D01*
X120964413Y-92781706D01*
X120959612Y-92758507D01*
X120953417Y-92735777D01*
X120945836Y-92713655D01*
X120936877Y-92692283D01*
X120926546Y-92671803D01*
X120914853Y-92652356D01*
X120898001Y-92628797D01*
X120879422Y-92607079D01*
X120858914Y-92587138D01*
X120836279Y-92568908D01*
X120811316Y-92552324D01*
X120783825Y-92537320D01*
X120753606Y-92523830D01*
X120720459Y-92511791D01*
X120684183Y-92501135D01*
X120644579Y-92491798D01*
X120601447Y-92483715D01*
X120554587Y-92476819D01*
X120503797Y-92471046D01*
X120448880Y-92466330D01*
X120389633Y-92462605D01*
X120325858Y-92459807D01*
X120217464Y-92457523D01*
X120106340Y-92458265D01*
X119993004Y-92461996D01*
X119877977Y-92468681D01*
X119761778Y-92478283D01*
X119644927Y-92490764D01*
X119527943Y-92506089D01*
X119411347Y-92524221D01*
X119312128Y-92540886D01*
X119312128Y-92249392D01*
X119530409Y-92213373D01*
X119589022Y-92205173D01*
X119657992Y-92198019D01*
X119820201Y-92186868D01*
X120003422Y-92179956D01*
X120194043Y-92177319D01*
X120378451Y-92178991D01*
G36*
X120378451Y-92178991D02*
G01*
X120543034Y-92185007D01*
X120674177Y-92195403D01*
X120722956Y-92202254D01*
X120758270Y-92210213D01*
X120792415Y-92221541D01*
X120826218Y-92234621D01*
X120859543Y-92249348D01*
X120892254Y-92265619D01*
X120924218Y-92283328D01*
X120955299Y-92302370D01*
X120985361Y-92322641D01*
X121014271Y-92344036D01*
X121041892Y-92366451D01*
X121068089Y-92389781D01*
X121092728Y-92413921D01*
X121115674Y-92438766D01*
X121136791Y-92464213D01*
X121155945Y-92490155D01*
X121172999Y-92516489D01*
X121187820Y-92543109D01*
X121197287Y-92562111D01*
X121205844Y-92580371D01*
X121213534Y-92598097D01*
X121220396Y-92615495D01*
X121226471Y-92632771D01*
X121231799Y-92650132D01*
X121236422Y-92667784D01*
X121240381Y-92685934D01*
X121243715Y-92704789D01*
X121246465Y-92724554D01*
X121248673Y-92745437D01*
X121250379Y-92767643D01*
X121251623Y-92791381D01*
X121252446Y-92816854D01*
X121252993Y-92873839D01*
X121250525Y-92950593D01*
X121243043Y-93021066D01*
X121230019Y-93085648D01*
X121221266Y-93115850D01*
X121210930Y-93144726D01*
X121198947Y-93172323D01*
X121185250Y-93198689D01*
X121169774Y-93223874D01*
X121152454Y-93247927D01*
X121133223Y-93270894D01*
X121112016Y-93292826D01*
X121088767Y-93313771D01*
X121063411Y-93333777D01*
X121035882Y-93352892D01*
X121006114Y-93371166D01*
X120939601Y-93405384D01*
X120863344Y-93436819D01*
X120776821Y-93465858D01*
X120679504Y-93492891D01*
X120570869Y-93518306D01*
X120450391Y-93542491D01*
X120317545Y-93565836D01*
X120212820Y-93583639D01*
X120118243Y-93600784D01*
X120033260Y-93617522D01*
X119957319Y-93634100D01*
X119922566Y-93642407D01*
X119889866Y-93650768D01*
X119859149Y-93659214D01*
X119830347Y-93667775D01*
X119803391Y-93676483D01*
X119778211Y-93685369D01*
X119754738Y-93694464D01*
X119732902Y-93703799D01*
X119712636Y-93713406D01*
X119693869Y-93723315D01*
X119676533Y-93733558D01*
X119660558Y-93744165D01*
X119645875Y-93755168D01*
X119632416Y-93766598D01*
X119620110Y-93778486D01*
X119608889Y-93790863D01*
X119598683Y-93803761D01*
X119589424Y-93817209D01*
X119581042Y-93831240D01*
X119573468Y-93845885D01*
X119566633Y-93861174D01*
X119560468Y-93877140D01*
X119554904Y-93893812D01*
X119549871Y-93911222D01*
X119543987Y-93935335D01*
X119539436Y-93959003D01*
X119536208Y-93982216D01*
X119534295Y-94004965D01*
X119533690Y-94027238D01*
X119534383Y-94049028D01*
X119536367Y-94070323D01*
X119539632Y-94091115D01*
X119544172Y-94111394D01*
X119549977Y-94131150D01*
X119557040Y-94150373D01*
X119565351Y-94169054D01*
X119574903Y-94187183D01*
X119585688Y-94204750D01*
X119597696Y-94221746D01*
X119610920Y-94238162D01*
X119625352Y-94253986D01*
X119640983Y-94269210D01*
X119657804Y-94283825D01*
X119675808Y-94297819D01*
X119694987Y-94311184D01*
X119715331Y-94323910D01*
X119736833Y-94335988D01*
X119759484Y-94347407D01*
X119783276Y-94358158D01*
X119808201Y-94368231D01*
X119834251Y-94377617D01*
X119861416Y-94386306D01*
X119919062Y-94401553D01*
X119981073Y-94413897D01*
X120035605Y-94421354D01*
X120098725Y-94426910D01*
X120169149Y-94430637D01*
X120245593Y-94432609D01*
X120411404Y-94431580D01*
X120585882Y-94424414D01*
X120758752Y-94411697D01*
X120919740Y-94394018D01*
X120992567Y-94383501D01*
X121058570Y-94371965D01*
X121116465Y-94359482D01*
X121164968Y-94346126D01*
X121172260Y-94344065D01*
X121178900Y-94342781D01*
X121184938Y-94342353D01*
X121187747Y-94342484D01*
X121190424Y-94342860D01*
X121192975Y-94343489D01*
X121195408Y-94344381D01*
X121197727Y-94345547D01*
X121199940Y-94346996D01*
X121202053Y-94348738D01*
X121204072Y-94350783D01*
X121206003Y-94353141D01*
X121207852Y-94355821D01*
X121211333Y-94362190D01*
X121214563Y-94369969D01*
X121217593Y-94379236D01*
X121220474Y-94390070D01*
X121223256Y-94402551D01*
X121225989Y-94416758D01*
X121228723Y-94432769D01*
X121231509Y-94450664D01*
X121233269Y-94463073D01*
X121234836Y-94475506D01*
X121236208Y-94487884D01*
X121237385Y-94500127D01*
X121239140Y-94523883D01*
X121239715Y-94535236D01*
X121240086Y-94546132D01*
X121240250Y-94556492D01*
X121240205Y-94566234D01*
X121239951Y-94575278D01*
X121239483Y-94583544D01*
X121238801Y-94590952D01*
X121237902Y-94597421D01*
X121236785Y-94602872D01*
X121235447Y-94607224D01*
X121232560Y-94611968D01*
X121227551Y-94616606D01*
X121220373Y-94621148D01*
X121210980Y-94625603D01*
X121199324Y-94629982D01*
X121185359Y-94634294D01*
X121150313Y-94642757D01*
X121105467Y-94651072D01*
X121050446Y-94659316D01*
X120984874Y-94667570D01*
X120908378Y-94675911D01*
X120783706Y-94688992D01*
X120675648Y-94700897D01*
X120595778Y-94710313D01*
X120570030Y-94713678D01*
X120555669Y-94715929D01*
X120555669Y-94715921D01*
X120532790Y-94719545D01*
X120504792Y-94722379D01*
X120435874Y-94725767D01*
X120353773Y-94726268D01*
X120263346Y-94724064D01*
X120169452Y-94719339D01*
X120076949Y-94712274D01*
X119990696Y-94703053D01*
X119915549Y-94691858D01*
X119846459Y-94677844D01*
X119781031Y-94661103D01*
X119719281Y-94641650D01*
X119689792Y-94630911D01*
X119661229Y-94619499D01*
X119633594Y-94607416D01*
X119606891Y-94594665D01*
X119581120Y-94581246D01*
X119556284Y-94567162D01*
X119532386Y-94552414D01*
X119509427Y-94537005D01*
X119487410Y-94520935D01*
X119466337Y-94504208D01*
X119446210Y-94486824D01*
X119427031Y-94468786D01*
X119408803Y-94450095D01*
X119391528Y-94430754D01*
X119375207Y-94410763D01*
X119359844Y-94390125D01*
X119345439Y-94368842D01*
X119331997Y-94346915D01*
X119319517Y-94324346D01*
X119308004Y-94301138D01*
X119297459Y-94277291D01*
X119287884Y-94252808D01*
X119279281Y-94227691D01*
X119271654Y-94201940D01*
X119265003Y-94175559D01*
X119259330Y-94148549D01*
X119254598Y-94121530D01*
X119250717Y-94094878D01*
X119247685Y-94068598D01*
X119245499Y-94042698D01*
X119244157Y-94017183D01*
X119243656Y-93992060D01*
X119243994Y-93967334D01*
X119245169Y-93943012D01*
X119247178Y-93919099D01*
X119250019Y-93895602D01*
X119253688Y-93872528D01*
X119258185Y-93849881D01*
X119263506Y-93827669D01*
X119269650Y-93805897D01*
X119276612Y-93784571D01*
X119284392Y-93763698D01*
X119292987Y-93743284D01*
X119302394Y-93723334D01*
X119312611Y-93703855D01*
X119323635Y-93684854D01*
X119335465Y-93666335D01*
X119348097Y-93648306D01*
X119361529Y-93630772D01*
X119375759Y-93613739D01*
X119390784Y-93597214D01*
X119406602Y-93581203D01*
X119423211Y-93565712D01*
X119440608Y-93550746D01*
X119458790Y-93536313D01*
X119477756Y-93522418D01*
X119497502Y-93509067D01*
X119518026Y-93496267D01*
X119580769Y-93461874D01*
X119614350Y-93445936D01*
X119649942Y-93430690D01*
X119687948Y-93416029D01*
X119728769Y-93401841D01*
X119820472Y-93374450D01*
X119928274Y-93347642D01*
X120055398Y-93320541D01*
X120205065Y-93292272D01*
X120380500Y-93261960D01*
X120451488Y-93249828D01*
X120515375Y-93238229D01*
X120572644Y-93226945D01*
X120623775Y-93215753D01*
X120647191Y-93210123D01*
X120669252Y-93204433D01*
X120690021Y-93198656D01*
X120709556Y-93192764D01*
X120727919Y-93186730D01*
X120745169Y-93180527D01*
X120761366Y-93174125D01*
X120776572Y-93167498D01*
X120790846Y-93160619D01*
X120804248Y-93153459D01*
X120816838Y-93145991D01*
X120828678Y-93138188D01*
X120839827Y-93130022D01*
X120850344Y-93121465D01*
X120860292Y-93112489D01*
X120869729Y-93103068D01*
X120878716Y-93093173D01*
X120887314Y-93082777D01*
X120895582Y-93071852D01*
X120903580Y-93060371D01*
X120911370Y-93048306D01*
X120919010Y-93035630D01*
X120934086Y-93008332D01*
X120943643Y-92988227D01*
X120951730Y-92967178D01*
X120958354Y-92945324D01*
X120963523Y-92922808D01*
X120967245Y-92899770D01*
X120969527Y-92876352D01*
X120970378Y-92852696D01*
X120969804Y-92828942D01*
X120967813Y-92805231D01*
X120964413Y-92781706D01*
X120959612Y-92758507D01*
X120953417Y-92735777D01*
X120945836Y-92713655D01*
X120936877Y-92692283D01*
X120926546Y-92671803D01*
X120914853Y-92652356D01*
X120898001Y-92628797D01*
X120879422Y-92607079D01*
X120858914Y-92587138D01*
X120836279Y-92568908D01*
X120811316Y-92552324D01*
X120783825Y-92537320D01*
X120753606Y-92523830D01*
X120720459Y-92511791D01*
X120684183Y-92501135D01*
X120644579Y-92491798D01*
X120601447Y-92483715D01*
X120554587Y-92476819D01*
X120503797Y-92471046D01*
X120448880Y-92466330D01*
X120389633Y-92462605D01*
X120325858Y-92459807D01*
X120217464Y-92457523D01*
X120106340Y-92458265D01*
X119993004Y-92461996D01*
X119877977Y-92468681D01*
X119761778Y-92478283D01*
X119644927Y-92490764D01*
X119527943Y-92506089D01*
X119411347Y-92524221D01*
X119312128Y-92540886D01*
X119312128Y-92249392D01*
X119530409Y-92213373D01*
X119589022Y-92205173D01*
X119657992Y-92198019D01*
X119820201Y-92186868D01*
X120003422Y-92179956D01*
X120194043Y-92177319D01*
X120378451Y-92178991D01*
G37*
D10*
G36*
X174519010Y-93440092D02*
G01*
X173954565Y-93440092D01*
X173954565Y-92875648D01*
X174519010Y-92875648D01*
X174519010Y-93440092D01*
G37*
G36*
X177341232Y-81022314D02*
G01*
X176776787Y-81022314D01*
X176776787Y-80457870D01*
X177341232Y-80457870D01*
X177341232Y-81022314D01*
G37*
G36*
X180727898Y-86666759D02*
G01*
X180163454Y-86666759D01*
X180163454Y-87231203D01*
X179599009Y-87231203D01*
X179599009Y-86102314D01*
X180727898Y-86102314D01*
X180727898Y-86666759D01*
G37*
G36*
X179034565Y-91746759D02*
G01*
X178470121Y-91746759D01*
X178470121Y-91182315D01*
X179034565Y-91182315D01*
X179034565Y-91746759D01*
G37*
G36*
X179599009Y-96826759D02*
G01*
X179034565Y-96826759D01*
X179034565Y-96262315D01*
X178470121Y-96262315D01*
X178470121Y-96826759D01*
X177905676Y-96826759D01*
X177905676Y-95697870D01*
X178470121Y-95697870D01*
X178470121Y-94568982D01*
X179034565Y-94568982D01*
X179034565Y-94004536D01*
X179599009Y-94004536D01*
X179599009Y-96826759D01*
G37*
G36*
X170567899Y-83280092D02*
G01*
X168874565Y-83280092D01*
X168874565Y-81586759D01*
X170567899Y-81586759D01*
X170567899Y-83280092D01*
G37*
G36*
X173390120Y-86102314D02*
G01*
X172825676Y-86102314D01*
X172825676Y-85537870D01*
X173390120Y-85537870D01*
X173390120Y-86102314D01*
G37*
G36*
X182421232Y-91746759D02*
G01*
X182985676Y-91746759D01*
X182985676Y-92311203D01*
X181292343Y-92311203D01*
X181292343Y-91746759D01*
X181856787Y-91746759D01*
X181856787Y-91182315D01*
X182421232Y-91182315D01*
X182421232Y-91746759D01*
G37*
G36*
X180727898Y-87795648D02*
G01*
X180163454Y-87795648D01*
X180163454Y-87231203D01*
X180727898Y-87231203D01*
X180727898Y-87795648D01*
G37*
G36*
X172825676Y-84408981D02*
G01*
X173390120Y-84408981D01*
X173390120Y-83844537D01*
X173954565Y-83844537D01*
X173954565Y-84973426D01*
X174519010Y-84973426D01*
X174519010Y-83844537D01*
X175083454Y-83844537D01*
X175083454Y-84973426D01*
X175647898Y-84973426D01*
X175647898Y-85537870D01*
X176212343Y-85537870D01*
X176212343Y-86102314D01*
X175647898Y-86102314D01*
X175647898Y-86666759D01*
X175083454Y-86666759D01*
X175083454Y-86102314D01*
X174519010Y-86102314D01*
X174519010Y-85537870D01*
X173390120Y-85537870D01*
X173390120Y-84973426D01*
X172261232Y-84973426D01*
X172261232Y-83844537D01*
X172825676Y-83844537D01*
X172825676Y-84408981D01*
G37*
G36*
X174519010Y-83844537D02*
G01*
X173954565Y-83844537D01*
X173954565Y-83280092D01*
X174519010Y-83280092D01*
X174519010Y-83844537D01*
G37*
G36*
X178470121Y-81586759D02*
G01*
X177905676Y-81586759D01*
X177905676Y-80457870D01*
X178470121Y-80457870D01*
X178470121Y-81586759D01*
G37*
G36*
X172261232Y-85537870D02*
G01*
X171696787Y-85537870D01*
X171696787Y-84973426D01*
X172261232Y-84973426D01*
X172261232Y-85537870D01*
G37*
G36*
X181292343Y-91182315D02*
G01*
X180163454Y-91182315D01*
X180163454Y-90617870D01*
X181292343Y-90617870D01*
X181292343Y-91182315D01*
G37*
G36*
X180727898Y-92311203D02*
G01*
X180163454Y-92311203D01*
X180163454Y-91746759D01*
X180727898Y-91746759D01*
X180727898Y-92311203D01*
G37*
G36*
X182985676Y-95697870D02*
G01*
X181292343Y-95697870D01*
X181292343Y-94004536D01*
X182985676Y-94004536D01*
X182985676Y-95697870D01*
G37*
D11*
X118654101Y-84896199D02*
X118679788Y-84973999D01*
X118737413Y-85162915D01*
X118914320Y-85760636D01*
X119056473Y-86241207D01*
X119184916Y-86662141D01*
X119302462Y-87031555D01*
X119411923Y-87357566D01*
X119516110Y-87648292D01*
X119617835Y-87911850D01*
X119719912Y-88156358D01*
X119825150Y-88389931D01*
X119849653Y-88443081D01*
X119872512Y-88493953D01*
X119893227Y-88541340D01*
X119911297Y-88584038D01*
X119926223Y-88620840D01*
X119937503Y-88650542D01*
X119941620Y-88662354D01*
X119944638Y-88671938D01*
X119946495Y-88679145D01*
X119947128Y-88683823D01*
X119943612Y-88697981D01*
X119933522Y-88721788D01*
X119896366Y-88793849D01*
X119841150Y-88891011D01*
X119773367Y-89004279D01*
X119698507Y-89124659D01*
X119622063Y-89243155D01*
X119549525Y-89350772D01*
X119486386Y-89438515D01*
X119428159Y-89512704D01*
X119365726Y-89587064D01*
X119299474Y-89661269D01*
X119229791Y-89734993D01*
X119157064Y-89807910D01*
X119081682Y-89879695D01*
X119004031Y-89950021D01*
X118924499Y-90018564D01*
X118843473Y-90084997D01*
X118761341Y-90148994D01*
X118678491Y-90210230D01*
X118595309Y-90268379D01*
X118512184Y-90323115D01*
X118429504Y-90374112D01*
X118347654Y-90421045D01*
X118267024Y-90463588D01*
X118183509Y-90503837D01*
X118096056Y-90542488D01*
X118004941Y-90579470D01*
X117910441Y-90614715D01*
X117812834Y-90648154D01*
X117712396Y-90679716D01*
X117609407Y-90709333D01*
X117504141Y-90736936D01*
X117396878Y-90762455D01*
X117287894Y-90785821D01*
X117177466Y-90806964D01*
X117065872Y-90825815D01*
X116953389Y-90842306D01*
X116840294Y-90856365D01*
X116726864Y-90867926D01*
X116613378Y-90876917D01*
X116613378Y-90876918D01*
X116517728Y-90880634D01*
X116395225Y-90881237D01*
X116254314Y-90879046D01*
X116103440Y-90874382D01*
X115951046Y-90867563D01*
X115805579Y-90858910D01*
X115675483Y-90848742D01*
X115569202Y-90837380D01*
X115430168Y-90815779D01*
X115278249Y-90785816D01*
X115118630Y-90748923D01*
X114956495Y-90706532D01*
X114797030Y-90660076D01*
X114645419Y-90610987D01*
X114506847Y-90560698D01*
X114444071Y-90535551D01*
X114386499Y-90510640D01*
X114161354Y-90399748D01*
X113948153Y-90275918D01*
X113746973Y-90139266D01*
X113557889Y-89989909D01*
X113380978Y-89827962D01*
X113216315Y-89653543D01*
X113063976Y-89466767D01*
X112924036Y-89267751D01*
X112796572Y-89056610D01*
X112681660Y-88833462D01*
X112579374Y-88598422D01*
X112489791Y-88351606D01*
X112412987Y-88093132D01*
X112349038Y-87823115D01*
X112298019Y-87541671D01*
X112260006Y-87248917D01*
X112242557Y-87083553D01*
X114071338Y-87083553D01*
X114100257Y-87196001D01*
X114133118Y-87317035D01*
X114168338Y-87433775D01*
X114205895Y-87546186D01*
X114245770Y-87654231D01*
X114287942Y-87757875D01*
X114332390Y-87857080D01*
X114379093Y-87951811D01*
X114428032Y-88042032D01*
X114479184Y-88127706D01*
X114532531Y-88208797D01*
X114588051Y-88285270D01*
X114645723Y-88357086D01*
X114705527Y-88424212D01*
X114767443Y-88486609D01*
X114831449Y-88544243D01*
X114897525Y-88597077D01*
X114966300Y-88646884D01*
X114999845Y-88669648D01*
X115033187Y-88691160D01*
X115066596Y-88711554D01*
X115100341Y-88730960D01*
X115134691Y-88749511D01*
X115169917Y-88767338D01*
X115206287Y-88784575D01*
X115244070Y-88801351D01*
X115283537Y-88817801D01*
X115324956Y-88834055D01*
X115414730Y-88866503D01*
X115515546Y-88899753D01*
X115591524Y-88923228D01*
X115657286Y-88941283D01*
X115688303Y-88948499D01*
X115719129Y-88954624D01*
X115750550Y-88959748D01*
X115783353Y-88963958D01*
X115818327Y-88967342D01*
X115856258Y-88969989D01*
X115944142Y-88973423D01*
X116053305Y-88974966D01*
X116190046Y-88975324D01*
X116282964Y-88974728D01*
X116369875Y-88972856D01*
X116451370Y-88969584D01*
X116528042Y-88964784D01*
X116600482Y-88958332D01*
X116669282Y-88950102D01*
X116735034Y-88939968D01*
X116798329Y-88927804D01*
X116859760Y-88913486D01*
X116919918Y-88896886D01*
X116979395Y-88877880D01*
X117038783Y-88856343D01*
X117098674Y-88832147D01*
X117159659Y-88805168D01*
X117222330Y-88775280D01*
X117287279Y-88742357D01*
X117372623Y-88694233D01*
X117457071Y-88639263D01*
X117540328Y-88577819D01*
X117622103Y-88510271D01*
X117702101Y-88436990D01*
X117780030Y-88358348D01*
X117855596Y-88274716D01*
X117928506Y-88186463D01*
X117998467Y-88093962D01*
X118065186Y-87997583D01*
X118128369Y-87897697D01*
X118187724Y-87794675D01*
X118242956Y-87688888D01*
X118293774Y-87580707D01*
X118339884Y-87470502D01*
X118380992Y-87358646D01*
X118448552Y-87149396D01*
X118503914Y-86949436D01*
X118527334Y-86850706D01*
X118548083Y-86751618D01*
X118566284Y-86651278D01*
X118582065Y-86548793D01*
X118595551Y-86443268D01*
X118606867Y-86333811D01*
X118623495Y-86099522D01*
X118632954Y-85838778D01*
X118636252Y-85544429D01*
X118636831Y-85408619D01*
X118638028Y-85283143D01*
X118639771Y-85170661D01*
X118641987Y-85073830D01*
X118644601Y-84995310D01*
X118647540Y-84937759D01*
X118649109Y-84917678D01*
X118650731Y-84903836D01*
X118652398Y-84896566D01*
X118653246Y-84895499D01*
X118654101Y-84896199D01*
G36*
X118654101Y-84896199D02*
G01*
X118679788Y-84973999D01*
X118737413Y-85162915D01*
X118914320Y-85760636D01*
X119056473Y-86241207D01*
X119184916Y-86662141D01*
X119302462Y-87031555D01*
X119411923Y-87357566D01*
X119516110Y-87648292D01*
X119617835Y-87911850D01*
X119719912Y-88156358D01*
X119825150Y-88389931D01*
X119849653Y-88443081D01*
X119872512Y-88493953D01*
X119893227Y-88541340D01*
X119911297Y-88584038D01*
X119926223Y-88620840D01*
X119937503Y-88650542D01*
X119941620Y-88662354D01*
X119944638Y-88671938D01*
X119946495Y-88679145D01*
X119947128Y-88683823D01*
X119943612Y-88697981D01*
X119933522Y-88721788D01*
X119896366Y-88793849D01*
X119841150Y-88891011D01*
X119773367Y-89004279D01*
X119698507Y-89124659D01*
X119622063Y-89243155D01*
X119549525Y-89350772D01*
X119486386Y-89438515D01*
X119428159Y-89512704D01*
X119365726Y-89587064D01*
X119299474Y-89661269D01*
X119229791Y-89734993D01*
X119157064Y-89807910D01*
X119081682Y-89879695D01*
X119004031Y-89950021D01*
X118924499Y-90018564D01*
X118843473Y-90084997D01*
X118761341Y-90148994D01*
X118678491Y-90210230D01*
X118595309Y-90268379D01*
X118512184Y-90323115D01*
X118429504Y-90374112D01*
X118347654Y-90421045D01*
X118267024Y-90463588D01*
X118183509Y-90503837D01*
X118096056Y-90542488D01*
X118004941Y-90579470D01*
X117910441Y-90614715D01*
X117812834Y-90648154D01*
X117712396Y-90679716D01*
X117609407Y-90709333D01*
X117504141Y-90736936D01*
X117396878Y-90762455D01*
X117287894Y-90785821D01*
X117177466Y-90806964D01*
X117065872Y-90825815D01*
X116953389Y-90842306D01*
X116840294Y-90856365D01*
X116726864Y-90867926D01*
X116613378Y-90876917D01*
X116613378Y-90876918D01*
X116517728Y-90880634D01*
X116395225Y-90881237D01*
X116254314Y-90879046D01*
X116103440Y-90874382D01*
X115951046Y-90867563D01*
X115805579Y-90858910D01*
X115675483Y-90848742D01*
X115569202Y-90837380D01*
X115430168Y-90815779D01*
X115278249Y-90785816D01*
X115118630Y-90748923D01*
X114956495Y-90706532D01*
X114797030Y-90660076D01*
X114645419Y-90610987D01*
X114506847Y-90560698D01*
X114444071Y-90535551D01*
X114386499Y-90510640D01*
X114161354Y-90399748D01*
X113948153Y-90275918D01*
X113746973Y-90139266D01*
X113557889Y-89989909D01*
X113380978Y-89827962D01*
X113216315Y-89653543D01*
X113063976Y-89466767D01*
X112924036Y-89267751D01*
X112796572Y-89056610D01*
X112681660Y-88833462D01*
X112579374Y-88598422D01*
X112489791Y-88351606D01*
X112412987Y-88093132D01*
X112349038Y-87823115D01*
X112298019Y-87541671D01*
X112260006Y-87248917D01*
X112242557Y-87083553D01*
X114071338Y-87083553D01*
X114100257Y-87196001D01*
X114133118Y-87317035D01*
X114168338Y-87433775D01*
X114205895Y-87546186D01*
X114245770Y-87654231D01*
X114287942Y-87757875D01*
X114332390Y-87857080D01*
X114379093Y-87951811D01*
X114428032Y-88042032D01*
X114479184Y-88127706D01*
X114532531Y-88208797D01*
X114588051Y-88285270D01*
X114645723Y-88357086D01*
X114705527Y-88424212D01*
X114767443Y-88486609D01*
X114831449Y-88544243D01*
X114897525Y-88597077D01*
X114966300Y-88646884D01*
X114999845Y-88669648D01*
X115033187Y-88691160D01*
X115066596Y-88711554D01*
X115100341Y-88730960D01*
X115134691Y-88749511D01*
X115169917Y-88767338D01*
X115206287Y-88784575D01*
X115244070Y-88801351D01*
X115283537Y-88817801D01*
X115324956Y-88834055D01*
X115414730Y-88866503D01*
X115515546Y-88899753D01*
X115591524Y-88923228D01*
X115657286Y-88941283D01*
X115688303Y-88948499D01*
X115719129Y-88954624D01*
X115750550Y-88959748D01*
X115783353Y-88963958D01*
X115818327Y-88967342D01*
X115856258Y-88969989D01*
X115944142Y-88973423D01*
X116053305Y-88974966D01*
X116190046Y-88975324D01*
X116282964Y-88974728D01*
X116369875Y-88972856D01*
X116451370Y-88969584D01*
X116528042Y-88964784D01*
X116600482Y-88958332D01*
X116669282Y-88950102D01*
X116735034Y-88939968D01*
X116798329Y-88927804D01*
X116859760Y-88913486D01*
X116919918Y-88896886D01*
X116979395Y-88877880D01*
X117038783Y-88856343D01*
X117098674Y-88832147D01*
X117159659Y-88805168D01*
X117222330Y-88775280D01*
X117287279Y-88742357D01*
X117372623Y-88694233D01*
X117457071Y-88639263D01*
X117540328Y-88577819D01*
X117622103Y-88510271D01*
X117702101Y-88436990D01*
X117780030Y-88358348D01*
X117855596Y-88274716D01*
X117928506Y-88186463D01*
X117998467Y-88093962D01*
X118065186Y-87997583D01*
X118128369Y-87897697D01*
X118187724Y-87794675D01*
X118242956Y-87688888D01*
X118293774Y-87580707D01*
X118339884Y-87470502D01*
X118380992Y-87358646D01*
X118448552Y-87149396D01*
X118503914Y-86949436D01*
X118527334Y-86850706D01*
X118548083Y-86751618D01*
X118566284Y-86651278D01*
X118582065Y-86548793D01*
X118595551Y-86443268D01*
X118606867Y-86333811D01*
X118623495Y-86099522D01*
X118632954Y-85838778D01*
X118636252Y-85544429D01*
X118636831Y-85408619D01*
X118638028Y-85283143D01*
X118639771Y-85170661D01*
X118641987Y-85073830D01*
X118644601Y-84995310D01*
X118647540Y-84937759D01*
X118649109Y-84917678D01*
X118650731Y-84903836D01*
X118652398Y-84896566D01*
X118653246Y-84895499D01*
X118654101Y-84896199D01*
G37*
D10*
G36*
X177905676Y-89488981D02*
G01*
X178470121Y-89488981D01*
X178470121Y-88924537D01*
X179034565Y-88924537D01*
X179034565Y-90617870D01*
X178470121Y-90617870D01*
X178470121Y-91182315D01*
X177905676Y-91182315D01*
X177905676Y-90053425D01*
X177341232Y-90053425D01*
X177341232Y-88924537D01*
X176776787Y-88924537D01*
X176776787Y-88360092D01*
X177905676Y-88360092D01*
X177905676Y-89488981D01*
G37*
G36*
X177341232Y-81586759D02*
G01*
X177341232Y-82715648D01*
X176212343Y-82715648D01*
X176212343Y-83280092D01*
X177905676Y-83280092D01*
X177905676Y-83844537D01*
X177341232Y-83844537D01*
X177341232Y-84408981D01*
X177905676Y-84408981D01*
X177905676Y-83844537D01*
X178470121Y-83844537D01*
X178470121Y-84408981D01*
X179034565Y-84408981D01*
X179034565Y-83844537D01*
X178470121Y-83844537D01*
X178470121Y-82715648D01*
X177905676Y-82715648D01*
X177905676Y-82151203D01*
X179599009Y-82151203D01*
X179599009Y-82715648D01*
X179034565Y-82715648D01*
X179034565Y-83280092D01*
X179599009Y-83280092D01*
X179599009Y-83844537D01*
X179599009Y-84408981D01*
X179034565Y-84408981D01*
X179034565Y-84973426D01*
X180727898Y-84973426D01*
X180727898Y-85537870D01*
X179599009Y-85537870D01*
X179599009Y-86102314D01*
X179034565Y-86102314D01*
X179034565Y-85537870D01*
X178470121Y-85537870D01*
X178470121Y-84973426D01*
X177905676Y-84973426D01*
X177905676Y-85537870D01*
X177341232Y-85537870D01*
X177341232Y-84408981D01*
X176776787Y-84408981D01*
X176776787Y-83844537D01*
X176212343Y-83844537D01*
X176212343Y-84408981D01*
X175647898Y-84408981D01*
X175647898Y-83844537D01*
X175083454Y-83844537D01*
X175083454Y-83280092D01*
X175647898Y-83280092D01*
X175647898Y-82715648D01*
X173954565Y-82715648D01*
X173954565Y-82151203D01*
X172825676Y-82151203D01*
X172825676Y-82715648D01*
X172261232Y-82715648D01*
X172261232Y-81586759D01*
X172825676Y-81586759D01*
X175083454Y-81586759D01*
X175083454Y-82151203D01*
X176212343Y-82151203D01*
X176212343Y-81586759D01*
X175083454Y-81586759D01*
X172825676Y-81586759D01*
X172825676Y-81022314D01*
X175647898Y-81022314D01*
X175647898Y-80457870D01*
X176212343Y-80457870D01*
X176212343Y-81022314D01*
X176776787Y-81022314D01*
X176776787Y-81586759D01*
X177341232Y-81586759D01*
G37*
G36*
X178470121Y-86666759D02*
G01*
X177905676Y-86666759D01*
X177905676Y-85537870D01*
X178470121Y-85537870D01*
X178470121Y-86666759D01*
G37*
D11*
X117681471Y-93557096D02*
X117677589Y-93629478D01*
X117672152Y-93698652D01*
X117665159Y-93763550D01*
X117656610Y-93823103D01*
X117646505Y-93876243D01*
X117634845Y-93921901D01*
X117595378Y-94039746D01*
X117550349Y-94147508D01*
X117499428Y-94245360D01*
X117471653Y-94290624D01*
X117442281Y-94333475D01*
X117411269Y-94373935D01*
X117378578Y-94412025D01*
X117344164Y-94447767D01*
X117307987Y-94481182D01*
X117270005Y-94512292D01*
X117230178Y-94541118D01*
X117188462Y-94567683D01*
X117144818Y-94592007D01*
X117099203Y-94614112D01*
X117051576Y-94634020D01*
X117001896Y-94651752D01*
X116950121Y-94667330D01*
X116840122Y-94692109D01*
X116721246Y-94708529D01*
X116593164Y-94716764D01*
X116455542Y-94716984D01*
X116308051Y-94709364D01*
X116150358Y-94694074D01*
X116001505Y-94675863D01*
X115870036Y-94658329D01*
X115815272Y-94650439D01*
X115770196Y-94643466D01*
X115736588Y-94637660D01*
X115716230Y-94633269D01*
X115695521Y-94627939D01*
X115687181Y-94626362D01*
X115680095Y-94625734D01*
X115677002Y-94625828D01*
X115674198Y-94626222D01*
X115671674Y-94626937D01*
X115669423Y-94627994D01*
X115667436Y-94629414D01*
X115665704Y-94631218D01*
X115664219Y-94633427D01*
X115662974Y-94636062D01*
X115661959Y-94639144D01*
X115661167Y-94642693D01*
X115660217Y-94651279D01*
X115660057Y-94661988D01*
X115660621Y-94674986D01*
X115661843Y-94690443D01*
X115663657Y-94708526D01*
X115668793Y-94753240D01*
X115672441Y-94779886D01*
X115677022Y-94806170D01*
X115682522Y-94832074D01*
X115688926Y-94857581D01*
X115696219Y-94882675D01*
X115704388Y-94907338D01*
X115713417Y-94931555D01*
X115723291Y-94955308D01*
X115733998Y-94978580D01*
X115745522Y-95001354D01*
X115757848Y-95023614D01*
X115770962Y-95045343D01*
X115799497Y-95087140D01*
X115831009Y-95126611D01*
X115865384Y-95163619D01*
X115902506Y-95198032D01*
X115922060Y-95214223D01*
X115942257Y-95229715D01*
X115963083Y-95244490D01*
X115984523Y-95258531D01*
X116006563Y-95271823D01*
X116029187Y-95284348D01*
X116052382Y-95296090D01*
X116076133Y-95307031D01*
X116100426Y-95317155D01*
X116125246Y-95326444D01*
X116150578Y-95334883D01*
X116176409Y-95342453D01*
X116207111Y-95348248D01*
X116251124Y-95352814D01*
X116372362Y-95358437D01*
X116526688Y-95359674D01*
X116700668Y-95356876D01*
X116880868Y-95350396D01*
X117053853Y-95340586D01*
X117206188Y-95327797D01*
X117324439Y-95312381D01*
X117358540Y-95306781D01*
X117390777Y-95301982D01*
X117420415Y-95298057D01*
X117446717Y-95295082D01*
X117468948Y-95293131D01*
X117478307Y-95292563D01*
X117486372Y-95292279D01*
X117493051Y-95292288D01*
X117498252Y-95292599D01*
X117501884Y-95293223D01*
X117503082Y-95293654D01*
X117503853Y-95294167D01*
X117505030Y-95295950D01*
X117506334Y-95299034D01*
X117509268Y-95308810D01*
X117512547Y-95322906D01*
X117516063Y-95340733D01*
X117519707Y-95361704D01*
X117523370Y-95385230D01*
X117526943Y-95410723D01*
X117530318Y-95437595D01*
X117546032Y-95570272D01*
X117324445Y-95599817D01*
X117230056Y-95612095D01*
X117136860Y-95623683D01*
X117055601Y-95633278D01*
X116997023Y-95639576D01*
X116997010Y-95639574D01*
X116967380Y-95641552D01*
X116923557Y-95643231D01*
X116801797Y-95645603D01*
X116648659Y-95646497D01*
X116481072Y-95645723D01*
X116353445Y-95644131D01*
X116300008Y-95643078D01*
X116252635Y-95641742D01*
X116210686Y-95640040D01*
X116173521Y-95637889D01*
X116140501Y-95635207D01*
X116110986Y-95631909D01*
X116084335Y-95627914D01*
X116059909Y-95623137D01*
X116037068Y-95617497D01*
X116015172Y-95610908D01*
X115993581Y-95603290D01*
X115971655Y-95594558D01*
X115948755Y-95584629D01*
X115924241Y-95573421D01*
X115890418Y-95557025D01*
X115857580Y-95539762D01*
X115825747Y-95521647D01*
X115794938Y-95502698D01*
X115765171Y-95482930D01*
X115736467Y-95462361D01*
X115708843Y-95441007D01*
X115682320Y-95418885D01*
X115656916Y-95396010D01*
X115632651Y-95372401D01*
X115609543Y-95348073D01*
X115587611Y-95323043D01*
X115566876Y-95297327D01*
X115547355Y-95270942D01*
X115529069Y-95243905D01*
X115512035Y-95216233D01*
X115466769Y-95134068D01*
X115448290Y-95093563D01*
X115432333Y-95050513D01*
X115418713Y-95002722D01*
X115407245Y-94947993D01*
X115397743Y-94884129D01*
X115390023Y-94808933D01*
X115379183Y-94615760D01*
X115373244Y-94350900D01*
X115370136Y-93535820D01*
X115369896Y-92510753D01*
X115660877Y-92510753D01*
X115660877Y-93420162D01*
X115660913Y-93573911D01*
X115661063Y-93709350D01*
X115661392Y-93827660D01*
X115661964Y-93930026D01*
X115662362Y-93975600D01*
X115662844Y-94017632D01*
X115663420Y-94056269D01*
X115664096Y-94091660D01*
X115664882Y-94123952D01*
X115665785Y-94153294D01*
X115666813Y-94179833D01*
X115667975Y-94203718D01*
X115669278Y-94225096D01*
X115670730Y-94244115D01*
X115672340Y-94260923D01*
X115674115Y-94275669D01*
X115675068Y-94282314D01*
X115676064Y-94288499D01*
X115677106Y-94294243D01*
X115678195Y-94299563D01*
X115679331Y-94304478D01*
X115680515Y-94309008D01*
X115681749Y-94313169D01*
X115683033Y-94316981D01*
X115684368Y-94320462D01*
X115685757Y-94323631D01*
X115687198Y-94326506D01*
X115688694Y-94329106D01*
X115690246Y-94331449D01*
X115691854Y-94333554D01*
X115693519Y-94335438D01*
X115695243Y-94337122D01*
X115697027Y-94338623D01*
X115698871Y-94339959D01*
X115700776Y-94341149D01*
X115702744Y-94342212D01*
X115706872Y-94344030D01*
X115711261Y-94345560D01*
X115727240Y-94349552D01*
X115753468Y-94354783D01*
X115831140Y-94368072D01*
X115933209Y-94383652D01*
X116048606Y-94399742D01*
X116168183Y-94414155D01*
X116280453Y-94424522D01*
X116385682Y-94430780D01*
X116484138Y-94432861D01*
X116530909Y-94432315D01*
X116576087Y-94430701D01*
X116619704Y-94428010D01*
X116661795Y-94424233D01*
X116702393Y-94419364D01*
X116741531Y-94413393D01*
X116779242Y-94406313D01*
X116815559Y-94398115D01*
X116850517Y-94388791D01*
X116884149Y-94378333D01*
X116916487Y-94366732D01*
X116947565Y-94353981D01*
X116977416Y-94340071D01*
X117006075Y-94324994D01*
X117033574Y-94308742D01*
X117059946Y-94291307D01*
X117085225Y-94272680D01*
X117109444Y-94252853D01*
X117132637Y-94231819D01*
X117154837Y-94209568D01*
X117176077Y-94186092D01*
X117196391Y-94161385D01*
X117215811Y-94135436D01*
X117234372Y-94108239D01*
X117255383Y-94074574D01*
X117274689Y-94040547D01*
X117292339Y-94005945D01*
X117308381Y-93970556D01*
X117322864Y-93934167D01*
X117335835Y-93896566D01*
X117347342Y-93857539D01*
X117357434Y-93816875D01*
X117366159Y-93774361D01*
X117373564Y-93729783D01*
X117379698Y-93682930D01*
X117384609Y-93633589D01*
X117388345Y-93581548D01*
X117390954Y-93526593D01*
X117392484Y-93468512D01*
X117392983Y-93407093D01*
X117392384Y-93337575D01*
X117390537Y-93272515D01*
X117387368Y-93211644D01*
X117382803Y-93154691D01*
X117376767Y-93101387D01*
X117369186Y-93051463D01*
X117359986Y-93004650D01*
X117349092Y-92960677D01*
X117336430Y-92919277D01*
X117321925Y-92880178D01*
X117305504Y-92843112D01*
X117287091Y-92807809D01*
X117266613Y-92774001D01*
X117243995Y-92741417D01*
X117219163Y-92709788D01*
X117192043Y-92678844D01*
X117160759Y-92645998D01*
X117130331Y-92616678D01*
X117100012Y-92590692D01*
X117069052Y-92567848D01*
X117036704Y-92547953D01*
X117002219Y-92530814D01*
X116964850Y-92516239D01*
X116923847Y-92504036D01*
X116878464Y-92494012D01*
X116827951Y-92485974D01*
X116771560Y-92479730D01*
X116708543Y-92475088D01*
X116638152Y-92471854D01*
X116559639Y-92469837D01*
X116375252Y-92468682D01*
X116279676Y-92469276D01*
X116185553Y-92470642D01*
X116095298Y-92472694D01*
X116011326Y-92475343D01*
X115936051Y-92478501D01*
X115871888Y-92482079D01*
X115821251Y-92485991D01*
X115786554Y-92490148D01*
X115660877Y-92510753D01*
X115369896Y-92510753D01*
X115369835Y-92249025D01*
X115508741Y-92232183D01*
X115732415Y-92207478D01*
X115948973Y-92188255D01*
X116155038Y-92174609D01*
X116347231Y-92166632D01*
X116522175Y-92164420D01*
X116602123Y-92165504D01*
X116676492Y-92168064D01*
X116744859Y-92172113D01*
X116806802Y-92177661D01*
X116861900Y-92184720D01*
X116909729Y-92193302D01*
X116979775Y-92210113D01*
X117046078Y-92230078D01*
X117108736Y-92253287D01*
X117167842Y-92279832D01*
X117223492Y-92309805D01*
X117275781Y-92343297D01*
X117324804Y-92380400D01*
X117370657Y-92421206D01*
X117413434Y-92465807D01*
X117453230Y-92514293D01*
X117490141Y-92566757D01*
X117524262Y-92623291D01*
X117555688Y-92683986D01*
X117584513Y-92748933D01*
X117610834Y-92818225D01*
X117634745Y-92891953D01*
X117646415Y-92937638D01*
X117656530Y-92990801D01*
X117665090Y-93050374D01*
X117672096Y-93115288D01*
X117677546Y-93184475D01*
X117681442Y-93256865D01*
X117684567Y-93406984D01*
X117684565Y-93407093D01*
X117681471Y-93557096D01*
G36*
X117681471Y-93557096D02*
G01*
X117677589Y-93629478D01*
X117672152Y-93698652D01*
X117665159Y-93763550D01*
X117656610Y-93823103D01*
X117646505Y-93876243D01*
X117634845Y-93921901D01*
X117595378Y-94039746D01*
X117550349Y-94147508D01*
X117499428Y-94245360D01*
X117471653Y-94290624D01*
X117442281Y-94333475D01*
X117411269Y-94373935D01*
X117378578Y-94412025D01*
X117344164Y-94447767D01*
X117307987Y-94481182D01*
X117270005Y-94512292D01*
X117230178Y-94541118D01*
X117188462Y-94567683D01*
X117144818Y-94592007D01*
X117099203Y-94614112D01*
X117051576Y-94634020D01*
X117001896Y-94651752D01*
X116950121Y-94667330D01*
X116840122Y-94692109D01*
X116721246Y-94708529D01*
X116593164Y-94716764D01*
X116455542Y-94716984D01*
X116308051Y-94709364D01*
X116150358Y-94694074D01*
X116001505Y-94675863D01*
X115870036Y-94658329D01*
X115815272Y-94650439D01*
X115770196Y-94643466D01*
X115736588Y-94637660D01*
X115716230Y-94633269D01*
X115695521Y-94627939D01*
X115687181Y-94626362D01*
X115680095Y-94625734D01*
X115677002Y-94625828D01*
X115674198Y-94626222D01*
X115671674Y-94626937D01*
X115669423Y-94627994D01*
X115667436Y-94629414D01*
X115665704Y-94631218D01*
X115664219Y-94633427D01*
X115662974Y-94636062D01*
X115661959Y-94639144D01*
X115661167Y-94642693D01*
X115660217Y-94651279D01*
X115660057Y-94661988D01*
X115660621Y-94674986D01*
X115661843Y-94690443D01*
X115663657Y-94708526D01*
X115668793Y-94753240D01*
X115672441Y-94779886D01*
X115677022Y-94806170D01*
X115682522Y-94832074D01*
X115688926Y-94857581D01*
X115696219Y-94882675D01*
X115704388Y-94907338D01*
X115713417Y-94931555D01*
X115723291Y-94955308D01*
X115733998Y-94978580D01*
X115745522Y-95001354D01*
X115757848Y-95023614D01*
X115770962Y-95045343D01*
X115799497Y-95087140D01*
X115831009Y-95126611D01*
X115865384Y-95163619D01*
X115902506Y-95198032D01*
X115922060Y-95214223D01*
X115942257Y-95229715D01*
X115963083Y-95244490D01*
X115984523Y-95258531D01*
X116006563Y-95271823D01*
X116029187Y-95284348D01*
X116052382Y-95296090D01*
X116076133Y-95307031D01*
X116100426Y-95317155D01*
X116125246Y-95326444D01*
X116150578Y-95334883D01*
X116176409Y-95342453D01*
X116207111Y-95348248D01*
X116251124Y-95352814D01*
X116372362Y-95358437D01*
X116526688Y-95359674D01*
X116700668Y-95356876D01*
X116880868Y-95350396D01*
X117053853Y-95340586D01*
X117206188Y-95327797D01*
X117324439Y-95312381D01*
X117358540Y-95306781D01*
X117390777Y-95301982D01*
X117420415Y-95298057D01*
X117446717Y-95295082D01*
X117468948Y-95293131D01*
X117478307Y-95292563D01*
X117486372Y-95292279D01*
X117493051Y-95292288D01*
X117498252Y-95292599D01*
X117501884Y-95293223D01*
X117503082Y-95293654D01*
X117503853Y-95294167D01*
X117505030Y-95295950D01*
X117506334Y-95299034D01*
X117509268Y-95308810D01*
X117512547Y-95322906D01*
X117516063Y-95340733D01*
X117519707Y-95361704D01*
X117523370Y-95385230D01*
X117526943Y-95410723D01*
X117530318Y-95437595D01*
X117546032Y-95570272D01*
X117324445Y-95599817D01*
X117230056Y-95612095D01*
X117136860Y-95623683D01*
X117055601Y-95633278D01*
X116997023Y-95639576D01*
X116997010Y-95639574D01*
X116967380Y-95641552D01*
X116923557Y-95643231D01*
X116801797Y-95645603D01*
X116648659Y-95646497D01*
X116481072Y-95645723D01*
X116353445Y-95644131D01*
X116300008Y-95643078D01*
X116252635Y-95641742D01*
X116210686Y-95640040D01*
X116173521Y-95637889D01*
X116140501Y-95635207D01*
X116110986Y-95631909D01*
X116084335Y-95627914D01*
X116059909Y-95623137D01*
X116037068Y-95617497D01*
X116015172Y-95610908D01*
X115993581Y-95603290D01*
X115971655Y-95594558D01*
X115948755Y-95584629D01*
X115924241Y-95573421D01*
X115890418Y-95557025D01*
X115857580Y-95539762D01*
X115825747Y-95521647D01*
X115794938Y-95502698D01*
X115765171Y-95482930D01*
X115736467Y-95462361D01*
X115708843Y-95441007D01*
X115682320Y-95418885D01*
X115656916Y-95396010D01*
X115632651Y-95372401D01*
X115609543Y-95348073D01*
X115587611Y-95323043D01*
X115566876Y-95297327D01*
X115547355Y-95270942D01*
X115529069Y-95243905D01*
X115512035Y-95216233D01*
X115466769Y-95134068D01*
X115448290Y-95093563D01*
X115432333Y-95050513D01*
X115418713Y-95002722D01*
X115407245Y-94947993D01*
X115397743Y-94884129D01*
X115390023Y-94808933D01*
X115379183Y-94615760D01*
X115373244Y-94350900D01*
X115370136Y-93535820D01*
X115369896Y-92510753D01*
X115660877Y-92510753D01*
X115660877Y-93420162D01*
X115660913Y-93573911D01*
X115661063Y-93709350D01*
X115661392Y-93827660D01*
X115661964Y-93930026D01*
X115662362Y-93975600D01*
X115662844Y-94017632D01*
X115663420Y-94056269D01*
X115664096Y-94091660D01*
X115664882Y-94123952D01*
X115665785Y-94153294D01*
X115666813Y-94179833D01*
X115667975Y-94203718D01*
X115669278Y-94225096D01*
X115670730Y-94244115D01*
X115672340Y-94260923D01*
X115674115Y-94275669D01*
X115675068Y-94282314D01*
X115676064Y-94288499D01*
X115677106Y-94294243D01*
X115678195Y-94299563D01*
X115679331Y-94304478D01*
X115680515Y-94309008D01*
X115681749Y-94313169D01*
X115683033Y-94316981D01*
X115684368Y-94320462D01*
X115685757Y-94323631D01*
X115687198Y-94326506D01*
X115688694Y-94329106D01*
X115690246Y-94331449D01*
X115691854Y-94333554D01*
X115693519Y-94335438D01*
X115695243Y-94337122D01*
X115697027Y-94338623D01*
X115698871Y-94339959D01*
X115700776Y-94341149D01*
X115702744Y-94342212D01*
X115706872Y-94344030D01*
X115711261Y-94345560D01*
X115727240Y-94349552D01*
X115753468Y-94354783D01*
X115831140Y-94368072D01*
X115933209Y-94383652D01*
X116048606Y-94399742D01*
X116168183Y-94414155D01*
X116280453Y-94424522D01*
X116385682Y-94430780D01*
X116484138Y-94432861D01*
X116530909Y-94432315D01*
X116576087Y-94430701D01*
X116619704Y-94428010D01*
X116661795Y-94424233D01*
X116702393Y-94419364D01*
X116741531Y-94413393D01*
X116779242Y-94406313D01*
X116815559Y-94398115D01*
X116850517Y-94388791D01*
X116884149Y-94378333D01*
X116916487Y-94366732D01*
X116947565Y-94353981D01*
X116977416Y-94340071D01*
X117006075Y-94324994D01*
X117033574Y-94308742D01*
X117059946Y-94291307D01*
X117085225Y-94272680D01*
X117109444Y-94252853D01*
X117132637Y-94231819D01*
X117154837Y-94209568D01*
X117176077Y-94186092D01*
X117196391Y-94161385D01*
X117215811Y-94135436D01*
X117234372Y-94108239D01*
X117255383Y-94074574D01*
X117274689Y-94040547D01*
X117292339Y-94005945D01*
X117308381Y-93970556D01*
X117322864Y-93934167D01*
X117335835Y-93896566D01*
X117347342Y-93857539D01*
X117357434Y-93816875D01*
X117366159Y-93774361D01*
X117373564Y-93729783D01*
X117379698Y-93682930D01*
X117384609Y-93633589D01*
X117388345Y-93581548D01*
X117390954Y-93526593D01*
X117392484Y-93468512D01*
X117392983Y-93407093D01*
X117392384Y-93337575D01*
X117390537Y-93272515D01*
X117387368Y-93211644D01*
X117382803Y-93154691D01*
X117376767Y-93101387D01*
X117369186Y-93051463D01*
X117359986Y-93004650D01*
X117349092Y-92960677D01*
X117336430Y-92919277D01*
X117321925Y-92880178D01*
X117305504Y-92843112D01*
X117287091Y-92807809D01*
X117266613Y-92774001D01*
X117243995Y-92741417D01*
X117219163Y-92709788D01*
X117192043Y-92678844D01*
X117160759Y-92645998D01*
X117130331Y-92616678D01*
X117100012Y-92590692D01*
X117069052Y-92567848D01*
X117036704Y-92547953D01*
X117002219Y-92530814D01*
X116964850Y-92516239D01*
X116923847Y-92504036D01*
X116878464Y-92494012D01*
X116827951Y-92485974D01*
X116771560Y-92479730D01*
X116708543Y-92475088D01*
X116638152Y-92471854D01*
X116559639Y-92469837D01*
X116375252Y-92468682D01*
X116279676Y-92469276D01*
X116185553Y-92470642D01*
X116095298Y-92472694D01*
X116011326Y-92475343D01*
X115936051Y-92478501D01*
X115871888Y-92482079D01*
X115821251Y-92485991D01*
X115786554Y-92490148D01*
X115660877Y-92510753D01*
X115369896Y-92510753D01*
X115369835Y-92249025D01*
X115508741Y-92232183D01*
X115732415Y-92207478D01*
X115948973Y-92188255D01*
X116155038Y-92174609D01*
X116347231Y-92166632D01*
X116522175Y-92164420D01*
X116602123Y-92165504D01*
X116676492Y-92168064D01*
X116744859Y-92172113D01*
X116806802Y-92177661D01*
X116861900Y-92184720D01*
X116909729Y-92193302D01*
X116979775Y-92210113D01*
X117046078Y-92230078D01*
X117108736Y-92253287D01*
X117167842Y-92279832D01*
X117223492Y-92309805D01*
X117275781Y-92343297D01*
X117324804Y-92380400D01*
X117370657Y-92421206D01*
X117413434Y-92465807D01*
X117453230Y-92514293D01*
X117490141Y-92566757D01*
X117524262Y-92623291D01*
X117555688Y-92683986D01*
X117584513Y-92748933D01*
X117610834Y-92818225D01*
X117634745Y-92891953D01*
X117646415Y-92937638D01*
X117656530Y-92990801D01*
X117665090Y-93050374D01*
X117672096Y-93115288D01*
X117677546Y-93184475D01*
X117681442Y-93256865D01*
X117684567Y-93406984D01*
X117684565Y-93407093D01*
X117681471Y-93557096D01*
G37*
D10*
G36*
X179599009Y-81586759D02*
G01*
X179034565Y-81586759D01*
X179034565Y-81022314D01*
X179599009Y-81022314D01*
X179599009Y-81586759D01*
G37*
G36*
X176212343Y-94004536D02*
G01*
X175647898Y-94004536D01*
X175647898Y-93440092D01*
X176212343Y-93440092D01*
X176212343Y-94004536D01*
G37*
G36*
X184114565Y-86102314D02*
G01*
X183550121Y-86102314D01*
X183550121Y-85537870D01*
X182985676Y-85537870D01*
X182985676Y-86666759D01*
X182421232Y-86666759D01*
X182421232Y-87231203D01*
X181856787Y-87231203D01*
X181856787Y-88360092D01*
X181292343Y-88360092D01*
X181292343Y-89488981D01*
X181856787Y-89488981D01*
X181856787Y-88924537D01*
X182421232Y-88924537D01*
X182421232Y-90617870D01*
X182985676Y-90617870D01*
X182985676Y-90053425D01*
X183550121Y-90053425D01*
X183550121Y-88924537D01*
X182421232Y-88924537D01*
X182421232Y-88360092D01*
X184114565Y-88360092D01*
X184114565Y-92311203D01*
X183550121Y-92311203D01*
X183550121Y-90617870D01*
X182985676Y-90617870D01*
X182985676Y-91182315D01*
X182421232Y-91182315D01*
X182421232Y-90617870D01*
X181856787Y-90617870D01*
X181856787Y-90053425D01*
X180163454Y-90053425D01*
X180163454Y-89488981D01*
X180727898Y-89488981D01*
X180727898Y-88924537D01*
X180163454Y-88924537D01*
X180163454Y-88360092D01*
X179599009Y-88360092D01*
X179599009Y-88924537D01*
X179034565Y-88924537D01*
X179034565Y-87795648D01*
X180163454Y-87795648D01*
X180163454Y-88360092D01*
X180727898Y-88360092D01*
X180727898Y-87795648D01*
X181292343Y-87795648D01*
X181292343Y-84973426D01*
X184114565Y-84973426D01*
X184114565Y-86102314D01*
G37*
D11*
X113754446Y-92178016D02*
X113863587Y-92180210D01*
X113974240Y-92183627D01*
X114083176Y-92188116D01*
X114187166Y-92193529D01*
X114282983Y-92199713D01*
X114367397Y-92206520D01*
X114437180Y-92213799D01*
X114734836Y-92249991D01*
X114734836Y-93463543D01*
X114734838Y-94677092D01*
X114443795Y-94677092D01*
X114443795Y-92510753D01*
X114318117Y-92489838D01*
X114282881Y-92485625D01*
X114230695Y-92481673D01*
X114085572Y-92474904D01*
X113902932Y-92470236D01*
X113702961Y-92468373D01*
X113548887Y-92468469D01*
X113484974Y-92468846D01*
X113428816Y-92469543D01*
X113379665Y-92470634D01*
X113336777Y-92472195D01*
X113299403Y-92474301D01*
X113266799Y-92477026D01*
X113238219Y-92480445D01*
X113225204Y-92482439D01*
X113212915Y-92484634D01*
X113201258Y-92487041D01*
X113190141Y-92489667D01*
X113179470Y-92492524D01*
X113169152Y-92495620D01*
X113149202Y-92502566D01*
X113129543Y-92510582D01*
X113109429Y-92519742D01*
X113088115Y-92530121D01*
X113058589Y-92545591D01*
X113030378Y-92562021D01*
X113003437Y-92579464D01*
X112977722Y-92597971D01*
X112953185Y-92617594D01*
X112929784Y-92638387D01*
X112907471Y-92660400D01*
X112886203Y-92683686D01*
X112865934Y-92708298D01*
X112846618Y-92734286D01*
X112828211Y-92761704D01*
X112810667Y-92790604D01*
X112793941Y-92821037D01*
X112777988Y-92853056D01*
X112762763Y-92886713D01*
X112748220Y-92922060D01*
X112729104Y-92973944D01*
X112714306Y-93026302D01*
X112703120Y-93088533D01*
X112694845Y-93170035D01*
X112688776Y-93280207D01*
X112684210Y-93428448D01*
X112676775Y-93876729D01*
X112665915Y-94677094D01*
X112380045Y-94677094D01*
X112380245Y-94035480D01*
X112380984Y-93848621D01*
X112383228Y-93678675D01*
X112387198Y-93524528D01*
X112393119Y-93385068D01*
X112401213Y-93259183D01*
X112411702Y-93145761D01*
X112424810Y-93043690D01*
X112432415Y-92996563D01*
X112440758Y-92951856D01*
X112449868Y-92909431D01*
X112459771Y-92869149D01*
X112470496Y-92830869D01*
X112482071Y-92794455D01*
X112494523Y-92759765D01*
X112507880Y-92726662D01*
X112522171Y-92695005D01*
X112537422Y-92664657D01*
X112553662Y-92635479D01*
X112570919Y-92607330D01*
X112589221Y-92580072D01*
X112608594Y-92553566D01*
X112629068Y-92527674D01*
X112650670Y-92502255D01*
X112697370Y-92452283D01*
X112716158Y-92433625D01*
X112734846Y-92415784D01*
X112753462Y-92398739D01*
X112772035Y-92382472D01*
X112790594Y-92366962D01*
X112809167Y-92352189D01*
X112827784Y-92338133D01*
X112846472Y-92324775D01*
X112865261Y-92312093D01*
X112884180Y-92300070D01*
X112903256Y-92288683D01*
X112922519Y-92277915D01*
X112941997Y-92267743D01*
X112961719Y-92258150D01*
X112981714Y-92249114D01*
X113002010Y-92240616D01*
X113053585Y-92220782D01*
X113101454Y-92205535D01*
X113125892Y-92199446D01*
X113151674Y-92194282D01*
X113179559Y-92189968D01*
X113210303Y-92186431D01*
X113283397Y-92181389D01*
X113377014Y-92178564D01*
X113497211Y-92177363D01*
X113650045Y-92177195D01*
X113754446Y-92178016D01*
G36*
X113754446Y-92178016D02*
G01*
X113863587Y-92180210D01*
X113974240Y-92183627D01*
X114083176Y-92188116D01*
X114187166Y-92193529D01*
X114282983Y-92199713D01*
X114367397Y-92206520D01*
X114437180Y-92213799D01*
X114734836Y-92249991D01*
X114734836Y-93463543D01*
X114734838Y-94677092D01*
X114443795Y-94677092D01*
X114443795Y-92510753D01*
X114318117Y-92489838D01*
X114282881Y-92485625D01*
X114230695Y-92481673D01*
X114085572Y-92474904D01*
X113902932Y-92470236D01*
X113702961Y-92468373D01*
X113548887Y-92468469D01*
X113484974Y-92468846D01*
X113428816Y-92469543D01*
X113379665Y-92470634D01*
X113336777Y-92472195D01*
X113299403Y-92474301D01*
X113266799Y-92477026D01*
X113238219Y-92480445D01*
X113225204Y-92482439D01*
X113212915Y-92484634D01*
X113201258Y-92487041D01*
X113190141Y-92489667D01*
X113179470Y-92492524D01*
X113169152Y-92495620D01*
X113149202Y-92502566D01*
X113129543Y-92510582D01*
X113109429Y-92519742D01*
X113088115Y-92530121D01*
X113058589Y-92545591D01*
X113030378Y-92562021D01*
X113003437Y-92579464D01*
X112977722Y-92597971D01*
X112953185Y-92617594D01*
X112929784Y-92638387D01*
X112907471Y-92660400D01*
X112886203Y-92683686D01*
X112865934Y-92708298D01*
X112846618Y-92734286D01*
X112828211Y-92761704D01*
X112810667Y-92790604D01*
X112793941Y-92821037D01*
X112777988Y-92853056D01*
X112762763Y-92886713D01*
X112748220Y-92922060D01*
X112729104Y-92973944D01*
X112714306Y-93026302D01*
X112703120Y-93088533D01*
X112694845Y-93170035D01*
X112688776Y-93280207D01*
X112684210Y-93428448D01*
X112676775Y-93876729D01*
X112665915Y-94677094D01*
X112380045Y-94677094D01*
X112380245Y-94035480D01*
X112380984Y-93848621D01*
X112383228Y-93678675D01*
X112387198Y-93524528D01*
X112393119Y-93385068D01*
X112401213Y-93259183D01*
X112411702Y-93145761D01*
X112424810Y-93043690D01*
X112432415Y-92996563D01*
X112440758Y-92951856D01*
X112449868Y-92909431D01*
X112459771Y-92869149D01*
X112470496Y-92830869D01*
X112482071Y-92794455D01*
X112494523Y-92759765D01*
X112507880Y-92726662D01*
X112522171Y-92695005D01*
X112537422Y-92664657D01*
X112553662Y-92635479D01*
X112570919Y-92607330D01*
X112589221Y-92580072D01*
X112608594Y-92553566D01*
X112629068Y-92527674D01*
X112650670Y-92502255D01*
X112697370Y-92452283D01*
X112716158Y-92433625D01*
X112734846Y-92415784D01*
X112753462Y-92398739D01*
X112772035Y-92382472D01*
X112790594Y-92366962D01*
X112809167Y-92352189D01*
X112827784Y-92338133D01*
X112846472Y-92324775D01*
X112865261Y-92312093D01*
X112884180Y-92300070D01*
X112903256Y-92288683D01*
X112922519Y-92277915D01*
X112941997Y-92267743D01*
X112961719Y-92258150D01*
X112981714Y-92249114D01*
X113002010Y-92240616D01*
X113053585Y-92220782D01*
X113101454Y-92205535D01*
X113125892Y-92199446D01*
X113151674Y-92194282D01*
X113179559Y-92189968D01*
X113210303Y-92186431D01*
X113283397Y-92181389D01*
X113377014Y-92178564D01*
X113497211Y-92177363D01*
X113650045Y-92177195D01*
X113754446Y-92178016D01*
G37*
D10*
G36*
X168874565Y-86102314D02*
G01*
X168310120Y-86102314D01*
X168310120Y-84973426D01*
X168874565Y-84973426D01*
X168874565Y-86102314D01*
G37*
G36*
X177341232Y-86102314D02*
G01*
X176776787Y-86102314D01*
X176776787Y-85537870D01*
X177341232Y-85537870D01*
X177341232Y-86102314D01*
G37*
D11*
X116457490Y-80091175D02*
X116733316Y-80109089D01*
X116867598Y-80122144D01*
X116998461Y-80137926D01*
X117125157Y-80156430D01*
X117246938Y-80177654D01*
X117323561Y-80196524D01*
X117439206Y-80230089D01*
X117579034Y-80273453D01*
X117728205Y-80321724D01*
X117871877Y-80370010D01*
X117995210Y-80413416D01*
X118083365Y-80447050D01*
X118109613Y-80458673D01*
X118121501Y-80466018D01*
X118124050Y-80468269D01*
X118128884Y-80471642D01*
X118144905Y-80481477D01*
X118168562Y-80494982D01*
X118198851Y-80511611D01*
X118275306Y-80552070D01*
X118366241Y-80598507D01*
X118412747Y-80622221D01*
X118456132Y-80645020D01*
X118495448Y-80666356D01*
X118529745Y-80685682D01*
X118544715Y-80694421D01*
X118558074Y-80702452D01*
X118569703Y-80709707D01*
X118579484Y-80716117D01*
X118587298Y-80721615D01*
X118593026Y-80726131D01*
X118596550Y-80729597D01*
X118597449Y-80730915D01*
X118597751Y-80731945D01*
X118597924Y-80732926D01*
X118598435Y-80734096D01*
X118600441Y-80736983D01*
X118603701Y-80740557D01*
X118608149Y-80744769D01*
X118620335Y-80754912D01*
X118636458Y-80767022D01*
X118655979Y-80780707D01*
X118678356Y-80795577D01*
X118703049Y-80811239D01*
X118729519Y-80827304D01*
X118742944Y-80835364D01*
X118755998Y-80843377D01*
X118768613Y-80851295D01*
X118780721Y-80859067D01*
X118792254Y-80866645D01*
X118803145Y-80873979D01*
X118813326Y-80881021D01*
X118822729Y-80887721D01*
X118831286Y-80894030D01*
X118838929Y-80899900D01*
X118845592Y-80905280D01*
X118851205Y-80910122D01*
X118855701Y-80914377D01*
X118859013Y-80917995D01*
X118860203Y-80919550D01*
X118861072Y-80920928D01*
X118861611Y-80922122D01*
X118861811Y-80923126D01*
X118862525Y-80925444D01*
X118864514Y-80928731D01*
X118867714Y-80932924D01*
X118872059Y-80937964D01*
X118883921Y-80950335D01*
X118899575Y-80965358D01*
X118918497Y-80982543D01*
X118940164Y-81001402D01*
X118964050Y-81021446D01*
X118989632Y-81042189D01*
X119034759Y-81079640D01*
X119081850Y-81121530D01*
X119130563Y-81167452D01*
X119180553Y-81216999D01*
X119231476Y-81269766D01*
X119282987Y-81325345D01*
X119386402Y-81443316D01*
X119488045Y-81567659D01*
X119585163Y-81695122D01*
X119631166Y-81759008D01*
X119675006Y-81822454D01*
X119716338Y-81885054D01*
X119754820Y-81946402D01*
X119881532Y-82165886D01*
X119996974Y-82393824D01*
X120105592Y-82642902D01*
X120211831Y-82925806D01*
X120320135Y-83255221D01*
X120434949Y-83643832D01*
X120560717Y-84104326D01*
X120701885Y-84649387D01*
X120825366Y-85130399D01*
X120874852Y-85317980D01*
X120919163Y-85481112D01*
X120960546Y-85627922D01*
X121001249Y-85766536D01*
X121089599Y-86051679D01*
X121155999Y-86253385D01*
X121224691Y-86447913D01*
X121295670Y-86635251D01*
X121368928Y-86815384D01*
X121444457Y-86988301D01*
X121522250Y-87153989D01*
X121602300Y-87312434D01*
X121684600Y-87463624D01*
X121769143Y-87607546D01*
X121855920Y-87744187D01*
X121944925Y-87873534D01*
X122036151Y-87995573D01*
X122129589Y-88110293D01*
X122225234Y-88217681D01*
X122323077Y-88317722D01*
X122423111Y-88410405D01*
X122536255Y-88509746D01*
X122627302Y-88589024D01*
X122699605Y-88650966D01*
X122729774Y-88676287D01*
X122756514Y-88698297D01*
X122780243Y-88717334D01*
X122801380Y-88733741D01*
X122820345Y-88747858D01*
X122837555Y-88760025D01*
X122853429Y-88770584D01*
X122868388Y-88779874D01*
X122882849Y-88788237D01*
X122897231Y-88796013D01*
X122914796Y-88805596D01*
X122934314Y-88816892D01*
X122955134Y-88829488D01*
X122976606Y-88842966D01*
X122998078Y-88856912D01*
X123018898Y-88870908D01*
X123038416Y-88884540D01*
X123055981Y-88897391D01*
X123065028Y-88903799D01*
X123075706Y-88910658D01*
X123101415Y-88925482D01*
X123132023Y-88941363D01*
X123166445Y-88957802D01*
X123203595Y-88974299D01*
X123242389Y-88990355D01*
X123281740Y-89005471D01*
X123320565Y-89019147D01*
X123358039Y-89031946D01*
X123393522Y-89044548D01*
X123426198Y-89056630D01*
X123455254Y-89067869D01*
X123479877Y-89077941D01*
X123490271Y-89082439D01*
X123499251Y-89086524D01*
X123506717Y-89090156D01*
X123512565Y-89093294D01*
X123516694Y-89095897D01*
X123518082Y-89096986D01*
X123519002Y-89097927D01*
X123521624Y-89099808D01*
X123526674Y-89101978D01*
X123543522Y-89107075D01*
X123568487Y-89113013D01*
X123600505Y-89119586D01*
X123638516Y-89126589D01*
X123681457Y-89133814D01*
X123728266Y-89141057D01*
X123777882Y-89148111D01*
X123846825Y-89156828D01*
X123908806Y-89163087D01*
X123965952Y-89166894D01*
X123993377Y-89167880D01*
X124020391Y-89168254D01*
X124047261Y-89168018D01*
X124074252Y-89167172D01*
X124101632Y-89165717D01*
X124129664Y-89163654D01*
X124188755Y-89157706D01*
X124253652Y-89149332D01*
X124300428Y-89142418D01*
X124345129Y-89135104D01*
X124386700Y-89127611D01*
X124424087Y-89120162D01*
X124456236Y-89112977D01*
X124470017Y-89109554D01*
X124482093Y-89106280D01*
X124492332Y-89103183D01*
X124500602Y-89100291D01*
X124506772Y-89097632D01*
X124510710Y-89095234D01*
X124514178Y-89092788D01*
X124518970Y-89089992D01*
X124532184Y-89083479D01*
X124549667Y-89075952D01*
X124570738Y-89067670D01*
X124594712Y-89058892D01*
X124620908Y-89049875D01*
X124648642Y-89040880D01*
X124677231Y-89032164D01*
X124715318Y-89019374D01*
X124756685Y-89002620D01*
X124800848Y-88982232D01*
X124847325Y-88958538D01*
X124895630Y-88931865D01*
X124945281Y-88902543D01*
X124995793Y-88870897D01*
X125046683Y-88837258D01*
X125097467Y-88801952D01*
X125147661Y-88765309D01*
X125196781Y-88727655D01*
X125244344Y-88689319D01*
X125289866Y-88650629D01*
X125332862Y-88611914D01*
X125372850Y-88573500D01*
X125409345Y-88535717D01*
X125456966Y-88482522D01*
X125503548Y-88426978D01*
X125548989Y-88369271D01*
X125593183Y-88309587D01*
X125636026Y-88248111D01*
X125677413Y-88185031D01*
X125717239Y-88120532D01*
X125755400Y-88054799D01*
X125791790Y-87988020D01*
X125826306Y-87920381D01*
X125858842Y-87852066D01*
X125889295Y-87783263D01*
X125917558Y-87714157D01*
X125943528Y-87644935D01*
X125967100Y-87575782D01*
X125988169Y-87506885D01*
X126003885Y-87445906D01*
X126022785Y-87362888D01*
X126043241Y-87266199D01*
X126063626Y-87164205D01*
X126082313Y-87065274D01*
X126097676Y-86977772D01*
X126108087Y-86910067D01*
X126110927Y-86886252D01*
X126111919Y-86870525D01*
X126112153Y-86869432D01*
X126112846Y-86868309D01*
X126115564Y-86865984D01*
X126119983Y-86863567D01*
X126126011Y-86861078D01*
X126133557Y-86858537D01*
X126142528Y-86855963D01*
X126164381Y-86850794D01*
X126190839Y-86845726D01*
X126221168Y-86840914D01*
X126254637Y-86836514D01*
X126290513Y-86832680D01*
X126382823Y-86823237D01*
X126502138Y-86810063D01*
X126760148Y-86779499D01*
X126929173Y-86759982D01*
X127110642Y-86741609D01*
X127294513Y-86725114D01*
X127470742Y-86711229D01*
X127629286Y-86700687D01*
X127760103Y-86694221D01*
X127853149Y-86692563D01*
X127882369Y-86693766D01*
X127898381Y-86696447D01*
X127906162Y-86700872D01*
X127912823Y-86708061D01*
X127918352Y-86718484D01*
X127922739Y-86732607D01*
X127925972Y-86750901D01*
X127928040Y-86773834D01*
X127928631Y-86835489D01*
X127924422Y-86921321D01*
X127915320Y-87035078D01*
X127901234Y-87180510D01*
X127882072Y-87361365D01*
X127870304Y-87455235D01*
X127855126Y-87552630D01*
X127836740Y-87652894D01*
X127815350Y-87755371D01*
X127791160Y-87859404D01*
X127764374Y-87964337D01*
X127735195Y-88069514D01*
X127703827Y-88174279D01*
X127670474Y-88277975D01*
X127635340Y-88379947D01*
X127598628Y-88479537D01*
X127560542Y-88576090D01*
X127521286Y-88668949D01*
X127481064Y-88757458D01*
X127440079Y-88840961D01*
X127398535Y-88918802D01*
X127355910Y-88992549D01*
X127309686Y-89067647D01*
X127260147Y-89143754D01*
X127207576Y-89220529D01*
X127152256Y-89297631D01*
X127094471Y-89374719D01*
X127034504Y-89451450D01*
X126972638Y-89527485D01*
X126909156Y-89602481D01*
X126844342Y-89676098D01*
X126778479Y-89747994D01*
X126711850Y-89817828D01*
X126644738Y-89885259D01*
X126577426Y-89949945D01*
X126510198Y-90011545D01*
X126443338Y-90069718D01*
X126344868Y-90149085D01*
X126239754Y-90226342D01*
X126128689Y-90301193D01*
X126012365Y-90373341D01*
X125891474Y-90442489D01*
X125766709Y-90508341D01*
X125638761Y-90570600D01*
X125508324Y-90628969D01*
X125376089Y-90683152D01*
X125242749Y-90732852D01*
X125108997Y-90777772D01*
X124975524Y-90817616D01*
X124843022Y-90852087D01*
X124712185Y-90880889D01*
X124583705Y-90903724D01*
X124458273Y-90920296D01*
X124458271Y-90920298D01*
X124337524Y-90929082D01*
X124188914Y-90933320D01*
X124022362Y-90933335D01*
X123847787Y-90929452D01*
X123675109Y-90921993D01*
X123514246Y-90911284D01*
X123375118Y-90897648D01*
X123316805Y-90889834D01*
X123267646Y-90881409D01*
X123153735Y-90856718D01*
X123036489Y-90827080D01*
X122916720Y-90792854D01*
X122795238Y-90754403D01*
X122672857Y-90712087D01*
X122550389Y-90666268D01*
X122428644Y-90617307D01*
X122308436Y-90565565D01*
X122190576Y-90511403D01*
X122075877Y-90455183D01*
X121965149Y-90397266D01*
X121859205Y-90338013D01*
X121758858Y-90277784D01*
X121664919Y-90216943D01*
X121578199Y-90155848D01*
X121499512Y-90094863D01*
X121414562Y-90023993D01*
X121321130Y-89943598D01*
X121223830Y-89857874D01*
X121127277Y-89771015D01*
X121036085Y-89687215D01*
X120954869Y-89610669D01*
X120888245Y-89545572D01*
X120840825Y-89496119D01*
X120797901Y-89446039D01*
X120742240Y-89377525D01*
X120678653Y-89296877D01*
X120611949Y-89210393D01*
X120546937Y-89124371D01*
X120488426Y-89045111D01*
X120441225Y-88978910D01*
X120410145Y-88932068D01*
X120213151Y-88596401D01*
X120034025Y-88261010D01*
X119868086Y-87914243D01*
X119710653Y-87544447D01*
X119557043Y-87139966D01*
X119402575Y-86689149D01*
X119242568Y-86180340D01*
X119072340Y-85601886D01*
X118953538Y-85193530D01*
X118841448Y-84822003D01*
X118734935Y-84485113D01*
X118632862Y-84180669D01*
X118534093Y-83906478D01*
X118437495Y-83660349D01*
X118389654Y-83547122D01*
X118341930Y-83440089D01*
X118294180Y-83338976D01*
X118246262Y-83243508D01*
X118198036Y-83153411D01*
X118149358Y-83068412D01*
X118100086Y-82988237D01*
X118050080Y-82912611D01*
X117999196Y-82841261D01*
X117947293Y-82773912D01*
X117894229Y-82710291D01*
X117839862Y-82650123D01*
X117784049Y-82593136D01*
X117726650Y-82539053D01*
X117667522Y-82487603D01*
X117606523Y-82438510D01*
X117543511Y-82391501D01*
X117478344Y-82346302D01*
X117410880Y-82302638D01*
X117340978Y-82260237D01*
X117215404Y-82194336D01*
X117079058Y-82137387D01*
X116933558Y-82089379D01*
X116780517Y-82050303D01*
X116621554Y-82020148D01*
X116458283Y-81998906D01*
X116292322Y-81986566D01*
X116125285Y-81983120D01*
X115958789Y-81988557D01*
X115794450Y-82002867D01*
X115633884Y-82026042D01*
X115478707Y-82058071D01*
X115330535Y-82098945D01*
X115190985Y-82148654D01*
X115061671Y-82207189D01*
X114944211Y-82274540D01*
X114913980Y-82294814D01*
X114882926Y-82317001D01*
X114851432Y-82340737D01*
X114819882Y-82365659D01*
X114788657Y-82391403D01*
X114758140Y-82417604D01*
X114728714Y-82443899D01*
X114700761Y-82469924D01*
X114674664Y-82495314D01*
X114650806Y-82519707D01*
X114629568Y-82542737D01*
X114611334Y-82564042D01*
X114596486Y-82583257D01*
X114585406Y-82600018D01*
X114581400Y-82607365D01*
X114578478Y-82613961D01*
X114576690Y-82619763D01*
X114576084Y-82624723D01*
X114575699Y-82627204D01*
X114574568Y-82630597D01*
X114572731Y-82634842D01*
X114570224Y-82639881D01*
X114563356Y-82652099D01*
X114554269Y-82666777D01*
X114543267Y-82683439D01*
X114530655Y-82701610D01*
X114516738Y-82720815D01*
X114501819Y-82740580D01*
X114484827Y-82763997D01*
X114464967Y-82793672D01*
X114442960Y-82828397D01*
X114419527Y-82866961D01*
X114395389Y-82908155D01*
X114371268Y-82950771D01*
X114347885Y-82993598D01*
X114325962Y-83035428D01*
X114298813Y-83087934D01*
X114273194Y-83136322D01*
X114248880Y-83180900D01*
X114225648Y-83221974D01*
X114203275Y-83259854D01*
X114181538Y-83294848D01*
X114160213Y-83327262D01*
X114139078Y-83357405D01*
X114117908Y-83385585D01*
X114096481Y-83412109D01*
X114074572Y-83437285D01*
X114051960Y-83461422D01*
X114028420Y-83484827D01*
X114003730Y-83507808D01*
X113977665Y-83530673D01*
X113950004Y-83553729D01*
X113915536Y-83580926D01*
X113882017Y-83605081D01*
X113848338Y-83626373D01*
X113813394Y-83644979D01*
X113776077Y-83661076D01*
X113735279Y-83674842D01*
X113689895Y-83686454D01*
X113638816Y-83696090D01*
X113580936Y-83703928D01*
X113515148Y-83710145D01*
X113440345Y-83714918D01*
X113355419Y-83718425D01*
X113150773Y-83722352D01*
X112892353Y-83723345D01*
X112243100Y-83723345D01*
X112257552Y-83624126D01*
X112264475Y-83574118D01*
X112272640Y-83511305D01*
X112281026Y-83443718D01*
X112288613Y-83379386D01*
X112302298Y-83274840D01*
X112319718Y-83167528D01*
X112340681Y-83058032D01*
X112364994Y-82946929D01*
X112392464Y-82834799D01*
X112422898Y-82722221D01*
X112456103Y-82609775D01*
X112491887Y-82498040D01*
X112530057Y-82387596D01*
X112570419Y-82279021D01*
X112612782Y-82172895D01*
X112656951Y-82069798D01*
X112702735Y-81970309D01*
X112749941Y-81875007D01*
X112798375Y-81784471D01*
X112847844Y-81699282D01*
X112882491Y-81644480D01*
X112921357Y-81587202D01*
X112963958Y-81527985D01*
X113009808Y-81467367D01*
X113058422Y-81405885D01*
X113109315Y-81344075D01*
X113162002Y-81282474D01*
X113215997Y-81221621D01*
X113270815Y-81162051D01*
X113325970Y-81104303D01*
X113380977Y-81048912D01*
X113435352Y-80996417D01*
X113488608Y-80947353D01*
X113540261Y-80902259D01*
X113589824Y-80861672D01*
X113636814Y-80826127D01*
X113658621Y-80810160D01*
X113680024Y-80794037D01*
X113700479Y-80778198D01*
X113719441Y-80763084D01*
X113736367Y-80749136D01*
X113750711Y-80736794D01*
X113756746Y-80731363D01*
X113761931Y-80726499D01*
X113766199Y-80722257D01*
X113769481Y-80718692D01*
X113773243Y-80715007D01*
X113778915Y-80710414D01*
X113795529Y-80698766D01*
X113818403Y-80684286D01*
X113846614Y-80667509D01*
X113879239Y-80648969D01*
X113915357Y-80629203D01*
X113954044Y-80608747D01*
X113994378Y-80588134D01*
X114034433Y-80567767D01*
X114072324Y-80548010D01*
X114107182Y-80529352D01*
X114138142Y-80512278D01*
X114164337Y-80497275D01*
X114184901Y-80484829D01*
X114192800Y-80479717D01*
X114198967Y-80475426D01*
X114203292Y-80472018D01*
X114205668Y-80469554D01*
X114218118Y-80460169D01*
X114244269Y-80446989D01*
X114331089Y-80411402D01*
X114452971Y-80367117D01*
X114596757Y-80318457D01*
X114749288Y-80269747D01*
X114897406Y-80225309D01*
X115027954Y-80189469D01*
X115127773Y-80166549D01*
X115244687Y-80146576D01*
X115367166Y-80129377D01*
X115494461Y-80114948D01*
X115625823Y-80103285D01*
X115897755Y-80088242D01*
X116176974Y-80084216D01*
X116457490Y-80091175D01*
G36*
X116457490Y-80091175D02*
G01*
X116733316Y-80109089D01*
X116867598Y-80122144D01*
X116998461Y-80137926D01*
X117125157Y-80156430D01*
X117246938Y-80177654D01*
X117323561Y-80196524D01*
X117439206Y-80230089D01*
X117579034Y-80273453D01*
X117728205Y-80321724D01*
X117871877Y-80370010D01*
X117995210Y-80413416D01*
X118083365Y-80447050D01*
X118109613Y-80458673D01*
X118121501Y-80466018D01*
X118124050Y-80468269D01*
X118128884Y-80471642D01*
X118144905Y-80481477D01*
X118168562Y-80494982D01*
X118198851Y-80511611D01*
X118275306Y-80552070D01*
X118366241Y-80598507D01*
X118412747Y-80622221D01*
X118456132Y-80645020D01*
X118495448Y-80666356D01*
X118529745Y-80685682D01*
X118544715Y-80694421D01*
X118558074Y-80702452D01*
X118569703Y-80709707D01*
X118579484Y-80716117D01*
X118587298Y-80721615D01*
X118593026Y-80726131D01*
X118596550Y-80729597D01*
X118597449Y-80730915D01*
X118597751Y-80731945D01*
X118597924Y-80732926D01*
X118598435Y-80734096D01*
X118600441Y-80736983D01*
X118603701Y-80740557D01*
X118608149Y-80744769D01*
X118620335Y-80754912D01*
X118636458Y-80767022D01*
X118655979Y-80780707D01*
X118678356Y-80795577D01*
X118703049Y-80811239D01*
X118729519Y-80827304D01*
X118742944Y-80835364D01*
X118755998Y-80843377D01*
X118768613Y-80851295D01*
X118780721Y-80859067D01*
X118792254Y-80866645D01*
X118803145Y-80873979D01*
X118813326Y-80881021D01*
X118822729Y-80887721D01*
X118831286Y-80894030D01*
X118838929Y-80899900D01*
X118845592Y-80905280D01*
X118851205Y-80910122D01*
X118855701Y-80914377D01*
X118859013Y-80917995D01*
X118860203Y-80919550D01*
X118861072Y-80920928D01*
X118861611Y-80922122D01*
X118861811Y-80923126D01*
X118862525Y-80925444D01*
X118864514Y-80928731D01*
X118867714Y-80932924D01*
X118872059Y-80937964D01*
X118883921Y-80950335D01*
X118899575Y-80965358D01*
X118918497Y-80982543D01*
X118940164Y-81001402D01*
X118964050Y-81021446D01*
X118989632Y-81042189D01*
X119034759Y-81079640D01*
X119081850Y-81121530D01*
X119130563Y-81167452D01*
X119180553Y-81216999D01*
X119231476Y-81269766D01*
X119282987Y-81325345D01*
X119386402Y-81443316D01*
X119488045Y-81567659D01*
X119585163Y-81695122D01*
X119631166Y-81759008D01*
X119675006Y-81822454D01*
X119716338Y-81885054D01*
X119754820Y-81946402D01*
X119881532Y-82165886D01*
X119996974Y-82393824D01*
X120105592Y-82642902D01*
X120211831Y-82925806D01*
X120320135Y-83255221D01*
X120434949Y-83643832D01*
X120560717Y-84104326D01*
X120701885Y-84649387D01*
X120825366Y-85130399D01*
X120874852Y-85317980D01*
X120919163Y-85481112D01*
X120960546Y-85627922D01*
X121001249Y-85766536D01*
X121089599Y-86051679D01*
X121155999Y-86253385D01*
X121224691Y-86447913D01*
X121295670Y-86635251D01*
X121368928Y-86815384D01*
X121444457Y-86988301D01*
X121522250Y-87153989D01*
X121602300Y-87312434D01*
X121684600Y-87463624D01*
X121769143Y-87607546D01*
X121855920Y-87744187D01*
X121944925Y-87873534D01*
X122036151Y-87995573D01*
X122129589Y-88110293D01*
X122225234Y-88217681D01*
X122323077Y-88317722D01*
X122423111Y-88410405D01*
X122536255Y-88509746D01*
X122627302Y-88589024D01*
X122699605Y-88650966D01*
X122729774Y-88676287D01*
X122756514Y-88698297D01*
X122780243Y-88717334D01*
X122801380Y-88733741D01*
X122820345Y-88747858D01*
X122837555Y-88760025D01*
X122853429Y-88770584D01*
X122868388Y-88779874D01*
X122882849Y-88788237D01*
X122897231Y-88796013D01*
X122914796Y-88805596D01*
X122934314Y-88816892D01*
X122955134Y-88829488D01*
X122976606Y-88842966D01*
X122998078Y-88856912D01*
X123018898Y-88870908D01*
X123038416Y-88884540D01*
X123055981Y-88897391D01*
X123065028Y-88903799D01*
X123075706Y-88910658D01*
X123101415Y-88925482D01*
X123132023Y-88941363D01*
X123166445Y-88957802D01*
X123203595Y-88974299D01*
X123242389Y-88990355D01*
X123281740Y-89005471D01*
X123320565Y-89019147D01*
X123358039Y-89031946D01*
X123393522Y-89044548D01*
X123426198Y-89056630D01*
X123455254Y-89067869D01*
X123479877Y-89077941D01*
X123490271Y-89082439D01*
X123499251Y-89086524D01*
X123506717Y-89090156D01*
X123512565Y-89093294D01*
X123516694Y-89095897D01*
X123518082Y-89096986D01*
X123519002Y-89097927D01*
X123521624Y-89099808D01*
X123526674Y-89101978D01*
X123543522Y-89107075D01*
X123568487Y-89113013D01*
X123600505Y-89119586D01*
X123638516Y-89126589D01*
X123681457Y-89133814D01*
X123728266Y-89141057D01*
X123777882Y-89148111D01*
X123846825Y-89156828D01*
X123908806Y-89163087D01*
X123965952Y-89166894D01*
X123993377Y-89167880D01*
X124020391Y-89168254D01*
X124047261Y-89168018D01*
X124074252Y-89167172D01*
X124101632Y-89165717D01*
X124129664Y-89163654D01*
X124188755Y-89157706D01*
X124253652Y-89149332D01*
X124300428Y-89142418D01*
X124345129Y-89135104D01*
X124386700Y-89127611D01*
X124424087Y-89120162D01*
X124456236Y-89112977D01*
X124470017Y-89109554D01*
X124482093Y-89106280D01*
X124492332Y-89103183D01*
X124500602Y-89100291D01*
X124506772Y-89097632D01*
X124510710Y-89095234D01*
X124514178Y-89092788D01*
X124518970Y-89089992D01*
X124532184Y-89083479D01*
X124549667Y-89075952D01*
X124570738Y-89067670D01*
X124594712Y-89058892D01*
X124620908Y-89049875D01*
X124648642Y-89040880D01*
X124677231Y-89032164D01*
X124715318Y-89019374D01*
X124756685Y-89002620D01*
X124800848Y-88982232D01*
X124847325Y-88958538D01*
X124895630Y-88931865D01*
X124945281Y-88902543D01*
X124995793Y-88870897D01*
X125046683Y-88837258D01*
X125097467Y-88801952D01*
X125147661Y-88765309D01*
X125196781Y-88727655D01*
X125244344Y-88689319D01*
X125289866Y-88650629D01*
X125332862Y-88611914D01*
X125372850Y-88573500D01*
X125409345Y-88535717D01*
X125456966Y-88482522D01*
X125503548Y-88426978D01*
X125548989Y-88369271D01*
X125593183Y-88309587D01*
X125636026Y-88248111D01*
X125677413Y-88185031D01*
X125717239Y-88120532D01*
X125755400Y-88054799D01*
X125791790Y-87988020D01*
X125826306Y-87920381D01*
X125858842Y-87852066D01*
X125889295Y-87783263D01*
X125917558Y-87714157D01*
X125943528Y-87644935D01*
X125967100Y-87575782D01*
X125988169Y-87506885D01*
X126003885Y-87445906D01*
X126022785Y-87362888D01*
X126043241Y-87266199D01*
X126063626Y-87164205D01*
X126082313Y-87065274D01*
X126097676Y-86977772D01*
X126108087Y-86910067D01*
X126110927Y-86886252D01*
X126111919Y-86870525D01*
X126112153Y-86869432D01*
X126112846Y-86868309D01*
X126115564Y-86865984D01*
X126119983Y-86863567D01*
X126126011Y-86861078D01*
X126133557Y-86858537D01*
X126142528Y-86855963D01*
X126164381Y-86850794D01*
X126190839Y-86845726D01*
X126221168Y-86840914D01*
X126254637Y-86836514D01*
X126290513Y-86832680D01*
X126382823Y-86823237D01*
X126502138Y-86810063D01*
X126760148Y-86779499D01*
X126929173Y-86759982D01*
X127110642Y-86741609D01*
X127294513Y-86725114D01*
X127470742Y-86711229D01*
X127629286Y-86700687D01*
X127760103Y-86694221D01*
X127853149Y-86692563D01*
X127882369Y-86693766D01*
X127898381Y-86696447D01*
X127906162Y-86700872D01*
X127912823Y-86708061D01*
X127918352Y-86718484D01*
X127922739Y-86732607D01*
X127925972Y-86750901D01*
X127928040Y-86773834D01*
X127928631Y-86835489D01*
X127924422Y-86921321D01*
X127915320Y-87035078D01*
X127901234Y-87180510D01*
X127882072Y-87361365D01*
X127870304Y-87455235D01*
X127855126Y-87552630D01*
X127836740Y-87652894D01*
X127815350Y-87755371D01*
X127791160Y-87859404D01*
X127764374Y-87964337D01*
X127735195Y-88069514D01*
X127703827Y-88174279D01*
X127670474Y-88277975D01*
X127635340Y-88379947D01*
X127598628Y-88479537D01*
X127560542Y-88576090D01*
X127521286Y-88668949D01*
X127481064Y-88757458D01*
X127440079Y-88840961D01*
X127398535Y-88918802D01*
X127355910Y-88992549D01*
X127309686Y-89067647D01*
X127260147Y-89143754D01*
X127207576Y-89220529D01*
X127152256Y-89297631D01*
X127094471Y-89374719D01*
X127034504Y-89451450D01*
X126972638Y-89527485D01*
X126909156Y-89602481D01*
X126844342Y-89676098D01*
X126778479Y-89747994D01*
X126711850Y-89817828D01*
X126644738Y-89885259D01*
X126577426Y-89949945D01*
X126510198Y-90011545D01*
X126443338Y-90069718D01*
X126344868Y-90149085D01*
X126239754Y-90226342D01*
X126128689Y-90301193D01*
X126012365Y-90373341D01*
X125891474Y-90442489D01*
X125766709Y-90508341D01*
X125638761Y-90570600D01*
X125508324Y-90628969D01*
X125376089Y-90683152D01*
X125242749Y-90732852D01*
X125108997Y-90777772D01*
X124975524Y-90817616D01*
X124843022Y-90852087D01*
X124712185Y-90880889D01*
X124583705Y-90903724D01*
X124458273Y-90920296D01*
X124458271Y-90920298D01*
X124337524Y-90929082D01*
X124188914Y-90933320D01*
X124022362Y-90933335D01*
X123847787Y-90929452D01*
X123675109Y-90921993D01*
X123514246Y-90911284D01*
X123375118Y-90897648D01*
X123316805Y-90889834D01*
X123267646Y-90881409D01*
X123153735Y-90856718D01*
X123036489Y-90827080D01*
X122916720Y-90792854D01*
X122795238Y-90754403D01*
X122672857Y-90712087D01*
X122550389Y-90666268D01*
X122428644Y-90617307D01*
X122308436Y-90565565D01*
X122190576Y-90511403D01*
X122075877Y-90455183D01*
X121965149Y-90397266D01*
X121859205Y-90338013D01*
X121758858Y-90277784D01*
X121664919Y-90216943D01*
X121578199Y-90155848D01*
X121499512Y-90094863D01*
X121414562Y-90023993D01*
X121321130Y-89943598D01*
X121223830Y-89857874D01*
X121127277Y-89771015D01*
X121036085Y-89687215D01*
X120954869Y-89610669D01*
X120888245Y-89545572D01*
X120840825Y-89496119D01*
X120797901Y-89446039D01*
X120742240Y-89377525D01*
X120678653Y-89296877D01*
X120611949Y-89210393D01*
X120546937Y-89124371D01*
X120488426Y-89045111D01*
X120441225Y-88978910D01*
X120410145Y-88932068D01*
X120213151Y-88596401D01*
X120034025Y-88261010D01*
X119868086Y-87914243D01*
X119710653Y-87544447D01*
X119557043Y-87139966D01*
X119402575Y-86689149D01*
X119242568Y-86180340D01*
X119072340Y-85601886D01*
X118953538Y-85193530D01*
X118841448Y-84822003D01*
X118734935Y-84485113D01*
X118632862Y-84180669D01*
X118534093Y-83906478D01*
X118437495Y-83660349D01*
X118389654Y-83547122D01*
X118341930Y-83440089D01*
X118294180Y-83338976D01*
X118246262Y-83243508D01*
X118198036Y-83153411D01*
X118149358Y-83068412D01*
X118100086Y-82988237D01*
X118050080Y-82912611D01*
X117999196Y-82841261D01*
X117947293Y-82773912D01*
X117894229Y-82710291D01*
X117839862Y-82650123D01*
X117784049Y-82593136D01*
X117726650Y-82539053D01*
X117667522Y-82487603D01*
X117606523Y-82438510D01*
X117543511Y-82391501D01*
X117478344Y-82346302D01*
X117410880Y-82302638D01*
X117340978Y-82260237D01*
X117215404Y-82194336D01*
X117079058Y-82137387D01*
X116933558Y-82089379D01*
X116780517Y-82050303D01*
X116621554Y-82020148D01*
X116458283Y-81998906D01*
X116292322Y-81986566D01*
X116125285Y-81983120D01*
X115958789Y-81988557D01*
X115794450Y-82002867D01*
X115633884Y-82026042D01*
X115478707Y-82058071D01*
X115330535Y-82098945D01*
X115190985Y-82148654D01*
X115061671Y-82207189D01*
X114944211Y-82274540D01*
X114913980Y-82294814D01*
X114882926Y-82317001D01*
X114851432Y-82340737D01*
X114819882Y-82365659D01*
X114788657Y-82391403D01*
X114758140Y-82417604D01*
X114728714Y-82443899D01*
X114700761Y-82469924D01*
X114674664Y-82495314D01*
X114650806Y-82519707D01*
X114629568Y-82542737D01*
X114611334Y-82564042D01*
X114596486Y-82583257D01*
X114585406Y-82600018D01*
X114581400Y-82607365D01*
X114578478Y-82613961D01*
X114576690Y-82619763D01*
X114576084Y-82624723D01*
X114575699Y-82627204D01*
X114574568Y-82630597D01*
X114572731Y-82634842D01*
X114570224Y-82639881D01*
X114563356Y-82652099D01*
X114554269Y-82666777D01*
X114543267Y-82683439D01*
X114530655Y-82701610D01*
X114516738Y-82720815D01*
X114501819Y-82740580D01*
X114484827Y-82763997D01*
X114464967Y-82793672D01*
X114442960Y-82828397D01*
X114419527Y-82866961D01*
X114395389Y-82908155D01*
X114371268Y-82950771D01*
X114347885Y-82993598D01*
X114325962Y-83035428D01*
X114298813Y-83087934D01*
X114273194Y-83136322D01*
X114248880Y-83180900D01*
X114225648Y-83221974D01*
X114203275Y-83259854D01*
X114181538Y-83294848D01*
X114160213Y-83327262D01*
X114139078Y-83357405D01*
X114117908Y-83385585D01*
X114096481Y-83412109D01*
X114074572Y-83437285D01*
X114051960Y-83461422D01*
X114028420Y-83484827D01*
X114003730Y-83507808D01*
X113977665Y-83530673D01*
X113950004Y-83553729D01*
X113915536Y-83580926D01*
X113882017Y-83605081D01*
X113848338Y-83626373D01*
X113813394Y-83644979D01*
X113776077Y-83661076D01*
X113735279Y-83674842D01*
X113689895Y-83686454D01*
X113638816Y-83696090D01*
X113580936Y-83703928D01*
X113515148Y-83710145D01*
X113440345Y-83714918D01*
X113355419Y-83718425D01*
X113150773Y-83722352D01*
X112892353Y-83723345D01*
X112243100Y-83723345D01*
X112257552Y-83624126D01*
X112264475Y-83574118D01*
X112272640Y-83511305D01*
X112281026Y-83443718D01*
X112288613Y-83379386D01*
X112302298Y-83274840D01*
X112319718Y-83167528D01*
X112340681Y-83058032D01*
X112364994Y-82946929D01*
X112392464Y-82834799D01*
X112422898Y-82722221D01*
X112456103Y-82609775D01*
X112491887Y-82498040D01*
X112530057Y-82387596D01*
X112570419Y-82279021D01*
X112612782Y-82172895D01*
X112656951Y-82069798D01*
X112702735Y-81970309D01*
X112749941Y-81875007D01*
X112798375Y-81784471D01*
X112847844Y-81699282D01*
X112882491Y-81644480D01*
X112921357Y-81587202D01*
X112963958Y-81527985D01*
X113009808Y-81467367D01*
X113058422Y-81405885D01*
X113109315Y-81344075D01*
X113162002Y-81282474D01*
X113215997Y-81221621D01*
X113270815Y-81162051D01*
X113325970Y-81104303D01*
X113380977Y-81048912D01*
X113435352Y-80996417D01*
X113488608Y-80947353D01*
X113540261Y-80902259D01*
X113589824Y-80861672D01*
X113636814Y-80826127D01*
X113658621Y-80810160D01*
X113680024Y-80794037D01*
X113700479Y-80778198D01*
X113719441Y-80763084D01*
X113736367Y-80749136D01*
X113750711Y-80736794D01*
X113756746Y-80731363D01*
X113761931Y-80726499D01*
X113766199Y-80722257D01*
X113769481Y-80718692D01*
X113773243Y-80715007D01*
X113778915Y-80710414D01*
X113795529Y-80698766D01*
X113818403Y-80684286D01*
X113846614Y-80667509D01*
X113879239Y-80648969D01*
X113915357Y-80629203D01*
X113954044Y-80608747D01*
X113994378Y-80588134D01*
X114034433Y-80567767D01*
X114072324Y-80548010D01*
X114107182Y-80529352D01*
X114138142Y-80512278D01*
X114164337Y-80497275D01*
X114184901Y-80484829D01*
X114192800Y-80479717D01*
X114198967Y-80475426D01*
X114203292Y-80472018D01*
X114205668Y-80469554D01*
X114218118Y-80460169D01*
X114244269Y-80446989D01*
X114331089Y-80411402D01*
X114452971Y-80367117D01*
X114596757Y-80318457D01*
X114749288Y-80269747D01*
X114897406Y-80225309D01*
X115027954Y-80189469D01*
X115127773Y-80166549D01*
X115244687Y-80146576D01*
X115367166Y-80129377D01*
X115494461Y-80114948D01*
X115625823Y-80103285D01*
X115897755Y-80088242D01*
X116176974Y-80084216D01*
X116457490Y-80091175D01*
G37*
D10*
G36*
X173954565Y-83280092D02*
G01*
X173390120Y-83280092D01*
X173390120Y-82715648D01*
X173954565Y-82715648D01*
X173954565Y-83280092D01*
G37*
G36*
X184114565Y-96826759D02*
G01*
X180163454Y-96826759D01*
X180163454Y-93440092D01*
X180727898Y-93440092D01*
X180727898Y-96262315D01*
X183550121Y-96262315D01*
X183550121Y-93440092D01*
X180727898Y-93440092D01*
X180163454Y-93440092D01*
X180163454Y-92875648D01*
X184114565Y-92875648D01*
X184114565Y-93440092D01*
X184114565Y-96826759D01*
G37*
G36*
X179034565Y-87795648D02*
G01*
X177905676Y-87795648D01*
X177905676Y-87231203D01*
X179034565Y-87231203D01*
X179034565Y-87795648D01*
G37*
G36*
X182985676Y-83280092D02*
G01*
X181292343Y-83280092D01*
X181292343Y-81586759D01*
X182985676Y-81586759D01*
X182985676Y-83280092D01*
G37*
G36*
X184114565Y-84408981D02*
G01*
X180163454Y-84408981D01*
X180163454Y-81022314D01*
X180727898Y-81022314D01*
X180727898Y-83844537D01*
X183550121Y-83844537D01*
X183550121Y-81022314D01*
X180727898Y-81022314D01*
X180163454Y-81022314D01*
X180163454Y-80457870D01*
X184114565Y-80457870D01*
X184114565Y-81022314D01*
X184114565Y-84408981D01*
G37*
G36*
X184114565Y-87795648D02*
G01*
X182985676Y-87795648D01*
X182985676Y-87231203D01*
X184114565Y-87231203D01*
X184114565Y-87795648D01*
G37*
G36*
X178470121Y-92311203D02*
G01*
X177905676Y-92311203D01*
X177905676Y-91746759D01*
X178470121Y-91746759D01*
X178470121Y-92311203D01*
G37*
D11*
X121750134Y-80363411D02*
X121842105Y-80364330D01*
X121925101Y-80366038D01*
X121999917Y-80368678D01*
X122067352Y-80372392D01*
X122128201Y-80377324D01*
X122183264Y-80383618D01*
X122233335Y-80391416D01*
X122279213Y-80400861D01*
X122321695Y-80412098D01*
X122361578Y-80425269D01*
X122399659Y-80440518D01*
X122436735Y-80457988D01*
X122473604Y-80477821D01*
X122511062Y-80500162D01*
X122549906Y-80525154D01*
X122578352Y-80545167D01*
X122606985Y-80567584D01*
X122635656Y-80592220D01*
X122664221Y-80618888D01*
X122692532Y-80647402D01*
X122720445Y-80677574D01*
X122747811Y-80709219D01*
X122774486Y-80742150D01*
X122800323Y-80776180D01*
X122825175Y-80811123D01*
X122848897Y-80846792D01*
X122871342Y-80883002D01*
X122892364Y-80919565D01*
X122911817Y-80956295D01*
X122929554Y-80993006D01*
X122945430Y-81029510D01*
X123003064Y-81170114D01*
X123018350Y-84689074D01*
X123027854Y-86576017D01*
X123032746Y-87204951D01*
X123038373Y-87664268D01*
X123045215Y-87984022D01*
X123049243Y-88100956D01*
X123053755Y-88194270D01*
X123058812Y-88267721D01*
X123064473Y-88325067D01*
X123070799Y-88370064D01*
X123077850Y-88406469D01*
X123095020Y-88485157D01*
X123109086Y-88552717D01*
X123114501Y-88580076D01*
X123118595Y-88601956D01*
X123121187Y-88617457D01*
X123121863Y-88622535D01*
X123122096Y-88625681D01*
X123122094Y-88625682D01*
X123120981Y-88630285D01*
X123117689Y-88633015D01*
X123112317Y-88633942D01*
X123104965Y-88633135D01*
X123084715Y-88626596D01*
X123057728Y-88613951D01*
X123024797Y-88595755D01*
X122986711Y-88572561D01*
X122898238Y-88513393D01*
X122798638Y-88440878D01*
X122694236Y-88359445D01*
X122591359Y-88273523D01*
X122542470Y-88230264D01*
X122496334Y-88187543D01*
X122406867Y-88099017D01*
X122319965Y-88005775D01*
X122235500Y-87907589D01*
X122153342Y-87804234D01*
X122073365Y-87695483D01*
X121995437Y-87581107D01*
X121919432Y-87460881D01*
X121845221Y-87334578D01*
X121772674Y-87201970D01*
X121701664Y-87062831D01*
X121632061Y-86916934D01*
X121563737Y-86764052D01*
X121496564Y-86603958D01*
X121430413Y-86436425D01*
X121365155Y-86261227D01*
X121300661Y-86078136D01*
X121150980Y-85641574D01*
X121143868Y-83002355D01*
X121136756Y-80363136D01*
X121648389Y-80363136D01*
X121750134Y-80363411D01*
G36*
X121750134Y-80363411D02*
G01*
X121842105Y-80364330D01*
X121925101Y-80366038D01*
X121999917Y-80368678D01*
X122067352Y-80372392D01*
X122128201Y-80377324D01*
X122183264Y-80383618D01*
X122233335Y-80391416D01*
X122279213Y-80400861D01*
X122321695Y-80412098D01*
X122361578Y-80425269D01*
X122399659Y-80440518D01*
X122436735Y-80457988D01*
X122473604Y-80477821D01*
X122511062Y-80500162D01*
X122549906Y-80525154D01*
X122578352Y-80545167D01*
X122606985Y-80567584D01*
X122635656Y-80592220D01*
X122664221Y-80618888D01*
X122692532Y-80647402D01*
X122720445Y-80677574D01*
X122747811Y-80709219D01*
X122774486Y-80742150D01*
X122800323Y-80776180D01*
X122825175Y-80811123D01*
X122848897Y-80846792D01*
X122871342Y-80883002D01*
X122892364Y-80919565D01*
X122911817Y-80956295D01*
X122929554Y-80993006D01*
X122945430Y-81029510D01*
X123003064Y-81170114D01*
X123018350Y-84689074D01*
X123027854Y-86576017D01*
X123032746Y-87204951D01*
X123038373Y-87664268D01*
X123045215Y-87984022D01*
X123049243Y-88100956D01*
X123053755Y-88194270D01*
X123058812Y-88267721D01*
X123064473Y-88325067D01*
X123070799Y-88370064D01*
X123077850Y-88406469D01*
X123095020Y-88485157D01*
X123109086Y-88552717D01*
X123114501Y-88580076D01*
X123118595Y-88601956D01*
X123121187Y-88617457D01*
X123121863Y-88622535D01*
X123122096Y-88625681D01*
X123122094Y-88625682D01*
X123120981Y-88630285D01*
X123117689Y-88633015D01*
X123112317Y-88633942D01*
X123104965Y-88633135D01*
X123084715Y-88626596D01*
X123057728Y-88613951D01*
X123024797Y-88595755D01*
X122986711Y-88572561D01*
X122898238Y-88513393D01*
X122798638Y-88440878D01*
X122694236Y-88359445D01*
X122591359Y-88273523D01*
X122542470Y-88230264D01*
X122496334Y-88187543D01*
X122406867Y-88099017D01*
X122319965Y-88005775D01*
X122235500Y-87907589D01*
X122153342Y-87804234D01*
X122073365Y-87695483D01*
X121995437Y-87581107D01*
X121919432Y-87460881D01*
X121845221Y-87334578D01*
X121772674Y-87201970D01*
X121701664Y-87062831D01*
X121632061Y-86916934D01*
X121563737Y-86764052D01*
X121496564Y-86603958D01*
X121430413Y-86436425D01*
X121365155Y-86261227D01*
X121300661Y-86078136D01*
X121150980Y-85641574D01*
X121143868Y-83002355D01*
X121136756Y-80363136D01*
X121648389Y-80363136D01*
X121750134Y-80363411D01*
G37*
D10*
G36*
X177905676Y-93440092D02*
G01*
X178470121Y-93440092D01*
X178470121Y-94568982D01*
X177341232Y-94568982D01*
X177341232Y-93440092D01*
X176776787Y-93440092D01*
X176776787Y-92875648D01*
X177905676Y-92875648D01*
X177905676Y-93440092D01*
G37*
G36*
X176776787Y-86666759D02*
G01*
X177341232Y-86666759D01*
X177341232Y-87795648D01*
X176212343Y-87795648D01*
X176212343Y-88360092D01*
X174519010Y-88360092D01*
X174519010Y-87795648D01*
X175083454Y-87795648D01*
X175083454Y-87231203D01*
X176212343Y-87231203D01*
X176212343Y-86102314D01*
X176776787Y-86102314D01*
X176776787Y-86666759D01*
G37*
D11*
X118432389Y-91299903D02*
X118453265Y-91303202D01*
X118474567Y-91306288D01*
X118495698Y-91309096D01*
X118516063Y-91311556D01*
X118535063Y-91313604D01*
X118552102Y-91315170D01*
X118566583Y-91316190D01*
X118577909Y-91316594D01*
X118585056Y-91316997D01*
X118591444Y-91318234D01*
X118597114Y-91320495D01*
X118602108Y-91323967D01*
X118606467Y-91328839D01*
X118610231Y-91335298D01*
X118613442Y-91343532D01*
X118616140Y-91353729D01*
X118618367Y-91366078D01*
X118620164Y-91380766D01*
X118621572Y-91397982D01*
X118622632Y-91417913D01*
X118623871Y-91466674D01*
X118624212Y-91528553D01*
X118624212Y-91740218D01*
X118333170Y-91740218D01*
X118333170Y-91283503D01*
X118432389Y-91299903D01*
G36*
X118432389Y-91299903D02*
G01*
X118453265Y-91303202D01*
X118474567Y-91306288D01*
X118495698Y-91309096D01*
X118516063Y-91311556D01*
X118535063Y-91313604D01*
X118552102Y-91315170D01*
X118566583Y-91316190D01*
X118577909Y-91316594D01*
X118585056Y-91316997D01*
X118591444Y-91318234D01*
X118597114Y-91320495D01*
X118602108Y-91323967D01*
X118606467Y-91328839D01*
X118610231Y-91335298D01*
X118613442Y-91343532D01*
X118616140Y-91353729D01*
X118618367Y-91366078D01*
X118620164Y-91380766D01*
X118621572Y-91397982D01*
X118622632Y-91417913D01*
X118623871Y-91466674D01*
X118624212Y-91528553D01*
X118624212Y-91740218D01*
X118333170Y-91740218D01*
X118333170Y-91283503D01*
X118432389Y-91299903D01*
G37*
D10*
G36*
X168874565Y-90617870D02*
G01*
X167745676Y-90617870D01*
X167745676Y-90053425D01*
X168874565Y-90053425D01*
X168874565Y-90617870D01*
G37*
G36*
X172825676Y-81022314D02*
G01*
X172261232Y-81022314D01*
X172261232Y-80457870D01*
X172825676Y-80457870D01*
X172825676Y-81022314D01*
G37*
G36*
X180163454Y-91746759D02*
G01*
X179599009Y-91746759D01*
X179599009Y-91182315D01*
X180163454Y-91182315D01*
X180163454Y-91746759D01*
G37*
G36*
X171696787Y-96826759D02*
G01*
X171132343Y-96826759D01*
X171132343Y-96262315D01*
X171696787Y-96262315D01*
X171696787Y-96826759D01*
G37*
D11*
X127805252Y-94675304D02*
X127520825Y-94685309D01*
X127520825Y-94685306D01*
X127363414Y-94688684D01*
X127145075Y-94690488D01*
X126894677Y-94690602D01*
X126641086Y-94688906D01*
X126480746Y-94686705D01*
X126345199Y-94683709D01*
X126231489Y-94679717D01*
X126136659Y-94674530D01*
X126095400Y-94671425D01*
X126057753Y-94667947D01*
X126023348Y-94664069D01*
X125991816Y-94659767D01*
X125962787Y-94655016D01*
X125935891Y-94649791D01*
X125910760Y-94644066D01*
X125887023Y-94637818D01*
X125770976Y-94600694D01*
X125663468Y-94556914D01*
X125564355Y-94506240D01*
X125473496Y-94448430D01*
X125431115Y-94416775D01*
X125390745Y-94383245D01*
X125352365Y-94347812D01*
X125315959Y-94310446D01*
X125281509Y-94271115D01*
X125248996Y-94229791D01*
X125218403Y-94186443D01*
X125189712Y-94141041D01*
X125137963Y-94043956D01*
X125093606Y-93938297D01*
X125056498Y-93823822D01*
X125026495Y-93700293D01*
X125003454Y-93567469D01*
X124987232Y-93425110D01*
X124977685Y-93272976D01*
X124974817Y-93118744D01*
X125245167Y-93118744D01*
X125246934Y-93199805D01*
X125251600Y-93280852D01*
X125259227Y-93361524D01*
X125272571Y-93461798D01*
X125289205Y-93556107D01*
X125309234Y-93644605D01*
X125320555Y-93686723D01*
X125332764Y-93727447D01*
X125345875Y-93766795D01*
X125359901Y-93804787D01*
X125374855Y-93841442D01*
X125390750Y-93876780D01*
X125407600Y-93910819D01*
X125425418Y-93943580D01*
X125444217Y-93975081D01*
X125464010Y-94005342D01*
X125484810Y-94034383D01*
X125506632Y-94062221D01*
X125529487Y-94088878D01*
X125553389Y-94114371D01*
X125578352Y-94138721D01*
X125604388Y-94161947D01*
X125631512Y-94184068D01*
X125659735Y-94205103D01*
X125689071Y-94225071D01*
X125719534Y-94243993D01*
X125751137Y-94261887D01*
X125783893Y-94278773D01*
X125817815Y-94294669D01*
X125852916Y-94309596D01*
X125889210Y-94323573D01*
X125926710Y-94336618D01*
X125926711Y-94336623D01*
X125981782Y-94353547D01*
X126036716Y-94366921D01*
X126097416Y-94377232D01*
X126169786Y-94384965D01*
X126259726Y-94390607D01*
X126373141Y-94394644D01*
X126694002Y-94399851D01*
X126934024Y-94401426D01*
X127147473Y-94400970D01*
X127311127Y-94398652D01*
X127367024Y-94396847D01*
X127401762Y-94394641D01*
X127514210Y-94383011D01*
X127514210Y-91850568D01*
X127322388Y-91835759D01*
X127112254Y-91821041D01*
X126918436Y-91810743D01*
X126740111Y-91805039D01*
X126576456Y-91804102D01*
X126426649Y-91808105D01*
X126356680Y-91812013D01*
X126289865Y-91817221D01*
X126226100Y-91823750D01*
X126165283Y-91831622D01*
X126107310Y-91840858D01*
X126052079Y-91851481D01*
X125999487Y-91863512D01*
X125949431Y-91876972D01*
X125901808Y-91891883D01*
X125856515Y-91908267D01*
X125813450Y-91926146D01*
X125772509Y-91945540D01*
X125733590Y-91966471D01*
X125696590Y-91988962D01*
X125661405Y-92013033D01*
X125627934Y-92038707D01*
X125596073Y-92066005D01*
X125565720Y-92094948D01*
X125536771Y-92125559D01*
X125509123Y-92157858D01*
X125482674Y-92191868D01*
X125457322Y-92227610D01*
X125427136Y-92276063D01*
X125399031Y-92329187D01*
X125373069Y-92386621D01*
X125349313Y-92448006D01*
X125327826Y-92512980D01*
X125308671Y-92581182D01*
X125291911Y-92652254D01*
X125277608Y-92725834D01*
X125265827Y-92801562D01*
X125256629Y-92879077D01*
X125250078Y-92958020D01*
X125246236Y-93038029D01*
X125245167Y-93118744D01*
X124974817Y-93118744D01*
X124974670Y-93110828D01*
X124976072Y-93001796D01*
X124980046Y-92898067D01*
X124986654Y-92799439D01*
X124995953Y-92705712D01*
X125008006Y-92616685D01*
X125022871Y-92532157D01*
X125040608Y-92451928D01*
X125061278Y-92375797D01*
X125084940Y-92303562D01*
X125111656Y-92235024D01*
X125141483Y-92169981D01*
X125174483Y-92108233D01*
X125210716Y-92049579D01*
X125250241Y-91993818D01*
X125293118Y-91940749D01*
X125339408Y-91890172D01*
X125400186Y-91831816D01*
X125464153Y-91778920D01*
X125532035Y-91731334D01*
X125604557Y-91688911D01*
X125682446Y-91651500D01*
X125766427Y-91618952D01*
X125857227Y-91591118D01*
X125955572Y-91567849D01*
X126062187Y-91548995D01*
X126177799Y-91534408D01*
X126303134Y-91523939D01*
X126438917Y-91517437D01*
X126585875Y-91514754D01*
X126744734Y-91515741D01*
X126916219Y-91520248D01*
X127101056Y-91528127D01*
X127332950Y-91540399D01*
X127531794Y-91552351D01*
X127676435Y-91562614D01*
X127721820Y-91566684D01*
X127745721Y-91569818D01*
X127805252Y-91582477D01*
X127805252Y-94383011D01*
X127805252Y-94675304D01*
G36*
X127805252Y-94675304D02*
G01*
X127520825Y-94685309D01*
X127520825Y-94685306D01*
X127363414Y-94688684D01*
X127145075Y-94690488D01*
X126894677Y-94690602D01*
X126641086Y-94688906D01*
X126480746Y-94686705D01*
X126345199Y-94683709D01*
X126231489Y-94679717D01*
X126136659Y-94674530D01*
X126095400Y-94671425D01*
X126057753Y-94667947D01*
X126023348Y-94664069D01*
X125991816Y-94659767D01*
X125962787Y-94655016D01*
X125935891Y-94649791D01*
X125910760Y-94644066D01*
X125887023Y-94637818D01*
X125770976Y-94600694D01*
X125663468Y-94556914D01*
X125564355Y-94506240D01*
X125473496Y-94448430D01*
X125431115Y-94416775D01*
X125390745Y-94383245D01*
X125352365Y-94347812D01*
X125315959Y-94310446D01*
X125281509Y-94271115D01*
X125248996Y-94229791D01*
X125218403Y-94186443D01*
X125189712Y-94141041D01*
X125137963Y-94043956D01*
X125093606Y-93938297D01*
X125056498Y-93823822D01*
X125026495Y-93700293D01*
X125003454Y-93567469D01*
X124987232Y-93425110D01*
X124977685Y-93272976D01*
X124974817Y-93118744D01*
X125245167Y-93118744D01*
X125246934Y-93199805D01*
X125251600Y-93280852D01*
X125259227Y-93361524D01*
X125272571Y-93461798D01*
X125289205Y-93556107D01*
X125309234Y-93644605D01*
X125320555Y-93686723D01*
X125332764Y-93727447D01*
X125345875Y-93766795D01*
X125359901Y-93804787D01*
X125374855Y-93841442D01*
X125390750Y-93876780D01*
X125407600Y-93910819D01*
X125425418Y-93943580D01*
X125444217Y-93975081D01*
X125464010Y-94005342D01*
X125484810Y-94034383D01*
X125506632Y-94062221D01*
X125529487Y-94088878D01*
X125553389Y-94114371D01*
X125578352Y-94138721D01*
X125604388Y-94161947D01*
X125631512Y-94184068D01*
X125659735Y-94205103D01*
X125689071Y-94225071D01*
X125719534Y-94243993D01*
X125751137Y-94261887D01*
X125783893Y-94278773D01*
X125817815Y-94294669D01*
X125852916Y-94309596D01*
X125889210Y-94323573D01*
X125926710Y-94336618D01*
X125926711Y-94336623D01*
X125981782Y-94353547D01*
X126036716Y-94366921D01*
X126097416Y-94377232D01*
X126169786Y-94384965D01*
X126259726Y-94390607D01*
X126373141Y-94394644D01*
X126694002Y-94399851D01*
X126934024Y-94401426D01*
X127147473Y-94400970D01*
X127311127Y-94398652D01*
X127367024Y-94396847D01*
X127401762Y-94394641D01*
X127514210Y-94383011D01*
X127514210Y-91850568D01*
X127322388Y-91835759D01*
X127112254Y-91821041D01*
X126918436Y-91810743D01*
X126740111Y-91805039D01*
X126576456Y-91804102D01*
X126426649Y-91808105D01*
X126356680Y-91812013D01*
X126289865Y-91817221D01*
X126226100Y-91823750D01*
X126165283Y-91831622D01*
X126107310Y-91840858D01*
X126052079Y-91851481D01*
X125999487Y-91863512D01*
X125949431Y-91876972D01*
X125901808Y-91891883D01*
X125856515Y-91908267D01*
X125813450Y-91926146D01*
X125772509Y-91945540D01*
X125733590Y-91966471D01*
X125696590Y-91988962D01*
X125661405Y-92013033D01*
X125627934Y-92038707D01*
X125596073Y-92066005D01*
X125565720Y-92094948D01*
X125536771Y-92125559D01*
X125509123Y-92157858D01*
X125482674Y-92191868D01*
X125457322Y-92227610D01*
X125427136Y-92276063D01*
X125399031Y-92329187D01*
X125373069Y-92386621D01*
X125349313Y-92448006D01*
X125327826Y-92512980D01*
X125308671Y-92581182D01*
X125291911Y-92652254D01*
X125277608Y-92725834D01*
X125265827Y-92801562D01*
X125256629Y-92879077D01*
X125250078Y-92958020D01*
X125246236Y-93038029D01*
X125245167Y-93118744D01*
X124974817Y-93118744D01*
X124974670Y-93110828D01*
X124976072Y-93001796D01*
X124980046Y-92898067D01*
X124986654Y-92799439D01*
X124995953Y-92705712D01*
X125008006Y-92616685D01*
X125022871Y-92532157D01*
X125040608Y-92451928D01*
X125061278Y-92375797D01*
X125084940Y-92303562D01*
X125111656Y-92235024D01*
X125141483Y-92169981D01*
X125174483Y-92108233D01*
X125210716Y-92049579D01*
X125250241Y-91993818D01*
X125293118Y-91940749D01*
X125339408Y-91890172D01*
X125400186Y-91831816D01*
X125464153Y-91778920D01*
X125532035Y-91731334D01*
X125604557Y-91688911D01*
X125682446Y-91651500D01*
X125766427Y-91618952D01*
X125857227Y-91591118D01*
X125955572Y-91567849D01*
X126062187Y-91548995D01*
X126177799Y-91534408D01*
X126303134Y-91523939D01*
X126438917Y-91517437D01*
X126585875Y-91514754D01*
X126744734Y-91515741D01*
X126916219Y-91520248D01*
X127101056Y-91528127D01*
X127332950Y-91540399D01*
X127531794Y-91552351D01*
X127676435Y-91562614D01*
X127721820Y-91566684D01*
X127745721Y-91569818D01*
X127805252Y-91582477D01*
X127805252Y-94383011D01*
X127805252Y-94675304D01*
G37*
D10*
G36*
X176776787Y-85537870D02*
G01*
X176212343Y-85537870D01*
X176212343Y-84973426D01*
X176776787Y-84973426D01*
X176776787Y-85537870D01*
G37*
G36*
X171696787Y-93440092D02*
G01*
X171132343Y-93440092D01*
X171132343Y-92875648D01*
X171696787Y-92875648D01*
X171696787Y-93440092D01*
G37*
D12*
X154652005Y-59338761D02*
X154747243Y-59434000D01*
X154747243Y-59434000D02*
X155032957Y-59529238D01*
X155032957Y-59529238D02*
X155223433Y-59529238D01*
X155223433Y-59529238D02*
X155509148Y-59434000D01*
X155509148Y-59434000D02*
X155699624Y-59243523D01*
X155699624Y-59243523D02*
X155794862Y-59053047D01*
X155794862Y-59053047D02*
X155890100Y-58672095D01*
X155890100Y-58672095D02*
X155890100Y-58386380D01*
X155890100Y-58386380D02*
X155794862Y-58005428D01*
X155794862Y-58005428D02*
X155699624Y-57814952D01*
X155699624Y-57814952D02*
X155509148Y-57624476D01*
X155509148Y-57624476D02*
X155223433Y-57529238D01*
X155223433Y-57529238D02*
X155032957Y-57529238D01*
X155032957Y-57529238D02*
X154747243Y-57624476D01*
X154747243Y-57624476D02*
X154652005Y-57719714D01*
X153509148Y-59529238D02*
X153699624Y-59434000D01*
X153699624Y-59434000D02*
X153794862Y-59338761D01*
X153794862Y-59338761D02*
X153890100Y-59148285D01*
X153890100Y-59148285D02*
X153890100Y-58576857D01*
X153890100Y-58576857D02*
X153794862Y-58386380D01*
X153794862Y-58386380D02*
X153699624Y-58291142D01*
X153699624Y-58291142D02*
X153509148Y-58195904D01*
X153509148Y-58195904D02*
X153223433Y-58195904D01*
X153223433Y-58195904D02*
X153032957Y-58291142D01*
X153032957Y-58291142D02*
X152937719Y-58386380D01*
X152937719Y-58386380D02*
X152842481Y-58576857D01*
X152842481Y-58576857D02*
X152842481Y-59148285D01*
X152842481Y-59148285D02*
X152937719Y-59338761D01*
X152937719Y-59338761D02*
X153032957Y-59434000D01*
X153032957Y-59434000D02*
X153223433Y-59529238D01*
X153223433Y-59529238D02*
X153509148Y-59529238D01*
X151985338Y-59529238D02*
X151985338Y-58195904D01*
X151985338Y-58386380D02*
X151890100Y-58291142D01*
X151890100Y-58291142D02*
X151699624Y-58195904D01*
X151699624Y-58195904D02*
X151413909Y-58195904D01*
X151413909Y-58195904D02*
X151223433Y-58291142D01*
X151223433Y-58291142D02*
X151128195Y-58481619D01*
X151128195Y-58481619D02*
X151128195Y-59529238D01*
X151128195Y-58481619D02*
X151032957Y-58291142D01*
X151032957Y-58291142D02*
X150842481Y-58195904D01*
X150842481Y-58195904D02*
X150556767Y-58195904D01*
X150556767Y-58195904D02*
X150366290Y-58291142D01*
X150366290Y-58291142D02*
X150271052Y-58481619D01*
X150271052Y-58481619D02*
X150271052Y-59529238D01*
X149318671Y-58195904D02*
X149318671Y-60195904D01*
X149318671Y-58291142D02*
X149128195Y-58195904D01*
X149128195Y-58195904D02*
X148747242Y-58195904D01*
X148747242Y-58195904D02*
X148556766Y-58291142D01*
X148556766Y-58291142D02*
X148461528Y-58386380D01*
X148461528Y-58386380D02*
X148366290Y-58576857D01*
X148366290Y-58576857D02*
X148366290Y-59148285D01*
X148366290Y-59148285D02*
X148461528Y-59338761D01*
X148461528Y-59338761D02*
X148556766Y-59434000D01*
X148556766Y-59434000D02*
X148747242Y-59529238D01*
X148747242Y-59529238D02*
X149128195Y-59529238D01*
X149128195Y-59529238D02*
X149318671Y-59434000D01*
X146652004Y-59529238D02*
X146652004Y-58481619D01*
X146652004Y-58481619D02*
X146747242Y-58291142D01*
X146747242Y-58291142D02*
X146937718Y-58195904D01*
X146937718Y-58195904D02*
X147318671Y-58195904D01*
X147318671Y-58195904D02*
X147509147Y-58291142D01*
X146652004Y-59434000D02*
X146842480Y-59529238D01*
X146842480Y-59529238D02*
X147318671Y-59529238D01*
X147318671Y-59529238D02*
X147509147Y-59434000D01*
X147509147Y-59434000D02*
X147604385Y-59243523D01*
X147604385Y-59243523D02*
X147604385Y-59053047D01*
X147604385Y-59053047D02*
X147509147Y-58862571D01*
X147509147Y-58862571D02*
X147318671Y-58767333D01*
X147318671Y-58767333D02*
X146842480Y-58767333D01*
X146842480Y-58767333D02*
X146652004Y-58672095D01*
X145699623Y-58195904D02*
X145699623Y-59529238D01*
X145699623Y-58386380D02*
X145604385Y-58291142D01*
X145604385Y-58291142D02*
X145413909Y-58195904D01*
X145413909Y-58195904D02*
X145128194Y-58195904D01*
X145128194Y-58195904D02*
X144937718Y-58291142D01*
X144937718Y-58291142D02*
X144842480Y-58481619D01*
X144842480Y-58481619D02*
X144842480Y-59529238D01*
X144080575Y-58195904D02*
X143604385Y-59529238D01*
X143128194Y-58195904D02*
X143604385Y-59529238D01*
X143604385Y-59529238D02*
X143794861Y-60005428D01*
X143794861Y-60005428D02*
X143890099Y-60100666D01*
X143890099Y-60100666D02*
X144080575Y-60195904D01*
X141128193Y-58195904D02*
X140366289Y-58195904D01*
X140842479Y-57529238D02*
X140842479Y-59243523D01*
X140842479Y-59243523D02*
X140747241Y-59434000D01*
X140747241Y-59434000D02*
X140556765Y-59529238D01*
X140556765Y-59529238D02*
X140366289Y-59529238D01*
X138842479Y-59529238D02*
X138842479Y-58481619D01*
X138842479Y-58481619D02*
X138937717Y-58291142D01*
X138937717Y-58291142D02*
X139128193Y-58195904D01*
X139128193Y-58195904D02*
X139509146Y-58195904D01*
X139509146Y-58195904D02*
X139699622Y-58291142D01*
X138842479Y-59434000D02*
X139032955Y-59529238D01*
X139032955Y-59529238D02*
X139509146Y-59529238D01*
X139509146Y-59529238D02*
X139699622Y-59434000D01*
X139699622Y-59434000D02*
X139794860Y-59243523D01*
X139794860Y-59243523D02*
X139794860Y-59053047D01*
X139794860Y-59053047D02*
X139699622Y-58862571D01*
X139699622Y-58862571D02*
X139509146Y-58767333D01*
X139509146Y-58767333D02*
X139032955Y-58767333D01*
X139032955Y-58767333D02*
X138842479Y-58672095D01*
X137604384Y-59529238D02*
X137794860Y-59434000D01*
X137794860Y-59434000D02*
X137890098Y-59243523D01*
X137890098Y-59243523D02*
X137890098Y-57529238D01*
X136842479Y-59529238D02*
X136842479Y-57529238D01*
X136652003Y-58767333D02*
X136080574Y-59529238D01*
X136080574Y-58195904D02*
X136842479Y-58957809D01*
X135318669Y-59434000D02*
X135128193Y-59529238D01*
X135128193Y-59529238D02*
X134747241Y-59529238D01*
X134747241Y-59529238D02*
X134556764Y-59434000D01*
X134556764Y-59434000D02*
X134461526Y-59243523D01*
X134461526Y-59243523D02*
X134461526Y-59148285D01*
X134461526Y-59148285D02*
X134556764Y-58957809D01*
X134556764Y-58957809D02*
X134747241Y-58862571D01*
X134747241Y-58862571D02*
X135032955Y-58862571D01*
X135032955Y-58862571D02*
X135223431Y-58767333D01*
X135223431Y-58767333D02*
X135318669Y-58576857D01*
X135318669Y-58576857D02*
X135318669Y-58481619D01*
X135318669Y-58481619D02*
X135223431Y-58291142D01*
X135223431Y-58291142D02*
X135032955Y-58195904D01*
X135032955Y-58195904D02*
X134747241Y-58195904D01*
X134747241Y-58195904D02*
X134556764Y-58291142D01*
X155690100Y-65234000D02*
X155404386Y-65329238D01*
X155404386Y-65329238D02*
X154928195Y-65329238D01*
X154928195Y-65329238D02*
X154737719Y-65234000D01*
X154737719Y-65234000D02*
X154642481Y-65138761D01*
X154642481Y-65138761D02*
X154547243Y-64948285D01*
X154547243Y-64948285D02*
X154547243Y-64757809D01*
X154547243Y-64757809D02*
X154642481Y-64567333D01*
X154642481Y-64567333D02*
X154737719Y-64472095D01*
X154737719Y-64472095D02*
X154928195Y-64376857D01*
X154928195Y-64376857D02*
X155309148Y-64281619D01*
X155309148Y-64281619D02*
X155499624Y-64186380D01*
X155499624Y-64186380D02*
X155594862Y-64091142D01*
X155594862Y-64091142D02*
X155690100Y-63900666D01*
X155690100Y-63900666D02*
X155690100Y-63710190D01*
X155690100Y-63710190D02*
X155594862Y-63519714D01*
X155594862Y-63519714D02*
X155499624Y-63424476D01*
X155499624Y-63424476D02*
X155309148Y-63329238D01*
X155309148Y-63329238D02*
X154832957Y-63329238D01*
X154832957Y-63329238D02*
X154547243Y-63424476D01*
X153690100Y-65329238D02*
X153690100Y-63995904D01*
X153690100Y-63329238D02*
X153785338Y-63424476D01*
X153785338Y-63424476D02*
X153690100Y-63519714D01*
X153690100Y-63519714D02*
X153594862Y-63424476D01*
X153594862Y-63424476D02*
X153690100Y-63329238D01*
X153690100Y-63329238D02*
X153690100Y-63519714D01*
X153023433Y-63995904D02*
X152261529Y-63995904D01*
X152737719Y-63329238D02*
X152737719Y-65043523D01*
X152737719Y-65043523D02*
X152642481Y-65234000D01*
X152642481Y-65234000D02*
X152452005Y-65329238D01*
X152452005Y-65329238D02*
X152261529Y-65329238D01*
X150832957Y-65234000D02*
X151023433Y-65329238D01*
X151023433Y-65329238D02*
X151404386Y-65329238D01*
X151404386Y-65329238D02*
X151594862Y-65234000D01*
X151594862Y-65234000D02*
X151690100Y-65043523D01*
X151690100Y-65043523D02*
X151690100Y-64281619D01*
X151690100Y-64281619D02*
X151594862Y-64091142D01*
X151594862Y-64091142D02*
X151404386Y-63995904D01*
X151404386Y-63995904D02*
X151023433Y-63995904D01*
X151023433Y-63995904D02*
X150832957Y-64091142D01*
X150832957Y-64091142D02*
X150737719Y-64281619D01*
X150737719Y-64281619D02*
X150737719Y-64472095D01*
X150737719Y-64472095D02*
X151690100Y-64662571D01*
X148642480Y-63995904D02*
X147880576Y-63995904D01*
X148356766Y-63329238D02*
X148356766Y-65043523D01*
X148356766Y-65043523D02*
X148261528Y-65234000D01*
X148261528Y-65234000D02*
X148071052Y-65329238D01*
X148071052Y-65329238D02*
X147880576Y-65329238D01*
X147213909Y-65329238D02*
X147213909Y-63995904D01*
X147213909Y-64376857D02*
X147118671Y-64186380D01*
X147118671Y-64186380D02*
X147023433Y-64091142D01*
X147023433Y-64091142D02*
X146832957Y-63995904D01*
X146832957Y-63995904D02*
X146642480Y-63995904D01*
X145975814Y-65329238D02*
X145975814Y-63995904D01*
X145975814Y-63329238D02*
X146071052Y-63424476D01*
X146071052Y-63424476D02*
X145975814Y-63519714D01*
X145975814Y-63519714D02*
X145880576Y-63424476D01*
X145880576Y-63424476D02*
X145975814Y-63329238D01*
X145975814Y-63329238D02*
X145975814Y-63519714D01*
X145023433Y-63995904D02*
X145023433Y-65995904D01*
X145023433Y-64091142D02*
X144832957Y-63995904D01*
X144832957Y-63995904D02*
X144452004Y-63995904D01*
X144452004Y-63995904D02*
X144261528Y-64091142D01*
X144261528Y-64091142D02*
X144166290Y-64186380D01*
X144166290Y-64186380D02*
X144071052Y-64376857D01*
X144071052Y-64376857D02*
X144071052Y-64948285D01*
X144071052Y-64948285D02*
X144166290Y-65138761D01*
X144166290Y-65138761D02*
X144261528Y-65234000D01*
X144261528Y-65234000D02*
X144452004Y-65329238D01*
X144452004Y-65329238D02*
X144832957Y-65329238D01*
X144832957Y-65329238D02*
X145023433Y-65234000D01*
X143309147Y-65234000D02*
X143118671Y-65329238D01*
X143118671Y-65329238D02*
X142737719Y-65329238D01*
X142737719Y-65329238D02*
X142547242Y-65234000D01*
X142547242Y-65234000D02*
X142452004Y-65043523D01*
X142452004Y-65043523D02*
X142452004Y-64948285D01*
X142452004Y-64948285D02*
X142547242Y-64757809D01*
X142547242Y-64757809D02*
X142737719Y-64662571D01*
X142737719Y-64662571D02*
X143023433Y-64662571D01*
X143023433Y-64662571D02*
X143213909Y-64567333D01*
X143213909Y-64567333D02*
X143309147Y-64376857D01*
X143309147Y-64376857D02*
X143309147Y-64281619D01*
X143309147Y-64281619D02*
X143213909Y-64091142D01*
X143213909Y-64091142D02*
X143023433Y-63995904D01*
X143023433Y-63995904D02*
X142737719Y-63995904D01*
X142737719Y-63995904D02*
X142547242Y-64091142D01*
X125452005Y-65338761D02*
X125547243Y-65434000D01*
X125547243Y-65434000D02*
X125832957Y-65529238D01*
X125832957Y-65529238D02*
X126023433Y-65529238D01*
X126023433Y-65529238D02*
X126309148Y-65434000D01*
X126309148Y-65434000D02*
X126499624Y-65243523D01*
X126499624Y-65243523D02*
X126594862Y-65053047D01*
X126594862Y-65053047D02*
X126690100Y-64672095D01*
X126690100Y-64672095D02*
X126690100Y-64386380D01*
X126690100Y-64386380D02*
X126594862Y-64005428D01*
X126594862Y-64005428D02*
X126499624Y-63814952D01*
X126499624Y-63814952D02*
X126309148Y-63624476D01*
X126309148Y-63624476D02*
X126023433Y-63529238D01*
X126023433Y-63529238D02*
X125832957Y-63529238D01*
X125832957Y-63529238D02*
X125547243Y-63624476D01*
X125547243Y-63624476D02*
X125452005Y-63719714D01*
X124309148Y-65529238D02*
X124499624Y-65434000D01*
X124499624Y-65434000D02*
X124594862Y-65338761D01*
X124594862Y-65338761D02*
X124690100Y-65148285D01*
X124690100Y-65148285D02*
X124690100Y-64576857D01*
X124690100Y-64576857D02*
X124594862Y-64386380D01*
X124594862Y-64386380D02*
X124499624Y-64291142D01*
X124499624Y-64291142D02*
X124309148Y-64195904D01*
X124309148Y-64195904D02*
X124023433Y-64195904D01*
X124023433Y-64195904D02*
X123832957Y-64291142D01*
X123832957Y-64291142D02*
X123737719Y-64386380D01*
X123737719Y-64386380D02*
X123642481Y-64576857D01*
X123642481Y-64576857D02*
X123642481Y-65148285D01*
X123642481Y-65148285D02*
X123737719Y-65338761D01*
X123737719Y-65338761D02*
X123832957Y-65434000D01*
X123832957Y-65434000D02*
X124023433Y-65529238D01*
X124023433Y-65529238D02*
X124309148Y-65529238D01*
X122785338Y-65529238D02*
X122785338Y-64195904D01*
X122785338Y-64386380D02*
X122690100Y-64291142D01*
X122690100Y-64291142D02*
X122499624Y-64195904D01*
X122499624Y-64195904D02*
X122213909Y-64195904D01*
X122213909Y-64195904D02*
X122023433Y-64291142D01*
X122023433Y-64291142D02*
X121928195Y-64481619D01*
X121928195Y-64481619D02*
X121928195Y-65529238D01*
X121928195Y-64481619D02*
X121832957Y-64291142D01*
X121832957Y-64291142D02*
X121642481Y-64195904D01*
X121642481Y-64195904D02*
X121356767Y-64195904D01*
X121356767Y-64195904D02*
X121166290Y-64291142D01*
X121166290Y-64291142D02*
X121071052Y-64481619D01*
X121071052Y-64481619D02*
X121071052Y-65529238D01*
X120118671Y-64195904D02*
X120118671Y-66195904D01*
X120118671Y-64291142D02*
X119928195Y-64195904D01*
X119928195Y-64195904D02*
X119547242Y-64195904D01*
X119547242Y-64195904D02*
X119356766Y-64291142D01*
X119356766Y-64291142D02*
X119261528Y-64386380D01*
X119261528Y-64386380D02*
X119166290Y-64576857D01*
X119166290Y-64576857D02*
X119166290Y-65148285D01*
X119166290Y-65148285D02*
X119261528Y-65338761D01*
X119261528Y-65338761D02*
X119356766Y-65434000D01*
X119356766Y-65434000D02*
X119547242Y-65529238D01*
X119547242Y-65529238D02*
X119928195Y-65529238D01*
X119928195Y-65529238D02*
X120118671Y-65434000D01*
X117547242Y-65434000D02*
X117737718Y-65529238D01*
X117737718Y-65529238D02*
X118118671Y-65529238D01*
X118118671Y-65529238D02*
X118309147Y-65434000D01*
X118309147Y-65434000D02*
X118404385Y-65243523D01*
X118404385Y-65243523D02*
X118404385Y-64481619D01*
X118404385Y-64481619D02*
X118309147Y-64291142D01*
X118309147Y-64291142D02*
X118118671Y-64195904D01*
X118118671Y-64195904D02*
X117737718Y-64195904D01*
X117737718Y-64195904D02*
X117547242Y-64291142D01*
X117547242Y-64291142D02*
X117452004Y-64481619D01*
X117452004Y-64481619D02*
X117452004Y-64672095D01*
X117452004Y-64672095D02*
X118404385Y-64862571D01*
X116880575Y-64195904D02*
X116118671Y-64195904D01*
X116594861Y-63529238D02*
X116594861Y-65243523D01*
X116594861Y-65243523D02*
X116499623Y-65434000D01*
X116499623Y-65434000D02*
X116309147Y-65529238D01*
X116309147Y-65529238D02*
X116118671Y-65529238D01*
X115452004Y-65529238D02*
X115452004Y-64195904D01*
X115452004Y-63529238D02*
X115547242Y-63624476D01*
X115547242Y-63624476D02*
X115452004Y-63719714D01*
X115452004Y-63719714D02*
X115356766Y-63624476D01*
X115356766Y-63624476D02*
X115452004Y-63529238D01*
X115452004Y-63529238D02*
X115452004Y-63719714D01*
X114785337Y-64195904D02*
X114023433Y-64195904D01*
X114499623Y-63529238D02*
X114499623Y-65243523D01*
X114499623Y-65243523D02*
X114404385Y-65434000D01*
X114404385Y-65434000D02*
X114213909Y-65529238D01*
X114213909Y-65529238D02*
X114023433Y-65529238D01*
X113356766Y-65529238D02*
X113356766Y-64195904D01*
X113356766Y-63529238D02*
X113452004Y-63624476D01*
X113452004Y-63624476D02*
X113356766Y-63719714D01*
X113356766Y-63719714D02*
X113261528Y-63624476D01*
X113261528Y-63624476D02*
X113356766Y-63529238D01*
X113356766Y-63529238D02*
X113356766Y-63719714D01*
X112118671Y-65529238D02*
X112309147Y-65434000D01*
X112309147Y-65434000D02*
X112404385Y-65338761D01*
X112404385Y-65338761D02*
X112499623Y-65148285D01*
X112499623Y-65148285D02*
X112499623Y-64576857D01*
X112499623Y-64576857D02*
X112404385Y-64386380D01*
X112404385Y-64386380D02*
X112309147Y-64291142D01*
X112309147Y-64291142D02*
X112118671Y-64195904D01*
X112118671Y-64195904D02*
X111832956Y-64195904D01*
X111832956Y-64195904D02*
X111642480Y-64291142D01*
X111642480Y-64291142D02*
X111547242Y-64386380D01*
X111547242Y-64386380D02*
X111452004Y-64576857D01*
X111452004Y-64576857D02*
X111452004Y-65148285D01*
X111452004Y-65148285D02*
X111547242Y-65338761D01*
X111547242Y-65338761D02*
X111642480Y-65434000D01*
X111642480Y-65434000D02*
X111832956Y-65529238D01*
X111832956Y-65529238D02*
X112118671Y-65529238D01*
X110594861Y-64195904D02*
X110594861Y-65529238D01*
X110594861Y-64386380D02*
X110499623Y-64291142D01*
X110499623Y-64291142D02*
X110309147Y-64195904D01*
X110309147Y-64195904D02*
X110023432Y-64195904D01*
X110023432Y-64195904D02*
X109832956Y-64291142D01*
X109832956Y-64291142D02*
X109737718Y-64481619D01*
X109737718Y-64481619D02*
X109737718Y-65529238D01*
X108880575Y-65434000D02*
X108690099Y-65529238D01*
X108690099Y-65529238D02*
X108309147Y-65529238D01*
X108309147Y-65529238D02*
X108118670Y-65434000D01*
X108118670Y-65434000D02*
X108023432Y-65243523D01*
X108023432Y-65243523D02*
X108023432Y-65148285D01*
X108023432Y-65148285D02*
X108118670Y-64957809D01*
X108118670Y-64957809D02*
X108309147Y-64862571D01*
X108309147Y-64862571D02*
X108594861Y-64862571D01*
X108594861Y-64862571D02*
X108785337Y-64767333D01*
X108785337Y-64767333D02*
X108880575Y-64576857D01*
X108880575Y-64576857D02*
X108880575Y-64481619D01*
X108880575Y-64481619D02*
X108785337Y-64291142D01*
X108785337Y-64291142D02*
X108594861Y-64195904D01*
X108594861Y-64195904D02*
X108309147Y-64195904D01*
X108309147Y-64195904D02*
X108118670Y-64291142D01*
X125452005Y-59529238D02*
X126118672Y-58576857D01*
X126594862Y-59529238D02*
X126594862Y-57529238D01*
X126594862Y-57529238D02*
X125832957Y-57529238D01*
X125832957Y-57529238D02*
X125642481Y-57624476D01*
X125642481Y-57624476D02*
X125547243Y-57719714D01*
X125547243Y-57719714D02*
X125452005Y-57910190D01*
X125452005Y-57910190D02*
X125452005Y-58195904D01*
X125452005Y-58195904D02*
X125547243Y-58386380D01*
X125547243Y-58386380D02*
X125642481Y-58481619D01*
X125642481Y-58481619D02*
X125832957Y-58576857D01*
X125832957Y-58576857D02*
X126594862Y-58576857D01*
X124309148Y-59529238D02*
X124499624Y-59434000D01*
X124499624Y-59434000D02*
X124594862Y-59338761D01*
X124594862Y-59338761D02*
X124690100Y-59148285D01*
X124690100Y-59148285D02*
X124690100Y-58576857D01*
X124690100Y-58576857D02*
X124594862Y-58386380D01*
X124594862Y-58386380D02*
X124499624Y-58291142D01*
X124499624Y-58291142D02*
X124309148Y-58195904D01*
X124309148Y-58195904D02*
X124023433Y-58195904D01*
X124023433Y-58195904D02*
X123832957Y-58291142D01*
X123832957Y-58291142D02*
X123737719Y-58386380D01*
X123737719Y-58386380D02*
X123642481Y-58576857D01*
X123642481Y-58576857D02*
X123642481Y-59148285D01*
X123642481Y-59148285D02*
X123737719Y-59338761D01*
X123737719Y-59338761D02*
X123832957Y-59434000D01*
X123832957Y-59434000D02*
X124023433Y-59529238D01*
X124023433Y-59529238D02*
X124309148Y-59529238D01*
X122785338Y-59529238D02*
X122785338Y-57529238D01*
X122785338Y-58291142D02*
X122594862Y-58195904D01*
X122594862Y-58195904D02*
X122213909Y-58195904D01*
X122213909Y-58195904D02*
X122023433Y-58291142D01*
X122023433Y-58291142D02*
X121928195Y-58386380D01*
X121928195Y-58386380D02*
X121832957Y-58576857D01*
X121832957Y-58576857D02*
X121832957Y-59148285D01*
X121832957Y-59148285D02*
X121928195Y-59338761D01*
X121928195Y-59338761D02*
X122023433Y-59434000D01*
X122023433Y-59434000D02*
X122213909Y-59529238D01*
X122213909Y-59529238D02*
X122594862Y-59529238D01*
X122594862Y-59529238D02*
X122785338Y-59434000D01*
X120690100Y-59529238D02*
X120880576Y-59434000D01*
X120880576Y-59434000D02*
X120975814Y-59338761D01*
X120975814Y-59338761D02*
X121071052Y-59148285D01*
X121071052Y-59148285D02*
X121071052Y-58576857D01*
X121071052Y-58576857D02*
X120975814Y-58386380D01*
X120975814Y-58386380D02*
X120880576Y-58291142D01*
X120880576Y-58291142D02*
X120690100Y-58195904D01*
X120690100Y-58195904D02*
X120404385Y-58195904D01*
X120404385Y-58195904D02*
X120213909Y-58291142D01*
X120213909Y-58291142D02*
X120118671Y-58386380D01*
X120118671Y-58386380D02*
X120023433Y-58576857D01*
X120023433Y-58576857D02*
X120023433Y-59148285D01*
X120023433Y-59148285D02*
X120118671Y-59338761D01*
X120118671Y-59338761D02*
X120213909Y-59434000D01*
X120213909Y-59434000D02*
X120404385Y-59529238D01*
X120404385Y-59529238D02*
X120690100Y-59529238D01*
X119452004Y-58195904D02*
X118690100Y-58195904D01*
X119166290Y-57529238D02*
X119166290Y-59243523D01*
X119166290Y-59243523D02*
X119071052Y-59434000D01*
X119071052Y-59434000D02*
X118880576Y-59529238D01*
X118880576Y-59529238D02*
X118690100Y-59529238D01*
X118023433Y-59529238D02*
X118023433Y-58195904D01*
X118023433Y-57529238D02*
X118118671Y-57624476D01*
X118118671Y-57624476D02*
X118023433Y-57719714D01*
X118023433Y-57719714D02*
X117928195Y-57624476D01*
X117928195Y-57624476D02*
X118023433Y-57529238D01*
X118023433Y-57529238D02*
X118023433Y-57719714D01*
X116213909Y-59434000D02*
X116404385Y-59529238D01*
X116404385Y-59529238D02*
X116785338Y-59529238D01*
X116785338Y-59529238D02*
X116975814Y-59434000D01*
X116975814Y-59434000D02*
X117071052Y-59338761D01*
X117071052Y-59338761D02*
X117166290Y-59148285D01*
X117166290Y-59148285D02*
X117166290Y-58576857D01*
X117166290Y-58576857D02*
X117071052Y-58386380D01*
X117071052Y-58386380D02*
X116975814Y-58291142D01*
X116975814Y-58291142D02*
X116785338Y-58195904D01*
X116785338Y-58195904D02*
X116404385Y-58195904D01*
X116404385Y-58195904D02*
X116213909Y-58291142D01*
X115452004Y-59434000D02*
X115261528Y-59529238D01*
X115261528Y-59529238D02*
X114880576Y-59529238D01*
X114880576Y-59529238D02*
X114690099Y-59434000D01*
X114690099Y-59434000D02*
X114594861Y-59243523D01*
X114594861Y-59243523D02*
X114594861Y-59148285D01*
X114594861Y-59148285D02*
X114690099Y-58957809D01*
X114690099Y-58957809D02*
X114880576Y-58862571D01*
X114880576Y-58862571D02*
X115166290Y-58862571D01*
X115166290Y-58862571D02*
X115356766Y-58767333D01*
X115356766Y-58767333D02*
X115452004Y-58576857D01*
X115452004Y-58576857D02*
X115452004Y-58481619D01*
X115452004Y-58481619D02*
X115356766Y-58291142D01*
X115356766Y-58291142D02*
X115166290Y-58195904D01*
X115166290Y-58195904D02*
X114880576Y-58195904D01*
X114880576Y-58195904D02*
X114690099Y-58291142D01*
X111356765Y-59434000D02*
X111547241Y-59529238D01*
X111547241Y-59529238D02*
X111928194Y-59529238D01*
X111928194Y-59529238D02*
X112118670Y-59434000D01*
X112118670Y-59434000D02*
X112213908Y-59338761D01*
X112213908Y-59338761D02*
X112309146Y-59148285D01*
X112309146Y-59148285D02*
X112309146Y-58576857D01*
X112309146Y-58576857D02*
X112213908Y-58386380D01*
X112213908Y-58386380D02*
X112118670Y-58291142D01*
X112118670Y-58291142D02*
X111928194Y-58195904D01*
X111928194Y-58195904D02*
X111547241Y-58195904D01*
X111547241Y-58195904D02*
X111356765Y-58291142D01*
X110213908Y-59529238D02*
X110404384Y-59434000D01*
X110404384Y-59434000D02*
X110499622Y-59243523D01*
X110499622Y-59243523D02*
X110499622Y-57529238D01*
X108594860Y-58195904D02*
X108594860Y-59529238D01*
X109452003Y-58195904D02*
X109452003Y-59243523D01*
X109452003Y-59243523D02*
X109356765Y-59434000D01*
X109356765Y-59434000D02*
X109166289Y-59529238D01*
X109166289Y-59529238D02*
X108880574Y-59529238D01*
X108880574Y-59529238D02*
X108690098Y-59434000D01*
X108690098Y-59434000D02*
X108594860Y-59338761D01*
X107642479Y-59529238D02*
X107642479Y-57529238D01*
X107642479Y-58291142D02*
X107452003Y-58195904D01*
X107452003Y-58195904D02*
X107071050Y-58195904D01*
X107071050Y-58195904D02*
X106880574Y-58291142D01*
X106880574Y-58291142D02*
X106785336Y-58386380D01*
X106785336Y-58386380D02*
X106690098Y-58576857D01*
X106690098Y-58576857D02*
X106690098Y-59148285D01*
X106690098Y-59148285D02*
X106785336Y-59338761D01*
X106785336Y-59338761D02*
X106880574Y-59434000D01*
X106880574Y-59434000D02*
X107071050Y-59529238D01*
X107071050Y-59529238D02*
X107452003Y-59529238D01*
X107452003Y-59529238D02*
X107642479Y-59434000D01*
X155880576Y-69529238D02*
X154737719Y-69529238D01*
X155309148Y-71529238D02*
X155309148Y-69529238D01*
X153309147Y-71434000D02*
X153499623Y-71529238D01*
X153499623Y-71529238D02*
X153880576Y-71529238D01*
X153880576Y-71529238D02*
X154071052Y-71434000D01*
X154071052Y-71434000D02*
X154166290Y-71243523D01*
X154166290Y-71243523D02*
X154166290Y-70481619D01*
X154166290Y-70481619D02*
X154071052Y-70291142D01*
X154071052Y-70291142D02*
X153880576Y-70195904D01*
X153880576Y-70195904D02*
X153499623Y-70195904D01*
X153499623Y-70195904D02*
X153309147Y-70291142D01*
X153309147Y-70291142D02*
X153213909Y-70481619D01*
X153213909Y-70481619D02*
X153213909Y-70672095D01*
X153213909Y-70672095D02*
X154166290Y-70862571D01*
X151499623Y-71434000D02*
X151690099Y-71529238D01*
X151690099Y-71529238D02*
X152071052Y-71529238D01*
X152071052Y-71529238D02*
X152261528Y-71434000D01*
X152261528Y-71434000D02*
X152356766Y-71338761D01*
X152356766Y-71338761D02*
X152452004Y-71148285D01*
X152452004Y-71148285D02*
X152452004Y-70576857D01*
X152452004Y-70576857D02*
X152356766Y-70386380D01*
X152356766Y-70386380D02*
X152261528Y-70291142D01*
X152261528Y-70291142D02*
X152071052Y-70195904D01*
X152071052Y-70195904D02*
X151690099Y-70195904D01*
X151690099Y-70195904D02*
X151499623Y-70291142D01*
X150642480Y-71529238D02*
X150642480Y-69529238D01*
X149785337Y-71529238D02*
X149785337Y-70481619D01*
X149785337Y-70481619D02*
X149880575Y-70291142D01*
X149880575Y-70291142D02*
X150071051Y-70195904D01*
X150071051Y-70195904D02*
X150356766Y-70195904D01*
X150356766Y-70195904D02*
X150547242Y-70291142D01*
X150547242Y-70291142D02*
X150642480Y-70386380D01*
X148928194Y-71434000D02*
X148642480Y-71529238D01*
X148642480Y-71529238D02*
X148166289Y-71529238D01*
X148166289Y-71529238D02*
X147975813Y-71434000D01*
X147975813Y-71434000D02*
X147880575Y-71338761D01*
X147880575Y-71338761D02*
X147785337Y-71148285D01*
X147785337Y-71148285D02*
X147785337Y-70957809D01*
X147785337Y-70957809D02*
X147880575Y-70767333D01*
X147880575Y-70767333D02*
X147975813Y-70672095D01*
X147975813Y-70672095D02*
X148166289Y-70576857D01*
X148166289Y-70576857D02*
X148547242Y-70481619D01*
X148547242Y-70481619D02*
X148737718Y-70386380D01*
X148737718Y-70386380D02*
X148832956Y-70291142D01*
X148832956Y-70291142D02*
X148928194Y-70100666D01*
X148928194Y-70100666D02*
X148928194Y-69910190D01*
X148928194Y-69910190D02*
X148832956Y-69719714D01*
X148832956Y-69719714D02*
X148737718Y-69624476D01*
X148737718Y-69624476D02*
X148547242Y-69529238D01*
X148547242Y-69529238D02*
X148071051Y-69529238D01*
X148071051Y-69529238D02*
X147785337Y-69624476D01*
X146166289Y-71434000D02*
X146356765Y-71529238D01*
X146356765Y-71529238D02*
X146737718Y-71529238D01*
X146737718Y-71529238D02*
X146928194Y-71434000D01*
X146928194Y-71434000D02*
X147023432Y-71243523D01*
X147023432Y-71243523D02*
X147023432Y-70481619D01*
X147023432Y-70481619D02*
X146928194Y-70291142D01*
X146928194Y-70291142D02*
X146737718Y-70195904D01*
X146737718Y-70195904D02*
X146356765Y-70195904D01*
X146356765Y-70195904D02*
X146166289Y-70291142D01*
X146166289Y-70291142D02*
X146071051Y-70481619D01*
X146071051Y-70481619D02*
X146071051Y-70672095D01*
X146071051Y-70672095D02*
X147023432Y-70862571D01*
X145309146Y-71434000D02*
X145118670Y-71529238D01*
X145118670Y-71529238D02*
X144737718Y-71529238D01*
X144737718Y-71529238D02*
X144547241Y-71434000D01*
X144547241Y-71434000D02*
X144452003Y-71243523D01*
X144452003Y-71243523D02*
X144452003Y-71148285D01*
X144452003Y-71148285D02*
X144547241Y-70957809D01*
X144547241Y-70957809D02*
X144737718Y-70862571D01*
X144737718Y-70862571D02*
X145023432Y-70862571D01*
X145023432Y-70862571D02*
X145213908Y-70767333D01*
X145213908Y-70767333D02*
X145309146Y-70576857D01*
X145309146Y-70576857D02*
X145309146Y-70481619D01*
X145309146Y-70481619D02*
X145213908Y-70291142D01*
X145213908Y-70291142D02*
X145023432Y-70195904D01*
X145023432Y-70195904D02*
X144737718Y-70195904D01*
X144737718Y-70195904D02*
X144547241Y-70291142D01*
X143594860Y-71529238D02*
X143594860Y-69529238D01*
X142737717Y-71529238D02*
X142737717Y-70481619D01*
X142737717Y-70481619D02*
X142832955Y-70291142D01*
X142832955Y-70291142D02*
X143023431Y-70195904D01*
X143023431Y-70195904D02*
X143309146Y-70195904D01*
X143309146Y-70195904D02*
X143499622Y-70291142D01*
X143499622Y-70291142D02*
X143594860Y-70386380D01*
X129290100Y-76634000D02*
X129004386Y-76729238D01*
X129004386Y-76729238D02*
X128528195Y-76729238D01*
X128528195Y-76729238D02*
X128337719Y-76634000D01*
X128337719Y-76634000D02*
X128242481Y-76538761D01*
X128242481Y-76538761D02*
X128147243Y-76348285D01*
X128147243Y-76348285D02*
X128147243Y-76157809D01*
X128147243Y-76157809D02*
X128242481Y-75967333D01*
X128242481Y-75967333D02*
X128337719Y-75872095D01*
X128337719Y-75872095D02*
X128528195Y-75776857D01*
X128528195Y-75776857D02*
X128909148Y-75681619D01*
X128909148Y-75681619D02*
X129099624Y-75586380D01*
X129099624Y-75586380D02*
X129194862Y-75491142D01*
X129194862Y-75491142D02*
X129290100Y-75300666D01*
X129290100Y-75300666D02*
X129290100Y-75110190D01*
X129290100Y-75110190D02*
X129194862Y-74919714D01*
X129194862Y-74919714D02*
X129099624Y-74824476D01*
X129099624Y-74824476D02*
X128909148Y-74729238D01*
X128909148Y-74729238D02*
X128432957Y-74729238D01*
X128432957Y-74729238D02*
X128147243Y-74824476D01*
X127290100Y-75395904D02*
X127290100Y-77395904D01*
X127290100Y-75491142D02*
X127099624Y-75395904D01*
X127099624Y-75395904D02*
X126718671Y-75395904D01*
X126718671Y-75395904D02*
X126528195Y-75491142D01*
X126528195Y-75491142D02*
X126432957Y-75586380D01*
X126432957Y-75586380D02*
X126337719Y-75776857D01*
X126337719Y-75776857D02*
X126337719Y-76348285D01*
X126337719Y-76348285D02*
X126432957Y-76538761D01*
X126432957Y-76538761D02*
X126528195Y-76634000D01*
X126528195Y-76634000D02*
X126718671Y-76729238D01*
X126718671Y-76729238D02*
X127099624Y-76729238D01*
X127099624Y-76729238D02*
X127290100Y-76634000D01*
X125194862Y-76729238D02*
X125385338Y-76634000D01*
X125385338Y-76634000D02*
X125480576Y-76538761D01*
X125480576Y-76538761D02*
X125575814Y-76348285D01*
X125575814Y-76348285D02*
X125575814Y-75776857D01*
X125575814Y-75776857D02*
X125480576Y-75586380D01*
X125480576Y-75586380D02*
X125385338Y-75491142D01*
X125385338Y-75491142D02*
X125194862Y-75395904D01*
X125194862Y-75395904D02*
X124909147Y-75395904D01*
X124909147Y-75395904D02*
X124718671Y-75491142D01*
X124718671Y-75491142D02*
X124623433Y-75586380D01*
X124623433Y-75586380D02*
X124528195Y-75776857D01*
X124528195Y-75776857D02*
X124528195Y-76348285D01*
X124528195Y-76348285D02*
X124623433Y-76538761D01*
X124623433Y-76538761D02*
X124718671Y-76634000D01*
X124718671Y-76634000D02*
X124909147Y-76729238D01*
X124909147Y-76729238D02*
X125194862Y-76729238D01*
X123671052Y-75395904D02*
X123671052Y-76729238D01*
X123671052Y-75586380D02*
X123575814Y-75491142D01*
X123575814Y-75491142D02*
X123385338Y-75395904D01*
X123385338Y-75395904D02*
X123099623Y-75395904D01*
X123099623Y-75395904D02*
X122909147Y-75491142D01*
X122909147Y-75491142D02*
X122813909Y-75681619D01*
X122813909Y-75681619D02*
X122813909Y-76729238D01*
X121956766Y-76634000D02*
X121766290Y-76729238D01*
X121766290Y-76729238D02*
X121385338Y-76729238D01*
X121385338Y-76729238D02*
X121194861Y-76634000D01*
X121194861Y-76634000D02*
X121099623Y-76443523D01*
X121099623Y-76443523D02*
X121099623Y-76348285D01*
X121099623Y-76348285D02*
X121194861Y-76157809D01*
X121194861Y-76157809D02*
X121385338Y-76062571D01*
X121385338Y-76062571D02*
X121671052Y-76062571D01*
X121671052Y-76062571D02*
X121861528Y-75967333D01*
X121861528Y-75967333D02*
X121956766Y-75776857D01*
X121956766Y-75776857D02*
X121956766Y-75681619D01*
X121956766Y-75681619D02*
X121861528Y-75491142D01*
X121861528Y-75491142D02*
X121671052Y-75395904D01*
X121671052Y-75395904D02*
X121385338Y-75395904D01*
X121385338Y-75395904D02*
X121194861Y-75491142D01*
X119956766Y-76729238D02*
X120147242Y-76634000D01*
X120147242Y-76634000D02*
X120242480Y-76538761D01*
X120242480Y-76538761D02*
X120337718Y-76348285D01*
X120337718Y-76348285D02*
X120337718Y-75776857D01*
X120337718Y-75776857D02*
X120242480Y-75586380D01*
X120242480Y-75586380D02*
X120147242Y-75491142D01*
X120147242Y-75491142D02*
X119956766Y-75395904D01*
X119956766Y-75395904D02*
X119671051Y-75395904D01*
X119671051Y-75395904D02*
X119480575Y-75491142D01*
X119480575Y-75491142D02*
X119385337Y-75586380D01*
X119385337Y-75586380D02*
X119290099Y-75776857D01*
X119290099Y-75776857D02*
X119290099Y-76348285D01*
X119290099Y-76348285D02*
X119385337Y-76538761D01*
X119385337Y-76538761D02*
X119480575Y-76634000D01*
X119480575Y-76634000D02*
X119671051Y-76729238D01*
X119671051Y-76729238D02*
X119956766Y-76729238D01*
X118432956Y-76729238D02*
X118432956Y-75395904D01*
X118432956Y-75776857D02*
X118337718Y-75586380D01*
X118337718Y-75586380D02*
X118242480Y-75491142D01*
X118242480Y-75491142D02*
X118052004Y-75395904D01*
X118052004Y-75395904D02*
X117861527Y-75395904D01*
X116432956Y-76634000D02*
X116623432Y-76729238D01*
X116623432Y-76729238D02*
X117004385Y-76729238D01*
X117004385Y-76729238D02*
X117194861Y-76634000D01*
X117194861Y-76634000D02*
X117290099Y-76443523D01*
X117290099Y-76443523D02*
X117290099Y-75681619D01*
X117290099Y-75681619D02*
X117194861Y-75491142D01*
X117194861Y-75491142D02*
X117004385Y-75395904D01*
X117004385Y-75395904D02*
X116623432Y-75395904D01*
X116623432Y-75395904D02*
X116432956Y-75491142D01*
X116432956Y-75491142D02*
X116337718Y-75681619D01*
X116337718Y-75681619D02*
X116337718Y-75872095D01*
X116337718Y-75872095D02*
X117290099Y-76062571D01*
X114623432Y-76729238D02*
X114623432Y-74729238D01*
X114623432Y-76634000D02*
X114813908Y-76729238D01*
X114813908Y-76729238D02*
X115194861Y-76729238D01*
X115194861Y-76729238D02*
X115385337Y-76634000D01*
X115385337Y-76634000D02*
X115480575Y-76538761D01*
X115480575Y-76538761D02*
X115575813Y-76348285D01*
X115575813Y-76348285D02*
X115575813Y-75776857D01*
X115575813Y-75776857D02*
X115480575Y-75586380D01*
X115480575Y-75586380D02*
X115385337Y-75491142D01*
X115385337Y-75491142D02*
X115194861Y-75395904D01*
X115194861Y-75395904D02*
X114813908Y-75395904D01*
X114813908Y-75395904D02*
X114623432Y-75491142D01*
X112147241Y-76729238D02*
X112147241Y-74729238D01*
X112147241Y-75491142D02*
X111956765Y-75395904D01*
X111956765Y-75395904D02*
X111575812Y-75395904D01*
X111575812Y-75395904D02*
X111385336Y-75491142D01*
X111385336Y-75491142D02*
X111290098Y-75586380D01*
X111290098Y-75586380D02*
X111194860Y-75776857D01*
X111194860Y-75776857D02*
X111194860Y-76348285D01*
X111194860Y-76348285D02*
X111290098Y-76538761D01*
X111290098Y-76538761D02*
X111385336Y-76634000D01*
X111385336Y-76634000D02*
X111575812Y-76729238D01*
X111575812Y-76729238D02*
X111956765Y-76729238D01*
X111956765Y-76729238D02*
X112147241Y-76634000D01*
X110528193Y-75395904D02*
X110052003Y-76729238D01*
X109575812Y-75395904D02*
X110052003Y-76729238D01*
X110052003Y-76729238D02*
X110242479Y-77205428D01*
X110242479Y-77205428D02*
X110337717Y-77300666D01*
X110337717Y-77300666D02*
X110528193Y-77395904D01*
X183459427Y-78412664D02*
X183459427Y-76412664D01*
X182507046Y-77079330D02*
X182507046Y-78412664D01*
X182507046Y-77269806D02*
X182411808Y-77174568D01*
X182411808Y-77174568D02*
X182221332Y-77079330D01*
X182221332Y-77079330D02*
X181935617Y-77079330D01*
X181935617Y-77079330D02*
X181745141Y-77174568D01*
X181745141Y-77174568D02*
X181649903Y-77365045D01*
X181649903Y-77365045D02*
X181649903Y-78412664D01*
X180792760Y-78317426D02*
X180602284Y-78412664D01*
X180602284Y-78412664D02*
X180221332Y-78412664D01*
X180221332Y-78412664D02*
X180030855Y-78317426D01*
X180030855Y-78317426D02*
X179935617Y-78126949D01*
X179935617Y-78126949D02*
X179935617Y-78031711D01*
X179935617Y-78031711D02*
X180030855Y-77841235D01*
X180030855Y-77841235D02*
X180221332Y-77745997D01*
X180221332Y-77745997D02*
X180507046Y-77745997D01*
X180507046Y-77745997D02*
X180697522Y-77650759D01*
X180697522Y-77650759D02*
X180792760Y-77460283D01*
X180792760Y-77460283D02*
X180792760Y-77365045D01*
X180792760Y-77365045D02*
X180697522Y-77174568D01*
X180697522Y-77174568D02*
X180507046Y-77079330D01*
X180507046Y-77079330D02*
X180221332Y-77079330D01*
X180221332Y-77079330D02*
X180030855Y-77174568D01*
X179364188Y-77079330D02*
X178602284Y-77079330D01*
X179078474Y-76412664D02*
X179078474Y-78126949D01*
X179078474Y-78126949D02*
X178983236Y-78317426D01*
X178983236Y-78317426D02*
X178792760Y-78412664D01*
X178792760Y-78412664D02*
X178602284Y-78412664D01*
X177078474Y-78412664D02*
X177078474Y-77365045D01*
X177078474Y-77365045D02*
X177173712Y-77174568D01*
X177173712Y-77174568D02*
X177364188Y-77079330D01*
X177364188Y-77079330D02*
X177745141Y-77079330D01*
X177745141Y-77079330D02*
X177935617Y-77174568D01*
X177078474Y-78317426D02*
X177268950Y-78412664D01*
X177268950Y-78412664D02*
X177745141Y-78412664D01*
X177745141Y-78412664D02*
X177935617Y-78317426D01*
X177935617Y-78317426D02*
X178030855Y-78126949D01*
X178030855Y-78126949D02*
X178030855Y-77936473D01*
X178030855Y-77936473D02*
X177935617Y-77745997D01*
X177935617Y-77745997D02*
X177745141Y-77650759D01*
X177745141Y-77650759D02*
X177268950Y-77650759D01*
X177268950Y-77650759D02*
X177078474Y-77555521D01*
X175268950Y-77079330D02*
X175268950Y-78698378D01*
X175268950Y-78698378D02*
X175364188Y-78888854D01*
X175364188Y-78888854D02*
X175459426Y-78984092D01*
X175459426Y-78984092D02*
X175649903Y-79079330D01*
X175649903Y-79079330D02*
X175935617Y-79079330D01*
X175935617Y-79079330D02*
X176126093Y-78984092D01*
X175268950Y-78317426D02*
X175459426Y-78412664D01*
X175459426Y-78412664D02*
X175840379Y-78412664D01*
X175840379Y-78412664D02*
X176030855Y-78317426D01*
X176030855Y-78317426D02*
X176126093Y-78222187D01*
X176126093Y-78222187D02*
X176221331Y-78031711D01*
X176221331Y-78031711D02*
X176221331Y-77460283D01*
X176221331Y-77460283D02*
X176126093Y-77269806D01*
X176126093Y-77269806D02*
X176030855Y-77174568D01*
X176030855Y-77174568D02*
X175840379Y-77079330D01*
X175840379Y-77079330D02*
X175459426Y-77079330D01*
X175459426Y-77079330D02*
X175268950Y-77174568D01*
X174316569Y-78412664D02*
X174316569Y-77079330D01*
X174316569Y-77460283D02*
X174221331Y-77269806D01*
X174221331Y-77269806D02*
X174126093Y-77174568D01*
X174126093Y-77174568D02*
X173935617Y-77079330D01*
X173935617Y-77079330D02*
X173745140Y-77079330D01*
X172221331Y-78412664D02*
X172221331Y-77365045D01*
X172221331Y-77365045D02*
X172316569Y-77174568D01*
X172316569Y-77174568D02*
X172507045Y-77079330D01*
X172507045Y-77079330D02*
X172887998Y-77079330D01*
X172887998Y-77079330D02*
X173078474Y-77174568D01*
X172221331Y-78317426D02*
X172411807Y-78412664D01*
X172411807Y-78412664D02*
X172887998Y-78412664D01*
X172887998Y-78412664D02*
X173078474Y-78317426D01*
X173078474Y-78317426D02*
X173173712Y-78126949D01*
X173173712Y-78126949D02*
X173173712Y-77936473D01*
X173173712Y-77936473D02*
X173078474Y-77745997D01*
X173078474Y-77745997D02*
X172887998Y-77650759D01*
X172887998Y-77650759D02*
X172411807Y-77650759D01*
X172411807Y-77650759D02*
X172221331Y-77555521D01*
X171268950Y-78412664D02*
X171268950Y-77079330D01*
X171268950Y-77269806D02*
X171173712Y-77174568D01*
X171173712Y-77174568D02*
X170983236Y-77079330D01*
X170983236Y-77079330D02*
X170697521Y-77079330D01*
X170697521Y-77079330D02*
X170507045Y-77174568D01*
X170507045Y-77174568D02*
X170411807Y-77365045D01*
X170411807Y-77365045D02*
X170411807Y-78412664D01*
X170411807Y-77365045D02*
X170316569Y-77174568D01*
X170316569Y-77174568D02*
X170126093Y-77079330D01*
X170126093Y-77079330D02*
X169840379Y-77079330D01*
X169840379Y-77079330D02*
X169649902Y-77174568D01*
X169649902Y-77174568D02*
X169554664Y-77365045D01*
X169554664Y-77365045D02*
X169554664Y-78412664D01*
D13*
%TO.C,J2*%
X103500000Y-72625000D03*
D14*
X103500000Y-75165000D03*
%TD*%
M02*
