%TF.GenerationSoftware,KiCad,Pcbnew,8.0.4*%
%TF.CreationDate,2024-08-13T13:12:50+01:00*%
%TF.ProjectId,elecsoc_card,656c6563-736f-4635-9f63-6172642e6b69,rev?*%
%TF.SameCoordinates,Original*%
%TF.FileFunction,Legend,Top*%
%TF.FilePolarity,Positive*%
%FSLAX46Y46*%
G04 Gerber Fmt 4.6, Leading zero omitted, Abs format (unit mm)*
G04 Created by KiCad (PCBNEW 8.0.4) date 2024-08-13 13:12:50*
%MOMM*%
%LPD*%
G01*
G04 APERTURE LIST*
%ADD10C,0.160000*%
%ADD11C,0.000000*%
%ADD12C,0.150000*%
%ADD13C,0.120000*%
G04 APERTURE END LIST*
D10*
X164733834Y-95469299D02*
X164829072Y-95469299D01*
X164829072Y-95469299D02*
X164924310Y-95516918D01*
X164924310Y-95516918D02*
X164971929Y-95564537D01*
X164971929Y-95564537D02*
X165019548Y-95659775D01*
X165019548Y-95659775D02*
X165067167Y-95850251D01*
X165067167Y-95850251D02*
X165067167Y-96088346D01*
X165067167Y-96088346D02*
X165019548Y-96278822D01*
X165019548Y-96278822D02*
X164971929Y-96374060D01*
X164971929Y-96374060D02*
X164924310Y-96421680D01*
X164924310Y-96421680D02*
X164829072Y-96469299D01*
X164829072Y-96469299D02*
X164733834Y-96469299D01*
X164733834Y-96469299D02*
X164638596Y-96421680D01*
X164638596Y-96421680D02*
X164590977Y-96374060D01*
X164590977Y-96374060D02*
X164543358Y-96278822D01*
X164543358Y-96278822D02*
X164495739Y-96088346D01*
X164495739Y-96088346D02*
X164495739Y-95850251D01*
X164495739Y-95850251D02*
X164543358Y-95659775D01*
X164543358Y-95659775D02*
X164590977Y-95564537D01*
X164590977Y-95564537D02*
X164638596Y-95516918D01*
X164638596Y-95516918D02*
X164733834Y-95469299D01*
X165924310Y-95469299D02*
X165733834Y-95469299D01*
X165733834Y-95469299D02*
X165638596Y-95516918D01*
X165638596Y-95516918D02*
X165590977Y-95564537D01*
X165590977Y-95564537D02*
X165495739Y-95707394D01*
X165495739Y-95707394D02*
X165448120Y-95897870D01*
X165448120Y-95897870D02*
X165448120Y-96278822D01*
X165448120Y-96278822D02*
X165495739Y-96374060D01*
X165495739Y-96374060D02*
X165543358Y-96421680D01*
X165543358Y-96421680D02*
X165638596Y-96469299D01*
X165638596Y-96469299D02*
X165829072Y-96469299D01*
X165829072Y-96469299D02*
X165924310Y-96421680D01*
X165924310Y-96421680D02*
X165971929Y-96374060D01*
X165971929Y-96374060D02*
X166019548Y-96278822D01*
X166019548Y-96278822D02*
X166019548Y-96040727D01*
X166019548Y-96040727D02*
X165971929Y-95945489D01*
X165971929Y-95945489D02*
X165924310Y-95897870D01*
X165924310Y-95897870D02*
X165829072Y-95850251D01*
X165829072Y-95850251D02*
X165638596Y-95850251D01*
X165638596Y-95850251D02*
X165543358Y-95897870D01*
X165543358Y-95897870D02*
X165495739Y-95945489D01*
X165495739Y-95945489D02*
X165448120Y-96040727D01*
X166638596Y-95469299D02*
X166733834Y-95469299D01*
X166733834Y-95469299D02*
X166829072Y-95516918D01*
X166829072Y-95516918D02*
X166876691Y-95564537D01*
X166876691Y-95564537D02*
X166924310Y-95659775D01*
X166924310Y-95659775D02*
X166971929Y-95850251D01*
X166971929Y-95850251D02*
X166971929Y-96088346D01*
X166971929Y-96088346D02*
X166924310Y-96278822D01*
X166924310Y-96278822D02*
X166876691Y-96374060D01*
X166876691Y-96374060D02*
X166829072Y-96421680D01*
X166829072Y-96421680D02*
X166733834Y-96469299D01*
X166733834Y-96469299D02*
X166638596Y-96469299D01*
X166638596Y-96469299D02*
X166543358Y-96421680D01*
X166543358Y-96421680D02*
X166495739Y-96374060D01*
X166495739Y-96374060D02*
X166448120Y-96278822D01*
X166448120Y-96278822D02*
X166400501Y-96088346D01*
X166400501Y-96088346D02*
X166400501Y-95850251D01*
X166400501Y-95850251D02*
X166448120Y-95659775D01*
X166448120Y-95659775D02*
X166495739Y-95564537D01*
X166495739Y-95564537D02*
X166543358Y-95516918D01*
X166543358Y-95516918D02*
X166638596Y-95469299D01*
X167305263Y-95469299D02*
X167924310Y-95469299D01*
X167924310Y-95469299D02*
X167590977Y-95850251D01*
X167590977Y-95850251D02*
X167733834Y-95850251D01*
X167733834Y-95850251D02*
X167829072Y-95897870D01*
X167829072Y-95897870D02*
X167876691Y-95945489D01*
X167876691Y-95945489D02*
X167924310Y-96040727D01*
X167924310Y-96040727D02*
X167924310Y-96278822D01*
X167924310Y-96278822D02*
X167876691Y-96374060D01*
X167876691Y-96374060D02*
X167829072Y-96421680D01*
X167829072Y-96421680D02*
X167733834Y-96469299D01*
X167733834Y-96469299D02*
X167448120Y-96469299D01*
X167448120Y-96469299D02*
X167352882Y-96421680D01*
X167352882Y-96421680D02*
X167305263Y-96374060D01*
X164633834Y-89869299D02*
X164729072Y-89869299D01*
X164729072Y-89869299D02*
X164824310Y-89916918D01*
X164824310Y-89916918D02*
X164871929Y-89964537D01*
X164871929Y-89964537D02*
X164919548Y-90059775D01*
X164919548Y-90059775D02*
X164967167Y-90250251D01*
X164967167Y-90250251D02*
X164967167Y-90488346D01*
X164967167Y-90488346D02*
X164919548Y-90678822D01*
X164919548Y-90678822D02*
X164871929Y-90774060D01*
X164871929Y-90774060D02*
X164824310Y-90821680D01*
X164824310Y-90821680D02*
X164729072Y-90869299D01*
X164729072Y-90869299D02*
X164633834Y-90869299D01*
X164633834Y-90869299D02*
X164538596Y-90821680D01*
X164538596Y-90821680D02*
X164490977Y-90774060D01*
X164490977Y-90774060D02*
X164443358Y-90678822D01*
X164443358Y-90678822D02*
X164395739Y-90488346D01*
X164395739Y-90488346D02*
X164395739Y-90250251D01*
X164395739Y-90250251D02*
X164443358Y-90059775D01*
X164443358Y-90059775D02*
X164490977Y-89964537D01*
X164490977Y-89964537D02*
X164538596Y-89916918D01*
X164538596Y-89916918D02*
X164633834Y-89869299D01*
X165538596Y-90297870D02*
X165443358Y-90250251D01*
X165443358Y-90250251D02*
X165395739Y-90202632D01*
X165395739Y-90202632D02*
X165348120Y-90107394D01*
X165348120Y-90107394D02*
X165348120Y-90059775D01*
X165348120Y-90059775D02*
X165395739Y-89964537D01*
X165395739Y-89964537D02*
X165443358Y-89916918D01*
X165443358Y-89916918D02*
X165538596Y-89869299D01*
X165538596Y-89869299D02*
X165729072Y-89869299D01*
X165729072Y-89869299D02*
X165824310Y-89916918D01*
X165824310Y-89916918D02*
X165871929Y-89964537D01*
X165871929Y-89964537D02*
X165919548Y-90059775D01*
X165919548Y-90059775D02*
X165919548Y-90107394D01*
X165919548Y-90107394D02*
X165871929Y-90202632D01*
X165871929Y-90202632D02*
X165824310Y-90250251D01*
X165824310Y-90250251D02*
X165729072Y-90297870D01*
X165729072Y-90297870D02*
X165538596Y-90297870D01*
X165538596Y-90297870D02*
X165443358Y-90345489D01*
X165443358Y-90345489D02*
X165395739Y-90393108D01*
X165395739Y-90393108D02*
X165348120Y-90488346D01*
X165348120Y-90488346D02*
X165348120Y-90678822D01*
X165348120Y-90678822D02*
X165395739Y-90774060D01*
X165395739Y-90774060D02*
X165443358Y-90821680D01*
X165443358Y-90821680D02*
X165538596Y-90869299D01*
X165538596Y-90869299D02*
X165729072Y-90869299D01*
X165729072Y-90869299D02*
X165824310Y-90821680D01*
X165824310Y-90821680D02*
X165871929Y-90774060D01*
X165871929Y-90774060D02*
X165919548Y-90678822D01*
X165919548Y-90678822D02*
X165919548Y-90488346D01*
X165919548Y-90488346D02*
X165871929Y-90393108D01*
X165871929Y-90393108D02*
X165824310Y-90345489D01*
X165824310Y-90345489D02*
X165729072Y-90297870D01*
X166538596Y-89869299D02*
X166633834Y-89869299D01*
X166633834Y-89869299D02*
X166729072Y-89916918D01*
X166729072Y-89916918D02*
X166776691Y-89964537D01*
X166776691Y-89964537D02*
X166824310Y-90059775D01*
X166824310Y-90059775D02*
X166871929Y-90250251D01*
X166871929Y-90250251D02*
X166871929Y-90488346D01*
X166871929Y-90488346D02*
X166824310Y-90678822D01*
X166824310Y-90678822D02*
X166776691Y-90774060D01*
X166776691Y-90774060D02*
X166729072Y-90821680D01*
X166729072Y-90821680D02*
X166633834Y-90869299D01*
X166633834Y-90869299D02*
X166538596Y-90869299D01*
X166538596Y-90869299D02*
X166443358Y-90821680D01*
X166443358Y-90821680D02*
X166395739Y-90774060D01*
X166395739Y-90774060D02*
X166348120Y-90678822D01*
X166348120Y-90678822D02*
X166300501Y-90488346D01*
X166300501Y-90488346D02*
X166300501Y-90250251D01*
X166300501Y-90250251D02*
X166348120Y-90059775D01*
X166348120Y-90059775D02*
X166395739Y-89964537D01*
X166395739Y-89964537D02*
X166443358Y-89916918D01*
X166443358Y-89916918D02*
X166538596Y-89869299D01*
X167776691Y-89869299D02*
X167300501Y-89869299D01*
X167300501Y-89869299D02*
X167252882Y-90345489D01*
X167252882Y-90345489D02*
X167300501Y-90297870D01*
X167300501Y-90297870D02*
X167395739Y-90250251D01*
X167395739Y-90250251D02*
X167633834Y-90250251D01*
X167633834Y-90250251D02*
X167729072Y-90297870D01*
X167729072Y-90297870D02*
X167776691Y-90345489D01*
X167776691Y-90345489D02*
X167824310Y-90440727D01*
X167824310Y-90440727D02*
X167824310Y-90678822D01*
X167824310Y-90678822D02*
X167776691Y-90774060D01*
X167776691Y-90774060D02*
X167729072Y-90821680D01*
X167729072Y-90821680D02*
X167633834Y-90869299D01*
X167633834Y-90869299D02*
X167395739Y-90869299D01*
X167395739Y-90869299D02*
X167300501Y-90821680D01*
X167300501Y-90821680D02*
X167252882Y-90774060D01*
X103033834Y-78869299D02*
X103129072Y-78869299D01*
X103129072Y-78869299D02*
X103224310Y-78916918D01*
X103224310Y-78916918D02*
X103271929Y-78964537D01*
X103271929Y-78964537D02*
X103319548Y-79059775D01*
X103319548Y-79059775D02*
X103367167Y-79250251D01*
X103367167Y-79250251D02*
X103367167Y-79488346D01*
X103367167Y-79488346D02*
X103319548Y-79678822D01*
X103319548Y-79678822D02*
X103271929Y-79774060D01*
X103271929Y-79774060D02*
X103224310Y-79821680D01*
X103224310Y-79821680D02*
X103129072Y-79869299D01*
X103129072Y-79869299D02*
X103033834Y-79869299D01*
X103033834Y-79869299D02*
X102938596Y-79821680D01*
X102938596Y-79821680D02*
X102890977Y-79774060D01*
X102890977Y-79774060D02*
X102843358Y-79678822D01*
X102843358Y-79678822D02*
X102795739Y-79488346D01*
X102795739Y-79488346D02*
X102795739Y-79250251D01*
X102795739Y-79250251D02*
X102843358Y-79059775D01*
X102843358Y-79059775D02*
X102890977Y-78964537D01*
X102890977Y-78964537D02*
X102938596Y-78916918D01*
X102938596Y-78916918D02*
X103033834Y-78869299D01*
X103938596Y-79297870D02*
X103843358Y-79250251D01*
X103843358Y-79250251D02*
X103795739Y-79202632D01*
X103795739Y-79202632D02*
X103748120Y-79107394D01*
X103748120Y-79107394D02*
X103748120Y-79059775D01*
X103748120Y-79059775D02*
X103795739Y-78964537D01*
X103795739Y-78964537D02*
X103843358Y-78916918D01*
X103843358Y-78916918D02*
X103938596Y-78869299D01*
X103938596Y-78869299D02*
X104129072Y-78869299D01*
X104129072Y-78869299D02*
X104224310Y-78916918D01*
X104224310Y-78916918D02*
X104271929Y-78964537D01*
X104271929Y-78964537D02*
X104319548Y-79059775D01*
X104319548Y-79059775D02*
X104319548Y-79107394D01*
X104319548Y-79107394D02*
X104271929Y-79202632D01*
X104271929Y-79202632D02*
X104224310Y-79250251D01*
X104224310Y-79250251D02*
X104129072Y-79297870D01*
X104129072Y-79297870D02*
X103938596Y-79297870D01*
X103938596Y-79297870D02*
X103843358Y-79345489D01*
X103843358Y-79345489D02*
X103795739Y-79393108D01*
X103795739Y-79393108D02*
X103748120Y-79488346D01*
X103748120Y-79488346D02*
X103748120Y-79678822D01*
X103748120Y-79678822D02*
X103795739Y-79774060D01*
X103795739Y-79774060D02*
X103843358Y-79821680D01*
X103843358Y-79821680D02*
X103938596Y-79869299D01*
X103938596Y-79869299D02*
X104129072Y-79869299D01*
X104129072Y-79869299D02*
X104224310Y-79821680D01*
X104224310Y-79821680D02*
X104271929Y-79774060D01*
X104271929Y-79774060D02*
X104319548Y-79678822D01*
X104319548Y-79678822D02*
X104319548Y-79488346D01*
X104319548Y-79488346D02*
X104271929Y-79393108D01*
X104271929Y-79393108D02*
X104224310Y-79345489D01*
X104224310Y-79345489D02*
X104129072Y-79297870D01*
X104938596Y-78869299D02*
X105033834Y-78869299D01*
X105033834Y-78869299D02*
X105129072Y-78916918D01*
X105129072Y-78916918D02*
X105176691Y-78964537D01*
X105176691Y-78964537D02*
X105224310Y-79059775D01*
X105224310Y-79059775D02*
X105271929Y-79250251D01*
X105271929Y-79250251D02*
X105271929Y-79488346D01*
X105271929Y-79488346D02*
X105224310Y-79678822D01*
X105224310Y-79678822D02*
X105176691Y-79774060D01*
X105176691Y-79774060D02*
X105129072Y-79821680D01*
X105129072Y-79821680D02*
X105033834Y-79869299D01*
X105033834Y-79869299D02*
X104938596Y-79869299D01*
X104938596Y-79869299D02*
X104843358Y-79821680D01*
X104843358Y-79821680D02*
X104795739Y-79774060D01*
X104795739Y-79774060D02*
X104748120Y-79678822D01*
X104748120Y-79678822D02*
X104700501Y-79488346D01*
X104700501Y-79488346D02*
X104700501Y-79250251D01*
X104700501Y-79250251D02*
X104748120Y-79059775D01*
X104748120Y-79059775D02*
X104795739Y-78964537D01*
X104795739Y-78964537D02*
X104843358Y-78916918D01*
X104843358Y-78916918D02*
X104938596Y-78869299D01*
X106176691Y-78869299D02*
X105700501Y-78869299D01*
X105700501Y-78869299D02*
X105652882Y-79345489D01*
X105652882Y-79345489D02*
X105700501Y-79297870D01*
X105700501Y-79297870D02*
X105795739Y-79250251D01*
X105795739Y-79250251D02*
X106033834Y-79250251D01*
X106033834Y-79250251D02*
X106129072Y-79297870D01*
X106129072Y-79297870D02*
X106176691Y-79345489D01*
X106176691Y-79345489D02*
X106224310Y-79440727D01*
X106224310Y-79440727D02*
X106224310Y-79678822D01*
X106224310Y-79678822D02*
X106176691Y-79774060D01*
X106176691Y-79774060D02*
X106129072Y-79821680D01*
X106129072Y-79821680D02*
X106033834Y-79869299D01*
X106033834Y-79869299D02*
X105795739Y-79869299D01*
X105795739Y-79869299D02*
X105700501Y-79821680D01*
X105700501Y-79821680D02*
X105652882Y-79774060D01*
X106967167Y-70969299D02*
X106395739Y-70969299D01*
X106681453Y-70969299D02*
X106681453Y-69969299D01*
X106681453Y-69969299D02*
X106586215Y-70112156D01*
X106586215Y-70112156D02*
X106490977Y-70207394D01*
X106490977Y-70207394D02*
X106395739Y-70255013D01*
X107348120Y-70064537D02*
X107395739Y-70016918D01*
X107395739Y-70016918D02*
X107490977Y-69969299D01*
X107490977Y-69969299D02*
X107729072Y-69969299D01*
X107729072Y-69969299D02*
X107824310Y-70016918D01*
X107824310Y-70016918D02*
X107871929Y-70064537D01*
X107871929Y-70064537D02*
X107919548Y-70159775D01*
X107919548Y-70159775D02*
X107919548Y-70255013D01*
X107919548Y-70255013D02*
X107871929Y-70397870D01*
X107871929Y-70397870D02*
X107300501Y-70969299D01*
X107300501Y-70969299D02*
X107919548Y-70969299D01*
X108538596Y-69969299D02*
X108633834Y-69969299D01*
X108633834Y-69969299D02*
X108729072Y-70016918D01*
X108729072Y-70016918D02*
X108776691Y-70064537D01*
X108776691Y-70064537D02*
X108824310Y-70159775D01*
X108824310Y-70159775D02*
X108871929Y-70350251D01*
X108871929Y-70350251D02*
X108871929Y-70588346D01*
X108871929Y-70588346D02*
X108824310Y-70778822D01*
X108824310Y-70778822D02*
X108776691Y-70874060D01*
X108776691Y-70874060D02*
X108729072Y-70921680D01*
X108729072Y-70921680D02*
X108633834Y-70969299D01*
X108633834Y-70969299D02*
X108538596Y-70969299D01*
X108538596Y-70969299D02*
X108443358Y-70921680D01*
X108443358Y-70921680D02*
X108395739Y-70874060D01*
X108395739Y-70874060D02*
X108348120Y-70778822D01*
X108348120Y-70778822D02*
X108300501Y-70588346D01*
X108300501Y-70588346D02*
X108300501Y-70350251D01*
X108300501Y-70350251D02*
X108348120Y-70159775D01*
X108348120Y-70159775D02*
X108395739Y-70064537D01*
X108395739Y-70064537D02*
X108443358Y-70016918D01*
X108443358Y-70016918D02*
X108538596Y-69969299D01*
X109729072Y-69969299D02*
X109538596Y-69969299D01*
X109538596Y-69969299D02*
X109443358Y-70016918D01*
X109443358Y-70016918D02*
X109395739Y-70064537D01*
X109395739Y-70064537D02*
X109300501Y-70207394D01*
X109300501Y-70207394D02*
X109252882Y-70397870D01*
X109252882Y-70397870D02*
X109252882Y-70778822D01*
X109252882Y-70778822D02*
X109300501Y-70874060D01*
X109300501Y-70874060D02*
X109348120Y-70921680D01*
X109348120Y-70921680D02*
X109443358Y-70969299D01*
X109443358Y-70969299D02*
X109633834Y-70969299D01*
X109633834Y-70969299D02*
X109729072Y-70921680D01*
X109729072Y-70921680D02*
X109776691Y-70874060D01*
X109776691Y-70874060D02*
X109824310Y-70778822D01*
X109824310Y-70778822D02*
X109824310Y-70540727D01*
X109824310Y-70540727D02*
X109776691Y-70445489D01*
X109776691Y-70445489D02*
X109729072Y-70397870D01*
X109729072Y-70397870D02*
X109633834Y-70350251D01*
X109633834Y-70350251D02*
X109443358Y-70350251D01*
X109443358Y-70350251D02*
X109348120Y-70397870D01*
X109348120Y-70397870D02*
X109300501Y-70445489D01*
X109300501Y-70445489D02*
X109252882Y-70540727D01*
X144733834Y-64969299D02*
X144829072Y-64969299D01*
X144829072Y-64969299D02*
X144924310Y-65016918D01*
X144924310Y-65016918D02*
X144971929Y-65064537D01*
X144971929Y-65064537D02*
X145019548Y-65159775D01*
X145019548Y-65159775D02*
X145067167Y-65350251D01*
X145067167Y-65350251D02*
X145067167Y-65588346D01*
X145067167Y-65588346D02*
X145019548Y-65778822D01*
X145019548Y-65778822D02*
X144971929Y-65874060D01*
X144971929Y-65874060D02*
X144924310Y-65921680D01*
X144924310Y-65921680D02*
X144829072Y-65969299D01*
X144829072Y-65969299D02*
X144733834Y-65969299D01*
X144733834Y-65969299D02*
X144638596Y-65921680D01*
X144638596Y-65921680D02*
X144590977Y-65874060D01*
X144590977Y-65874060D02*
X144543358Y-65778822D01*
X144543358Y-65778822D02*
X144495739Y-65588346D01*
X144495739Y-65588346D02*
X144495739Y-65350251D01*
X144495739Y-65350251D02*
X144543358Y-65159775D01*
X144543358Y-65159775D02*
X144590977Y-65064537D01*
X144590977Y-65064537D02*
X144638596Y-65016918D01*
X144638596Y-65016918D02*
X144733834Y-64969299D01*
X145638596Y-65397870D02*
X145543358Y-65350251D01*
X145543358Y-65350251D02*
X145495739Y-65302632D01*
X145495739Y-65302632D02*
X145448120Y-65207394D01*
X145448120Y-65207394D02*
X145448120Y-65159775D01*
X145448120Y-65159775D02*
X145495739Y-65064537D01*
X145495739Y-65064537D02*
X145543358Y-65016918D01*
X145543358Y-65016918D02*
X145638596Y-64969299D01*
X145638596Y-64969299D02*
X145829072Y-64969299D01*
X145829072Y-64969299D02*
X145924310Y-65016918D01*
X145924310Y-65016918D02*
X145971929Y-65064537D01*
X145971929Y-65064537D02*
X146019548Y-65159775D01*
X146019548Y-65159775D02*
X146019548Y-65207394D01*
X146019548Y-65207394D02*
X145971929Y-65302632D01*
X145971929Y-65302632D02*
X145924310Y-65350251D01*
X145924310Y-65350251D02*
X145829072Y-65397870D01*
X145829072Y-65397870D02*
X145638596Y-65397870D01*
X145638596Y-65397870D02*
X145543358Y-65445489D01*
X145543358Y-65445489D02*
X145495739Y-65493108D01*
X145495739Y-65493108D02*
X145448120Y-65588346D01*
X145448120Y-65588346D02*
X145448120Y-65778822D01*
X145448120Y-65778822D02*
X145495739Y-65874060D01*
X145495739Y-65874060D02*
X145543358Y-65921680D01*
X145543358Y-65921680D02*
X145638596Y-65969299D01*
X145638596Y-65969299D02*
X145829072Y-65969299D01*
X145829072Y-65969299D02*
X145924310Y-65921680D01*
X145924310Y-65921680D02*
X145971929Y-65874060D01*
X145971929Y-65874060D02*
X146019548Y-65778822D01*
X146019548Y-65778822D02*
X146019548Y-65588346D01*
X146019548Y-65588346D02*
X145971929Y-65493108D01*
X145971929Y-65493108D02*
X145924310Y-65445489D01*
X145924310Y-65445489D02*
X145829072Y-65397870D01*
X146638596Y-64969299D02*
X146733834Y-64969299D01*
X146733834Y-64969299D02*
X146829072Y-65016918D01*
X146829072Y-65016918D02*
X146876691Y-65064537D01*
X146876691Y-65064537D02*
X146924310Y-65159775D01*
X146924310Y-65159775D02*
X146971929Y-65350251D01*
X146971929Y-65350251D02*
X146971929Y-65588346D01*
X146971929Y-65588346D02*
X146924310Y-65778822D01*
X146924310Y-65778822D02*
X146876691Y-65874060D01*
X146876691Y-65874060D02*
X146829072Y-65921680D01*
X146829072Y-65921680D02*
X146733834Y-65969299D01*
X146733834Y-65969299D02*
X146638596Y-65969299D01*
X146638596Y-65969299D02*
X146543358Y-65921680D01*
X146543358Y-65921680D02*
X146495739Y-65874060D01*
X146495739Y-65874060D02*
X146448120Y-65778822D01*
X146448120Y-65778822D02*
X146400501Y-65588346D01*
X146400501Y-65588346D02*
X146400501Y-65350251D01*
X146400501Y-65350251D02*
X146448120Y-65159775D01*
X146448120Y-65159775D02*
X146495739Y-65064537D01*
X146495739Y-65064537D02*
X146543358Y-65016918D01*
X146543358Y-65016918D02*
X146638596Y-64969299D01*
X147876691Y-64969299D02*
X147400501Y-64969299D01*
X147400501Y-64969299D02*
X147352882Y-65445489D01*
X147352882Y-65445489D02*
X147400501Y-65397870D01*
X147400501Y-65397870D02*
X147495739Y-65350251D01*
X147495739Y-65350251D02*
X147733834Y-65350251D01*
X147733834Y-65350251D02*
X147829072Y-65397870D01*
X147829072Y-65397870D02*
X147876691Y-65445489D01*
X147876691Y-65445489D02*
X147924310Y-65540727D01*
X147924310Y-65540727D02*
X147924310Y-65778822D01*
X147924310Y-65778822D02*
X147876691Y-65874060D01*
X147876691Y-65874060D02*
X147829072Y-65921680D01*
X147829072Y-65921680D02*
X147733834Y-65969299D01*
X147733834Y-65969299D02*
X147495739Y-65969299D01*
X147495739Y-65969299D02*
X147400501Y-65921680D01*
X147400501Y-65921680D02*
X147352882Y-65874060D01*
X161867167Y-57769299D02*
X161295739Y-57769299D01*
X161581453Y-57769299D02*
X161581453Y-56769299D01*
X161581453Y-56769299D02*
X161486215Y-56912156D01*
X161486215Y-56912156D02*
X161390977Y-57007394D01*
X161390977Y-57007394D02*
X161295739Y-57055013D01*
X162248120Y-56864537D02*
X162295739Y-56816918D01*
X162295739Y-56816918D02*
X162390977Y-56769299D01*
X162390977Y-56769299D02*
X162629072Y-56769299D01*
X162629072Y-56769299D02*
X162724310Y-56816918D01*
X162724310Y-56816918D02*
X162771929Y-56864537D01*
X162771929Y-56864537D02*
X162819548Y-56959775D01*
X162819548Y-56959775D02*
X162819548Y-57055013D01*
X162819548Y-57055013D02*
X162771929Y-57197870D01*
X162771929Y-57197870D02*
X162200501Y-57769299D01*
X162200501Y-57769299D02*
X162819548Y-57769299D01*
X163438596Y-56769299D02*
X163533834Y-56769299D01*
X163533834Y-56769299D02*
X163629072Y-56816918D01*
X163629072Y-56816918D02*
X163676691Y-56864537D01*
X163676691Y-56864537D02*
X163724310Y-56959775D01*
X163724310Y-56959775D02*
X163771929Y-57150251D01*
X163771929Y-57150251D02*
X163771929Y-57388346D01*
X163771929Y-57388346D02*
X163724310Y-57578822D01*
X163724310Y-57578822D02*
X163676691Y-57674060D01*
X163676691Y-57674060D02*
X163629072Y-57721680D01*
X163629072Y-57721680D02*
X163533834Y-57769299D01*
X163533834Y-57769299D02*
X163438596Y-57769299D01*
X163438596Y-57769299D02*
X163343358Y-57721680D01*
X163343358Y-57721680D02*
X163295739Y-57674060D01*
X163295739Y-57674060D02*
X163248120Y-57578822D01*
X163248120Y-57578822D02*
X163200501Y-57388346D01*
X163200501Y-57388346D02*
X163200501Y-57150251D01*
X163200501Y-57150251D02*
X163248120Y-56959775D01*
X163248120Y-56959775D02*
X163295739Y-56864537D01*
X163295739Y-56864537D02*
X163343358Y-56816918D01*
X163343358Y-56816918D02*
X163438596Y-56769299D01*
X164629072Y-56769299D02*
X164438596Y-56769299D01*
X164438596Y-56769299D02*
X164343358Y-56816918D01*
X164343358Y-56816918D02*
X164295739Y-56864537D01*
X164295739Y-56864537D02*
X164200501Y-57007394D01*
X164200501Y-57007394D02*
X164152882Y-57197870D01*
X164152882Y-57197870D02*
X164152882Y-57578822D01*
X164152882Y-57578822D02*
X164200501Y-57674060D01*
X164200501Y-57674060D02*
X164248120Y-57721680D01*
X164248120Y-57721680D02*
X164343358Y-57769299D01*
X164343358Y-57769299D02*
X164533834Y-57769299D01*
X164533834Y-57769299D02*
X164629072Y-57721680D01*
X164629072Y-57721680D02*
X164676691Y-57674060D01*
X164676691Y-57674060D02*
X164724310Y-57578822D01*
X164724310Y-57578822D02*
X164724310Y-57340727D01*
X164724310Y-57340727D02*
X164676691Y-57245489D01*
X164676691Y-57245489D02*
X164629072Y-57197870D01*
X164629072Y-57197870D02*
X164533834Y-57150251D01*
X164533834Y-57150251D02*
X164343358Y-57150251D01*
X164343358Y-57150251D02*
X164248120Y-57197870D01*
X164248120Y-57197870D02*
X164200501Y-57245489D01*
X164200501Y-57245489D02*
X164152882Y-57340727D01*
X123733834Y-95869299D02*
X123829072Y-95869299D01*
X123829072Y-95869299D02*
X123924310Y-95916918D01*
X123924310Y-95916918D02*
X123971929Y-95964537D01*
X123971929Y-95964537D02*
X124019548Y-96059775D01*
X124019548Y-96059775D02*
X124067167Y-96250251D01*
X124067167Y-96250251D02*
X124067167Y-96488346D01*
X124067167Y-96488346D02*
X124019548Y-96678822D01*
X124019548Y-96678822D02*
X123971929Y-96774060D01*
X123971929Y-96774060D02*
X123924310Y-96821680D01*
X123924310Y-96821680D02*
X123829072Y-96869299D01*
X123829072Y-96869299D02*
X123733834Y-96869299D01*
X123733834Y-96869299D02*
X123638596Y-96821680D01*
X123638596Y-96821680D02*
X123590977Y-96774060D01*
X123590977Y-96774060D02*
X123543358Y-96678822D01*
X123543358Y-96678822D02*
X123495739Y-96488346D01*
X123495739Y-96488346D02*
X123495739Y-96250251D01*
X123495739Y-96250251D02*
X123543358Y-96059775D01*
X123543358Y-96059775D02*
X123590977Y-95964537D01*
X123590977Y-95964537D02*
X123638596Y-95916918D01*
X123638596Y-95916918D02*
X123733834Y-95869299D01*
X124924310Y-96202632D02*
X124924310Y-96869299D01*
X124686215Y-95821680D02*
X124448120Y-96535965D01*
X124448120Y-96535965D02*
X125067167Y-96535965D01*
X125638596Y-95869299D02*
X125733834Y-95869299D01*
X125733834Y-95869299D02*
X125829072Y-95916918D01*
X125829072Y-95916918D02*
X125876691Y-95964537D01*
X125876691Y-95964537D02*
X125924310Y-96059775D01*
X125924310Y-96059775D02*
X125971929Y-96250251D01*
X125971929Y-96250251D02*
X125971929Y-96488346D01*
X125971929Y-96488346D02*
X125924310Y-96678822D01*
X125924310Y-96678822D02*
X125876691Y-96774060D01*
X125876691Y-96774060D02*
X125829072Y-96821680D01*
X125829072Y-96821680D02*
X125733834Y-96869299D01*
X125733834Y-96869299D02*
X125638596Y-96869299D01*
X125638596Y-96869299D02*
X125543358Y-96821680D01*
X125543358Y-96821680D02*
X125495739Y-96774060D01*
X125495739Y-96774060D02*
X125448120Y-96678822D01*
X125448120Y-96678822D02*
X125400501Y-96488346D01*
X125400501Y-96488346D02*
X125400501Y-96250251D01*
X125400501Y-96250251D02*
X125448120Y-96059775D01*
X125448120Y-96059775D02*
X125495739Y-95964537D01*
X125495739Y-95964537D02*
X125543358Y-95916918D01*
X125543358Y-95916918D02*
X125638596Y-95869299D01*
X126352882Y-95964537D02*
X126400501Y-95916918D01*
X126400501Y-95916918D02*
X126495739Y-95869299D01*
X126495739Y-95869299D02*
X126733834Y-95869299D01*
X126733834Y-95869299D02*
X126829072Y-95916918D01*
X126829072Y-95916918D02*
X126876691Y-95964537D01*
X126876691Y-95964537D02*
X126924310Y-96059775D01*
X126924310Y-96059775D02*
X126924310Y-96155013D01*
X126924310Y-96155013D02*
X126876691Y-96297870D01*
X126876691Y-96297870D02*
X126305263Y-96869299D01*
X126305263Y-96869299D02*
X126924310Y-96869299D01*
X109033834Y-95969299D02*
X109129072Y-95969299D01*
X109129072Y-95969299D02*
X109224310Y-96016918D01*
X109224310Y-96016918D02*
X109271929Y-96064537D01*
X109271929Y-96064537D02*
X109319548Y-96159775D01*
X109319548Y-96159775D02*
X109367167Y-96350251D01*
X109367167Y-96350251D02*
X109367167Y-96588346D01*
X109367167Y-96588346D02*
X109319548Y-96778822D01*
X109319548Y-96778822D02*
X109271929Y-96874060D01*
X109271929Y-96874060D02*
X109224310Y-96921680D01*
X109224310Y-96921680D02*
X109129072Y-96969299D01*
X109129072Y-96969299D02*
X109033834Y-96969299D01*
X109033834Y-96969299D02*
X108938596Y-96921680D01*
X108938596Y-96921680D02*
X108890977Y-96874060D01*
X108890977Y-96874060D02*
X108843358Y-96778822D01*
X108843358Y-96778822D02*
X108795739Y-96588346D01*
X108795739Y-96588346D02*
X108795739Y-96350251D01*
X108795739Y-96350251D02*
X108843358Y-96159775D01*
X108843358Y-96159775D02*
X108890977Y-96064537D01*
X108890977Y-96064537D02*
X108938596Y-96016918D01*
X108938596Y-96016918D02*
X109033834Y-95969299D01*
X110224310Y-95969299D02*
X110033834Y-95969299D01*
X110033834Y-95969299D02*
X109938596Y-96016918D01*
X109938596Y-96016918D02*
X109890977Y-96064537D01*
X109890977Y-96064537D02*
X109795739Y-96207394D01*
X109795739Y-96207394D02*
X109748120Y-96397870D01*
X109748120Y-96397870D02*
X109748120Y-96778822D01*
X109748120Y-96778822D02*
X109795739Y-96874060D01*
X109795739Y-96874060D02*
X109843358Y-96921680D01*
X109843358Y-96921680D02*
X109938596Y-96969299D01*
X109938596Y-96969299D02*
X110129072Y-96969299D01*
X110129072Y-96969299D02*
X110224310Y-96921680D01*
X110224310Y-96921680D02*
X110271929Y-96874060D01*
X110271929Y-96874060D02*
X110319548Y-96778822D01*
X110319548Y-96778822D02*
X110319548Y-96540727D01*
X110319548Y-96540727D02*
X110271929Y-96445489D01*
X110271929Y-96445489D02*
X110224310Y-96397870D01*
X110224310Y-96397870D02*
X110129072Y-96350251D01*
X110129072Y-96350251D02*
X109938596Y-96350251D01*
X109938596Y-96350251D02*
X109843358Y-96397870D01*
X109843358Y-96397870D02*
X109795739Y-96445489D01*
X109795739Y-96445489D02*
X109748120Y-96540727D01*
X110938596Y-95969299D02*
X111033834Y-95969299D01*
X111033834Y-95969299D02*
X111129072Y-96016918D01*
X111129072Y-96016918D02*
X111176691Y-96064537D01*
X111176691Y-96064537D02*
X111224310Y-96159775D01*
X111224310Y-96159775D02*
X111271929Y-96350251D01*
X111271929Y-96350251D02*
X111271929Y-96588346D01*
X111271929Y-96588346D02*
X111224310Y-96778822D01*
X111224310Y-96778822D02*
X111176691Y-96874060D01*
X111176691Y-96874060D02*
X111129072Y-96921680D01*
X111129072Y-96921680D02*
X111033834Y-96969299D01*
X111033834Y-96969299D02*
X110938596Y-96969299D01*
X110938596Y-96969299D02*
X110843358Y-96921680D01*
X110843358Y-96921680D02*
X110795739Y-96874060D01*
X110795739Y-96874060D02*
X110748120Y-96778822D01*
X110748120Y-96778822D02*
X110700501Y-96588346D01*
X110700501Y-96588346D02*
X110700501Y-96350251D01*
X110700501Y-96350251D02*
X110748120Y-96159775D01*
X110748120Y-96159775D02*
X110795739Y-96064537D01*
X110795739Y-96064537D02*
X110843358Y-96016918D01*
X110843358Y-96016918D02*
X110938596Y-95969299D01*
X111605263Y-95969299D02*
X112224310Y-95969299D01*
X112224310Y-95969299D02*
X111890977Y-96350251D01*
X111890977Y-96350251D02*
X112033834Y-96350251D01*
X112033834Y-96350251D02*
X112129072Y-96397870D01*
X112129072Y-96397870D02*
X112176691Y-96445489D01*
X112176691Y-96445489D02*
X112224310Y-96540727D01*
X112224310Y-96540727D02*
X112224310Y-96778822D01*
X112224310Y-96778822D02*
X112176691Y-96874060D01*
X112176691Y-96874060D02*
X112129072Y-96921680D01*
X112129072Y-96921680D02*
X112033834Y-96969299D01*
X112033834Y-96969299D02*
X111748120Y-96969299D01*
X111748120Y-96969299D02*
X111652882Y-96921680D01*
X111652882Y-96921680D02*
X111605263Y-96874060D01*
X155486215Y-79869299D02*
X155486215Y-80107394D01*
X155248120Y-80012156D02*
X155486215Y-80107394D01*
X155486215Y-80107394D02*
X155724310Y-80012156D01*
X155343358Y-80297870D02*
X155486215Y-80107394D01*
X155486215Y-80107394D02*
X155629072Y-80297870D01*
X155486215Y-70269299D02*
X155486215Y-70507394D01*
X155248120Y-70412156D02*
X155486215Y-70507394D01*
X155486215Y-70507394D02*
X155724310Y-70412156D01*
X155343358Y-70697870D02*
X155486215Y-70507394D01*
X155486215Y-70507394D02*
X155629072Y-70697870D01*
X150186215Y-56669299D02*
X150186215Y-56907394D01*
X149948120Y-56812156D02*
X150186215Y-56907394D01*
X150186215Y-56907394D02*
X150424310Y-56812156D01*
X150043358Y-57097870D02*
X150186215Y-56907394D01*
X150186215Y-56907394D02*
X150329072Y-57097870D01*
X152986215Y-56669299D02*
X152986215Y-56907394D01*
X152748120Y-56812156D02*
X152986215Y-56907394D01*
X152986215Y-56907394D02*
X153224310Y-56812156D01*
X152843358Y-57097870D02*
X152986215Y-56907394D01*
X152986215Y-56907394D02*
X153129072Y-57097870D01*
X149986215Y-65269299D02*
X149986215Y-65507394D01*
X149748120Y-65412156D02*
X149986215Y-65507394D01*
X149986215Y-65507394D02*
X150224310Y-65412156D01*
X149843358Y-65697870D02*
X149986215Y-65507394D01*
X149986215Y-65507394D02*
X150129072Y-65697870D01*
X163486215Y-67269299D02*
X163486215Y-67507394D01*
X163248120Y-67412156D02*
X163486215Y-67507394D01*
X163486215Y-67507394D02*
X163724310Y-67412156D01*
X163343358Y-67697870D02*
X163486215Y-67507394D01*
X163486215Y-67507394D02*
X163629072Y-67697870D01*
X163986215Y-63269299D02*
X163986215Y-63507394D01*
X163748120Y-63412156D02*
X163986215Y-63507394D01*
X163986215Y-63507394D02*
X164224310Y-63412156D01*
X163843358Y-63697870D02*
X163986215Y-63507394D01*
X163986215Y-63507394D02*
X164129072Y-63697870D01*
D11*
G36*
X140016465Y-84425609D02*
G01*
X140059296Y-84428888D01*
X140101734Y-84434083D01*
X140143728Y-84441172D01*
X140185226Y-84450137D01*
X140226176Y-84460959D01*
X140266527Y-84473618D01*
X140306227Y-84488094D01*
X140345223Y-84504369D01*
X140383466Y-84522423D01*
X140420902Y-84542236D01*
X140457480Y-84563790D01*
X140493148Y-84587064D01*
X140527856Y-84612040D01*
X140561551Y-84638698D01*
X140594181Y-84667019D01*
X140625694Y-84696983D01*
X140656040Y-84728570D01*
X140685167Y-84761763D01*
X140713022Y-84796540D01*
X140739554Y-84832884D01*
X140764712Y-84870774D01*
X140788443Y-84910190D01*
X140810696Y-84951115D01*
X140830050Y-84987168D01*
X140849771Y-85021257D01*
X140869895Y-85053403D01*
X140890458Y-85083627D01*
X140911496Y-85111949D01*
X140933046Y-85138390D01*
X140955144Y-85162971D01*
X140977826Y-85185712D01*
X141001128Y-85206634D01*
X141025086Y-85225758D01*
X141049736Y-85243104D01*
X141075116Y-85258693D01*
X141101260Y-85272546D01*
X141128205Y-85284683D01*
X141155988Y-85295125D01*
X141184643Y-85303893D01*
X141242838Y-85311486D01*
X141361143Y-85318335D01*
X141757907Y-85329469D01*
X142334587Y-85336635D01*
X143050836Y-85339171D01*
X143504335Y-85339688D01*
X143881518Y-85341321D01*
X144187760Y-85344194D01*
X144428434Y-85348431D01*
X144608916Y-85354157D01*
X144678264Y-85357617D01*
X144734580Y-85361495D01*
X144778534Y-85365807D01*
X144810800Y-85370569D01*
X144832048Y-85375797D01*
X144838750Y-85378589D01*
X144842950Y-85381504D01*
X144851170Y-85407462D01*
X144858604Y-85465144D01*
X144870951Y-85657718D01*
X144879660Y-85923300D01*
X144884400Y-86225966D01*
X144884841Y-86529788D01*
X144880652Y-86798843D01*
X144871503Y-86997205D01*
X144864964Y-87058649D01*
X144857062Y-87088948D01*
X144851977Y-87093075D01*
X144842186Y-87097492D01*
X144809491Y-87107028D01*
X144761004Y-87117226D01*
X144698751Y-87127754D01*
X144624757Y-87138282D01*
X144541048Y-87148479D01*
X144449649Y-87158015D01*
X144352588Y-87166558D01*
X144254603Y-87174896D01*
X144165347Y-87181332D01*
X144084286Y-87185783D01*
X144010890Y-87188167D01*
X143944624Y-87188401D01*
X143913999Y-87187687D01*
X143884957Y-87186403D01*
X143857433Y-87184541D01*
X143831358Y-87182090D01*
X143806667Y-87179039D01*
X143783293Y-87175379D01*
X143761169Y-87171098D01*
X143740230Y-87166187D01*
X143720408Y-87160636D01*
X143701637Y-87154433D01*
X143683851Y-87147568D01*
X143666982Y-87140032D01*
X143650965Y-87131814D01*
X143635733Y-87122903D01*
X143621219Y-87113289D01*
X143607357Y-87102963D01*
X143594080Y-87091913D01*
X143581322Y-87080129D01*
X143569016Y-87067600D01*
X143557096Y-87054318D01*
X143545495Y-87040271D01*
X143534146Y-87025448D01*
X143523512Y-87011060D01*
X143514067Y-86996833D01*
X143505759Y-86982512D01*
X143498536Y-86967846D01*
X143492346Y-86952579D01*
X143487139Y-86936461D01*
X143482862Y-86919236D01*
X143479463Y-86900652D01*
X143476891Y-86880456D01*
X143475095Y-86858395D01*
X143474021Y-86834215D01*
X143473620Y-86807663D01*
X143474625Y-86746430D01*
X143477698Y-86672670D01*
X143481722Y-86545064D01*
X143483431Y-86387362D01*
X143483156Y-86219737D01*
X143481229Y-86062365D01*
X143479188Y-85895037D01*
X143476204Y-85828465D01*
X143468879Y-85772150D01*
X143454940Y-85725241D01*
X143444779Y-85705047D01*
X143432112Y-85686884D01*
X143416655Y-85670647D01*
X143398123Y-85656227D01*
X143376232Y-85643520D01*
X143350697Y-85632417D01*
X143287562Y-85614602D01*
X143206444Y-85601928D01*
X143105068Y-85593544D01*
X142981162Y-85588596D01*
X142656661Y-85585599D01*
X142214752Y-85586116D01*
X141965459Y-85586763D01*
X141742417Y-85588651D01*
X141547073Y-85591696D01*
X141380875Y-85595817D01*
X141245269Y-85600929D01*
X141141703Y-85606951D01*
X141102387Y-85610277D01*
X141071624Y-85613800D01*
X141049593Y-85617509D01*
X141036478Y-85621393D01*
X141029463Y-85626212D01*
X141021705Y-85632658D01*
X141013285Y-85640624D01*
X141004286Y-85650001D01*
X140994791Y-85660679D01*
X140984883Y-85672552D01*
X140974644Y-85685510D01*
X140964157Y-85699445D01*
X140942770Y-85729810D01*
X140921382Y-85762780D01*
X140900656Y-85797486D01*
X140890748Y-85815219D01*
X140881253Y-85833060D01*
X140857141Y-85879539D01*
X140832388Y-85923769D01*
X140806932Y-85965819D01*
X140780712Y-86005756D01*
X140753665Y-86043645D01*
X140725729Y-86079556D01*
X140696842Y-86113555D01*
X140666942Y-86145709D01*
X140635967Y-86176085D01*
X140603855Y-86204751D01*
X140570545Y-86231773D01*
X140535973Y-86257219D01*
X140500079Y-86281157D01*
X140462799Y-86303652D01*
X140424073Y-86324773D01*
X140383838Y-86344587D01*
X140284736Y-86393742D01*
X140244582Y-86417963D01*
X140210149Y-86444137D01*
X140181028Y-86473907D01*
X140156812Y-86508918D01*
X140137091Y-86550812D01*
X140121458Y-86601233D01*
X140109504Y-86661824D01*
X140100822Y-86734227D01*
X140095002Y-86820088D01*
X140091637Y-86921048D01*
X140090638Y-87174841D01*
X140094559Y-87508753D01*
X140097563Y-87732630D01*
X140101394Y-87919299D01*
X140103671Y-87999560D01*
X140106217Y-88071573D01*
X140109052Y-88135689D01*
X140112198Y-88192261D01*
X140115674Y-88241640D01*
X140119501Y-88284176D01*
X140123701Y-88320222D01*
X140128294Y-88350129D01*
X140133299Y-88374248D01*
X140138739Y-88392931D01*
X140141628Y-88400343D01*
X140144634Y-88406529D01*
X140147758Y-88411530D01*
X140151004Y-88415393D01*
X140186860Y-88427499D01*
X140275136Y-88437497D01*
X140651947Y-88451994D01*
X141367425Y-88460537D01*
X142507559Y-88464781D01*
X143443136Y-88469853D01*
X144181930Y-88478893D01*
X144460686Y-88484488D01*
X144670031Y-88490579D01*
X144803225Y-88497000D01*
X144839160Y-88500283D01*
X144853531Y-88503587D01*
X144859801Y-88550426D01*
X144865327Y-88673913D01*
X144873816Y-89128004D01*
X144878336Y-89820220D01*
X144878226Y-90704920D01*
X144867642Y-92870976D01*
X142384088Y-92881559D01*
X141295437Y-92882110D01*
X140511719Y-92878031D01*
X140234417Y-92874049D01*
X140033595Y-92868661D01*
X139909338Y-92861784D01*
X139875947Y-92857762D01*
X139861728Y-92853337D01*
X139851066Y-92826034D01*
X139841587Y-92769359D01*
X139826284Y-92584343D01*
X139816024Y-92331198D01*
X139811015Y-92042830D01*
X139811462Y-91752146D01*
X139817573Y-91492056D01*
X139829555Y-91295465D01*
X139837812Y-91231266D01*
X139847613Y-91195281D01*
X139897006Y-91107087D01*
X141159949Y-91107087D01*
X141205810Y-91195281D01*
X141211558Y-91208396D01*
X141216897Y-91225289D01*
X141226371Y-91270633D01*
X141234273Y-91331770D01*
X141240646Y-91409153D01*
X141245531Y-91503239D01*
X141248969Y-91614481D01*
X141251001Y-91743334D01*
X141251669Y-91890254D01*
X141251764Y-91990220D01*
X141252096Y-92078962D01*
X141252739Y-92157245D01*
X141253764Y-92225833D01*
X141255244Y-92285492D01*
X141257250Y-92336986D01*
X141258474Y-92359910D01*
X141259857Y-92381080D01*
X141261407Y-92400591D01*
X141263135Y-92418538D01*
X141265048Y-92435018D01*
X141267157Y-92450126D01*
X141269470Y-92463958D01*
X141271996Y-92476609D01*
X141274744Y-92488175D01*
X141277723Y-92498751D01*
X141280943Y-92508433D01*
X141284412Y-92517316D01*
X141288139Y-92525497D01*
X141292134Y-92533071D01*
X141296406Y-92540133D01*
X141300962Y-92546779D01*
X141305814Y-92553104D01*
X141310969Y-92559205D01*
X141316436Y-92565177D01*
X141322226Y-92571115D01*
X141348271Y-92593391D01*
X141363929Y-92602516D01*
X141383080Y-92610417D01*
X141407027Y-92617180D01*
X141437072Y-92622895D01*
X141520663Y-92631528D01*
X141644273Y-92637019D01*
X141818320Y-92640071D01*
X142359393Y-92641670D01*
X142659509Y-92641394D01*
X142783483Y-92640926D01*
X142891701Y-92640127D01*
X142985388Y-92638914D01*
X143065768Y-92637205D01*
X143134066Y-92634918D01*
X143164067Y-92633531D01*
X143191507Y-92631969D01*
X143216539Y-92630220D01*
X143239315Y-92628276D01*
X143259990Y-92626124D01*
X143278716Y-92623756D01*
X143295646Y-92621160D01*
X143310933Y-92618326D01*
X143324731Y-92615244D01*
X143337193Y-92611904D01*
X143348471Y-92608295D01*
X143358718Y-92604408D01*
X143368089Y-92600230D01*
X143376735Y-92595753D01*
X143384810Y-92590966D01*
X143392468Y-92585859D01*
X143399860Y-92580420D01*
X143407141Y-92574641D01*
X143491809Y-92507615D01*
X143502392Y-90853086D01*
X143505306Y-90301982D01*
X143505864Y-89860017D01*
X143505143Y-89676036D01*
X143503693Y-89514626D01*
X143501469Y-89374218D01*
X143498423Y-89253240D01*
X143494508Y-89150121D01*
X143489679Y-89063291D01*
X143483889Y-88991178D01*
X143477091Y-88932212D01*
X143469239Y-88884821D01*
X143460286Y-88847435D01*
X143455382Y-88832003D01*
X143450186Y-88818482D01*
X143444691Y-88806678D01*
X143438891Y-88796392D01*
X143430754Y-88788197D01*
X143415955Y-88780773D01*
X143360565Y-88768005D01*
X143261105Y-88757636D01*
X143105958Y-88749209D01*
X142582138Y-88736366D01*
X141696170Y-88725837D01*
X139985199Y-88708198D01*
X139904059Y-88627059D01*
X139877262Y-88599023D01*
X139866394Y-88583659D01*
X139857039Y-88565489D01*
X139849070Y-88543081D01*
X139842356Y-88515004D01*
X139836769Y-88479827D01*
X139832179Y-88436118D01*
X139825475Y-88317379D01*
X139821210Y-88147336D01*
X139815863Y-87607531D01*
X139813893Y-87394404D01*
X139810683Y-87202939D01*
X139806315Y-87034295D01*
X139800872Y-86889629D01*
X139794437Y-86770098D01*
X139787092Y-86676860D01*
X139783104Y-86640463D01*
X139778920Y-86611073D01*
X139774550Y-86588835D01*
X139770004Y-86573893D01*
X139764555Y-86562407D01*
X139757498Y-86550466D01*
X139748881Y-86538112D01*
X139738750Y-86525386D01*
X139727152Y-86512329D01*
X139714132Y-86498982D01*
X139699737Y-86485388D01*
X139684015Y-86471587D01*
X139667011Y-86457621D01*
X139648771Y-86443530D01*
X139629344Y-86429357D01*
X139608774Y-86415143D01*
X139587108Y-86400928D01*
X139564394Y-86386755D01*
X139540677Y-86372665D01*
X139516003Y-86358699D01*
X139465638Y-86329132D01*
X139416523Y-86297451D01*
X139368835Y-86263859D01*
X139322748Y-86228556D01*
X139278439Y-86191745D01*
X139236084Y-86153625D01*
X139195857Y-86114400D01*
X139157935Y-86074271D01*
X139122494Y-86033439D01*
X139089709Y-85992106D01*
X139059755Y-85950473D01*
X139032809Y-85908741D01*
X139009046Y-85867113D01*
X138988643Y-85825790D01*
X138971774Y-85784974D01*
X138958615Y-85744865D01*
X138949878Y-85706349D01*
X138942299Y-85662954D01*
X138936042Y-85615756D01*
X138931274Y-85565830D01*
X138928160Y-85514250D01*
X138926865Y-85462091D01*
X138927177Y-85438686D01*
X139208323Y-85438686D01*
X139210287Y-85492264D01*
X139216494Y-85546228D01*
X139227090Y-85600406D01*
X139242224Y-85654627D01*
X139262044Y-85708717D01*
X139286697Y-85762504D01*
X139308972Y-85803796D01*
X139333427Y-85842975D01*
X139360011Y-85879993D01*
X139388673Y-85914805D01*
X139419360Y-85947363D01*
X139452022Y-85977622D01*
X139486605Y-86005535D01*
X139523060Y-86031056D01*
X139561333Y-86054137D01*
X139601374Y-86074733D01*
X139643130Y-86092796D01*
X139686550Y-86108281D01*
X139731582Y-86121141D01*
X139778175Y-86131329D01*
X139826277Y-86138799D01*
X139875836Y-86143504D01*
X139920595Y-86145905D01*
X139964238Y-86146507D01*
X140006746Y-86145330D01*
X140048098Y-86142394D01*
X140088275Y-86137720D01*
X140127256Y-86131326D01*
X140165021Y-86123234D01*
X140201550Y-86113463D01*
X140236824Y-86102032D01*
X140270822Y-86088964D01*
X140303524Y-86074276D01*
X140334910Y-86057990D01*
X140364961Y-86040125D01*
X140393655Y-86020701D01*
X140420974Y-85999738D01*
X140446897Y-85977257D01*
X140471404Y-85953278D01*
X140494475Y-85927819D01*
X140516090Y-85900903D01*
X140536229Y-85872547D01*
X140554872Y-85842773D01*
X140571998Y-85811601D01*
X140587589Y-85779050D01*
X140601624Y-85745141D01*
X140614082Y-85709893D01*
X140624945Y-85673327D01*
X140634191Y-85635462D01*
X140641801Y-85596320D01*
X140647754Y-85555918D01*
X140652032Y-85514279D01*
X140654613Y-85471421D01*
X140655478Y-85427365D01*
X140654932Y-85397778D01*
X140653303Y-85368559D01*
X140650603Y-85339725D01*
X140646844Y-85311293D01*
X140642039Y-85283280D01*
X140636200Y-85255701D01*
X140629338Y-85228575D01*
X140621467Y-85201918D01*
X140612599Y-85175747D01*
X140602746Y-85150078D01*
X140591919Y-85124929D01*
X140580133Y-85100316D01*
X140567398Y-85076255D01*
X140553727Y-85052765D01*
X140539132Y-85029861D01*
X140523626Y-85007560D01*
X140507221Y-84985879D01*
X140489928Y-84964836D01*
X140471761Y-84944446D01*
X140452732Y-84924726D01*
X140432853Y-84905694D01*
X140412136Y-84887366D01*
X140390593Y-84869759D01*
X140368238Y-84852889D01*
X140345081Y-84836774D01*
X140321135Y-84821430D01*
X140296414Y-84806874D01*
X140270928Y-84793124D01*
X140244690Y-84780194D01*
X140217712Y-84768104D01*
X140190007Y-84756868D01*
X140161587Y-84746504D01*
X140105181Y-84729484D01*
X140049171Y-84717336D01*
X139993705Y-84709885D01*
X139938931Y-84706961D01*
X139884996Y-84708391D01*
X139832049Y-84714002D01*
X139780238Y-84723622D01*
X139729710Y-84737078D01*
X139680614Y-84754198D01*
X139633097Y-84774810D01*
X139587307Y-84798740D01*
X139543393Y-84825817D01*
X139501501Y-84855868D01*
X139461781Y-84888720D01*
X139424379Y-84924201D01*
X139389445Y-84962139D01*
X139357125Y-85002361D01*
X139327568Y-85044695D01*
X139300922Y-85088968D01*
X139277335Y-85135007D01*
X139256953Y-85182641D01*
X139239927Y-85231696D01*
X139226402Y-85282001D01*
X139216528Y-85333383D01*
X139210453Y-85385669D01*
X139208323Y-85438686D01*
X138927177Y-85438686D01*
X138927554Y-85410428D01*
X138928694Y-85385119D01*
X138930392Y-85360337D01*
X138939437Y-85283539D01*
X138953302Y-85209304D01*
X138962026Y-85173173D01*
X138971933Y-85137715D01*
X138983017Y-85102938D01*
X138995271Y-85068854D01*
X139008687Y-85035473D01*
X139023260Y-85002805D01*
X139038980Y-84970860D01*
X139055843Y-84939650D01*
X139073839Y-84909183D01*
X139092963Y-84879471D01*
X139113206Y-84850523D01*
X139134563Y-84822351D01*
X139157025Y-84794964D01*
X139180587Y-84768373D01*
X139205240Y-84742589D01*
X139230977Y-84717620D01*
X139257792Y-84693479D01*
X139285677Y-84670174D01*
X139314626Y-84647717D01*
X139344631Y-84626118D01*
X139407780Y-84585535D01*
X139475068Y-84548507D01*
X139546439Y-84515117D01*
X139621835Y-84485448D01*
X139665876Y-84470624D01*
X139709989Y-84457889D01*
X139754123Y-84447224D01*
X139798225Y-84438609D01*
X139842245Y-84432024D01*
X139886131Y-84427452D01*
X139929830Y-84424871D01*
X139973292Y-84424263D01*
X140016465Y-84425609D01*
G37*
G36*
X148787696Y-84425724D02*
G01*
X148827909Y-84427791D01*
X148868547Y-84431677D01*
X148909758Y-84437382D01*
X148951693Y-84444906D01*
X148994501Y-84454249D01*
X149038333Y-84465411D01*
X149083337Y-84478392D01*
X149106035Y-84485680D01*
X149129110Y-84494278D01*
X149176169Y-84515186D01*
X149224066Y-84540683D01*
X149272350Y-84570335D01*
X149320572Y-84603708D01*
X149368282Y-84640367D01*
X149415031Y-84679879D01*
X149460369Y-84721809D01*
X149503847Y-84765724D01*
X149545015Y-84811189D01*
X149583423Y-84857770D01*
X149618623Y-84905034D01*
X149650163Y-84952545D01*
X149677595Y-84999871D01*
X149700469Y-85046576D01*
X149710056Y-85069560D01*
X149718335Y-85092227D01*
X149726169Y-85115608D01*
X149733873Y-85136896D01*
X149741567Y-85156230D01*
X149749370Y-85173751D01*
X149757400Y-85189598D01*
X149761537Y-85196937D01*
X149765776Y-85203910D01*
X149770131Y-85210534D01*
X149774617Y-85216826D01*
X149779249Y-85222805D01*
X149784041Y-85228487D01*
X149789010Y-85233890D01*
X149794169Y-85239032D01*
X149799533Y-85243929D01*
X149805118Y-85248600D01*
X149810938Y-85253061D01*
X149817008Y-85257330D01*
X149823342Y-85261425D01*
X149829957Y-85265363D01*
X149844084Y-85272838D01*
X149859508Y-85279895D01*
X149876348Y-85286672D01*
X149894723Y-85293310D01*
X149950459Y-85304244D01*
X150054191Y-85313319D01*
X150421687Y-85326382D01*
X151029292Y-85333493D01*
X151909085Y-85335643D01*
X152483982Y-85337214D01*
X152931094Y-85339612D01*
X153111859Y-85341276D01*
X153266833Y-85343333D01*
X153398066Y-85345844D01*
X153507611Y-85348872D01*
X153597518Y-85352480D01*
X153669840Y-85356727D01*
X153700047Y-85359111D01*
X153726628Y-85361678D01*
X153749838Y-85364436D01*
X153769933Y-85367393D01*
X153787171Y-85370557D01*
X153801808Y-85373936D01*
X153814100Y-85377536D01*
X153824303Y-85381367D01*
X153832675Y-85385435D01*
X153839471Y-85389749D01*
X153844948Y-85394316D01*
X153849362Y-85399143D01*
X153873217Y-85687505D01*
X153889382Y-86394363D01*
X153899635Y-88511084D01*
X153882106Y-90644342D01*
X153863544Y-91371870D01*
X153838782Y-91689170D01*
X153830975Y-91704786D01*
X153818331Y-91724965D01*
X153801140Y-91749391D01*
X153779691Y-91777750D01*
X153725176Y-91845005D01*
X153657100Y-91924208D01*
X153577780Y-92012836D01*
X153489530Y-92108369D01*
X153394666Y-92208283D01*
X153295502Y-92310058D01*
X153158359Y-92448455D01*
X153098428Y-92507891D01*
X153043707Y-92561302D01*
X152993780Y-92609049D01*
X152948236Y-92651495D01*
X152906661Y-92689000D01*
X152868641Y-92721926D01*
X152833763Y-92750636D01*
X152801614Y-92775491D01*
X152771779Y-92796852D01*
X152743847Y-92815082D01*
X152717402Y-92830542D01*
X152692033Y-92843594D01*
X152667325Y-92854599D01*
X152642865Y-92863920D01*
X152580977Y-92879175D01*
X152491722Y-92890709D01*
X152360960Y-92898771D01*
X152174553Y-92903608D01*
X151578248Y-92904600D01*
X150589700Y-92895671D01*
X150100626Y-92890344D01*
X149693367Y-92884812D01*
X149362424Y-92878866D01*
X149102299Y-92872299D01*
X148907492Y-92864906D01*
X148832866Y-92860835D01*
X148772507Y-92856479D01*
X148725728Y-92851814D01*
X148691843Y-92846812D01*
X148670164Y-92841449D01*
X148663687Y-92838623D01*
X148660004Y-92835697D01*
X148652245Y-92792393D01*
X148644900Y-92685051D01*
X148631781Y-92286688D01*
X148621309Y-91657476D01*
X148614145Y-90814282D01*
X148611677Y-90174093D01*
X148610407Y-89913414D01*
X148608962Y-89688645D01*
X148607227Y-89497010D01*
X148606215Y-89412752D01*
X148605089Y-89335736D01*
X148603833Y-89265617D01*
X148602434Y-89202047D01*
X148600877Y-89144679D01*
X148599149Y-89093167D01*
X148597234Y-89047164D01*
X148595120Y-89006322D01*
X148592790Y-88970296D01*
X148590233Y-88938737D01*
X148587432Y-88911300D01*
X148584374Y-88887637D01*
X148582744Y-88877113D01*
X148581045Y-88867402D01*
X148579274Y-88858461D01*
X148577430Y-88850247D01*
X148575511Y-88842716D01*
X148573516Y-88835826D01*
X148571442Y-88829532D01*
X148569288Y-88823791D01*
X148567051Y-88818561D01*
X148564731Y-88813797D01*
X148562326Y-88809456D01*
X148559832Y-88805495D01*
X148557250Y-88801871D01*
X148554577Y-88798540D01*
X148551811Y-88795459D01*
X148548951Y-88792584D01*
X148542940Y-88787281D01*
X148536529Y-88782283D01*
X148525791Y-88774711D01*
X148513296Y-88767847D01*
X148498858Y-88761656D01*
X148482291Y-88756099D01*
X148463408Y-88751143D01*
X148442025Y-88746749D01*
X148417954Y-88742883D01*
X148391010Y-88739508D01*
X148327759Y-88734085D01*
X148250782Y-88730192D01*
X148158592Y-88727539D01*
X148049701Y-88725837D01*
X147963643Y-88726249D01*
X147886278Y-88727642D01*
X147816953Y-88730255D01*
X147755018Y-88734326D01*
X147726619Y-88736982D01*
X147699822Y-88740091D01*
X147674548Y-88743684D01*
X147650714Y-88747789D01*
X147628239Y-88752437D01*
X147607042Y-88757657D01*
X147587041Y-88763480D01*
X147568155Y-88769934D01*
X147550303Y-88777050D01*
X147533403Y-88784856D01*
X147517373Y-88793384D01*
X147502133Y-88802662D01*
X147487601Y-88812721D01*
X147473696Y-88823589D01*
X147460336Y-88835298D01*
X147447439Y-88847876D01*
X147434925Y-88861353D01*
X147422713Y-88875758D01*
X147410719Y-88891123D01*
X147398864Y-88907476D01*
X147387066Y-88924847D01*
X147375244Y-88943265D01*
X147351199Y-88983364D01*
X147319550Y-89034113D01*
X147286852Y-89083093D01*
X147253213Y-89130193D01*
X147218742Y-89175298D01*
X147183548Y-89218295D01*
X147147738Y-89259069D01*
X147111423Y-89297508D01*
X147074709Y-89333497D01*
X147037706Y-89366923D01*
X147000522Y-89397672D01*
X146963266Y-89425631D01*
X146926046Y-89450685D01*
X146888971Y-89472722D01*
X146852149Y-89491627D01*
X146815689Y-89507286D01*
X146779700Y-89519587D01*
X146703590Y-89539689D01*
X146627557Y-89555051D01*
X146551845Y-89565732D01*
X146476696Y-89571788D01*
X146402353Y-89573275D01*
X146329059Y-89570251D01*
X146257058Y-89562773D01*
X146186590Y-89550897D01*
X146117901Y-89534680D01*
X146051232Y-89514179D01*
X145986827Y-89489451D01*
X145924928Y-89460552D01*
X145865778Y-89427540D01*
X145809621Y-89390472D01*
X145756698Y-89349404D01*
X145707254Y-89304393D01*
X145668166Y-89263308D01*
X145631600Y-89221448D01*
X145597558Y-89178863D01*
X145566039Y-89135604D01*
X145537045Y-89091722D01*
X145510576Y-89047269D01*
X145486632Y-89002295D01*
X145465215Y-88956852D01*
X145446325Y-88910990D01*
X145429962Y-88864760D01*
X145416128Y-88818214D01*
X145404822Y-88771402D01*
X145396047Y-88724376D01*
X145389801Y-88677187D01*
X145386086Y-88629885D01*
X145384903Y-88582521D01*
X145385131Y-88574499D01*
X145642279Y-88574499D01*
X145642652Y-88598253D01*
X145644310Y-88621669D01*
X145647281Y-88644699D01*
X145656015Y-88691373D01*
X145667590Y-88736769D01*
X145681887Y-88780826D01*
X145698792Y-88823485D01*
X145718188Y-88864687D01*
X145739958Y-88904373D01*
X145763986Y-88942482D01*
X145790156Y-88978956D01*
X145818352Y-89013734D01*
X145848458Y-89046759D01*
X145880356Y-89077969D01*
X145913932Y-89107306D01*
X145949068Y-89134711D01*
X145985648Y-89160123D01*
X146023557Y-89183484D01*
X146062677Y-89204733D01*
X146102893Y-89223813D01*
X146144088Y-89240662D01*
X146186146Y-89255222D01*
X146228951Y-89267434D01*
X146272386Y-89277237D01*
X146316336Y-89284573D01*
X146360683Y-89289382D01*
X146405312Y-89291605D01*
X146450106Y-89291181D01*
X146494950Y-89288053D01*
X146539726Y-89282159D01*
X146584319Y-89273442D01*
X146628612Y-89261841D01*
X146672489Y-89247297D01*
X146715833Y-89229751D01*
X146758530Y-89209143D01*
X146800955Y-89184916D01*
X146840912Y-89158620D01*
X146878392Y-89130373D01*
X146913388Y-89100298D01*
X146945890Y-89068516D01*
X146975890Y-89035146D01*
X147003380Y-89000309D01*
X147028351Y-88964128D01*
X147050795Y-88926721D01*
X147070704Y-88888211D01*
X147088069Y-88848717D01*
X147102882Y-88808361D01*
X147115135Y-88767263D01*
X147124818Y-88725545D01*
X147131924Y-88683327D01*
X147136444Y-88640729D01*
X147138370Y-88597873D01*
X147137694Y-88554880D01*
X147134407Y-88511870D01*
X147128500Y-88468963D01*
X147119966Y-88426282D01*
X147108795Y-88383946D01*
X147094980Y-88342077D01*
X147078512Y-88300794D01*
X147059383Y-88260220D01*
X147037584Y-88220475D01*
X147013107Y-88181679D01*
X146985943Y-88143953D01*
X146956085Y-88107419D01*
X146923523Y-88072196D01*
X146888250Y-88038406D01*
X146850256Y-88006170D01*
X146829116Y-87989243D01*
X146809128Y-87974103D01*
X146789957Y-87960638D01*
X146771266Y-87948734D01*
X146752720Y-87938276D01*
X146733983Y-87929152D01*
X146714719Y-87921247D01*
X146694591Y-87914448D01*
X146673265Y-87908641D01*
X146650405Y-87903713D01*
X146625673Y-87899550D01*
X146598735Y-87896038D01*
X146569255Y-87893063D01*
X146536897Y-87890512D01*
X146462201Y-87886227D01*
X146391086Y-87884477D01*
X146359361Y-87884351D01*
X146329853Y-87884793D01*
X146302308Y-87885856D01*
X146276474Y-87887591D01*
X146252097Y-87890049D01*
X146228925Y-87893282D01*
X146206703Y-87897342D01*
X146185179Y-87902280D01*
X146164100Y-87908148D01*
X146143211Y-87914999D01*
X146122261Y-87922883D01*
X146100996Y-87931852D01*
X146079162Y-87941958D01*
X146056506Y-87953253D01*
X146009044Y-87979854D01*
X145963391Y-88010455D01*
X145919784Y-88044674D01*
X145878461Y-88082127D01*
X145839661Y-88122433D01*
X145803620Y-88165209D01*
X145770576Y-88210073D01*
X145740767Y-88256642D01*
X145714431Y-88304534D01*
X145691805Y-88353367D01*
X145673127Y-88402758D01*
X145658636Y-88452324D01*
X145648567Y-88501684D01*
X145645266Y-88526167D01*
X145643160Y-88550454D01*
X145642279Y-88574499D01*
X145385131Y-88574499D01*
X145386252Y-88535148D01*
X145390133Y-88487815D01*
X145396548Y-88440574D01*
X145405498Y-88393475D01*
X145416982Y-88346570D01*
X145431001Y-88299911D01*
X145447556Y-88253547D01*
X145466648Y-88207530D01*
X145488277Y-88161910D01*
X145512445Y-88116740D01*
X145539151Y-88072070D01*
X145568396Y-88027951D01*
X145600181Y-87984433D01*
X145634506Y-87941569D01*
X145671373Y-87899409D01*
X145710782Y-87858004D01*
X145770394Y-87803194D01*
X145832642Y-87753886D01*
X145897267Y-87710129D01*
X145964011Y-87671969D01*
X146032615Y-87639451D01*
X146102820Y-87612624D01*
X146174370Y-87591532D01*
X146247004Y-87576223D01*
X146320466Y-87566742D01*
X146394495Y-87563138D01*
X146468835Y-87565456D01*
X146543227Y-87573742D01*
X146617411Y-87588044D01*
X146691131Y-87608407D01*
X146764127Y-87634878D01*
X146836142Y-87667504D01*
X146871404Y-87686602D01*
X146908062Y-87709162D01*
X146945608Y-87734678D01*
X146983537Y-87762643D01*
X147021342Y-87792552D01*
X147058516Y-87823897D01*
X147094554Y-87856172D01*
X147128948Y-87888871D01*
X147161192Y-87921488D01*
X147190780Y-87953515D01*
X147217206Y-87984447D01*
X147239963Y-88013777D01*
X147258544Y-88040998D01*
X147266111Y-88053660D01*
X147272443Y-88065605D01*
X147277479Y-88076769D01*
X147281154Y-88087090D01*
X147283406Y-88096504D01*
X147284170Y-88104948D01*
X147284771Y-88113559D01*
X147286539Y-88122820D01*
X147289420Y-88132680D01*
X147293362Y-88143085D01*
X147304216Y-88165324D01*
X147318677Y-88189118D01*
X147336321Y-88214050D01*
X147356724Y-88239699D01*
X147379463Y-88265649D01*
X147404115Y-88291479D01*
X147430254Y-88316772D01*
X147457459Y-88341109D01*
X147485303Y-88364072D01*
X147513365Y-88385241D01*
X147541221Y-88404199D01*
X147568445Y-88420526D01*
X147594616Y-88433804D01*
X147607173Y-88439169D01*
X147619308Y-88443615D01*
X147656356Y-88453058D01*
X147704189Y-88460289D01*
X147761107Y-88465412D01*
X147825409Y-88468530D01*
X147895395Y-88469746D01*
X147969366Y-88469164D01*
X148045620Y-88466887D01*
X148122459Y-88463018D01*
X148198181Y-88457661D01*
X148271087Y-88450919D01*
X148339476Y-88442895D01*
X148401649Y-88433693D01*
X148455904Y-88423416D01*
X148500543Y-88412168D01*
X148533864Y-88400051D01*
X148545750Y-88393700D01*
X148554169Y-88387170D01*
X148562321Y-88377797D01*
X148569611Y-88365101D01*
X148576083Y-88348405D01*
X148581786Y-88327033D01*
X148591067Y-88267550D01*
X148597827Y-88181236D01*
X148602436Y-88062676D01*
X148605267Y-87906455D01*
X148607057Y-87466419D01*
X148871670Y-87466419D01*
X148872201Y-87691860D01*
X148873930Y-87876249D01*
X148875309Y-87954379D01*
X148877066Y-88023843D01*
X148879225Y-88085174D01*
X148881813Y-88138903D01*
X148884856Y-88185562D01*
X148888379Y-88225685D01*
X148892409Y-88259802D01*
X148896972Y-88288447D01*
X148902092Y-88312152D01*
X148907796Y-88331449D01*
X148910875Y-88339610D01*
X148914110Y-88346870D01*
X148917504Y-88353293D01*
X148921060Y-88358947D01*
X148929867Y-88370869D01*
X148939423Y-88381561D01*
X148950229Y-88391116D01*
X148962787Y-88399628D01*
X148977598Y-88407188D01*
X148995164Y-88413890D01*
X149015985Y-88419828D01*
X149040563Y-88425094D01*
X149069399Y-88429781D01*
X149102995Y-88433982D01*
X149186469Y-88441299D01*
X149294996Y-88447790D01*
X149432587Y-88454197D01*
X149525170Y-88459786D01*
X149613661Y-88465829D01*
X149695950Y-88472120D01*
X149769930Y-88478452D01*
X149833492Y-88484618D01*
X149884528Y-88490413D01*
X149920930Y-88495629D01*
X149932984Y-88497955D01*
X149940588Y-88500059D01*
X149945954Y-88502571D01*
X149951439Y-88506095D01*
X149956997Y-88510570D01*
X149962580Y-88515934D01*
X149968143Y-88522125D01*
X149973639Y-88529081D01*
X149979021Y-88536739D01*
X149984243Y-88545039D01*
X149989258Y-88553917D01*
X149994020Y-88563312D01*
X149998482Y-88573161D01*
X150002598Y-88583403D01*
X150006321Y-88593976D01*
X150009605Y-88604818D01*
X150012404Y-88615866D01*
X150014670Y-88627059D01*
X150022443Y-88818551D01*
X150029223Y-89259413D01*
X150035837Y-90627310D01*
X150038372Y-91402814D01*
X150045538Y-92010639D01*
X150050651Y-92239786D01*
X150056673Y-92412750D01*
X150063522Y-92524778D01*
X150067231Y-92556455D01*
X150071115Y-92571115D01*
X150081749Y-92578534D01*
X150103887Y-92585575D01*
X150179670Y-92598496D01*
X150436185Y-92619511D01*
X150792497Y-92633746D01*
X151200444Y-92640788D01*
X151611864Y-92640223D01*
X151978594Y-92631638D01*
X152252472Y-92614619D01*
X152339541Y-92602818D01*
X152385336Y-92588754D01*
X152470001Y-92535836D01*
X152470001Y-89120948D01*
X152467466Y-87704545D01*
X152460300Y-86618872D01*
X152449166Y-85918167D01*
X152442318Y-85729128D01*
X152438610Y-85677903D01*
X152434726Y-85656671D01*
X152427399Y-85648517D01*
X152415303Y-85641216D01*
X152397388Y-85634711D01*
X152372605Y-85628945D01*
X152298239Y-85619402D01*
X152183814Y-85612133D01*
X152020936Y-85606682D01*
X151801215Y-85602596D01*
X151157672Y-85596698D01*
X150867001Y-85596037D01*
X150611636Y-85596699D01*
X150391825Y-85598683D01*
X150207816Y-85601990D01*
X150059856Y-85606620D01*
X149948194Y-85612574D01*
X149906051Y-85616046D01*
X149873077Y-85619850D01*
X149849300Y-85623984D01*
X149834753Y-85628449D01*
X149827202Y-85632605D01*
X149819155Y-85638384D01*
X149810694Y-85645673D01*
X149801902Y-85654356D01*
X149792862Y-85664321D01*
X149783657Y-85675454D01*
X149774369Y-85687641D01*
X149765081Y-85700768D01*
X149755875Y-85714722D01*
X149746835Y-85729390D01*
X149738043Y-85744657D01*
X149729582Y-85760409D01*
X149721533Y-85776534D01*
X149713981Y-85792917D01*
X149707008Y-85809445D01*
X149700696Y-85826004D01*
X149682930Y-85867995D01*
X149662745Y-85909258D01*
X149640204Y-85949725D01*
X149615369Y-85989329D01*
X149588301Y-86028003D01*
X149559062Y-86065679D01*
X149527716Y-86102291D01*
X149494322Y-86137771D01*
X149458945Y-86172053D01*
X149421645Y-86205068D01*
X149382485Y-86236750D01*
X149341526Y-86267031D01*
X149298832Y-86295845D01*
X149254463Y-86323124D01*
X149208481Y-86348801D01*
X149160950Y-86372809D01*
X149133872Y-86385994D01*
X149108211Y-86399082D01*
X149083976Y-86412055D01*
X149061178Y-86424899D01*
X149039827Y-86437599D01*
X149019933Y-86450138D01*
X149001507Y-86462502D01*
X148984558Y-86474674D01*
X148969098Y-86486640D01*
X148955137Y-86498383D01*
X148942685Y-86509889D01*
X148931752Y-86521142D01*
X148926859Y-86526668D01*
X148922349Y-86532126D01*
X148918224Y-86537512D01*
X148914486Y-86542825D01*
X148911135Y-86548064D01*
X148908173Y-86553225D01*
X148905601Y-86558308D01*
X148903421Y-86563310D01*
X148896992Y-86597919D01*
X148891018Y-86662252D01*
X148885623Y-86752631D01*
X148880931Y-86865375D01*
X148874151Y-87143242D01*
X148871670Y-87466419D01*
X148607057Y-87466419D01*
X148607086Y-87459364D01*
X148607196Y-87131887D01*
X148606528Y-87000477D01*
X148604661Y-86888085D01*
X148601057Y-86792807D01*
X148598436Y-86750992D01*
X148595180Y-86712743D01*
X148591221Y-86677822D01*
X148586491Y-86645991D01*
X148580925Y-86617013D01*
X148574454Y-86590649D01*
X148567012Y-86566663D01*
X148558531Y-86544816D01*
X148548944Y-86524870D01*
X148538184Y-86506589D01*
X148526184Y-86489734D01*
X148512876Y-86474067D01*
X148498194Y-86459351D01*
X148482070Y-86445349D01*
X148464437Y-86431822D01*
X148445228Y-86418532D01*
X148424375Y-86405243D01*
X148401812Y-86391715D01*
X148293112Y-86330475D01*
X148227367Y-86291385D01*
X148166341Y-86250749D01*
X148109954Y-86208429D01*
X148058131Y-86164284D01*
X148010793Y-86118176D01*
X147967863Y-86069964D01*
X147929264Y-86019510D01*
X147894917Y-85966674D01*
X147864746Y-85911315D01*
X147838673Y-85853296D01*
X147816620Y-85792475D01*
X147798509Y-85728714D01*
X147784264Y-85661873D01*
X147773807Y-85591813D01*
X147767060Y-85518394D01*
X147763946Y-85441476D01*
X147763783Y-85426030D01*
X148040412Y-85426030D01*
X148041116Y-85462680D01*
X148043635Y-85499574D01*
X148047983Y-85536665D01*
X148054174Y-85573904D01*
X148062224Y-85611244D01*
X148072145Y-85648637D01*
X148083953Y-85686035D01*
X148097661Y-85723390D01*
X148113283Y-85760655D01*
X148130835Y-85797782D01*
X148162655Y-85854071D01*
X148198371Y-85905251D01*
X148237660Y-85951404D01*
X148280201Y-85992609D01*
X148325672Y-86028945D01*
X148373751Y-86060494D01*
X148424117Y-86087335D01*
X148476448Y-86109549D01*
X148530422Y-86127215D01*
X148585718Y-86140414D01*
X148642014Y-86149225D01*
X148698988Y-86153729D01*
X148756318Y-86154006D01*
X148813684Y-86150136D01*
X148870762Y-86142199D01*
X148927233Y-86130275D01*
X148982773Y-86114444D01*
X149037061Y-86094787D01*
X149089775Y-86071383D01*
X149140595Y-86044313D01*
X149189197Y-86013656D01*
X149235261Y-85979493D01*
X149278464Y-85941904D01*
X149318486Y-85900969D01*
X149355004Y-85856768D01*
X149387696Y-85809381D01*
X149416241Y-85758889D01*
X149440318Y-85705371D01*
X149459604Y-85648907D01*
X149473779Y-85589578D01*
X149482519Y-85527463D01*
X149485504Y-85462643D01*
X149483993Y-85417493D01*
X149479537Y-85372147D01*
X149472249Y-85326822D01*
X149462243Y-85281734D01*
X149449632Y-85237101D01*
X149434531Y-85193140D01*
X149417052Y-85150068D01*
X149397310Y-85108101D01*
X149375418Y-85067458D01*
X149351490Y-85028354D01*
X149325639Y-84991008D01*
X149297980Y-84955635D01*
X149268626Y-84922453D01*
X149237691Y-84891680D01*
X149205287Y-84863532D01*
X149188571Y-84850510D01*
X149171530Y-84838226D01*
X149132637Y-84813135D01*
X149091563Y-84790794D01*
X149048608Y-84771222D01*
X149004072Y-84754441D01*
X148958254Y-84740471D01*
X148911454Y-84729333D01*
X148863972Y-84721048D01*
X148816107Y-84715635D01*
X148768160Y-84713117D01*
X148720430Y-84713513D01*
X148673217Y-84716845D01*
X148626821Y-84723132D01*
X148581540Y-84732396D01*
X148537676Y-84744657D01*
X148495528Y-84759936D01*
X148455395Y-84778253D01*
X148419762Y-84797438D01*
X148385630Y-84817919D01*
X148353016Y-84839647D01*
X148321932Y-84862576D01*
X148292394Y-84886657D01*
X148264415Y-84911843D01*
X148238009Y-84938085D01*
X148213191Y-84965336D01*
X148189975Y-84993549D01*
X148168375Y-85022675D01*
X148148406Y-85052666D01*
X148130081Y-85083476D01*
X148113415Y-85115055D01*
X148098422Y-85147356D01*
X148085116Y-85180332D01*
X148073512Y-85213935D01*
X148063623Y-85248116D01*
X148055465Y-85282828D01*
X148049050Y-85318023D01*
X148044393Y-85353654D01*
X148041510Y-85389672D01*
X148040412Y-85426030D01*
X147763783Y-85426030D01*
X147763506Y-85399774D01*
X147763567Y-85361694D01*
X147764218Y-85326809D01*
X147765545Y-85294687D01*
X147767637Y-85264902D01*
X147770582Y-85237023D01*
X147774467Y-85210623D01*
X147779381Y-85185271D01*
X147785411Y-85160539D01*
X147792645Y-85135999D01*
X147801170Y-85111221D01*
X147811076Y-85085777D01*
X147822449Y-85059237D01*
X147835378Y-85031172D01*
X147849950Y-85001154D01*
X147866254Y-84968754D01*
X147889992Y-84924221D01*
X147914939Y-84881869D01*
X147941148Y-84841645D01*
X147968669Y-84803499D01*
X147997554Y-84767379D01*
X148027855Y-84733233D01*
X148059624Y-84701010D01*
X148092913Y-84670657D01*
X148127772Y-84642123D01*
X148164254Y-84615356D01*
X148202410Y-84590305D01*
X148242293Y-84566918D01*
X148283953Y-84545143D01*
X148327443Y-84524929D01*
X148372814Y-84506224D01*
X148420117Y-84488976D01*
X148463260Y-84474672D01*
X148505479Y-84462187D01*
X148546922Y-84451521D01*
X148587740Y-84442674D01*
X148628082Y-84435646D01*
X148668099Y-84430437D01*
X148707941Y-84427047D01*
X148747756Y-84425476D01*
X148787696Y-84425724D01*
G37*
G36*
X158274894Y-84425987D02*
G01*
X158343595Y-84430230D01*
X158376668Y-84433780D01*
X158408917Y-84438297D01*
X158440363Y-84443793D01*
X158471029Y-84450281D01*
X158500935Y-84457770D01*
X158530103Y-84466274D01*
X158558554Y-84475804D01*
X158586309Y-84486371D01*
X158613389Y-84497988D01*
X158639817Y-84510664D01*
X158665613Y-84524414D01*
X158690798Y-84539247D01*
X158715394Y-84555175D01*
X158739423Y-84572211D01*
X158762905Y-84590366D01*
X158785862Y-84609651D01*
X158808315Y-84630078D01*
X158830286Y-84651659D01*
X158851795Y-84674405D01*
X158872865Y-84698328D01*
X158893515Y-84723439D01*
X158913769Y-84749751D01*
X158953170Y-84806021D01*
X158991238Y-84867232D01*
X159028143Y-84933477D01*
X159097906Y-85068545D01*
X159129524Y-85122372D01*
X159164237Y-85168019D01*
X159205999Y-85206203D01*
X159258764Y-85237644D01*
X159326483Y-85263059D01*
X159413111Y-85283168D01*
X159522601Y-85298687D01*
X159658905Y-85310336D01*
X160027771Y-85324895D01*
X161261224Y-85339171D01*
X161983757Y-85348817D01*
X162580614Y-85360778D01*
X162989618Y-85373401D01*
X163104244Y-85379444D01*
X163135688Y-85382307D01*
X163148590Y-85385031D01*
X163151273Y-85392362D01*
X163154018Y-85407459D01*
X163159611Y-85459280D01*
X163170634Y-85637709D01*
X163180334Y-85893528D01*
X163187390Y-86199948D01*
X163193075Y-86537768D01*
X163194235Y-86671912D01*
X163192517Y-86785174D01*
X163186602Y-86879274D01*
X163181660Y-86919676D01*
X163175174Y-86955933D01*
X163166981Y-86988260D01*
X163156914Y-87016873D01*
X163144811Y-87041985D01*
X163130505Y-87063813D01*
X163113833Y-87082571D01*
X163094629Y-87098475D01*
X163072729Y-87111739D01*
X163047968Y-87122579D01*
X163020181Y-87131210D01*
X162989204Y-87137847D01*
X162954872Y-87142705D01*
X162917020Y-87145999D01*
X162830098Y-87148755D01*
X162727119Y-87147838D01*
X162467725Y-87141864D01*
X162347105Y-87139756D01*
X162233017Y-87136242D01*
X162128024Y-87131571D01*
X162034689Y-87125990D01*
X161955576Y-87119747D01*
X161893248Y-87113091D01*
X161869179Y-87109686D01*
X161850268Y-87106270D01*
X161836834Y-87102875D01*
X161829199Y-87099531D01*
X161824031Y-87092653D01*
X161819112Y-87081217D01*
X161814440Y-87065130D01*
X161810017Y-87044300D01*
X161801914Y-86988034D01*
X161794803Y-86911677D01*
X161788684Y-86814484D01*
X161783558Y-86695711D01*
X161779424Y-86554614D01*
X161776282Y-86390448D01*
X161774359Y-86274772D01*
X161772478Y-86173125D01*
X161770514Y-86084490D01*
X161768344Y-86007850D01*
X161767143Y-85973709D01*
X161765843Y-85942186D01*
X161764429Y-85913151D01*
X161762887Y-85886479D01*
X161761200Y-85862042D01*
X161759352Y-85839713D01*
X161757329Y-85819364D01*
X161755115Y-85800868D01*
X161752694Y-85784099D01*
X161750050Y-85768928D01*
X161747169Y-85755229D01*
X161744035Y-85742874D01*
X161740632Y-85731736D01*
X161736945Y-85721687D01*
X161732958Y-85712601D01*
X161728656Y-85704351D01*
X161724023Y-85696808D01*
X161719044Y-85689846D01*
X161713703Y-85683337D01*
X161707985Y-85677155D01*
X161701874Y-85671172D01*
X161695355Y-85665260D01*
X161681030Y-85653143D01*
X161650176Y-85632031D01*
X161631281Y-85623377D01*
X161608160Y-85615880D01*
X161579374Y-85609459D01*
X161543489Y-85604029D01*
X161444670Y-85595816D01*
X161300211Y-85590580D01*
X161098617Y-85587659D01*
X160478058Y-85586116D01*
X160250846Y-85586756D01*
X160035541Y-85588596D01*
X159837103Y-85591510D01*
X159660494Y-85595376D01*
X159510674Y-85600068D01*
X159392604Y-85605463D01*
X159311245Y-85611437D01*
X159285882Y-85614602D01*
X159271558Y-85617865D01*
X159261393Y-85622698D01*
X159250763Y-85629241D01*
X159239699Y-85637469D01*
X159228232Y-85647355D01*
X159216393Y-85658875D01*
X159204213Y-85672001D01*
X159191723Y-85686709D01*
X159178954Y-85702973D01*
X159165937Y-85720766D01*
X159152703Y-85740063D01*
X159139282Y-85760837D01*
X159125706Y-85783064D01*
X159112006Y-85806717D01*
X159098213Y-85831771D01*
X159084358Y-85858199D01*
X159070471Y-85885976D01*
X159046272Y-85931173D01*
X159021235Y-85974205D01*
X158995268Y-86015139D01*
X158968278Y-86054041D01*
X158940171Y-86090981D01*
X158910855Y-86126023D01*
X158880237Y-86159237D01*
X158848224Y-86190688D01*
X158814722Y-86220444D01*
X158779639Y-86248572D01*
X158742882Y-86275140D01*
X158704357Y-86300215D01*
X158663972Y-86323863D01*
X158621634Y-86346152D01*
X158577249Y-86367149D01*
X158530725Y-86386921D01*
X158453569Y-86421365D01*
X158422128Y-86439732D01*
X158395016Y-86460729D01*
X158371915Y-86485756D01*
X158352503Y-86516215D01*
X158336461Y-86553506D01*
X158323467Y-86599028D01*
X158313202Y-86654183D01*
X158305345Y-86720371D01*
X158299576Y-86798993D01*
X158295574Y-86891448D01*
X158291591Y-87123461D01*
X158290832Y-87427615D01*
X158291308Y-87594179D01*
X158292652Y-87752722D01*
X158297449Y-88030865D01*
X158300654Y-88143023D01*
X158304230Y-88232279D01*
X158308053Y-88294911D01*
X158310019Y-88315080D01*
X158311999Y-88327198D01*
X158317666Y-88345990D01*
X158324423Y-88362772D01*
X158332781Y-88377684D01*
X158343254Y-88390864D01*
X158356351Y-88402452D01*
X158372585Y-88412588D01*
X158392468Y-88421412D01*
X158416511Y-88429062D01*
X158445225Y-88435679D01*
X158479122Y-88441402D01*
X158518714Y-88446371D01*
X158564512Y-88450725D01*
X158676775Y-88458145D01*
X158820001Y-88464781D01*
X158902576Y-88469267D01*
X158976071Y-88473552D01*
X159041081Y-88477765D01*
X159098200Y-88482034D01*
X159123986Y-88484230D01*
X159148022Y-88486489D01*
X159170383Y-88488827D01*
X159191142Y-88491260D01*
X159210375Y-88493804D01*
X159228154Y-88496475D01*
X159244555Y-88499290D01*
X159259652Y-88502264D01*
X159273519Y-88505414D01*
X159286230Y-88508755D01*
X159297860Y-88512305D01*
X159308483Y-88516079D01*
X159318173Y-88520093D01*
X159327005Y-88524363D01*
X159335052Y-88528906D01*
X159342390Y-88533738D01*
X159349092Y-88538875D01*
X159355232Y-88544333D01*
X159360886Y-88550128D01*
X159366127Y-88556276D01*
X159371029Y-88562794D01*
X159375667Y-88569697D01*
X159380116Y-88577002D01*
X159384448Y-88584725D01*
X159393054Y-88629402D01*
X159400379Y-88729144D01*
X159411348Y-89094490D01*
X159417687Y-89682086D01*
X159419726Y-90493254D01*
X159422262Y-91273168D01*
X159429428Y-91877465D01*
X159434541Y-92106419D01*
X159440563Y-92282663D01*
X159447412Y-92403262D01*
X159451120Y-92441778D01*
X159455005Y-92465281D01*
X159459762Y-92481985D01*
X159464782Y-92497706D01*
X159470082Y-92512457D01*
X159475676Y-92526246D01*
X159481580Y-92539084D01*
X159487809Y-92550982D01*
X159491051Y-92556581D01*
X159494380Y-92561949D01*
X159497798Y-92567087D01*
X159501307Y-92571997D01*
X159504909Y-92576679D01*
X159508606Y-92581135D01*
X159512400Y-92585366D01*
X159516292Y-92589374D01*
X159520286Y-92593160D01*
X159524382Y-92596724D01*
X159528583Y-92600069D01*
X159532890Y-92603196D01*
X159537306Y-92606106D01*
X159541832Y-92608799D01*
X159546471Y-92611279D01*
X159551224Y-92613545D01*
X159556093Y-92615599D01*
X159561080Y-92617443D01*
X159566188Y-92619078D01*
X159571417Y-92620504D01*
X159607074Y-92624452D01*
X159679401Y-92628276D01*
X159916699Y-92635056D01*
X160248585Y-92639851D01*
X160640332Y-92641670D01*
X160912400Y-92641139D01*
X161134114Y-92639410D01*
X161227716Y-92638031D01*
X161310682Y-92636275D01*
X161383665Y-92634116D01*
X161447315Y-92631528D01*
X161502283Y-92628485D01*
X161549221Y-92624961D01*
X161588779Y-92620931D01*
X161621609Y-92616369D01*
X161648362Y-92611249D01*
X161669689Y-92605544D01*
X161678521Y-92602465D01*
X161686241Y-92599230D01*
X161692930Y-92595836D01*
X161698669Y-92592280D01*
X161709310Y-92583339D01*
X161718803Y-92573174D01*
X161727242Y-92560972D01*
X161734719Y-92545923D01*
X161741329Y-92527216D01*
X161747163Y-92504038D01*
X161752315Y-92475579D01*
X161756879Y-92441028D01*
X161764609Y-92350401D01*
X161771100Y-92225668D01*
X161783337Y-91847920D01*
X161788684Y-91656814D01*
X161791461Y-91575006D01*
X161794362Y-91501757D01*
X161797428Y-91436610D01*
X161800701Y-91379112D01*
X161804221Y-91328807D01*
X161808031Y-91285240D01*
X161812172Y-91247957D01*
X161816685Y-91216504D01*
X161819094Y-91202821D01*
X161821611Y-91190424D01*
X161824242Y-91179258D01*
X161826992Y-91169265D01*
X161829865Y-91160387D01*
X161832868Y-91152570D01*
X161836006Y-91145754D01*
X161839282Y-91139885D01*
X161842704Y-91134904D01*
X161846275Y-91130755D01*
X161850001Y-91127382D01*
X161853888Y-91124726D01*
X161862184Y-91121423D01*
X161876262Y-91118146D01*
X161920423Y-91111773D01*
X161983683Y-91105813D01*
X162063354Y-91100473D01*
X162156751Y-91095959D01*
X162261185Y-91092480D01*
X162373970Y-91090240D01*
X162492419Y-91089448D01*
X162662952Y-91089855D01*
X162735025Y-91090448D01*
X162799005Y-91091377D01*
X162855420Y-91092699D01*
X162904797Y-91094471D01*
X162947662Y-91096749D01*
X162984544Y-91099591D01*
X163000905Y-91101240D01*
X163015968Y-91103052D01*
X163029798Y-91105033D01*
X163042462Y-91107191D01*
X163054025Y-91109531D01*
X163064553Y-91112063D01*
X163074112Y-91114792D01*
X163082769Y-91117726D01*
X163090588Y-91120872D01*
X163097636Y-91124236D01*
X163103978Y-91127827D01*
X163109682Y-91131651D01*
X163114811Y-91135715D01*
X163119433Y-91140027D01*
X163123613Y-91144593D01*
X163127417Y-91149421D01*
X163134368Y-91159082D01*
X163140682Y-91172469D01*
X163146387Y-91190000D01*
X163151508Y-91212094D01*
X163160100Y-91271646D01*
X163166666Y-91354472D01*
X163171413Y-91463923D01*
X163174547Y-91603346D01*
X163176807Y-91985504D01*
X163176324Y-92143847D01*
X163174933Y-92293798D01*
X163172715Y-92431925D01*
X163169753Y-92554798D01*
X163166129Y-92658985D01*
X163161926Y-92741054D01*
X163157226Y-92797575D01*
X163154716Y-92815182D01*
X163152112Y-92825115D01*
X163145443Y-92835712D01*
X163132661Y-92845062D01*
X163076540Y-92860338D01*
X162959318Y-92871562D01*
X162756561Y-92879355D01*
X161996712Y-92887127D01*
X160601532Y-92888615D01*
X158079169Y-92888615D01*
X158043890Y-92796893D01*
X158036297Y-92742729D01*
X158029448Y-92622875D01*
X158018313Y-92203786D01*
X158011148Y-91575014D01*
X158008612Y-90771948D01*
X158008612Y-88835198D01*
X157931003Y-88782283D01*
X157918190Y-88774091D01*
X157903249Y-88766690D01*
X157885703Y-88760043D01*
X157865077Y-88754115D01*
X157840896Y-88748869D01*
X157812685Y-88744269D01*
X157742268Y-88736862D01*
X157650022Y-88731604D01*
X157532145Y-88728207D01*
X157384833Y-88726382D01*
X157204282Y-88725837D01*
X157068400Y-88726065D01*
X156948352Y-88727002D01*
X156842939Y-88729023D01*
X156750962Y-88732507D01*
X156709637Y-88734915D01*
X156671222Y-88737830D01*
X156635566Y-88741300D01*
X156602520Y-88745371D01*
X156571933Y-88750090D01*
X156543657Y-88755506D01*
X156517540Y-88761664D01*
X156493434Y-88768612D01*
X156471188Y-88776397D01*
X156450653Y-88785066D01*
X156431678Y-88794667D01*
X156414114Y-88805247D01*
X156397811Y-88816852D01*
X156382619Y-88829530D01*
X156368388Y-88843329D01*
X156354968Y-88858294D01*
X156342210Y-88874474D01*
X156329963Y-88891916D01*
X156318078Y-88910666D01*
X156306405Y-88930772D01*
X156283095Y-88975241D01*
X156258835Y-89025698D01*
X156222470Y-89096096D01*
X156182224Y-89161745D01*
X156138185Y-89222609D01*
X156090440Y-89278651D01*
X156039079Y-89329836D01*
X155984187Y-89376126D01*
X155925854Y-89417487D01*
X155864167Y-89453882D01*
X155799214Y-89485275D01*
X155731083Y-89511629D01*
X155659862Y-89532909D01*
X155585638Y-89549077D01*
X155508499Y-89560099D01*
X155428533Y-89565938D01*
X155345829Y-89566557D01*
X155260474Y-89561921D01*
X155207030Y-89556741D01*
X155156377Y-89550414D01*
X155108328Y-89542868D01*
X155062698Y-89534029D01*
X155019300Y-89523827D01*
X154977949Y-89512187D01*
X154938458Y-89499039D01*
X154900641Y-89484309D01*
X154864312Y-89467926D01*
X154829286Y-89449817D01*
X154795376Y-89429909D01*
X154762396Y-89408131D01*
X154730161Y-89384410D01*
X154698484Y-89358673D01*
X154667178Y-89330849D01*
X154636059Y-89300865D01*
X154600373Y-89263715D01*
X154567364Y-89226251D01*
X154536980Y-89188321D01*
X154509170Y-89149777D01*
X154483881Y-89110467D01*
X154461062Y-89070243D01*
X154440662Y-89028954D01*
X154422628Y-88986451D01*
X154406910Y-88942584D01*
X154393455Y-88897203D01*
X154382212Y-88850157D01*
X154373129Y-88801298D01*
X154366154Y-88750475D01*
X154361236Y-88697539D01*
X154358323Y-88642339D01*
X154357645Y-88601628D01*
X154630848Y-88601628D01*
X154633118Y-88663327D01*
X154639584Y-88725837D01*
X154645163Y-88760397D01*
X154651970Y-88793954D01*
X154659993Y-88826498D01*
X154669219Y-88858019D01*
X154679637Y-88888506D01*
X154691233Y-88917949D01*
X154703995Y-88946339D01*
X154717913Y-88973663D01*
X154732972Y-88999913D01*
X154749161Y-89025078D01*
X154766467Y-89049147D01*
X154784878Y-89072110D01*
X154804383Y-89093957D01*
X154824968Y-89114678D01*
X154846622Y-89134262D01*
X154869332Y-89152698D01*
X154893085Y-89169977D01*
X154917870Y-89186088D01*
X154943675Y-89201021D01*
X154970486Y-89214765D01*
X154998293Y-89227310D01*
X155027081Y-89238646D01*
X155056840Y-89248763D01*
X155087557Y-89257649D01*
X155119220Y-89265296D01*
X155151816Y-89271691D01*
X155185333Y-89276826D01*
X155219759Y-89280690D01*
X155291288Y-89284562D01*
X155366305Y-89283226D01*
X155415602Y-89279579D01*
X155463018Y-89273896D01*
X155508655Y-89266126D01*
X155552619Y-89256216D01*
X155595011Y-89244115D01*
X155635935Y-89229772D01*
X155675496Y-89213134D01*
X155713795Y-89194150D01*
X155750937Y-89172768D01*
X155787024Y-89148936D01*
X155822161Y-89122604D01*
X155856450Y-89093719D01*
X155889995Y-89062229D01*
X155922899Y-89028083D01*
X155955265Y-88991229D01*
X155987198Y-88951615D01*
X156002259Y-88931139D01*
X156015750Y-88911831D01*
X156027753Y-88893371D01*
X156038350Y-88875437D01*
X156047624Y-88857710D01*
X156055657Y-88839870D01*
X156062534Y-88821595D01*
X156068335Y-88802566D01*
X156073145Y-88782462D01*
X156077044Y-88760963D01*
X156080117Y-88737748D01*
X156082446Y-88712497D01*
X156084114Y-88684890D01*
X156085202Y-88654606D01*
X156085974Y-88584725D01*
X156085795Y-88548127D01*
X156085202Y-88514846D01*
X156084114Y-88484562D01*
X156082446Y-88456954D01*
X156080117Y-88431704D01*
X156077044Y-88408489D01*
X156073145Y-88386990D01*
X156068335Y-88366886D01*
X156062534Y-88347857D01*
X156055657Y-88329582D01*
X156047624Y-88311742D01*
X156038350Y-88294015D01*
X156027753Y-88276082D01*
X156015750Y-88257621D01*
X156002259Y-88238313D01*
X155987198Y-88217837D01*
X155976015Y-88204255D01*
X155963716Y-88190049D01*
X155950424Y-88175335D01*
X155936265Y-88160235D01*
X155905837Y-88129346D01*
X155873426Y-88098333D01*
X155840022Y-88068148D01*
X155806618Y-88039740D01*
X155790226Y-88026500D01*
X155774207Y-88014060D01*
X155758684Y-88002541D01*
X155743780Y-87992060D01*
X155704449Y-87968913D01*
X155662132Y-87948431D01*
X155617230Y-87930637D01*
X155570148Y-87915551D01*
X155521288Y-87903194D01*
X155471053Y-87893585D01*
X155419847Y-87886747D01*
X155368073Y-87882699D01*
X155316133Y-87881462D01*
X155264431Y-87883057D01*
X155213370Y-87887504D01*
X155163353Y-87894825D01*
X155114782Y-87905039D01*
X155068062Y-87918168D01*
X155023595Y-87934233D01*
X154981784Y-87953253D01*
X154936160Y-87979176D01*
X154893285Y-88009167D01*
X154853263Y-88042992D01*
X154816197Y-88080419D01*
X154782190Y-88121215D01*
X154751346Y-88165148D01*
X154723767Y-88211985D01*
X154699559Y-88261493D01*
X154678822Y-88313441D01*
X154661662Y-88367595D01*
X154648181Y-88423724D01*
X154638483Y-88481594D01*
X154632671Y-88540972D01*
X154630848Y-88601628D01*
X154357645Y-88601628D01*
X154357364Y-88584725D01*
X154358081Y-88524442D01*
X154360292Y-88467751D01*
X154364084Y-88414356D01*
X154369546Y-88363964D01*
X154376764Y-88316279D01*
X154385827Y-88271008D01*
X154396823Y-88227856D01*
X154409840Y-88186528D01*
X154424965Y-88146729D01*
X154442286Y-88108166D01*
X154461891Y-88070543D01*
X154483868Y-88033566D01*
X154508305Y-87996940D01*
X154535290Y-87960372D01*
X154564910Y-87923565D01*
X154597253Y-87886227D01*
X154653918Y-87829265D01*
X154712727Y-87777465D01*
X154773592Y-87730864D01*
X154836426Y-87689498D01*
X154901142Y-87653403D01*
X154967650Y-87622615D01*
X155035864Y-87597170D01*
X155105695Y-87577105D01*
X155177056Y-87562456D01*
X155249858Y-87553258D01*
X155324015Y-87549548D01*
X155399437Y-87551363D01*
X155476038Y-87558738D01*
X155553729Y-87571710D01*
X155632422Y-87590314D01*
X155712030Y-87614587D01*
X155757541Y-87630247D01*
X155800293Y-87646929D01*
X155840503Y-87664832D01*
X155878387Y-87684150D01*
X155914163Y-87705081D01*
X155948047Y-87727820D01*
X155980257Y-87752565D01*
X156011009Y-87779511D01*
X156040521Y-87808854D01*
X156069010Y-87840792D01*
X156096693Y-87875521D01*
X156123787Y-87913236D01*
X156150509Y-87954134D01*
X156177076Y-87998413D01*
X156203704Y-88046267D01*
X156230612Y-88097894D01*
X156263154Y-88161466D01*
X156294161Y-88217535D01*
X156324910Y-88266534D01*
X156356676Y-88308899D01*
X156390737Y-88345062D01*
X156428369Y-88375458D01*
X156448923Y-88388628D01*
X156470848Y-88400520D01*
X156519450Y-88420685D01*
X156575453Y-88436384D01*
X156640132Y-88448052D01*
X156714764Y-88456124D01*
X156800625Y-88461033D01*
X156898992Y-88463214D01*
X157011141Y-88463101D01*
X157281891Y-88457727D01*
X157420391Y-88453282D01*
X157546531Y-88447969D01*
X157658862Y-88441913D01*
X157755938Y-88435236D01*
X157836312Y-88428063D01*
X157869784Y-88424330D01*
X157898538Y-88420519D01*
X157922393Y-88416646D01*
X157941168Y-88412726D01*
X157954683Y-88408775D01*
X157959411Y-88406793D01*
X157962756Y-88404809D01*
X157972796Y-88376875D01*
X157981730Y-88314782D01*
X157996157Y-88107263D01*
X158005788Y-87820535D01*
X158010377Y-87492879D01*
X158009673Y-87162577D01*
X158003431Y-86867911D01*
X157991400Y-86647163D01*
X157983137Y-86576471D01*
X157973334Y-86538615D01*
X157968973Y-86531437D01*
X157962592Y-86523195D01*
X157954319Y-86513981D01*
X157944285Y-86503888D01*
X157932617Y-86493010D01*
X157919446Y-86481440D01*
X157889109Y-86456594D01*
X157854307Y-86430094D01*
X157816075Y-86402685D01*
X157775444Y-86375110D01*
X157733450Y-86348114D01*
X157658087Y-86300963D01*
X157589272Y-86254504D01*
X157526771Y-86208356D01*
X157470353Y-86162135D01*
X157419784Y-86115459D01*
X157374833Y-86067946D01*
X157335267Y-86019213D01*
X157317430Y-85994270D01*
X157300852Y-85968879D01*
X157285505Y-85942991D01*
X157271358Y-85916560D01*
X157258383Y-85889537D01*
X157246550Y-85861874D01*
X157235831Y-85833524D01*
X157226197Y-85804439D01*
X157210066Y-85743873D01*
X157197925Y-85679792D01*
X157189540Y-85611815D01*
X157184680Y-85539560D01*
X157183111Y-85462643D01*
X157183117Y-85440791D01*
X157448977Y-85440791D01*
X157449677Y-85475406D01*
X157452004Y-85509981D01*
X157455959Y-85544457D01*
X157461544Y-85578773D01*
X157468762Y-85612868D01*
X157477614Y-85646682D01*
X157488102Y-85680153D01*
X157500228Y-85713221D01*
X157513995Y-85745825D01*
X157529403Y-85777905D01*
X157546455Y-85809399D01*
X157565154Y-85840247D01*
X157585500Y-85870389D01*
X157607496Y-85899764D01*
X157631143Y-85928310D01*
X157657118Y-85956385D01*
X157683501Y-85982425D01*
X157710370Y-86006460D01*
X157737803Y-86028520D01*
X157765876Y-86048638D01*
X157794667Y-86066843D01*
X157824254Y-86083168D01*
X157854715Y-86097643D01*
X157886126Y-86110298D01*
X157918566Y-86121166D01*
X157952112Y-86130276D01*
X157986841Y-86137661D01*
X158022831Y-86143351D01*
X158060159Y-86147376D01*
X158098904Y-86149769D01*
X158139142Y-86150560D01*
X158181576Y-86149828D01*
X158222881Y-86147640D01*
X158263042Y-86144008D01*
X158302047Y-86138943D01*
X158339881Y-86132457D01*
X158376531Y-86124561D01*
X158411983Y-86115268D01*
X158446224Y-86104588D01*
X158479240Y-86092534D01*
X158511018Y-86079117D01*
X158541545Y-86064348D01*
X158570805Y-86048240D01*
X158598787Y-86030804D01*
X158625476Y-86012051D01*
X158650859Y-85991994D01*
X158674923Y-85970643D01*
X158697653Y-85948010D01*
X158719036Y-85924108D01*
X158739059Y-85898948D01*
X158757708Y-85872540D01*
X158774970Y-85844898D01*
X158790830Y-85816032D01*
X158805276Y-85785955D01*
X158818293Y-85754677D01*
X158829869Y-85722210D01*
X158839990Y-85688567D01*
X158848641Y-85653758D01*
X158855810Y-85617796D01*
X158861483Y-85580692D01*
X158865647Y-85542457D01*
X158868287Y-85503104D01*
X158869391Y-85462643D01*
X158868736Y-85411018D01*
X158865477Y-85360696D01*
X158859655Y-85311737D01*
X158851311Y-85264205D01*
X158840486Y-85218162D01*
X158827222Y-85173668D01*
X158811561Y-85130787D01*
X158793543Y-85089581D01*
X158773210Y-85050110D01*
X158762188Y-85031045D01*
X158750604Y-85012438D01*
X158738460Y-84994296D01*
X158725765Y-84976626D01*
X158712521Y-84959437D01*
X158698734Y-84942737D01*
X158684411Y-84926533D01*
X158669555Y-84910832D01*
X158654172Y-84895643D01*
X158638267Y-84880973D01*
X158621845Y-84866831D01*
X158604912Y-84853223D01*
X158587472Y-84840158D01*
X158569531Y-84827643D01*
X158543753Y-84811716D01*
X158517380Y-84797005D01*
X158490462Y-84783507D01*
X158463044Y-84771219D01*
X158435174Y-84760138D01*
X158406898Y-84750260D01*
X158378265Y-84741582D01*
X158349321Y-84734102D01*
X158290690Y-84722718D01*
X158231382Y-84716084D01*
X158171774Y-84714173D01*
X158112244Y-84716959D01*
X158053168Y-84724417D01*
X157994924Y-84736520D01*
X157937890Y-84753244D01*
X157909944Y-84763330D01*
X157882442Y-84774561D01*
X157855431Y-84786935D01*
X157828958Y-84800447D01*
X157803070Y-84815095D01*
X157777815Y-84830875D01*
X157753239Y-84847784D01*
X157729390Y-84865819D01*
X157706315Y-84884977D01*
X157684061Y-84905255D01*
X157657406Y-84931238D01*
X157632345Y-84958214D01*
X157608879Y-84986124D01*
X157587011Y-85014905D01*
X157566742Y-85044498D01*
X157548075Y-85074841D01*
X157531011Y-85105874D01*
X157515552Y-85137537D01*
X157501700Y-85169767D01*
X157489458Y-85202506D01*
X157478826Y-85235691D01*
X157469808Y-85269263D01*
X157462404Y-85303161D01*
X157456617Y-85337323D01*
X157452449Y-85371689D01*
X157449902Y-85406199D01*
X157448977Y-85440791D01*
X157183117Y-85440791D01*
X157183127Y-85401082D01*
X157184552Y-85343215D01*
X157187477Y-85288770D01*
X157191987Y-85237471D01*
X157198172Y-85189046D01*
X157206120Y-85143220D01*
X157215917Y-85099720D01*
X157227651Y-85058271D01*
X157241412Y-85018600D01*
X157257286Y-84980433D01*
X157275362Y-84943495D01*
X157295727Y-84907514D01*
X157318469Y-84872214D01*
X157343676Y-84837323D01*
X157371436Y-84802567D01*
X157401837Y-84767671D01*
X157426914Y-84740701D01*
X157451976Y-84715291D01*
X157477172Y-84691349D01*
X157502653Y-84668782D01*
X157528568Y-84647497D01*
X157555066Y-84627400D01*
X157582299Y-84608398D01*
X157610416Y-84590399D01*
X157639566Y-84573310D01*
X157669899Y-84557037D01*
X157701565Y-84541488D01*
X157734715Y-84526569D01*
X157769498Y-84512187D01*
X157806063Y-84498250D01*
X157844561Y-84484665D01*
X157885141Y-84471337D01*
X157900451Y-84466753D01*
X157917161Y-84462277D01*
X157954100Y-84453754D01*
X157994594Y-84445975D01*
X158037278Y-84439146D01*
X158080790Y-84433475D01*
X158123764Y-84429169D01*
X158164836Y-84426433D01*
X158202643Y-84425476D01*
X158274894Y-84425987D01*
G37*
G36*
X132853354Y-84508490D02*
G01*
X132981157Y-84512477D01*
X133108154Y-84519969D01*
X133234200Y-84530953D01*
X133359150Y-84545421D01*
X133482860Y-84563361D01*
X133605185Y-84584764D01*
X133725980Y-84609619D01*
X133845101Y-84637915D01*
X133962403Y-84669642D01*
X134077741Y-84704791D01*
X134190971Y-84743350D01*
X134301947Y-84785309D01*
X134422425Y-84835422D01*
X134537834Y-84887897D01*
X134648230Y-84942781D01*
X134753670Y-85000118D01*
X134854211Y-85059957D01*
X134949909Y-85122343D01*
X135040823Y-85187324D01*
X135127008Y-85254945D01*
X135208521Y-85325253D01*
X135285420Y-85398295D01*
X135357761Y-85474118D01*
X135425600Y-85552767D01*
X135488996Y-85634289D01*
X135548004Y-85718731D01*
X135602681Y-85806139D01*
X135653085Y-85896559D01*
X135678413Y-85945957D01*
X135702743Y-85996068D01*
X135725989Y-86046613D01*
X135748061Y-86097312D01*
X135768872Y-86147888D01*
X135788334Y-86198061D01*
X135806360Y-86247551D01*
X135822861Y-86296080D01*
X135837749Y-86343370D01*
X135850938Y-86389139D01*
X135862339Y-86433111D01*
X135871863Y-86475005D01*
X135879424Y-86514542D01*
X135884934Y-86551445D01*
X135888304Y-86585432D01*
X135889447Y-86616226D01*
X135888208Y-86641383D01*
X135884169Y-86664017D01*
X135876843Y-86684253D01*
X135865745Y-86702216D01*
X135850389Y-86718029D01*
X135830288Y-86731816D01*
X135804958Y-86743702D01*
X135773913Y-86753810D01*
X135736667Y-86762264D01*
X135692733Y-86769188D01*
X135641627Y-86774707D01*
X135582863Y-86778945D01*
X135515954Y-86782025D01*
X135440415Y-86784071D01*
X135261505Y-86785559D01*
X135155534Y-86785205D01*
X135061800Y-86783720D01*
X134979228Y-86780467D01*
X134906743Y-86774811D01*
X134873947Y-86770883D01*
X134843270Y-86766116D01*
X134814578Y-86760431D01*
X134787735Y-86753747D01*
X134762608Y-86745986D01*
X134739063Y-86737069D01*
X134716964Y-86726915D01*
X134696178Y-86715445D01*
X134676571Y-86702579D01*
X134658007Y-86688240D01*
X134640352Y-86672346D01*
X134623473Y-86654818D01*
X134607234Y-86635577D01*
X134591502Y-86614544D01*
X134576142Y-86591639D01*
X134561020Y-86566782D01*
X134530951Y-86510896D01*
X134500221Y-86446252D01*
X134467754Y-86372212D01*
X134432477Y-86288143D01*
X134394121Y-86208170D01*
X134346721Y-86132383D01*
X134290579Y-86060916D01*
X134225992Y-85993904D01*
X134153260Y-85931481D01*
X134072685Y-85873781D01*
X133984564Y-85820938D01*
X133889199Y-85773087D01*
X133786888Y-85730363D01*
X133677932Y-85692900D01*
X133562629Y-85660831D01*
X133441281Y-85634292D01*
X133314186Y-85613416D01*
X133181644Y-85598339D01*
X133043955Y-85589194D01*
X132901419Y-85586116D01*
X132775318Y-85588724D01*
X132652291Y-85596568D01*
X132532272Y-85609672D01*
X132415193Y-85628063D01*
X132300987Y-85651766D01*
X132189588Y-85680807D01*
X132080927Y-85715212D01*
X131974938Y-85755007D01*
X131871553Y-85800218D01*
X131770705Y-85850870D01*
X131672328Y-85906990D01*
X131576354Y-85968603D01*
X131482715Y-86035735D01*
X131391345Y-86108412D01*
X131302177Y-86186659D01*
X131215143Y-86270504D01*
X131132240Y-86357120D01*
X131055291Y-86444192D01*
X130983963Y-86532503D01*
X130917928Y-86622841D01*
X130856854Y-86715989D01*
X130800409Y-86812734D01*
X130748264Y-86913862D01*
X130700088Y-87020157D01*
X130655550Y-87132405D01*
X130614320Y-87251392D01*
X130576065Y-87377903D01*
X130540457Y-87512723D01*
X130507163Y-87656638D01*
X130475854Y-87810434D01*
X130446199Y-87974896D01*
X130417866Y-88150810D01*
X130336728Y-88687031D01*
X130414337Y-89314976D01*
X130437702Y-89497474D01*
X130461687Y-89667182D01*
X130486581Y-89824952D01*
X130512674Y-89971638D01*
X130540256Y-90108092D01*
X130569615Y-90235167D01*
X130601041Y-90353715D01*
X130634824Y-90464590D01*
X130671252Y-90568643D01*
X130710616Y-90666727D01*
X130753205Y-90759696D01*
X130799307Y-90848401D01*
X130849213Y-90933696D01*
X130903211Y-91016432D01*
X130961592Y-91097464D01*
X131024644Y-91177642D01*
X131085696Y-91250230D01*
X131148433Y-91319801D01*
X131212803Y-91386312D01*
X131278754Y-91449722D01*
X131346235Y-91509991D01*
X131415193Y-91567076D01*
X131485578Y-91620936D01*
X131557338Y-91671531D01*
X131630420Y-91718818D01*
X131704774Y-91762757D01*
X131780347Y-91803306D01*
X131857089Y-91840423D01*
X131934946Y-91874068D01*
X132013868Y-91904199D01*
X132093803Y-91930774D01*
X132174699Y-91953753D01*
X132231132Y-91965575D01*
X132301224Y-91975898D01*
X132383004Y-91984712D01*
X132474505Y-91992007D01*
X132678792Y-92001998D01*
X132898334Y-92005788D01*
X133117380Y-92003294D01*
X133320179Y-91994433D01*
X133410563Y-91987590D01*
X133490980Y-91979123D01*
X133559459Y-91969024D01*
X133614032Y-91957281D01*
X133691913Y-91934967D01*
X133765623Y-91910235D01*
X133835375Y-91882898D01*
X133901381Y-91852770D01*
X133963852Y-91819667D01*
X134023000Y-91783400D01*
X134079037Y-91743785D01*
X134132175Y-91700635D01*
X134182626Y-91653765D01*
X134230601Y-91602987D01*
X134276314Y-91548117D01*
X134319974Y-91488969D01*
X134361795Y-91425355D01*
X134401988Y-91357091D01*
X134440765Y-91283989D01*
X134478339Y-91205865D01*
X134493541Y-91174669D01*
X134508682Y-91144646D01*
X134523699Y-91115894D01*
X134538530Y-91088511D01*
X134553113Y-91062597D01*
X134567386Y-91038248D01*
X134581287Y-91015562D01*
X134594754Y-90994639D01*
X134607725Y-90975577D01*
X134620138Y-90958473D01*
X134631931Y-90943425D01*
X134643041Y-90930533D01*
X134653408Y-90919894D01*
X134658292Y-90915450D01*
X134662968Y-90911606D01*
X134667426Y-90908374D01*
X134671660Y-90905767D01*
X134675661Y-90903797D01*
X134679422Y-90902476D01*
X134703165Y-90898528D01*
X134746338Y-90894704D01*
X134881386Y-90887924D01*
X135065382Y-90883128D01*
X135279144Y-90881309D01*
X135489067Y-90883176D01*
X135574079Y-90885131D01*
X135646859Y-90888309D01*
X135678912Y-90890486D01*
X135708208Y-90893121D01*
X135734846Y-90896267D01*
X135758927Y-90899975D01*
X135780551Y-90904294D01*
X135799818Y-90909277D01*
X135816828Y-90914975D01*
X135831681Y-90921438D01*
X135844477Y-90928717D01*
X135855317Y-90936864D01*
X135864300Y-90945929D01*
X135871527Y-90955964D01*
X135877097Y-90967020D01*
X135881112Y-90979147D01*
X135883670Y-90992397D01*
X135884873Y-91006821D01*
X135884820Y-91022469D01*
X135883612Y-91039393D01*
X135881348Y-91057644D01*
X135878128Y-91077273D01*
X135869224Y-91120868D01*
X135857699Y-91170587D01*
X135852922Y-91191214D01*
X135846599Y-91214560D01*
X135829752Y-91268372D01*
X135808027Y-91329957D01*
X135782292Y-91397247D01*
X135753416Y-91468174D01*
X135722265Y-91540673D01*
X135689709Y-91612675D01*
X135656616Y-91682115D01*
X135600789Y-91790972D01*
X135541556Y-91894160D01*
X135478572Y-91991964D01*
X135411490Y-92084667D01*
X135339963Y-92172554D01*
X135263647Y-92255909D01*
X135182193Y-92335017D01*
X135095257Y-92410160D01*
X135002492Y-92481624D01*
X134903551Y-92549693D01*
X134798089Y-92614652D01*
X134685759Y-92676783D01*
X134566215Y-92736372D01*
X134439111Y-92793703D01*
X134304100Y-92849059D01*
X134160837Y-92902726D01*
X133978383Y-92963870D01*
X133794926Y-93016332D01*
X133610622Y-93060112D01*
X133425626Y-93095210D01*
X133240092Y-93121627D01*
X133054176Y-93139363D01*
X132868033Y-93148416D01*
X132681817Y-93148789D01*
X132495683Y-93140479D01*
X132309788Y-93123488D01*
X132124285Y-93097815D01*
X131939330Y-93063460D01*
X131755077Y-93020424D01*
X131571683Y-92968706D01*
X131389301Y-92908307D01*
X131208087Y-92839225D01*
X131032291Y-92762808D01*
X130865838Y-92681482D01*
X130708397Y-92594884D01*
X130559638Y-92502654D01*
X130419230Y-92404429D01*
X130286842Y-92299849D01*
X130162143Y-92188550D01*
X130044803Y-92070171D01*
X129934491Y-91944351D01*
X129830877Y-91810728D01*
X129733629Y-91668940D01*
X129642416Y-91518625D01*
X129556909Y-91359422D01*
X129476776Y-91190969D01*
X129401687Y-91012904D01*
X129331311Y-90824865D01*
X129255381Y-90605702D01*
X129195491Y-90412997D01*
X129170890Y-90322432D01*
X129149492Y-90233521D01*
X129131030Y-90144610D01*
X129115234Y-90054045D01*
X129101836Y-89960173D01*
X129090567Y-89861340D01*
X129073341Y-89642177D01*
X129061407Y-89383326D01*
X129052615Y-89071559D01*
X129048426Y-88750207D01*
X129049529Y-88471231D01*
X129056584Y-88226402D01*
X129062551Y-88114222D01*
X129070255Y-88007494D01*
X129079777Y-87905189D01*
X129091201Y-87806279D01*
X129104610Y-87709737D01*
X129120085Y-87614532D01*
X129137710Y-87519638D01*
X129157568Y-87424025D01*
X129204311Y-87226531D01*
X129226406Y-87145886D01*
X129252755Y-87060595D01*
X129282980Y-86971470D01*
X129316703Y-86879321D01*
X129353547Y-86784961D01*
X129393136Y-86689200D01*
X129479036Y-86496723D01*
X129571385Y-86308379D01*
X129619035Y-86217786D01*
X129667166Y-86130661D01*
X129715399Y-86047814D01*
X129763359Y-85970057D01*
X129810668Y-85898202D01*
X129856949Y-85833060D01*
X129964951Y-85695695D01*
X130079846Y-85565431D01*
X130201501Y-85442340D01*
X130329781Y-85326493D01*
X130464551Y-85217964D01*
X130605678Y-85116825D01*
X130753026Y-85023147D01*
X130906462Y-84937004D01*
X131065851Y-84858468D01*
X131231059Y-84787611D01*
X131401951Y-84724506D01*
X131578393Y-84669224D01*
X131760251Y-84621838D01*
X131947390Y-84582421D01*
X132139676Y-84551045D01*
X132336975Y-84527782D01*
X132466556Y-84517652D01*
X132595909Y-84511067D01*
X132724890Y-84508016D01*
X132853354Y-84508490D01*
G37*
G36*
X121482887Y-74023659D02*
G01*
X121690144Y-74025588D01*
X121842838Y-74028640D01*
X121908510Y-74030557D01*
X121967791Y-74032809D01*
X122021222Y-74035454D01*
X122069345Y-74038548D01*
X122112704Y-74042149D01*
X122151842Y-74046313D01*
X122187299Y-74051098D01*
X122219620Y-74056559D01*
X122249347Y-74062754D01*
X122277023Y-74069740D01*
X122303189Y-74077573D01*
X122328389Y-74086311D01*
X122353166Y-74096009D01*
X122378061Y-74106726D01*
X122420307Y-74126994D01*
X122458559Y-74146993D01*
X122493038Y-74167033D01*
X122523968Y-74187425D01*
X122551569Y-74208478D01*
X122576064Y-74230502D01*
X122587217Y-74241976D01*
X122597676Y-74253808D01*
X122607471Y-74266039D01*
X122616627Y-74278706D01*
X122625174Y-74291849D01*
X122633138Y-74305505D01*
X122640549Y-74319715D01*
X122647433Y-74334517D01*
X122659733Y-74366049D01*
X122670260Y-74400414D01*
X122679237Y-74437921D01*
X122686886Y-74478880D01*
X122693429Y-74523600D01*
X122699089Y-74572393D01*
X122711980Y-74684207D01*
X122720211Y-74729872D01*
X122731445Y-74769728D01*
X122747040Y-74804541D01*
X122756898Y-74820295D01*
X122768356Y-74835075D01*
X122781583Y-74848976D01*
X122796751Y-74862095D01*
X122814028Y-74874526D01*
X122833585Y-74886366D01*
X122880217Y-74908652D01*
X122938006Y-74929719D01*
X123008311Y-74950331D01*
X123092491Y-74971253D01*
X123307912Y-75017087D01*
X123595143Y-75073338D01*
X123767563Y-75108285D01*
X123947921Y-75146539D01*
X124115050Y-75183471D01*
X124247783Y-75214449D01*
X124803132Y-75327007D01*
X125872765Y-75527540D01*
X128357643Y-75972921D01*
X131144588Y-76466810D01*
X132672887Y-76737842D01*
X133845983Y-76941737D01*
X134753173Y-77093376D01*
X135483752Y-77207644D01*
X135645590Y-77231456D01*
X135836532Y-77260560D01*
X137137841Y-77460762D01*
X139240835Y-77803838D01*
X140112859Y-77944784D01*
X140988851Y-78082091D01*
X141766947Y-78200217D01*
X142345282Y-78283616D01*
X143271324Y-78408411D01*
X143985696Y-78509393D01*
X145892461Y-78790733D01*
X146471126Y-78872534D01*
X146825558Y-78918616D01*
X147994135Y-79061050D01*
X149506668Y-79253755D01*
X149828469Y-79294489D01*
X150197233Y-79338862D01*
X150567319Y-79381251D01*
X150893088Y-79416033D01*
X151175144Y-79442656D01*
X151421812Y-79467626D01*
X151606965Y-79487966D01*
X151668309Y-79495469D01*
X151704477Y-79500699D01*
X151929812Y-79521865D01*
X152311252Y-79553616D01*
X152540724Y-79573625D01*
X152800291Y-79599918D01*
X153057873Y-79629518D01*
X153281390Y-79659449D01*
X153506176Y-79686624D01*
X153767343Y-79712806D01*
X154032477Y-79734359D01*
X154156404Y-79742262D01*
X154269168Y-79747644D01*
X154512696Y-79759770D01*
X154796572Y-79778511D01*
X155085740Y-79801221D01*
X155345142Y-79825254D01*
X155730986Y-79850810D01*
X156278846Y-79871611D01*
X157647457Y-79897133D01*
X159024667Y-79898180D01*
X159583276Y-79888389D01*
X159984167Y-79871116D01*
X160129912Y-79859953D01*
X160258314Y-79850273D01*
X160370470Y-79842071D01*
X160467473Y-79835342D01*
X160510636Y-79832528D01*
X160550421Y-79830080D01*
X160586966Y-79827998D01*
X160620408Y-79826281D01*
X160650884Y-79824928D01*
X160678530Y-79823939D01*
X160703485Y-79823313D01*
X160725883Y-79823049D01*
X160745864Y-79823147D01*
X160763562Y-79823607D01*
X160779117Y-79824426D01*
X160786132Y-79824971D01*
X160792663Y-79825606D01*
X160798726Y-79826330D01*
X160804339Y-79827144D01*
X160809518Y-79828048D01*
X160814281Y-79829041D01*
X160818645Y-79830124D01*
X160822627Y-79831296D01*
X160826243Y-79832558D01*
X160829512Y-79833908D01*
X160832450Y-79835348D01*
X160835075Y-79836877D01*
X160837403Y-79838495D01*
X160839451Y-79840202D01*
X160841238Y-79841997D01*
X160842779Y-79843881D01*
X160844092Y-79845854D01*
X160845194Y-79847916D01*
X160846103Y-79850066D01*
X160846835Y-79852305D01*
X160847407Y-79854631D01*
X160847837Y-79857046D01*
X160848337Y-79862141D01*
X160848474Y-79867588D01*
X160844499Y-79885579D01*
X160832385Y-79902541D01*
X160811848Y-79918522D01*
X160782604Y-79933568D01*
X160744368Y-79947725D01*
X160696856Y-79961039D01*
X160639783Y-79973558D01*
X160572867Y-79985327D01*
X160408363Y-80006804D01*
X160201072Y-80025841D01*
X159948719Y-80042812D01*
X159649029Y-80058087D01*
X159291180Y-80072585D01*
X158942593Y-80084105D01*
X158431946Y-80096893D01*
X157676838Y-80082892D01*
X156674674Y-80048386D01*
X155708889Y-80004620D01*
X155328212Y-79982778D01*
X155062918Y-79962838D01*
X154539926Y-79914331D01*
X154263216Y-79890408D01*
X154022226Y-79871116D01*
X153815134Y-79855406D01*
X153630201Y-79840688D01*
X153486941Y-79827955D01*
X153437035Y-79822643D01*
X153404864Y-79818199D01*
X153113822Y-79792181D01*
X152558197Y-79747644D01*
X152291581Y-79726029D01*
X152020708Y-79701727D01*
X151757192Y-79676020D01*
X151512653Y-79650189D01*
X151298705Y-79625515D01*
X151126967Y-79603280D01*
X151009055Y-79584766D01*
X150973914Y-79577305D01*
X150956586Y-79571255D01*
X150942985Y-79567968D01*
X150913923Y-79563482D01*
X150816357Y-79551410D01*
X150512085Y-79518338D01*
X150293309Y-79496565D01*
X150010702Y-79465862D01*
X149400836Y-79394866D01*
X149068564Y-79353414D01*
X148671469Y-79306671D01*
X147883893Y-79218477D01*
X147229434Y-79143897D01*
X146595812Y-79063696D01*
X145874216Y-78962988D01*
X144955835Y-78826893D01*
X144144449Y-78706949D01*
X143068475Y-78548199D01*
X142325437Y-78439279D01*
X141727920Y-78354171D01*
X140713740Y-78211903D01*
X139697243Y-78062689D01*
X138756815Y-77918105D01*
X137970837Y-77789727D01*
X135159198Y-77314359D01*
X134471392Y-77200367D01*
X133966809Y-77119449D01*
X133119812Y-76983464D01*
X132141184Y-76820029D01*
X131136099Y-76646672D01*
X130209726Y-76480921D01*
X128496991Y-76173123D01*
X127821532Y-76055273D01*
X127228755Y-75955283D01*
X126111772Y-75763019D01*
X124230144Y-75422588D01*
X123772780Y-75340133D01*
X123587695Y-75307021D01*
X123428732Y-75278886D01*
X123293685Y-75255402D01*
X123180347Y-75236243D01*
X123131130Y-75228183D01*
X123086512Y-75221083D01*
X123046219Y-75214902D01*
X123009974Y-75209598D01*
X122977501Y-75205132D01*
X122948524Y-75201462D01*
X122922769Y-75198548D01*
X122899958Y-75196349D01*
X122879816Y-75194824D01*
X122862068Y-75193933D01*
X122846437Y-75193635D01*
X122832648Y-75193889D01*
X122820424Y-75194655D01*
X122809491Y-75195891D01*
X122799571Y-75197558D01*
X122790390Y-75199615D01*
X122781672Y-75202020D01*
X122773140Y-75204733D01*
X122755533Y-75210921D01*
X122745834Y-75215619D01*
X122735324Y-75221711D01*
X122724101Y-75229106D01*
X122712263Y-75237710D01*
X122699908Y-75247431D01*
X122687134Y-75258174D01*
X122674040Y-75269848D01*
X122660724Y-75282359D01*
X122647284Y-75295614D01*
X122633818Y-75309520D01*
X122620424Y-75323984D01*
X122607201Y-75338913D01*
X122594247Y-75354215D01*
X122581659Y-75369795D01*
X122569536Y-75385562D01*
X122557977Y-75401421D01*
X122542911Y-75423139D01*
X122528067Y-75443369D01*
X122513337Y-75462193D01*
X122498611Y-75479694D01*
X122483783Y-75495954D01*
X122468742Y-75511058D01*
X122453381Y-75525086D01*
X122437592Y-75538122D01*
X122421264Y-75550249D01*
X122404291Y-75561549D01*
X122386564Y-75572105D01*
X122367973Y-75581999D01*
X122348411Y-75591315D01*
X122327769Y-75600134D01*
X122305938Y-75608540D01*
X122282811Y-75616616D01*
X122248925Y-75628164D01*
X122214130Y-75638885D01*
X122179499Y-75648614D01*
X122146109Y-75657185D01*
X122115035Y-75664434D01*
X122087350Y-75670194D01*
X122064130Y-75674301D01*
X122046449Y-75676588D01*
X122014909Y-75681281D01*
X122023980Y-75691478D01*
X122167000Y-75728898D01*
X122973814Y-75875466D01*
X124515508Y-76124561D01*
X126840698Y-76484449D01*
X127757921Y-76625560D01*
X127877810Y-76645570D01*
X128047640Y-76671862D01*
X128445837Y-76731394D01*
X129998059Y-76960699D01*
X130868980Y-77089022D01*
X131451504Y-77172366D01*
X135219171Y-77715643D01*
X135927814Y-77818390D01*
X136612643Y-77913199D01*
X137268368Y-78003157D01*
X137900281Y-78093116D01*
X138372563Y-78157497D01*
X138641113Y-78195421D01*
X138717788Y-78204957D01*
X138836465Y-78221439D01*
X138980939Y-78242550D01*
X139135004Y-78265977D01*
X140352087Y-78424727D01*
X142186529Y-78671671D01*
X142630039Y-78733297D01*
X143107283Y-78796907D01*
X143932782Y-78900977D01*
X145278628Y-79066341D01*
X146878476Y-79271393D01*
X147553935Y-79355785D01*
X148323982Y-79443814D01*
X149169436Y-79533827D01*
X150071115Y-79624171D01*
X150432051Y-79660166D01*
X150855163Y-79705751D01*
X151676251Y-79800560D01*
X152167110Y-79860697D01*
X152576278Y-79905952D01*
X153007273Y-79947900D01*
X153563614Y-79998116D01*
X153861270Y-80026338D01*
X154251529Y-80065143D01*
X155049103Y-80141308D01*
X155911955Y-80207467D01*
X156803498Y-80262217D01*
X157687144Y-80304151D01*
X158526308Y-80331863D01*
X159284401Y-80343948D01*
X159924837Y-80339001D01*
X160411029Y-80315616D01*
X160488779Y-80309670D01*
X160564709Y-80305088D01*
X160637001Y-80301911D01*
X160703836Y-80300182D01*
X160763395Y-80299940D01*
X160813858Y-80301229D01*
X160835111Y-80302460D01*
X160853408Y-80304088D01*
X160868521Y-80306120D01*
X160880224Y-80308560D01*
X160890497Y-80311387D01*
X160900149Y-80314563D01*
X160909177Y-80318061D01*
X160917582Y-80321858D01*
X160925361Y-80325928D01*
X160932514Y-80330248D01*
X160939040Y-80334793D01*
X160944936Y-80339538D01*
X160950201Y-80344458D01*
X160954835Y-80349530D01*
X160958836Y-80354729D01*
X160962203Y-80360029D01*
X160964934Y-80365407D01*
X160967028Y-80370838D01*
X160968484Y-80376298D01*
X160969300Y-80381761D01*
X160969476Y-80387203D01*
X160969009Y-80392601D01*
X160967899Y-80397928D01*
X160966145Y-80403162D01*
X160963744Y-80408276D01*
X160960697Y-80413247D01*
X160957001Y-80418050D01*
X160952654Y-80422661D01*
X160947657Y-80427055D01*
X160942008Y-80431207D01*
X160935704Y-80435092D01*
X160928746Y-80438688D01*
X160921131Y-80441968D01*
X160912859Y-80444908D01*
X160903927Y-80447484D01*
X160894336Y-80449671D01*
X160786042Y-80463741D01*
X160600813Y-80478885D01*
X160075451Y-80508762D01*
X159470052Y-80532023D01*
X159184777Y-80538899D01*
X158936420Y-80541394D01*
X158811811Y-80541717D01*
X158696256Y-80542661D01*
X158592193Y-80544184D01*
X158502063Y-80546244D01*
X158428303Y-80548800D01*
X158373353Y-80551811D01*
X158353694Y-80553474D01*
X158339652Y-80555235D01*
X158331532Y-80557090D01*
X158329788Y-80558050D01*
X158329639Y-80559032D01*
X158395139Y-80570325D01*
X158558617Y-80587199D01*
X159092525Y-80630911D01*
X159757401Y-80676606D01*
X160379285Y-80710726D01*
X160504842Y-80716466D01*
X160623084Y-80722908D01*
X160731321Y-80729764D01*
X160826867Y-80736743D01*
X160907034Y-80743558D01*
X160969134Y-80749917D01*
X161010481Y-80755533D01*
X161022533Y-80757971D01*
X161028387Y-80760115D01*
X161030288Y-80763003D01*
X161032013Y-80766351D01*
X161033552Y-80770122D01*
X161034894Y-80774281D01*
X161036030Y-80778792D01*
X161036948Y-80783618D01*
X161037639Y-80788723D01*
X161038092Y-80794071D01*
X161038297Y-80799625D01*
X161038244Y-80805350D01*
X161037922Y-80811209D01*
X161037321Y-80817167D01*
X161036430Y-80823186D01*
X161035241Y-80829231D01*
X161033741Y-80835266D01*
X161031921Y-80841255D01*
X161027861Y-80848824D01*
X161022096Y-80855676D01*
X161014325Y-80861835D01*
X161004250Y-80867327D01*
X160991570Y-80872178D01*
X160975986Y-80876415D01*
X160957198Y-80880062D01*
X160934907Y-80883147D01*
X160908812Y-80885693D01*
X160878614Y-80887729D01*
X160804709Y-80890368D01*
X160710796Y-80891270D01*
X160594476Y-80890643D01*
X160504668Y-80890002D01*
X160409156Y-80888162D01*
X160212591Y-80881383D01*
X160117327Y-80876690D01*
X160027934Y-80871295D01*
X159947304Y-80865322D01*
X159878332Y-80858893D01*
X159703323Y-80843404D01*
X159449269Y-80824939D01*
X159149573Y-80805812D01*
X158837640Y-80788338D01*
X158490761Y-80768329D01*
X158091957Y-80742036D01*
X157691169Y-80712435D01*
X157338336Y-80682505D01*
X156735969Y-80627824D01*
X156350558Y-80594310D01*
X156247482Y-80583837D01*
X156137129Y-80574025D01*
X156032067Y-80565536D01*
X155944864Y-80559032D01*
X155835614Y-80549275D01*
X155666170Y-80536542D01*
X155239307Y-80506115D01*
X154755340Y-80469625D01*
X154304446Y-80431150D01*
X153840323Y-80386061D01*
X153316669Y-80329727D01*
X152851113Y-80279290D01*
X152415323Y-80235799D01*
X151958365Y-80194293D01*
X151429309Y-80149810D01*
X151191736Y-80129305D01*
X150909843Y-80102185D01*
X150353335Y-80043976D01*
X149745677Y-79973862D01*
X149407781Y-79937316D01*
X149100973Y-79906393D01*
X148591651Y-79851713D01*
X148407931Y-79830987D01*
X148307223Y-79818199D01*
X147971646Y-79786008D01*
X147337085Y-79730004D01*
X146628664Y-79668434D01*
X145987711Y-79602563D01*
X145227695Y-79512219D01*
X144162085Y-79377227D01*
X143904725Y-79347516D01*
X143592793Y-79314168D01*
X143265646Y-79281481D01*
X142962643Y-79253755D01*
X142670995Y-79227793D01*
X142370417Y-79199515D01*
X142096959Y-79171899D01*
X141886670Y-79147921D01*
X141181116Y-79059727D01*
X141051909Y-79044017D01*
X140922704Y-79029300D01*
X140722504Y-79006810D01*
X140105142Y-78936255D01*
X139627128Y-78883338D01*
X139117364Y-78830421D01*
X138718725Y-78785883D01*
X138576622Y-78769402D01*
X138500003Y-78759866D01*
X137847363Y-78671671D01*
X137596065Y-78638212D01*
X137329222Y-78599793D01*
X136877225Y-78530560D01*
X136787019Y-78515739D01*
X136685403Y-78500629D01*
X136461831Y-78471029D01*
X136234290Y-78444736D01*
X136030560Y-78424727D01*
X135606069Y-78388071D01*
X135166695Y-78343147D01*
X134590399Y-78276395D01*
X133755142Y-78174254D01*
X132432226Y-78015504D01*
X131778266Y-77936570D01*
X131169282Y-77860282D01*
X131112014Y-77852801D01*
X131059225Y-77846240D01*
X131010850Y-77840609D01*
X130966821Y-77835918D01*
X130927070Y-77832179D01*
X130891532Y-77829400D01*
X130860137Y-77827593D01*
X130832820Y-77826768D01*
X130820670Y-77826727D01*
X130809513Y-77826935D01*
X130799343Y-77827394D01*
X130790149Y-77828105D01*
X130781925Y-77829069D01*
X130774661Y-77830287D01*
X130768349Y-77831762D01*
X130762981Y-77833493D01*
X130758549Y-77835483D01*
X130755043Y-77837732D01*
X130752456Y-77840243D01*
X130750779Y-77843015D01*
X130750003Y-77846052D01*
X130750122Y-77849353D01*
X130751125Y-77852920D01*
X130753004Y-77856755D01*
X130755759Y-77859519D01*
X130759991Y-77862501D01*
X130765608Y-77865669D01*
X130772517Y-77868992D01*
X130780625Y-77872438D01*
X130789839Y-77875978D01*
X130811213Y-77883213D01*
X130835893Y-77890448D01*
X130863137Y-77897434D01*
X130892200Y-77903925D01*
X130922337Y-77909671D01*
X132164117Y-78094879D01*
X133808060Y-78322422D01*
X134072644Y-78356376D01*
X134213864Y-78375503D01*
X134337225Y-78392977D01*
X134900348Y-78463973D01*
X135471407Y-78532324D01*
X135960444Y-78587445D01*
X136277502Y-78618754D01*
X136344076Y-78623667D01*
X136417843Y-78630275D01*
X136577365Y-78647417D01*
X136736886Y-78667868D01*
X136810652Y-78678610D01*
X136877225Y-78689310D01*
X137430646Y-78779213D01*
X137994650Y-78863494D01*
X138679039Y-78957697D01*
X139593616Y-79077366D01*
X140035249Y-79135188D01*
X140335330Y-79172174D01*
X140639380Y-79205854D01*
X141092920Y-79253755D01*
X141711163Y-79323869D01*
X142451114Y-79412504D01*
X143197240Y-79501140D01*
X143826947Y-79571255D01*
X144253477Y-79616675D01*
X144704482Y-79667387D01*
X145095955Y-79714130D01*
X145343890Y-79747644D01*
X146045810Y-79846972D01*
X146847609Y-79946962D01*
X147722167Y-80044307D01*
X148642364Y-80135699D01*
X148952643Y-80167228D01*
X149351889Y-80210664D01*
X149788837Y-80260715D01*
X150212225Y-80312088D01*
X150793426Y-80381816D01*
X151194711Y-80428063D01*
X151506037Y-80460420D01*
X151817364Y-80488477D01*
X151945358Y-80498013D01*
X152137511Y-80514494D01*
X152611114Y-80559032D01*
X153209072Y-80611948D01*
X153828198Y-80664865D01*
X154112459Y-80689339D01*
X154416895Y-80717782D01*
X154939447Y-80770699D01*
X155042855Y-80781075D01*
X155154862Y-80790873D01*
X155390121Y-80807740D01*
X155506097Y-80814314D01*
X155616120Y-80819316D01*
X155716551Y-80822499D01*
X155803754Y-80823616D01*
X155889088Y-80824408D01*
X155981740Y-80826647D01*
X156177256Y-80834640D01*
X156366819Y-80845940D01*
X156452030Y-80852313D01*
X156526947Y-80858893D01*
X156908390Y-80892848D01*
X157355975Y-80929449D01*
X157563177Y-80943670D01*
X157762111Y-80958553D01*
X157929955Y-80972113D01*
X158043890Y-80982366D01*
X158592901Y-81000445D01*
X159081223Y-81011635D01*
X159641974Y-81021171D01*
X159929515Y-81026931D01*
X160196056Y-81033518D01*
X160436469Y-81040767D01*
X160645628Y-81048511D01*
X160818407Y-81056586D01*
X160949680Y-81064827D01*
X161034319Y-81073067D01*
X161057550Y-81077136D01*
X161064112Y-81079148D01*
X161067200Y-81081143D01*
X161068140Y-81082827D01*
X161068978Y-81084569D01*
X161069716Y-81086365D01*
X161070354Y-81088212D01*
X161070894Y-81090105D01*
X161071337Y-81092041D01*
X161071684Y-81094016D01*
X161071938Y-81096026D01*
X161072098Y-81098066D01*
X161072167Y-81100134D01*
X161072034Y-81104335D01*
X161071550Y-81108599D01*
X161070725Y-81112893D01*
X161069570Y-81117188D01*
X161068094Y-81121451D01*
X161066308Y-81125652D01*
X161064222Y-81129761D01*
X161061847Y-81133745D01*
X161059193Y-81137574D01*
X161056270Y-81141217D01*
X161053088Y-81144644D01*
X161020882Y-81154224D01*
X160947578Y-81163082D01*
X160698491Y-81178378D01*
X160347456Y-81190036D01*
X159936104Y-81197560D01*
X159506067Y-81200454D01*
X159098973Y-81198221D01*
X158756455Y-81190366D01*
X158520142Y-81176393D01*
X158321372Y-81158920D01*
X158065057Y-81139793D01*
X157784930Y-81121327D01*
X157514725Y-81105837D01*
X157109416Y-81084340D01*
X156767276Y-81063504D01*
X156401986Y-81037376D01*
X155927225Y-81000004D01*
X155417903Y-80959876D01*
X154763058Y-80911810D01*
X153507609Y-80806858D01*
X150688473Y-80537866D01*
X150508171Y-80520612D01*
X150301741Y-80497737D01*
X150094649Y-80472877D01*
X149912363Y-80449671D01*
X149313193Y-80372225D01*
X148854912Y-80316938D01*
X148427058Y-80271574D01*
X147919168Y-80223893D01*
X147532105Y-80185859D01*
X147090141Y-80139226D01*
X146648178Y-80089948D01*
X146261114Y-80043976D01*
X144744171Y-79853477D01*
X144424797Y-79813293D01*
X144062428Y-79770133D01*
X143385974Y-79694727D01*
X143077625Y-79660000D01*
X142731573Y-79617997D01*
X142098337Y-79535977D01*
X141544311Y-79460681D01*
X140978709Y-79388692D01*
X140474622Y-79328610D01*
X140105142Y-79289032D01*
X139793264Y-79255573D01*
X139269058Y-79190695D01*
X137512225Y-78957421D01*
X135660144Y-78710477D01*
X133718101Y-78449862D01*
X132379309Y-78265977D01*
X130676275Y-78028293D01*
X128883282Y-77793255D01*
X128615777Y-77760292D01*
X128333390Y-77722699D01*
X128070185Y-77685106D01*
X127860228Y-77652144D01*
X127640954Y-77617362D01*
X127352227Y-77574973D01*
X127031750Y-77530601D01*
X126717227Y-77489866D01*
X123235311Y-77002591D01*
X120049727Y-76533838D01*
X119954832Y-76519487D01*
X119866530Y-76508331D01*
X119783728Y-76500584D01*
X119705328Y-76496466D01*
X119630235Y-76496192D01*
X119557354Y-76499979D01*
X119485589Y-76508046D01*
X119413845Y-76520609D01*
X119341026Y-76537884D01*
X119266037Y-76560089D01*
X119187782Y-76587442D01*
X119105165Y-76620158D01*
X119017091Y-76658455D01*
X118922465Y-76702551D01*
X118820190Y-76752661D01*
X118709172Y-76809004D01*
X118613109Y-76858745D01*
X118522089Y-76906625D01*
X118438181Y-76951446D01*
X118363450Y-76992008D01*
X118299963Y-77027114D01*
X118249789Y-77055564D01*
X118214994Y-77076158D01*
X118204009Y-77083136D01*
X118197644Y-77087699D01*
X118180446Y-77608322D01*
X118165894Y-79120140D01*
X118144727Y-85039310D01*
X118133096Y-89420975D01*
X118127302Y-90822584D01*
X118120474Y-91800736D01*
X118116427Y-92155084D01*
X118111827Y-92432450D01*
X118106576Y-92642460D01*
X118100575Y-92794743D01*
X118093727Y-92898925D01*
X118089955Y-92935987D01*
X118085934Y-92964635D01*
X118081652Y-92986070D01*
X118077097Y-93001498D01*
X118072256Y-93012121D01*
X118067117Y-93019143D01*
X118056765Y-93028487D01*
X118046639Y-93036678D01*
X118036390Y-93043723D01*
X118025665Y-93049625D01*
X118014114Y-93054390D01*
X118001384Y-93058024D01*
X117987125Y-93060531D01*
X117970985Y-93061917D01*
X117952612Y-93062186D01*
X117931655Y-93061345D01*
X117907764Y-93059397D01*
X117880585Y-93056349D01*
X117814963Y-93046972D01*
X117731978Y-93033253D01*
X117672433Y-93023203D01*
X117616774Y-93012885D01*
X117564918Y-93002278D01*
X117516783Y-92991360D01*
X117472286Y-92980112D01*
X117431345Y-92968512D01*
X117393876Y-92956541D01*
X117359797Y-92944176D01*
X117344003Y-92937840D01*
X117329025Y-92931398D01*
X117314854Y-92924848D01*
X117301478Y-92918186D01*
X117288888Y-92911411D01*
X117277073Y-92904520D01*
X117266023Y-92897510D01*
X117255727Y-92890378D01*
X117246176Y-92883122D01*
X117237358Y-92875740D01*
X117229264Y-92868228D01*
X117221883Y-92860585D01*
X117215205Y-92852807D01*
X117209219Y-92844892D01*
X117203915Y-92836838D01*
X117199283Y-92828642D01*
X117183574Y-92302011D01*
X117168856Y-90824865D01*
X117146367Y-85286254D01*
X117127845Y-79985768D01*
X117115608Y-78358801D01*
X117104033Y-77743865D01*
X117095888Y-77727516D01*
X117085670Y-77714272D01*
X117072880Y-77704263D01*
X117057014Y-77697619D01*
X117037573Y-77694467D01*
X117014054Y-77694938D01*
X116985957Y-77699161D01*
X116952779Y-77707265D01*
X116914021Y-77719379D01*
X116869181Y-77735632D01*
X116817757Y-77756153D01*
X116759248Y-77781073D01*
X116618971Y-77844621D01*
X116444339Y-77927310D01*
X115779677Y-78235494D01*
X115001864Y-78573775D01*
X114137317Y-78931900D01*
X113212453Y-79299615D01*
X112253690Y-79666670D01*
X111287445Y-80022810D01*
X110340133Y-80357783D01*
X109438173Y-80661338D01*
X109256438Y-80720543D01*
X109095379Y-80772669D01*
X108953760Y-80817995D01*
X108830348Y-80856798D01*
X108775082Y-80873842D01*
X108723905Y-80889360D01*
X108676662Y-80903387D01*
X108633199Y-80915958D01*
X108593360Y-80927107D01*
X108556992Y-80936871D01*
X108523941Y-80945283D01*
X108494051Y-80952379D01*
X108467169Y-80958193D01*
X108443140Y-80962761D01*
X108421810Y-80966117D01*
X108412109Y-80967351D01*
X108403025Y-80968296D01*
X108394538Y-80968955D01*
X108386629Y-80969332D01*
X108379279Y-80969433D01*
X108372469Y-80969262D01*
X108366180Y-80968822D01*
X108360391Y-80968119D01*
X108355084Y-80967157D01*
X108350239Y-80965939D01*
X108345837Y-80964471D01*
X108341860Y-80962757D01*
X108338287Y-80960800D01*
X108335099Y-80958606D01*
X108332277Y-80956179D01*
X108329801Y-80953523D01*
X108327653Y-80950643D01*
X108325813Y-80947542D01*
X108324262Y-80944226D01*
X108322980Y-80940699D01*
X108321949Y-80936964D01*
X108321148Y-80933026D01*
X108320558Y-80928891D01*
X108320161Y-80924561D01*
X108319867Y-80915338D01*
X108322214Y-80904528D01*
X108329878Y-80893020D01*
X108343796Y-80880448D01*
X108364901Y-80866445D01*
X108432418Y-80832676D01*
X108539912Y-80788779D01*
X108694866Y-80731818D01*
X108904761Y-80658858D01*
X109519311Y-80453199D01*
X110278548Y-80197594D01*
X111023854Y-79936324D01*
X111754524Y-79669681D01*
X112469856Y-79397952D01*
X113169149Y-79121428D01*
X113851698Y-78840398D01*
X114516801Y-78555151D01*
X115163756Y-78265977D01*
X115278353Y-78214989D01*
X115405849Y-78157057D01*
X115640005Y-78050782D01*
X115747327Y-78002275D01*
X115868870Y-77945831D01*
X115989751Y-77888064D01*
X116095088Y-77835588D01*
X116140880Y-77812354D01*
X116184936Y-77790609D01*
X116226181Y-77770848D01*
X116263540Y-77753567D01*
X116295938Y-77739263D01*
X116322300Y-77728432D01*
X116332881Y-77724473D01*
X116341551Y-77721569D01*
X116348174Y-77719781D01*
X116352617Y-77719171D01*
X116357385Y-77718479D01*
X116364964Y-77716443D01*
X116387895Y-77708588D01*
X116420086Y-77696103D01*
X116460214Y-77679484D01*
X116506957Y-77659227D01*
X116558992Y-77635828D01*
X116614996Y-77609783D01*
X116673645Y-77581588D01*
X116732857Y-77552927D01*
X116787512Y-77525102D01*
X116837681Y-77498043D01*
X116883437Y-77471676D01*
X116924852Y-77445929D01*
X116943955Y-77433265D01*
X116961999Y-77420729D01*
X116978994Y-77408313D01*
X116994950Y-77396006D01*
X117009874Y-77383799D01*
X117023777Y-77371685D01*
X117036666Y-77359653D01*
X117048552Y-77347695D01*
X117059443Y-77335801D01*
X117069348Y-77323964D01*
X117078277Y-77312172D01*
X117086238Y-77300418D01*
X117093240Y-77288692D01*
X117099293Y-77276986D01*
X117104405Y-77265290D01*
X117108586Y-77253596D01*
X117111845Y-77241893D01*
X117114190Y-77230174D01*
X117115630Y-77218429D01*
X117116176Y-77206649D01*
X117115835Y-77194826D01*
X117114617Y-77182949D01*
X117109840Y-77158974D01*
X117106325Y-77148358D01*
X117102035Y-77138659D01*
X117096955Y-77129879D01*
X117091068Y-77122022D01*
X117084356Y-77115090D01*
X117076804Y-77109086D01*
X117068393Y-77104012D01*
X117059108Y-77099870D01*
X117048931Y-77096664D01*
X117037846Y-77094396D01*
X117025837Y-77093069D01*
X117012885Y-77092684D01*
X116984089Y-77094754D01*
X116951325Y-77100628D01*
X116914457Y-77110326D01*
X116873352Y-77123869D01*
X116827875Y-77141277D01*
X116777891Y-77162571D01*
X116723268Y-77187772D01*
X116663869Y-77216900D01*
X116599561Y-77249976D01*
X116123312Y-77496921D01*
X115888301Y-77614853D01*
X115597893Y-77753787D01*
X114893881Y-78075477D01*
X114097264Y-78423624D01*
X113294033Y-78759866D01*
X112600866Y-79033406D01*
X111796161Y-79337539D01*
X110938704Y-79651594D01*
X110087284Y-79954901D01*
X109300686Y-80226787D01*
X108637698Y-80446585D01*
X108157107Y-80593621D01*
X108003582Y-80633395D01*
X107917700Y-80647227D01*
X107907627Y-80646688D01*
X107896641Y-80645110D01*
X107884826Y-80642547D01*
X107872260Y-80639055D01*
X107859025Y-80634690D01*
X107845201Y-80629507D01*
X107816111Y-80616910D01*
X107785637Y-80601709D01*
X107754424Y-80584347D01*
X107723117Y-80565270D01*
X107692364Y-80544921D01*
X107662809Y-80523746D01*
X107635099Y-80502188D01*
X107609880Y-80480692D01*
X107587798Y-80459703D01*
X107578135Y-80449537D01*
X107569499Y-80439664D01*
X107561969Y-80430141D01*
X107555628Y-80421021D01*
X107550555Y-80412362D01*
X107546832Y-80404218D01*
X107544538Y-80396645D01*
X107543756Y-80389698D01*
X107548067Y-80384189D01*
X107555260Y-80379370D01*
X108166133Y-80379370D01*
X108166289Y-80380301D01*
X108166677Y-80381159D01*
X108167304Y-80381941D01*
X108168173Y-80382643D01*
X108178256Y-80385460D01*
X108198572Y-80384834D01*
X108265848Y-80374375D01*
X108361897Y-80353498D01*
X108478617Y-80324435D01*
X108607905Y-80289419D01*
X108741657Y-80250682D01*
X108871771Y-80210458D01*
X108990145Y-80170977D01*
X109268839Y-80069994D01*
X109433653Y-80010738D01*
X109589867Y-79955782D01*
X110935218Y-79466303D01*
X112267009Y-78960949D01*
X113442035Y-78495282D01*
X113926009Y-78294695D01*
X114317089Y-78124866D01*
X114496123Y-78043727D01*
X114775699Y-77920254D01*
X115200817Y-77726171D01*
X115606877Y-77533742D01*
X115983750Y-77348258D01*
X116321307Y-77175012D01*
X116609421Y-77019293D01*
X116731771Y-76949661D01*
X116837961Y-76886395D01*
X116926727Y-76830157D01*
X116996801Y-76781609D01*
X117046918Y-76741412D01*
X117064096Y-76724651D01*
X117075811Y-76710227D01*
X117087053Y-76690820D01*
X117096957Y-76668575D01*
X117105507Y-76643882D01*
X117112687Y-76617126D01*
X117117816Y-76591965D01*
X118145999Y-76591965D01*
X118146216Y-76604655D01*
X118146907Y-76617030D01*
X118148069Y-76629066D01*
X118149696Y-76640737D01*
X118151783Y-76652019D01*
X118154325Y-76662887D01*
X118157316Y-76673318D01*
X118160751Y-76683286D01*
X118164626Y-76692767D01*
X118168935Y-76701737D01*
X118173673Y-76710170D01*
X118178835Y-76718043D01*
X118184415Y-76725330D01*
X118190409Y-76732008D01*
X118196811Y-76738051D01*
X118203616Y-76743435D01*
X118210818Y-76748136D01*
X118218414Y-76752130D01*
X118226397Y-76755390D01*
X118234763Y-76757894D01*
X118243506Y-76759615D01*
X118253764Y-76760197D01*
X118265919Y-76759352D01*
X118279821Y-76757160D01*
X118295320Y-76753704D01*
X118330508Y-76743322D01*
X118370285Y-76728858D01*
X118413452Y-76710962D01*
X118458810Y-76690286D01*
X118505160Y-76667481D01*
X118551304Y-76643199D01*
X118596042Y-76618089D01*
X118638176Y-76592804D01*
X118676506Y-76567994D01*
X118709834Y-76544311D01*
X118736960Y-76522405D01*
X118747824Y-76512322D01*
X118756687Y-76502928D01*
X118763401Y-76494304D01*
X118767815Y-76486531D01*
X118769779Y-76479691D01*
X118769144Y-76473865D01*
X118768309Y-76471520D01*
X118767131Y-76469116D01*
X118763784Y-76464150D01*
X118759176Y-76458998D01*
X118753379Y-76453691D01*
X118746467Y-76448260D01*
X118738510Y-76442736D01*
X118729582Y-76437150D01*
X118719755Y-76431532D01*
X118709101Y-76425915D01*
X118697693Y-76420329D01*
X118685602Y-76414805D01*
X118672902Y-76409374D01*
X118659664Y-76404066D01*
X118645961Y-76398914D01*
X118631865Y-76393948D01*
X118617449Y-76389199D01*
X118587546Y-76381303D01*
X118554170Y-76373655D01*
X118518479Y-76366503D01*
X118481631Y-76360095D01*
X118444782Y-76354679D01*
X118409091Y-76350504D01*
X118375715Y-76347817D01*
X118360257Y-76347109D01*
X118345811Y-76346866D01*
X118325655Y-76346423D01*
X118307426Y-76346466D01*
X118290985Y-76347068D01*
X118283391Y-76347600D01*
X118276192Y-76348299D01*
X118269371Y-76349174D01*
X118262909Y-76350233D01*
X118256790Y-76351487D01*
X118250995Y-76352943D01*
X118245508Y-76354611D01*
X118240311Y-76356500D01*
X118235386Y-76358619D01*
X118230717Y-76360977D01*
X118226286Y-76363583D01*
X118222074Y-76366446D01*
X118218066Y-76369575D01*
X118214243Y-76372979D01*
X118210588Y-76376668D01*
X118207083Y-76380650D01*
X118203711Y-76384934D01*
X118200455Y-76389530D01*
X118197298Y-76394445D01*
X118194221Y-76399691D01*
X118191207Y-76405275D01*
X118188239Y-76411206D01*
X118182371Y-76424147D01*
X118176477Y-76438587D01*
X118171122Y-76453125D01*
X118166300Y-76467618D01*
X118162005Y-76482040D01*
X118158232Y-76496369D01*
X118154975Y-76510578D01*
X118152231Y-76524645D01*
X118149992Y-76538543D01*
X118148255Y-76552248D01*
X118147014Y-76565737D01*
X118146264Y-76578984D01*
X118145999Y-76591965D01*
X117117816Y-76591965D01*
X117118483Y-76588697D01*
X117122878Y-76558980D01*
X117125857Y-76528365D01*
X117127405Y-76497237D01*
X117127505Y-76465986D01*
X117126144Y-76434998D01*
X117123304Y-76404662D01*
X117118971Y-76375364D01*
X117113129Y-76347492D01*
X117105763Y-76321434D01*
X117096856Y-76297578D01*
X117086394Y-76276311D01*
X117080294Y-76265595D01*
X117073806Y-76255902D01*
X117072674Y-76254495D01*
X119808896Y-76254495D01*
X119808917Y-76256607D01*
X119809122Y-76258678D01*
X119809507Y-76260711D01*
X119810071Y-76262709D01*
X119810811Y-76264676D01*
X119811723Y-76266613D01*
X119812806Y-76268524D01*
X119814056Y-76270411D01*
X119815470Y-76272277D01*
X119818781Y-76275959D01*
X119822718Y-76279592D01*
X119827258Y-76283198D01*
X119832379Y-76286800D01*
X119838060Y-76290422D01*
X119932573Y-76309197D01*
X120164214Y-76344055D01*
X120902126Y-76444321D01*
X121778283Y-76555832D01*
X122519171Y-76643199D01*
X122821458Y-76678311D01*
X123241484Y-76730952D01*
X124212504Y-76858394D01*
X124698291Y-76924650D01*
X125172501Y-76986276D01*
X125581227Y-77035995D01*
X125870560Y-77066533D01*
X126141923Y-77096022D01*
X126501591Y-77138411D01*
X127299310Y-77239394D01*
X128045875Y-77340817D01*
X128349540Y-77380284D01*
X128551671Y-77405199D01*
X128620504Y-77412096D01*
X128688263Y-77419365D01*
X128813609Y-77433862D01*
X128913820Y-77446375D01*
X128975004Y-77454588D01*
X129033158Y-77461092D01*
X129125376Y-77469581D01*
X129363060Y-77489866D01*
X129433629Y-77495247D01*
X129518833Y-77503150D01*
X129720247Y-77524703D01*
X129941505Y-77550885D01*
X130156810Y-77578060D01*
X130774006Y-77660357D01*
X131414022Y-77741661D01*
X131989876Y-77811720D01*
X132414587Y-77860282D01*
X132999868Y-77921082D01*
X133479977Y-77973612D01*
X133886002Y-78021513D01*
X134249032Y-78068421D01*
X134655167Y-78124866D01*
X134823012Y-78146804D01*
X134936948Y-78160144D01*
X135020513Y-78170672D01*
X135105400Y-78180869D01*
X135181027Y-78190405D01*
X135212060Y-78194822D01*
X135236810Y-78198949D01*
X136753754Y-78357699D01*
X136927166Y-78375669D01*
X137138281Y-78400914D01*
X137359980Y-78430129D01*
X137565143Y-78460005D01*
X137797094Y-78492967D01*
X138087254Y-78530560D01*
X138398580Y-78568153D01*
X138694031Y-78601116D01*
X139005137Y-78635346D01*
X139354608Y-78676522D01*
X139700111Y-78719682D01*
X139999310Y-78759866D01*
X140556313Y-78834666D01*
X141076605Y-78897890D01*
X141596236Y-78953839D01*
X142151254Y-79006810D01*
X142421294Y-79031284D01*
X142710847Y-79059726D01*
X143209585Y-79112643D01*
X144514865Y-79253755D01*
X145237178Y-79332247D01*
X145784863Y-79394866D01*
X146012412Y-79420339D01*
X146206268Y-79441223D01*
X146367464Y-79457560D01*
X146497035Y-79469390D01*
X146596013Y-79476755D01*
X146634352Y-79478777D01*
X146665432Y-79479697D01*
X146689379Y-79479522D01*
X146706325Y-79478257D01*
X146712212Y-79477217D01*
X146716398Y-79475907D01*
X146718897Y-79474326D01*
X146719726Y-79472476D01*
X146698259Y-79459999D01*
X146636293Y-79442772D01*
X146405478Y-79396243D01*
X145618618Y-79270070D01*
X144592972Y-79128684D01*
X143562366Y-79006810D01*
X142806704Y-78924734D01*
X142237243Y-78858202D01*
X141717392Y-78791009D01*
X141110559Y-78706949D01*
X140151445Y-78572012D01*
X139205560Y-78442366D01*
X138332875Y-78325508D01*
X137547504Y-78216588D01*
X135319712Y-77897324D01*
X134160837Y-77736810D01*
X133784302Y-77687972D01*
X133244056Y-77610692D01*
X132097087Y-77436949D01*
X131403162Y-77327864D01*
X130649376Y-77217786D01*
X129843334Y-77107047D01*
X128992644Y-76995977D01*
X128314208Y-76907397D01*
X127748221Y-76827085D01*
X127244409Y-76747434D01*
X126752504Y-76660838D01*
X126315060Y-76586755D01*
X126045075Y-76542768D01*
X125782365Y-76502088D01*
X124653477Y-76325699D01*
X124267681Y-76265341D01*
X123990696Y-76223834D01*
X123674684Y-76180344D01*
X123171811Y-76114033D01*
X122597113Y-76038406D01*
X122356356Y-76004396D01*
X122140817Y-75972039D01*
X121946114Y-75940675D01*
X121767865Y-75909642D01*
X121601687Y-75878278D01*
X121443199Y-75845921D01*
X121387208Y-75834594D01*
X121331785Y-75824424D01*
X121277085Y-75815412D01*
X121223264Y-75807557D01*
X121170477Y-75800860D01*
X121118878Y-75795320D01*
X121068623Y-75790938D01*
X121019866Y-75787713D01*
X120972763Y-75785646D01*
X120927469Y-75784736D01*
X120884138Y-75784984D01*
X120842926Y-75786390D01*
X120803988Y-75788953D01*
X120767479Y-75792674D01*
X120733553Y-75797552D01*
X120702367Y-75803588D01*
X120660037Y-75813342D01*
X120617734Y-75824079D01*
X120575483Y-75835787D01*
X120533309Y-75848457D01*
X120491238Y-75862077D01*
X120449296Y-75876638D01*
X120407510Y-75892129D01*
X120365904Y-75908539D01*
X120324506Y-75925859D01*
X120283339Y-75944079D01*
X120242431Y-75963187D01*
X120201808Y-75983174D01*
X120161494Y-76004028D01*
X120121517Y-76025741D01*
X120081901Y-76048301D01*
X120042673Y-76071699D01*
X120000145Y-76098146D01*
X119962402Y-76122046D01*
X119929268Y-76143578D01*
X119914375Y-76153514D01*
X119900569Y-76162925D01*
X119887827Y-76171835D01*
X119876128Y-76180267D01*
X119865449Y-76188242D01*
X119855769Y-76195785D01*
X119847065Y-76202916D01*
X119839316Y-76209659D01*
X119832501Y-76216036D01*
X119826595Y-76222071D01*
X119821579Y-76227785D01*
X119817430Y-76233201D01*
X119814125Y-76238342D01*
X119812783Y-76240816D01*
X119811643Y-76243230D01*
X119810704Y-76245587D01*
X119809963Y-76247889D01*
X119809416Y-76250139D01*
X119809061Y-76252340D01*
X119808896Y-76254495D01*
X117072674Y-76254495D01*
X117066791Y-76247180D01*
X117059109Y-76239379D01*
X117050621Y-76232446D01*
X117041188Y-76226329D01*
X117030669Y-76220977D01*
X117018925Y-76216338D01*
X117005818Y-76212361D01*
X116991206Y-76208993D01*
X116974951Y-76206184D01*
X116956914Y-76203881D01*
X116936954Y-76202032D01*
X116914932Y-76200587D01*
X116890709Y-76199493D01*
X116864145Y-76198699D01*
X116825449Y-76198389D01*
X116786754Y-76197541D01*
X116749051Y-76196281D01*
X116713332Y-76194730D01*
X116651816Y-76191258D01*
X116610144Y-76188116D01*
X116576086Y-76184661D01*
X116536612Y-76183458D01*
X116492508Y-76184364D01*
X116444559Y-76187234D01*
X116393551Y-76191923D01*
X116340269Y-76198286D01*
X116285499Y-76206179D01*
X116230026Y-76215456D01*
X116174636Y-76225974D01*
X116120114Y-76237588D01*
X116067246Y-76250152D01*
X116016816Y-76263522D01*
X115969612Y-76277554D01*
X115926417Y-76292103D01*
X115888018Y-76307023D01*
X115855200Y-76322171D01*
X115814389Y-76344413D01*
X115762210Y-76375749D01*
X115700852Y-76414692D01*
X115632509Y-76459754D01*
X115559369Y-76509446D01*
X115483625Y-76562280D01*
X115407468Y-76616768D01*
X115333089Y-76671421D01*
X114984583Y-76926241D01*
X114605484Y-77186642D01*
X114199266Y-77450598D01*
X113769401Y-77716084D01*
X113319361Y-77981074D01*
X112852620Y-78243542D01*
X112372649Y-78501463D01*
X111882922Y-78752810D01*
X111524102Y-78927456D01*
X111110504Y-79122069D01*
X110206787Y-79532008D01*
X109347387Y-79904243D01*
X108989187Y-80051728D01*
X108707922Y-80160393D01*
X108409384Y-80271077D01*
X108235200Y-80336782D01*
X108226774Y-80340126D01*
X108218719Y-80343527D01*
X108211078Y-80346959D01*
X108203891Y-80350397D01*
X108197201Y-80353813D01*
X108191048Y-80357183D01*
X108185474Y-80360481D01*
X108182917Y-80362095D01*
X108180520Y-80363681D01*
X108178288Y-80365236D01*
X108176227Y-80366757D01*
X108174342Y-80368240D01*
X108172637Y-80369682D01*
X108171119Y-80371081D01*
X108169792Y-80372433D01*
X108168661Y-80373734D01*
X108167732Y-80374981D01*
X108167009Y-80376172D01*
X108166498Y-80377302D01*
X108166205Y-80378370D01*
X108166133Y-80379370D01*
X107555260Y-80379370D01*
X107560713Y-80375718D01*
X107609295Y-80350617D01*
X107686073Y-80315843D01*
X107787614Y-80272841D01*
X107910486Y-80223059D01*
X108051260Y-80167945D01*
X108372784Y-80047505D01*
X109114885Y-79770464D01*
X109439447Y-79644552D01*
X109745530Y-79521865D01*
X110042518Y-79398517D01*
X110339795Y-79270621D01*
X110646746Y-79134292D01*
X110972756Y-78985643D01*
X111507676Y-78732622D01*
X112033459Y-78469595D01*
X112546923Y-78198467D01*
X113044884Y-77921136D01*
X113524159Y-77639507D01*
X113981564Y-77355480D01*
X114413916Y-77070956D01*
X114818033Y-76787838D01*
X114914449Y-76717443D01*
X114998680Y-76654292D01*
X115070777Y-76598191D01*
X115130792Y-76548941D01*
X115178777Y-76506348D01*
X115198275Y-76487486D01*
X115214784Y-76470214D01*
X115228311Y-76454508D01*
X115238863Y-76440343D01*
X115246447Y-76427695D01*
X115251068Y-76416539D01*
X115252733Y-76406851D01*
X115251448Y-76398606D01*
X115247221Y-76391779D01*
X115240057Y-76386346D01*
X115229963Y-76382283D01*
X115216946Y-76379564D01*
X115201011Y-76378166D01*
X115182166Y-76378064D01*
X115160416Y-76379233D01*
X115135769Y-76381649D01*
X115077807Y-76390122D01*
X115008331Y-76403287D01*
X114927394Y-76420949D01*
X114852939Y-76436155D01*
X114770298Y-76449998D01*
X114680215Y-76462435D01*
X114583436Y-76473424D01*
X114480703Y-76482926D01*
X114372761Y-76490898D01*
X114260355Y-76497299D01*
X114144228Y-76502088D01*
X113653866Y-76512671D01*
X113438673Y-76660838D01*
X113044002Y-76931595D01*
X112622874Y-77212935D01*
X112216297Y-77478400D01*
X111865283Y-77701533D01*
X111454104Y-77949008D01*
X111001419Y-78208265D01*
X110519629Y-78472896D01*
X110021138Y-78736494D01*
X109518347Y-78992650D01*
X109023659Y-79234958D01*
X108549476Y-79457008D01*
X108108200Y-79652393D01*
X107703457Y-79825061D01*
X107540716Y-79894208D01*
X107401653Y-79952915D01*
X107284211Y-80001949D01*
X107232956Y-80023078D01*
X107186334Y-80042074D01*
X107144090Y-80059035D01*
X107105965Y-80074055D01*
X107071704Y-80087231D01*
X107041048Y-80098657D01*
X107013740Y-80108429D01*
X106989525Y-80116644D01*
X106968143Y-80123396D01*
X106949339Y-80128781D01*
X106932856Y-80132895D01*
X106925403Y-80134505D01*
X106918435Y-80135833D01*
X106911918Y-80136891D01*
X106905821Y-80137691D01*
X106900110Y-80138245D01*
X106894755Y-80138565D01*
X106889723Y-80138663D01*
X106884982Y-80138550D01*
X106880499Y-80138239D01*
X106876243Y-80137742D01*
X106872181Y-80137070D01*
X106868282Y-80136236D01*
X106860842Y-80134128D01*
X106853665Y-80131514D01*
X106846494Y-80128488D01*
X106831145Y-80121588D01*
X106822676Y-80117501D01*
X106814491Y-80113203D01*
X106806627Y-80108728D01*
X106799119Y-80104114D01*
X106792004Y-80099397D01*
X106785318Y-80094613D01*
X106779097Y-80089797D01*
X106773378Y-80084987D01*
X106768195Y-80080218D01*
X106763587Y-80075527D01*
X106759588Y-80070949D01*
X106757828Y-80068714D01*
X106756235Y-80066522D01*
X106754812Y-80064375D01*
X106753564Y-80062280D01*
X106752496Y-80060240D01*
X106751611Y-80058260D01*
X106750916Y-80056345D01*
X106750413Y-80054499D01*
X106750109Y-80052727D01*
X106750006Y-80051033D01*
X106753056Y-80046550D01*
X106762002Y-80039808D01*
X106796363Y-80020109D01*
X106850651Y-79993051D01*
X106922426Y-79959751D01*
X107009249Y-79921324D01*
X107108682Y-79878888D01*
X107218284Y-79833557D01*
X107335617Y-79786449D01*
X107896065Y-79554828D01*
X108445765Y-79314609D01*
X108985873Y-79065129D01*
X109517547Y-78805727D01*
X110041946Y-78535741D01*
X110560226Y-78254511D01*
X111073545Y-77961375D01*
X111583061Y-77655671D01*
X111939856Y-77433014D01*
X112259898Y-77229085D01*
X112540832Y-77045414D01*
X112780301Y-76883529D01*
X112883749Y-76811234D01*
X112975948Y-76744960D01*
X113056602Y-76684898D01*
X113125417Y-76631238D01*
X113182098Y-76584172D01*
X113226351Y-76543891D01*
X113257881Y-76510586D01*
X113268784Y-76496610D01*
X113276395Y-76484449D01*
X113279907Y-76475969D01*
X113282499Y-76466383D01*
X113284162Y-76455660D01*
X113284883Y-76443769D01*
X113284654Y-76430680D01*
X113283464Y-76416360D01*
X113281302Y-76400780D01*
X113278159Y-76383907D01*
X113274023Y-76365712D01*
X113268884Y-76346163D01*
X113262733Y-76325229D01*
X113255559Y-76302879D01*
X113247351Y-76279082D01*
X113238099Y-76253807D01*
X113216422Y-76198699D01*
X113189034Y-76131478D01*
X113177502Y-76100380D01*
X113167309Y-76070376D01*
X113158377Y-76041034D01*
X113150628Y-76011920D01*
X113143985Y-75982599D01*
X113138370Y-75952637D01*
X113133706Y-75921600D01*
X113129916Y-75889054D01*
X113126921Y-75854565D01*
X113124645Y-75817699D01*
X113124215Y-75804580D01*
X113367503Y-75804580D01*
X113367783Y-75860460D01*
X113368502Y-75910303D01*
X113369697Y-75954525D01*
X113371403Y-75993537D01*
X113373657Y-76027753D01*
X113376495Y-76057588D01*
X113378144Y-76070991D01*
X113379953Y-76083454D01*
X113381926Y-76095027D01*
X113384068Y-76105764D01*
X113386382Y-76115715D01*
X113388874Y-76124933D01*
X113391549Y-76133468D01*
X113394410Y-76141373D01*
X113397462Y-76148699D01*
X113400710Y-76155498D01*
X113404158Y-76161821D01*
X113407811Y-76167721D01*
X113411673Y-76173249D01*
X113415750Y-76178456D01*
X113420044Y-76183395D01*
X113424561Y-76188116D01*
X113440855Y-76204263D01*
X113455360Y-76216917D01*
X113468109Y-76225974D01*
X113473834Y-76229122D01*
X113479131Y-76231331D01*
X113484005Y-76232590D01*
X113488459Y-76232885D01*
X113492497Y-76232203D01*
X113496122Y-76230532D01*
X113499340Y-76227858D01*
X113502153Y-76224169D01*
X113504566Y-76219451D01*
X113506582Y-76213692D01*
X113509439Y-76198999D01*
X113510757Y-76179985D01*
X113510566Y-76156548D01*
X113508897Y-76128584D01*
X113506290Y-76101325D01*
X114632454Y-76101325D01*
X114632549Y-76103394D01*
X114632743Y-76105416D01*
X114633034Y-76107389D01*
X114633422Y-76109309D01*
X114633907Y-76111173D01*
X114634487Y-76112977D01*
X114635162Y-76114719D01*
X114635931Y-76116395D01*
X114636794Y-76118001D01*
X114637750Y-76119535D01*
X114638798Y-76120994D01*
X114639938Y-76122374D01*
X114641169Y-76123672D01*
X114642490Y-76124884D01*
X114643902Y-76126008D01*
X114645402Y-76127041D01*
X114646991Y-76127978D01*
X114648668Y-76128817D01*
X114650432Y-76129555D01*
X114652283Y-76130188D01*
X114654219Y-76130714D01*
X114656241Y-76131128D01*
X114658347Y-76131428D01*
X114660537Y-76131610D01*
X114662811Y-76131671D01*
X114669704Y-76131446D01*
X114676486Y-76130774D01*
X114683150Y-76129666D01*
X114689690Y-76128130D01*
X114696098Y-76126175D01*
X114702367Y-76123811D01*
X114708490Y-76121047D01*
X114714460Y-76117891D01*
X114720270Y-76114353D01*
X114725913Y-76110441D01*
X114731381Y-76106165D01*
X114736667Y-76101534D01*
X114741765Y-76096556D01*
X114746667Y-76091241D01*
X114755856Y-76079636D01*
X114764177Y-76066791D01*
X114771573Y-76052778D01*
X114777987Y-76037670D01*
X114783362Y-76021538D01*
X114787035Y-76006876D01*
X115004289Y-76006876D01*
X115005128Y-76016987D01*
X115007041Y-76026493D01*
X115010053Y-76035409D01*
X115014190Y-76043752D01*
X115019477Y-76051538D01*
X115025939Y-76058780D01*
X115033601Y-76065495D01*
X115042488Y-76071699D01*
X115052626Y-76077407D01*
X115064040Y-76082634D01*
X115076754Y-76087396D01*
X115090795Y-76091708D01*
X115122956Y-76099046D01*
X115160724Y-76104772D01*
X115204300Y-76109010D01*
X115253886Y-76111883D01*
X115309684Y-76113516D01*
X115371895Y-76114033D01*
X115418490Y-76113901D01*
X115460564Y-76113474D01*
X115498391Y-76112707D01*
X115532243Y-76111552D01*
X115562395Y-76109963D01*
X115589121Y-76107893D01*
X115601285Y-76106664D01*
X115612695Y-76105296D01*
X115623386Y-76103786D01*
X115633391Y-76102126D01*
X115642745Y-76100311D01*
X115651482Y-76098336D01*
X115659636Y-76096193D01*
X115667242Y-76093878D01*
X115674334Y-76091385D01*
X115680946Y-76088708D01*
X115687112Y-76085841D01*
X115692867Y-76082778D01*
X115698244Y-76079514D01*
X115703279Y-76076042D01*
X115708004Y-76072357D01*
X115712456Y-76068453D01*
X115716666Y-76064325D01*
X115720671Y-76059966D01*
X115724504Y-76055370D01*
X115728200Y-76050532D01*
X115732987Y-76043477D01*
X118426949Y-76043477D01*
X118427606Y-76050370D01*
X118429561Y-76057152D01*
X118432789Y-76063819D01*
X118437264Y-76070363D01*
X118449855Y-76083056D01*
X118467133Y-76095181D01*
X118488896Y-76106686D01*
X118514944Y-76117519D01*
X118545074Y-76127629D01*
X118579085Y-76136963D01*
X118616775Y-76145471D01*
X118657943Y-76153100D01*
X118702388Y-76159799D01*
X118749907Y-76165516D01*
X118800299Y-76170199D01*
X118853363Y-76173798D01*
X118908897Y-76176259D01*
X118966700Y-76177532D01*
X119053192Y-76178910D01*
X119091614Y-76178525D01*
X119127489Y-76177312D01*
X119161317Y-76175190D01*
X119193600Y-76172075D01*
X119224840Y-76167886D01*
X119255536Y-76162539D01*
X119286192Y-76155952D01*
X119317307Y-76148042D01*
X119349383Y-76138727D01*
X119382922Y-76127923D01*
X119418425Y-76115548D01*
X119456392Y-76101520D01*
X119541727Y-76068171D01*
X119601017Y-76043973D01*
X119658861Y-76019444D01*
X119713810Y-75995245D01*
X119764418Y-75972039D01*
X119809239Y-75950487D01*
X119846825Y-75931249D01*
X119862453Y-75922706D01*
X119875729Y-75914989D01*
X119886474Y-75908181D01*
X119894505Y-75902366D01*
X119904469Y-75894166D01*
X119913199Y-75886711D01*
X119920698Y-75879917D01*
X119923988Y-75876743D01*
X119926972Y-75873702D01*
X119929652Y-75870786D01*
X119932027Y-75867984D01*
X119934099Y-75865284D01*
X119935868Y-75862678D01*
X119937334Y-75860155D01*
X119938499Y-75857703D01*
X119939363Y-75855314D01*
X119939926Y-75852977D01*
X119940190Y-75850681D01*
X119940154Y-75848415D01*
X119939820Y-75846171D01*
X119939189Y-75843937D01*
X119938260Y-75841703D01*
X119937035Y-75839458D01*
X119935514Y-75837193D01*
X119933697Y-75834897D01*
X119931586Y-75832560D01*
X119929181Y-75830170D01*
X119926483Y-75827719D01*
X119923493Y-75825196D01*
X119920210Y-75822589D01*
X119916636Y-75819890D01*
X119908617Y-75814172D01*
X119893337Y-75805619D01*
X119875020Y-75798503D01*
X119853271Y-75792855D01*
X119827698Y-75788705D01*
X119797908Y-75786085D01*
X119763508Y-75785026D01*
X119679310Y-75787713D01*
X119571961Y-75797015D01*
X119438319Y-75813179D01*
X119275242Y-75836454D01*
X119079588Y-75867088D01*
X118978660Y-75882867D01*
X118888475Y-75897240D01*
X118808450Y-75910372D01*
X118738000Y-75922430D01*
X118706183Y-75928108D01*
X118676542Y-75933579D01*
X118649002Y-75938863D01*
X118623492Y-75943983D01*
X118599937Y-75948958D01*
X118578265Y-75953808D01*
X118558404Y-75958556D01*
X118540279Y-75963220D01*
X118523818Y-75967823D01*
X118508948Y-75972384D01*
X118495597Y-75976925D01*
X118483690Y-75981465D01*
X118473155Y-75986027D01*
X118463919Y-75990629D01*
X118455910Y-75995294D01*
X118452342Y-75997656D01*
X118449053Y-76000041D01*
X118446034Y-76002453D01*
X118443276Y-76004892D01*
X118440770Y-76007363D01*
X118438507Y-76009867D01*
X118436477Y-76012407D01*
X118434671Y-76014986D01*
X118433081Y-76017607D01*
X118431697Y-76020271D01*
X118430509Y-76022982D01*
X118429510Y-76025742D01*
X118428690Y-76028553D01*
X118428039Y-76031419D01*
X118427209Y-76037324D01*
X118426949Y-76043477D01*
X115732987Y-76043477D01*
X115742404Y-76029599D01*
X115753197Y-76010397D01*
X115757283Y-76001417D01*
X115760477Y-75992838D01*
X115762766Y-75984647D01*
X115764139Y-75976835D01*
X115764581Y-75969389D01*
X115764080Y-75962299D01*
X115762624Y-75955554D01*
X115760198Y-75949143D01*
X115756790Y-75943055D01*
X115752388Y-75937279D01*
X115746978Y-75931804D01*
X115740547Y-75926619D01*
X115733083Y-75921713D01*
X115724572Y-75917075D01*
X115704360Y-75908560D01*
X115679807Y-75900985D01*
X115650809Y-75894263D01*
X115617264Y-75888305D01*
X115579069Y-75883025D01*
X115536119Y-75878333D01*
X115488311Y-75874143D01*
X115435284Y-75869720D01*
X115382919Y-75864552D01*
X115332538Y-75858889D01*
X115285464Y-75852977D01*
X115243020Y-75847065D01*
X115206530Y-75841401D01*
X115177315Y-75836234D01*
X115156700Y-75831810D01*
X115145236Y-75828262D01*
X115134610Y-75825582D01*
X115129588Y-75824580D01*
X115124748Y-75823811D01*
X115120082Y-75823279D01*
X115115579Y-75822991D01*
X115111232Y-75822950D01*
X115107030Y-75823163D01*
X115102966Y-75823634D01*
X115099029Y-75824369D01*
X115095211Y-75825372D01*
X115091503Y-75826649D01*
X115087896Y-75828206D01*
X115084381Y-75830046D01*
X115080948Y-75832176D01*
X115077589Y-75834601D01*
X115074294Y-75837325D01*
X115071055Y-75840354D01*
X115067862Y-75843693D01*
X115064707Y-75847348D01*
X115061581Y-75851322D01*
X115058473Y-75855623D01*
X115052281Y-75865221D01*
X115046057Y-75876183D01*
X115039730Y-75888551D01*
X115033227Y-75902366D01*
X115020404Y-75932648D01*
X115011172Y-75960078D01*
X115005733Y-75984779D01*
X115004499Y-75996146D01*
X115004289Y-76006876D01*
X114787035Y-76006876D01*
X114787641Y-76004456D01*
X114790769Y-75986495D01*
X114792687Y-75967728D01*
X114793339Y-75948227D01*
X114793288Y-75943288D01*
X114793136Y-75938397D01*
X114792888Y-75933562D01*
X114792546Y-75928789D01*
X114792114Y-75924087D01*
X114791595Y-75919461D01*
X114790991Y-75914919D01*
X114790307Y-75910468D01*
X114789545Y-75906116D01*
X114788709Y-75901869D01*
X114787802Y-75897734D01*
X114786827Y-75893718D01*
X114785788Y-75889830D01*
X114784687Y-75886075D01*
X114783528Y-75882460D01*
X114782314Y-75878994D01*
X114781049Y-75875683D01*
X114779735Y-75872534D01*
X114778376Y-75869554D01*
X114776974Y-75866750D01*
X114775534Y-75864130D01*
X114774059Y-75861701D01*
X114772551Y-75859469D01*
X114771014Y-75857442D01*
X114769452Y-75855627D01*
X114767867Y-75854030D01*
X114766262Y-75852660D01*
X114764641Y-75851523D01*
X114763007Y-75850626D01*
X114761364Y-75849977D01*
X114759714Y-75849582D01*
X114758061Y-75849449D01*
X114752179Y-75850011D01*
X114746389Y-75851792D01*
X114740620Y-75854937D01*
X114734800Y-75859592D01*
X114728855Y-75865899D01*
X114722715Y-75874006D01*
X114716305Y-75884055D01*
X114709554Y-75896192D01*
X114702390Y-75910562D01*
X114694740Y-75927308D01*
X114677694Y-75968511D01*
X114657836Y-76020959D01*
X114634588Y-76085810D01*
X114633979Y-76088114D01*
X114633472Y-76090394D01*
X114633066Y-76092648D01*
X114632763Y-76094871D01*
X114632560Y-76097060D01*
X114632457Y-76099212D01*
X114632454Y-76101325D01*
X113506290Y-76101325D01*
X113505781Y-76095990D01*
X113501248Y-76058663D01*
X113488061Y-75969393D01*
X113480647Y-75915009D01*
X113474391Y-75853804D01*
X113469457Y-75787886D01*
X113466012Y-75719363D01*
X113464221Y-75650344D01*
X113464223Y-75645940D01*
X113638377Y-75645940D01*
X113639829Y-75680767D01*
X113642835Y-75714374D01*
X113647485Y-75746120D01*
X113653866Y-75775366D01*
X113663115Y-75808662D01*
X113672291Y-75835855D01*
X113681322Y-75857043D01*
X113690136Y-75872324D01*
X113694440Y-75877781D01*
X113698661Y-75881798D01*
X113702793Y-75884387D01*
X113706824Y-75885560D01*
X113710748Y-75885331D01*
X113714554Y-75883711D01*
X113718233Y-75880713D01*
X113721776Y-75876348D01*
X113725175Y-75870630D01*
X113728420Y-75863570D01*
X113734413Y-75845473D01*
X113739682Y-75822158D01*
X113744156Y-75793721D01*
X113747761Y-75760261D01*
X113750426Y-75721877D01*
X113752078Y-75678666D01*
X113752606Y-75633951D01*
X113965244Y-75633951D01*
X113965627Y-75651356D01*
X113966753Y-75669304D01*
X113968651Y-75687752D01*
X113971355Y-75706657D01*
X113974895Y-75725977D01*
X113977044Y-75736849D01*
X113978240Y-75742004D01*
X113979518Y-75746971D01*
X113980876Y-75751750D01*
X113982313Y-75756339D01*
X113983829Y-75760739D01*
X113985423Y-75764948D01*
X113987094Y-75768965D01*
X113988843Y-75772791D01*
X113990668Y-75776425D01*
X113992568Y-75779865D01*
X113994543Y-75783111D01*
X113996593Y-75786163D01*
X113998716Y-75789020D01*
X114000912Y-75791682D01*
X114003180Y-75794146D01*
X114005521Y-75796414D01*
X114007932Y-75798485D01*
X114010413Y-75800356D01*
X114012965Y-75802029D01*
X114015585Y-75803503D01*
X114018274Y-75804776D01*
X114021031Y-75805848D01*
X114023855Y-75806718D01*
X114026746Y-75807387D01*
X114029702Y-75807853D01*
X114032724Y-75808115D01*
X114035810Y-75808173D01*
X114038960Y-75808026D01*
X114042174Y-75807674D01*
X114045450Y-75807115D01*
X114052000Y-75805305D01*
X114058413Y-75802551D01*
X114064674Y-75798903D01*
X114070771Y-75794410D01*
X114076690Y-75789121D01*
X114082417Y-75783086D01*
X114087938Y-75776353D01*
X114093240Y-75768972D01*
X114103134Y-75752459D01*
X114111989Y-75733942D01*
X114119696Y-75713812D01*
X114126148Y-75692463D01*
X114131235Y-75670287D01*
X114134850Y-75647677D01*
X114136884Y-75625025D01*
X114137227Y-75602725D01*
X114135773Y-75581169D01*
X114134337Y-75570793D01*
X114132411Y-75560750D01*
X114129981Y-75551089D01*
X114127034Y-75541860D01*
X114123556Y-75533112D01*
X114119533Y-75524893D01*
X114111860Y-75511533D01*
X114104073Y-75499867D01*
X114096204Y-75489851D01*
X114088286Y-75481444D01*
X114080350Y-75474603D01*
X114072428Y-75469285D01*
X114064551Y-75465447D01*
X114056750Y-75463047D01*
X114049058Y-75462043D01*
X114041506Y-75462391D01*
X114034127Y-75464049D01*
X114026950Y-75466975D01*
X114020009Y-75471125D01*
X114013334Y-75476457D01*
X114006958Y-75482929D01*
X114000912Y-75490498D01*
X113995228Y-75499121D01*
X113989937Y-75508755D01*
X113985071Y-75519359D01*
X113980662Y-75530888D01*
X113976741Y-75543302D01*
X113973340Y-75556556D01*
X113970491Y-75570609D01*
X113968225Y-75585417D01*
X113965570Y-75617131D01*
X113965244Y-75633951D01*
X113752606Y-75633951D01*
X113752644Y-75630727D01*
X113752479Y-75601090D01*
X113751983Y-75573056D01*
X113751156Y-75546654D01*
X113749998Y-75521917D01*
X113748510Y-75498874D01*
X113746691Y-75477558D01*
X113744915Y-75461394D01*
X114405283Y-75461394D01*
X114405334Y-75465010D01*
X114405486Y-75468581D01*
X114405734Y-75472101D01*
X114406076Y-75475567D01*
X114406508Y-75478973D01*
X114407027Y-75482315D01*
X114407631Y-75485589D01*
X114408315Y-75488789D01*
X114409077Y-75491912D01*
X114409913Y-75494953D01*
X114410820Y-75497908D01*
X114411795Y-75500771D01*
X114412834Y-75503539D01*
X114413935Y-75506207D01*
X114415094Y-75508770D01*
X114416308Y-75511224D01*
X114417573Y-75513564D01*
X114418887Y-75515786D01*
X114420246Y-75517885D01*
X114421648Y-75519857D01*
X114423087Y-75521697D01*
X114424563Y-75523401D01*
X114426071Y-75524964D01*
X114427607Y-75526382D01*
X114429170Y-75527650D01*
X114430755Y-75528763D01*
X114432360Y-75529718D01*
X114433981Y-75530509D01*
X114435615Y-75531133D01*
X114437258Y-75531583D01*
X114438908Y-75531857D01*
X114440561Y-75531949D01*
X114442524Y-75531857D01*
X114444445Y-75531583D01*
X114446322Y-75531133D01*
X114448154Y-75530509D01*
X114449939Y-75529718D01*
X114451676Y-75528763D01*
X114453365Y-75527650D01*
X114455003Y-75526382D01*
X114456589Y-75524964D01*
X114458122Y-75523401D01*
X114461025Y-75519857D01*
X114463700Y-75515786D01*
X114466137Y-75511224D01*
X114468327Y-75506207D01*
X114470257Y-75500771D01*
X114471920Y-75494953D01*
X114473303Y-75488789D01*
X114474397Y-75482315D01*
X114475191Y-75475567D01*
X114475675Y-75468581D01*
X114475838Y-75461394D01*
X114475797Y-75457777D01*
X114475675Y-75454206D01*
X114475472Y-75450686D01*
X114475191Y-75447221D01*
X114474832Y-75443815D01*
X114474397Y-75440473D01*
X114473887Y-75437199D01*
X114473303Y-75433998D01*
X114472647Y-75430875D01*
X114471920Y-75427834D01*
X114471123Y-75424880D01*
X114470257Y-75422016D01*
X114469325Y-75419248D01*
X114468327Y-75416581D01*
X114467264Y-75414018D01*
X114466137Y-75411564D01*
X114464949Y-75409224D01*
X114463700Y-75407002D01*
X114462391Y-75404902D01*
X114461025Y-75402930D01*
X114459601Y-75401090D01*
X114458122Y-75399386D01*
X114456589Y-75397823D01*
X114455003Y-75396405D01*
X114453365Y-75395138D01*
X114451676Y-75394024D01*
X114449939Y-75393069D01*
X114448154Y-75392278D01*
X114446322Y-75391655D01*
X114444445Y-75391204D01*
X114442524Y-75390930D01*
X114440561Y-75390838D01*
X114438908Y-75390930D01*
X114437258Y-75391204D01*
X114435615Y-75391655D01*
X114433981Y-75392278D01*
X114432360Y-75393069D01*
X114430755Y-75394024D01*
X114427607Y-75396405D01*
X114424563Y-75399386D01*
X114421648Y-75402930D01*
X114418887Y-75407002D01*
X114416308Y-75411564D01*
X114413935Y-75416581D01*
X114411795Y-75422016D01*
X114409913Y-75427834D01*
X114408315Y-75433998D01*
X114407027Y-75440473D01*
X114406076Y-75447221D01*
X114405486Y-75454206D01*
X114405283Y-75461394D01*
X113744915Y-75461394D01*
X113744542Y-75457998D01*
X113742061Y-75440227D01*
X113739250Y-75424274D01*
X113736108Y-75410172D01*
X113734413Y-75403824D01*
X113732635Y-75397950D01*
X113730775Y-75392555D01*
X113728832Y-75387641D01*
X113726806Y-75383213D01*
X113724698Y-75379274D01*
X113722507Y-75375830D01*
X113720233Y-75372882D01*
X113717877Y-75370436D01*
X113715437Y-75368495D01*
X113712916Y-75367063D01*
X113710311Y-75366143D01*
X113705073Y-75365034D01*
X113699949Y-75365623D01*
X113694950Y-75367829D01*
X113690088Y-75371573D01*
X113685373Y-75376774D01*
X113680817Y-75383351D01*
X113672222Y-75400319D01*
X113664392Y-75421833D01*
X113657415Y-75447255D01*
X113651378Y-75475942D01*
X113646370Y-75507254D01*
X113642478Y-75540551D01*
X113639790Y-75575192D01*
X113638394Y-75610535D01*
X113638377Y-75645940D01*
X113464223Y-75645940D01*
X113464249Y-75582937D01*
X113466260Y-75519251D01*
X113470422Y-75461394D01*
X113472202Y-75433178D01*
X113473578Y-75405500D01*
X113474562Y-75378484D01*
X113475163Y-75352253D01*
X113475392Y-75326931D01*
X113475259Y-75302643D01*
X113474775Y-75279513D01*
X113473950Y-75257664D01*
X113472794Y-75237221D01*
X113471318Y-75218308D01*
X113469532Y-75201048D01*
X113467446Y-75185566D01*
X113465070Y-75171985D01*
X113462416Y-75160430D01*
X113459493Y-75151025D01*
X113457713Y-75147035D01*
X114641038Y-75147035D01*
X114641128Y-75155835D01*
X114641637Y-75165880D01*
X114643849Y-75189314D01*
X114647549Y-75216550D01*
X114652614Y-75246805D01*
X114658918Y-75279292D01*
X114666339Y-75313227D01*
X114671419Y-75331581D01*
X114676721Y-75348933D01*
X114682216Y-75365276D01*
X114687878Y-75380599D01*
X114693679Y-75394894D01*
X114699593Y-75408151D01*
X114705592Y-75420362D01*
X114711649Y-75431518D01*
X114717737Y-75441609D01*
X114723829Y-75450626D01*
X114729898Y-75458561D01*
X114735916Y-75465404D01*
X114741857Y-75471146D01*
X114747693Y-75475779D01*
X114753398Y-75479292D01*
X114758943Y-75481678D01*
X114764303Y-75482927D01*
X114769449Y-75483031D01*
X114774355Y-75481979D01*
X114778994Y-75479763D01*
X114783338Y-75476374D01*
X114787360Y-75471803D01*
X114791034Y-75466041D01*
X114794331Y-75459079D01*
X114797226Y-75450907D01*
X114799690Y-75441517D01*
X114801697Y-75430900D01*
X114803219Y-75419047D01*
X114804230Y-75405948D01*
X114804703Y-75391595D01*
X114804609Y-75375978D01*
X114803922Y-75359088D01*
X114803277Y-75348368D01*
X114802023Y-75337405D01*
X114800195Y-75326245D01*
X114797824Y-75314936D01*
X114794945Y-75303523D01*
X114791590Y-75292054D01*
X114787791Y-75280574D01*
X114783582Y-75269130D01*
X114778996Y-75257769D01*
X114774066Y-75246537D01*
X114768824Y-75235481D01*
X114763304Y-75224647D01*
X114757539Y-75214081D01*
X114751561Y-75203831D01*
X114745403Y-75193943D01*
X114739099Y-75184463D01*
X114732681Y-75175438D01*
X114726183Y-75166914D01*
X114719636Y-75158937D01*
X114713075Y-75151555D01*
X114706532Y-75144814D01*
X114700039Y-75138760D01*
X114693631Y-75133440D01*
X114687340Y-75128901D01*
X114681199Y-75125188D01*
X114675240Y-75122348D01*
X114669497Y-75120428D01*
X114664003Y-75119475D01*
X114658790Y-75119534D01*
X114653892Y-75120653D01*
X114649342Y-75122878D01*
X114645172Y-75126255D01*
X114643433Y-75129091D01*
X114642175Y-75133565D01*
X114641381Y-75139579D01*
X114641038Y-75147035D01*
X113457713Y-75147035D01*
X113456311Y-75143894D01*
X113445476Y-75129411D01*
X113435448Y-75120474D01*
X113430729Y-75118137D01*
X113426204Y-75117251D01*
X113421871Y-75117837D01*
X113417726Y-75119915D01*
X113409992Y-75128636D01*
X113402981Y-75143583D01*
X113396673Y-75164928D01*
X113391047Y-75192841D01*
X113386083Y-75227493D01*
X113381759Y-75269054D01*
X113374952Y-75373585D01*
X113370459Y-75507799D01*
X113368117Y-75673061D01*
X113367627Y-75742252D01*
X113367503Y-75804580D01*
X113124215Y-75804580D01*
X113121937Y-75735100D01*
X113121172Y-75637783D01*
X113122703Y-75566052D01*
X113125975Y-75497691D01*
X113130993Y-75432679D01*
X113137764Y-75370994D01*
X113146291Y-75312617D01*
X113156581Y-75257526D01*
X113168638Y-75205702D01*
X113182467Y-75157122D01*
X113198075Y-75111768D01*
X113215465Y-75069617D01*
X113224830Y-75049736D01*
X113234643Y-75030649D01*
X113244904Y-75012353D01*
X113255614Y-74994844D01*
X113266773Y-74978121D01*
X113278383Y-74962181D01*
X113290444Y-74947022D01*
X113302956Y-74932640D01*
X113315921Y-74919033D01*
X113329338Y-74906198D01*
X113343208Y-74894134D01*
X113357533Y-74882837D01*
X113391633Y-74860390D01*
X113409616Y-74851041D01*
X113429247Y-74842820D01*
X113451296Y-74835632D01*
X113476534Y-74829384D01*
X113505730Y-74823984D01*
X113539655Y-74819338D01*
X113624770Y-74811938D01*
X113738037Y-74806440D01*
X113885618Y-74802099D01*
X114073672Y-74798172D01*
X114687505Y-74784060D01*
X114807450Y-74904005D01*
X114822875Y-74919933D01*
X114837422Y-74936010D01*
X114851122Y-74952304D01*
X114864005Y-74968883D01*
X114876102Y-74985813D01*
X114887445Y-75003161D01*
X114898064Y-75020995D01*
X114907991Y-75039383D01*
X114917257Y-75058390D01*
X114925892Y-75078085D01*
X114933928Y-75098534D01*
X114941395Y-75119805D01*
X114948325Y-75141965D01*
X114954749Y-75165081D01*
X114960697Y-75189220D01*
X114966200Y-75214449D01*
X114981102Y-75279798D01*
X114997109Y-75338549D01*
X115014833Y-75391128D01*
X115034881Y-75437967D01*
X115045968Y-75459367D01*
X115057865Y-75479493D01*
X115070649Y-75498398D01*
X115084394Y-75516136D01*
X115099179Y-75532760D01*
X115115078Y-75548325D01*
X115132168Y-75562882D01*
X115150526Y-75576487D01*
X115170228Y-75589193D01*
X115191349Y-75601053D01*
X115213966Y-75612122D01*
X115238156Y-75622452D01*
X115291556Y-75641111D01*
X115352161Y-75657461D01*
X115420579Y-75671929D01*
X115497420Y-75684946D01*
X115583294Y-75696939D01*
X115678811Y-75708338D01*
X115851838Y-75728899D01*
X116052315Y-75756404D01*
X116254776Y-75787217D01*
X116433755Y-75817700D01*
X116666775Y-75856216D01*
X116761123Y-75869681D01*
X116842040Y-75878443D01*
X116877778Y-75880864D01*
X116910535Y-75881873D01*
X116940438Y-75881391D01*
X116967614Y-75879339D01*
X116992188Y-75875639D01*
X117014286Y-75870211D01*
X117034034Y-75862978D01*
X117051557Y-75853859D01*
X117066983Y-75842777D01*
X117080437Y-75829652D01*
X117092044Y-75814406D01*
X117101932Y-75796960D01*
X117110225Y-75777235D01*
X117117050Y-75755152D01*
X117122532Y-75730632D01*
X117126798Y-75703598D01*
X117129974Y-75673969D01*
X117132186Y-75641667D01*
X117134219Y-75568729D01*
X117133907Y-75484154D01*
X117132255Y-75387310D01*
X117131075Y-75321350D01*
X117130250Y-75263287D01*
X117129891Y-75212499D01*
X117130106Y-75168368D01*
X117130462Y-75148604D01*
X117131002Y-75130272D01*
X117131740Y-75113293D01*
X117132689Y-75097591D01*
X117133863Y-75083088D01*
X117135276Y-75069707D01*
X117136940Y-75057369D01*
X117138870Y-75045998D01*
X117141079Y-75035515D01*
X117143580Y-75025844D01*
X117146388Y-75016907D01*
X117149515Y-75008625D01*
X117152976Y-75000923D01*
X117156784Y-74993722D01*
X117160952Y-74986945D01*
X117165494Y-74980514D01*
X117170423Y-74974351D01*
X117175754Y-74968380D01*
X117181499Y-74962522D01*
X117187673Y-74956701D01*
X117194289Y-74950838D01*
X117201360Y-74944857D01*
X117216922Y-74932227D01*
X117231373Y-74921552D01*
X117245881Y-74911977D01*
X117260834Y-74903446D01*
X117276618Y-74895902D01*
X117293623Y-74889288D01*
X117312234Y-74883548D01*
X117332840Y-74878624D01*
X117355828Y-74874460D01*
X117381586Y-74870998D01*
X117410502Y-74868183D01*
X117442963Y-74865956D01*
X117479356Y-74864262D01*
X117565490Y-74862243D01*
X117672005Y-74861672D01*
X117827028Y-74862705D01*
X117889860Y-74864974D01*
X117943809Y-74869278D01*
X117967664Y-74872398D01*
X117989552Y-74876270D01*
X118009558Y-74880977D01*
X118027766Y-74886600D01*
X118044261Y-74893220D01*
X118059128Y-74900920D01*
X118072451Y-74909779D01*
X118084314Y-74919880D01*
X118094803Y-74931303D01*
X118104002Y-74944131D01*
X118111995Y-74958445D01*
X118118868Y-74974326D01*
X118124705Y-74991855D01*
X118129590Y-75011114D01*
X118133609Y-75032185D01*
X118136845Y-75055148D01*
X118141309Y-75107077D01*
X118143659Y-75167554D01*
X118144727Y-75316755D01*
X118144968Y-75399487D01*
X118145995Y-75472101D01*
X118148262Y-75535144D01*
X118152224Y-75589165D01*
X118154982Y-75612963D01*
X118158335Y-75634711D01*
X118162339Y-75654477D01*
X118167052Y-75672330D01*
X118172528Y-75688338D01*
X118178827Y-75702569D01*
X118186004Y-75715093D01*
X118194116Y-75725977D01*
X118203221Y-75735290D01*
X118213374Y-75743101D01*
X118224634Y-75749477D01*
X118237056Y-75754488D01*
X118250698Y-75758202D01*
X118265616Y-75760688D01*
X118281867Y-75762013D01*
X118299509Y-75762247D01*
X118318597Y-75761457D01*
X118339189Y-75759713D01*
X118385112Y-75753634D01*
X118437733Y-75744558D01*
X118497505Y-75733032D01*
X118558394Y-75720836D01*
X118630734Y-75708227D01*
X118798689Y-75682761D01*
X118979212Y-75658618D01*
X119150144Y-75637783D01*
X119414728Y-75609423D01*
X119677988Y-75578251D01*
X119930004Y-75545757D01*
X120160853Y-75513428D01*
X120360613Y-75482753D01*
X120519363Y-75455220D01*
X120627181Y-75432317D01*
X120658889Y-75423066D01*
X120674144Y-75415532D01*
X120675467Y-75411770D01*
X120676790Y-75403295D01*
X120679436Y-75373199D01*
X120684727Y-75267366D01*
X120686697Y-75210248D01*
X122246994Y-75210248D01*
X122247059Y-75215151D01*
X122247477Y-75220071D01*
X122248263Y-75224981D01*
X122249428Y-75229854D01*
X122250988Y-75234662D01*
X122252955Y-75239378D01*
X122255344Y-75243975D01*
X122258167Y-75248426D01*
X122261438Y-75252704D01*
X122265172Y-75256782D01*
X122267146Y-75258684D01*
X122269099Y-75260420D01*
X122271032Y-75261991D01*
X122272943Y-75263397D01*
X122274835Y-75264637D01*
X122276705Y-75265712D01*
X122278555Y-75266621D01*
X122280385Y-75267366D01*
X122282193Y-75267944D01*
X122283981Y-75268358D01*
X122285749Y-75268606D01*
X122287495Y-75268689D01*
X122289221Y-75268606D01*
X122290926Y-75268358D01*
X122292611Y-75267945D01*
X122294275Y-75267366D01*
X122295919Y-75266622D01*
X122297541Y-75265712D01*
X122299143Y-75264637D01*
X122300725Y-75263397D01*
X122302285Y-75261992D01*
X122303825Y-75260421D01*
X122305345Y-75258684D01*
X122306843Y-75256783D01*
X122308321Y-75254716D01*
X122309779Y-75252483D01*
X122311216Y-75250086D01*
X122312632Y-75247522D01*
X122314027Y-75244794D01*
X122315402Y-75241900D01*
X122318089Y-75235616D01*
X122319908Y-75230249D01*
X122321396Y-75224764D01*
X122322553Y-75219206D01*
X122323380Y-75213622D01*
X122323876Y-75208059D01*
X122324041Y-75202564D01*
X122323876Y-75197181D01*
X122323380Y-75191959D01*
X122322553Y-75186944D01*
X122322015Y-75184529D01*
X122321395Y-75182182D01*
X122320692Y-75179911D01*
X122319907Y-75177720D01*
X122319039Y-75175616D01*
X122318088Y-75173604D01*
X122317054Y-75171690D01*
X122315938Y-75169881D01*
X122314739Y-75168181D01*
X122313457Y-75166597D01*
X122312093Y-75165134D01*
X122310646Y-75163799D01*
X122309116Y-75162596D01*
X122307504Y-75161533D01*
X122303228Y-75159203D01*
X122299006Y-75157486D01*
X122294853Y-75156356D01*
X122290782Y-75155786D01*
X122286806Y-75155748D01*
X122282940Y-75156215D01*
X122279196Y-75157160D01*
X122275589Y-75158556D01*
X122272132Y-75160375D01*
X122268838Y-75162592D01*
X122265721Y-75165177D01*
X122262794Y-75168106D01*
X122260072Y-75171349D01*
X122257567Y-75174880D01*
X122255294Y-75178673D01*
X122253265Y-75182699D01*
X122251495Y-75186932D01*
X122249997Y-75191345D01*
X122248784Y-75195909D01*
X122247870Y-75200600D01*
X122247269Y-75205388D01*
X122246994Y-75210248D01*
X120686697Y-75210248D01*
X120690019Y-75113907D01*
X120695311Y-74928698D01*
X120696605Y-74861095D01*
X120864748Y-74861095D01*
X120865525Y-74918557D01*
X120869362Y-74973414D01*
X120876205Y-75024287D01*
X120886005Y-75069796D01*
X120891997Y-75090107D01*
X120898709Y-75108561D01*
X120906134Y-75124983D01*
X120914265Y-75139202D01*
X120923097Y-75151045D01*
X120932622Y-75160340D01*
X120942835Y-75166914D01*
X120953729Y-75170595D01*
X120965297Y-75171211D01*
X120977533Y-75168588D01*
X120980137Y-75167679D01*
X120982659Y-75166281D01*
X120987455Y-75162042D01*
X120991920Y-75155922D01*
X120996054Y-75147972D01*
X120999857Y-75138245D01*
X121003330Y-75126792D01*
X121006472Y-75113664D01*
X121009283Y-75098914D01*
X121011763Y-75082593D01*
X121013913Y-75064752D01*
X121017220Y-75024720D01*
X121019204Y-74979231D01*
X121019865Y-74928698D01*
X121020506Y-74880501D01*
X121022346Y-74829535D01*
X121022907Y-74819490D01*
X121213845Y-74819490D01*
X121213960Y-74836031D01*
X121215217Y-74852852D01*
X121217589Y-74869673D01*
X121221052Y-74886214D01*
X121225580Y-74902198D01*
X121231147Y-74917344D01*
X121237726Y-74931374D01*
X121241387Y-74937883D01*
X121245292Y-74944009D01*
X121249437Y-74949716D01*
X121253820Y-74954969D01*
X121258436Y-74959734D01*
X121263283Y-74963976D01*
X121269264Y-74968537D01*
X121275288Y-74972312D01*
X121281337Y-74975321D01*
X121287392Y-74977584D01*
X121293434Y-74979121D01*
X121299444Y-74979952D01*
X121305403Y-74980097D01*
X121311294Y-74979575D01*
X121317097Y-74978408D01*
X121322793Y-74976615D01*
X121328364Y-74974216D01*
X121333791Y-74971232D01*
X121339055Y-74967681D01*
X121344137Y-74963584D01*
X121349019Y-74958962D01*
X121353683Y-74953834D01*
X121358108Y-74948220D01*
X121362277Y-74942141D01*
X121366171Y-74935615D01*
X121369771Y-74928664D01*
X121373059Y-74921308D01*
X121376015Y-74913565D01*
X121378620Y-74905458D01*
X121380857Y-74897004D01*
X121382707Y-74888225D01*
X121384150Y-74879140D01*
X121385168Y-74869770D01*
X121385742Y-74860135D01*
X121385854Y-74850254D01*
X121385485Y-74840147D01*
X121384616Y-74829835D01*
X121383227Y-74819338D01*
X121382022Y-74812157D01*
X121380402Y-74805172D01*
X121378388Y-74798396D01*
X121376000Y-74791839D01*
X121373258Y-74785512D01*
X121370182Y-74779425D01*
X121366792Y-74773591D01*
X121363108Y-74768019D01*
X121359150Y-74762722D01*
X121354939Y-74757709D01*
X121350493Y-74752992D01*
X121345834Y-74748582D01*
X121340981Y-74744490D01*
X121335955Y-74740727D01*
X121330774Y-74737303D01*
X121325460Y-74734230D01*
X121320032Y-74731519D01*
X121314511Y-74729180D01*
X121308915Y-74727226D01*
X121303267Y-74725665D01*
X121297584Y-74724511D01*
X121291888Y-74723773D01*
X121286199Y-74723463D01*
X121280536Y-74723592D01*
X121274919Y-74724169D01*
X121269369Y-74725208D01*
X121263906Y-74726718D01*
X121258549Y-74728711D01*
X121253319Y-74731197D01*
X121248235Y-74734188D01*
X121243318Y-74737694D01*
X121238588Y-74741726D01*
X121234784Y-74745968D01*
X121231308Y-74750734D01*
X121228156Y-74755987D01*
X121225324Y-74761694D01*
X121222811Y-74767820D01*
X121220613Y-74774329D01*
X121218725Y-74781187D01*
X121217146Y-74788359D01*
X121214899Y-74803506D01*
X121213845Y-74819490D01*
X121022907Y-74819490D01*
X121025260Y-74777328D01*
X121029126Y-74725410D01*
X121032230Y-74692266D01*
X121620608Y-74692266D01*
X121620614Y-74697416D01*
X121620979Y-74702369D01*
X121621684Y-74707110D01*
X121622709Y-74711624D01*
X121624035Y-74715896D01*
X121625642Y-74719908D01*
X121627512Y-74723647D01*
X121629625Y-74727097D01*
X121631962Y-74730241D01*
X121634502Y-74733065D01*
X121637228Y-74735553D01*
X121640118Y-74737690D01*
X121643155Y-74739460D01*
X121646318Y-74740848D01*
X121649588Y-74741837D01*
X121652947Y-74742413D01*
X121656374Y-74742560D01*
X121659849Y-74742263D01*
X121663355Y-74741506D01*
X121666871Y-74740274D01*
X121670378Y-74738550D01*
X121673856Y-74736320D01*
X121677287Y-74733568D01*
X121680651Y-74730279D01*
X121683928Y-74726437D01*
X121687099Y-74722026D01*
X121690144Y-74717031D01*
X121691415Y-74715017D01*
X121692583Y-74712944D01*
X121693648Y-74710817D01*
X121694609Y-74708639D01*
X121695466Y-74706415D01*
X121696221Y-74704149D01*
X121696872Y-74701843D01*
X121697420Y-74699503D01*
X121697864Y-74697132D01*
X121698205Y-74694733D01*
X121698577Y-74689871D01*
X121698536Y-74684946D01*
X121698081Y-74679990D01*
X121697213Y-74675034D01*
X121695932Y-74670110D01*
X121694237Y-74665247D01*
X121692128Y-74660477D01*
X121690919Y-74658137D01*
X121689607Y-74655832D01*
X121688191Y-74653565D01*
X121686671Y-74651341D01*
X121685049Y-74649163D01*
X121683323Y-74647036D01*
X121681493Y-74644964D01*
X121679561Y-74642949D01*
X121677587Y-74641047D01*
X121675633Y-74639311D01*
X121673701Y-74637740D01*
X121671789Y-74636335D01*
X121669897Y-74635094D01*
X121668026Y-74634019D01*
X121666176Y-74633110D01*
X121664347Y-74632366D01*
X121662538Y-74631787D01*
X121660750Y-74631374D01*
X121658983Y-74631126D01*
X121657236Y-74631043D01*
X121655510Y-74631125D01*
X121653805Y-74631373D01*
X121652120Y-74631787D01*
X121650456Y-74632366D01*
X121648813Y-74633110D01*
X121647190Y-74634019D01*
X121645588Y-74635094D01*
X121644007Y-74636334D01*
X121642447Y-74637740D01*
X121640907Y-74639310D01*
X121639387Y-74641047D01*
X121637889Y-74642948D01*
X121636411Y-74645015D01*
X121634954Y-74647248D01*
X121633517Y-74649645D01*
X121632101Y-74652209D01*
X121630706Y-74654937D01*
X121629332Y-74657831D01*
X121626645Y-74664115D01*
X121624564Y-74670014D01*
X121622940Y-74675794D01*
X121621752Y-74681440D01*
X121620981Y-74686936D01*
X121620608Y-74692266D01*
X121032230Y-74692266D01*
X121033818Y-74675312D01*
X121039213Y-74628562D01*
X121045187Y-74586691D01*
X121051616Y-74551228D01*
X121057405Y-74521217D01*
X121058227Y-74515950D01*
X122236949Y-74515950D01*
X122237474Y-74531076D01*
X122238378Y-74546011D01*
X122239648Y-74560727D01*
X122241269Y-74575198D01*
X122243229Y-74589398D01*
X122245514Y-74603301D01*
X122248111Y-74616879D01*
X122251005Y-74630106D01*
X122254183Y-74642956D01*
X122257632Y-74655402D01*
X122261339Y-74667418D01*
X122265288Y-74678978D01*
X122269468Y-74690054D01*
X122273864Y-74700621D01*
X122278463Y-74710651D01*
X122283251Y-74720119D01*
X122288215Y-74728998D01*
X122293341Y-74737261D01*
X122298615Y-74744882D01*
X122304025Y-74751835D01*
X122309556Y-74758092D01*
X122315195Y-74763628D01*
X122320928Y-74768416D01*
X122326742Y-74772429D01*
X122332623Y-74775642D01*
X122338558Y-74778027D01*
X122344533Y-74779558D01*
X122350534Y-74780209D01*
X122356548Y-74779952D01*
X122362562Y-74778763D01*
X122368561Y-74776613D01*
X122374533Y-74773477D01*
X122379328Y-74770285D01*
X122383793Y-74766664D01*
X122387927Y-74762623D01*
X122391731Y-74758167D01*
X122398345Y-74748036D01*
X122403637Y-74736325D01*
X122407606Y-74723083D01*
X122410252Y-74708364D01*
X122411575Y-74692219D01*
X122411575Y-74674699D01*
X122410252Y-74655856D01*
X122407606Y-74635742D01*
X122403637Y-74614408D01*
X122398346Y-74591906D01*
X122391731Y-74568289D01*
X122383793Y-74543606D01*
X122374533Y-74517911D01*
X122363949Y-74491255D01*
X122350896Y-74462232D01*
X122338235Y-74437332D01*
X122332072Y-74426426D01*
X122326029Y-74416546D01*
X122320116Y-74407692D01*
X122314340Y-74399863D01*
X122308709Y-74393057D01*
X122303230Y-74387273D01*
X122297911Y-74382510D01*
X122292760Y-74378765D01*
X122287785Y-74376039D01*
X122282993Y-74374330D01*
X122278393Y-74373636D01*
X122273991Y-74373956D01*
X122269796Y-74375289D01*
X122265816Y-74377634D01*
X122262058Y-74380988D01*
X122258529Y-74385352D01*
X122255239Y-74390724D01*
X122252194Y-74397102D01*
X122249402Y-74404485D01*
X122246871Y-74412872D01*
X122244609Y-74422261D01*
X122242623Y-74432652D01*
X122240922Y-74444043D01*
X122239512Y-74456432D01*
X122237600Y-74484201D01*
X122236949Y-74515950D01*
X121058227Y-74515950D01*
X121061545Y-74494700D01*
X121062998Y-74482758D01*
X121064042Y-74471697D01*
X121064675Y-74461520D01*
X121064900Y-74452228D01*
X121064717Y-74443826D01*
X121064126Y-74436315D01*
X121063128Y-74429699D01*
X121061724Y-74423979D01*
X121059914Y-74419158D01*
X121057699Y-74415238D01*
X121055080Y-74412223D01*
X121052057Y-74410115D01*
X121048631Y-74408917D01*
X121044802Y-74408631D01*
X121040572Y-74409259D01*
X121035941Y-74410805D01*
X121030909Y-74413270D01*
X121025477Y-74416658D01*
X121019646Y-74420971D01*
X121013417Y-74426211D01*
X121006789Y-74432382D01*
X120999765Y-74439485D01*
X120992343Y-74447524D01*
X120984526Y-74456500D01*
X120976313Y-74466418D01*
X120967706Y-74477278D01*
X120949310Y-74501838D01*
X120937837Y-74519400D01*
X120927225Y-74538898D01*
X120917469Y-74560159D01*
X120908561Y-74583011D01*
X120900496Y-74607282D01*
X120893267Y-74632799D01*
X120881290Y-74686881D01*
X120872579Y-74743877D01*
X120867082Y-74802409D01*
X120864748Y-74861095D01*
X120696605Y-74861095D01*
X120698122Y-74781855D01*
X120699838Y-74720215D01*
X120701926Y-74665438D01*
X120704509Y-74616780D01*
X120707713Y-74573496D01*
X120711661Y-74534842D01*
X120716478Y-74500074D01*
X120722286Y-74468448D01*
X120729211Y-74439220D01*
X120737376Y-74411645D01*
X120746905Y-74384980D01*
X120757922Y-74358480D01*
X120770552Y-74331402D01*
X120784918Y-74303001D01*
X120801144Y-74272532D01*
X120814137Y-74247715D01*
X120826700Y-74224811D01*
X120838902Y-74203745D01*
X120850809Y-74184448D01*
X120862488Y-74166845D01*
X120874008Y-74150865D01*
X120885435Y-74136435D01*
X120896835Y-74123483D01*
X120902547Y-74117539D01*
X120908277Y-74111937D01*
X120914035Y-74106668D01*
X120919828Y-74101724D01*
X120925665Y-74097095D01*
X120931554Y-74092772D01*
X120937504Y-74088746D01*
X120943523Y-74085008D01*
X120949620Y-74081549D01*
X120955802Y-74078361D01*
X120962079Y-74075433D01*
X120968459Y-74072757D01*
X120974949Y-74070324D01*
X120981560Y-74068125D01*
X120995172Y-74064393D01*
X121015250Y-74060272D01*
X121035411Y-74055904D01*
X121055076Y-74051371D01*
X121073665Y-74046754D01*
X121090601Y-74042138D01*
X121098268Y-74039856D01*
X121105305Y-74037604D01*
X121111638Y-74035394D01*
X121117197Y-74033236D01*
X121121908Y-74031139D01*
X121125699Y-74029115D01*
X121144165Y-74026793D01*
X121182144Y-74025092D01*
X121307380Y-74023384D01*
X121482887Y-74023659D01*
G37*
G36*
X124329018Y-84501489D02*
G01*
X124442802Y-84507277D01*
X124554107Y-84516041D01*
X124660533Y-84527782D01*
X124801912Y-84549749D01*
X124945064Y-84579658D01*
X125089197Y-84617102D01*
X125233522Y-84661672D01*
X125377247Y-84712960D01*
X125519582Y-84770558D01*
X125659736Y-84834057D01*
X125796919Y-84903050D01*
X125930339Y-84977127D01*
X126059207Y-85055881D01*
X126182732Y-85138903D01*
X126300123Y-85225786D01*
X126410589Y-85316120D01*
X126513339Y-85409499D01*
X126607584Y-85505513D01*
X126692532Y-85603754D01*
X126745834Y-85673431D01*
X126798469Y-85748586D01*
X126850267Y-85828825D01*
X126901058Y-85913757D01*
X126950670Y-86002988D01*
X126998933Y-86096127D01*
X127045677Y-86192779D01*
X127090731Y-86292552D01*
X127133925Y-86395054D01*
X127175087Y-86499892D01*
X127214049Y-86606673D01*
X127250638Y-86715004D01*
X127284685Y-86824492D01*
X127316019Y-86934746D01*
X127344469Y-87045371D01*
X127369865Y-87155976D01*
X127380426Y-87217431D01*
X127390846Y-87299189D01*
X127410711Y-87511234D01*
X127428343Y-87767349D01*
X127442626Y-88042771D01*
X127452445Y-88312735D01*
X127456682Y-88552479D01*
X127454223Y-88737239D01*
X127450133Y-88801262D01*
X127443950Y-88842253D01*
X127422783Y-88937504D01*
X121601950Y-88937504D01*
X121601950Y-89029226D01*
X121604008Y-89097964D01*
X121609984Y-89176297D01*
X121619577Y-89262910D01*
X121632487Y-89356483D01*
X121667062Y-89559240D01*
X121711311Y-89774028D01*
X121762836Y-89990304D01*
X121819239Y-90197527D01*
X121878122Y-90385154D01*
X121907744Y-90468325D01*
X121937088Y-90542643D01*
X121978027Y-90631615D01*
X122025151Y-90720954D01*
X122078033Y-90810200D01*
X122136242Y-90898893D01*
X122199350Y-90986573D01*
X122266928Y-91072781D01*
X122338548Y-91157055D01*
X122413779Y-91238937D01*
X122492194Y-91317967D01*
X122573363Y-91393684D01*
X122656857Y-91465629D01*
X122742248Y-91533341D01*
X122829107Y-91596361D01*
X122917005Y-91654230D01*
X123005512Y-91706486D01*
X123094200Y-91752670D01*
X123173654Y-91790562D01*
X123249780Y-91824955D01*
X123323302Y-91855989D01*
X123394942Y-91883804D01*
X123465426Y-91908539D01*
X123535475Y-91930333D01*
X123605813Y-91949327D01*
X123677164Y-91965659D01*
X123750252Y-91979470D01*
X123825799Y-91990898D01*
X123904530Y-92000083D01*
X123987167Y-92007166D01*
X124074435Y-92012284D01*
X124167056Y-92015578D01*
X124371254Y-92017253D01*
X124509646Y-92016188D01*
X124638173Y-92012870D01*
X124757471Y-92007114D01*
X124868175Y-91998732D01*
X124970921Y-91987539D01*
X125066344Y-91973348D01*
X125155080Y-91955975D01*
X125237765Y-91935232D01*
X125277037Y-91923539D01*
X125315034Y-91910934D01*
X125351837Y-91897393D01*
X125387523Y-91882894D01*
X125422174Y-91867413D01*
X125455868Y-91850927D01*
X125488685Y-91833413D01*
X125520704Y-91814847D01*
X125552004Y-91795206D01*
X125582666Y-91774467D01*
X125642391Y-91729602D01*
X125700514Y-91680065D01*
X125757670Y-91625671D01*
X125789802Y-91591913D01*
X125821247Y-91555701D01*
X125851812Y-91517390D01*
X125881309Y-91477338D01*
X125909544Y-91435901D01*
X125936327Y-91393436D01*
X125961467Y-91350299D01*
X125984772Y-91306847D01*
X126006051Y-91263436D01*
X126025114Y-91220423D01*
X126041768Y-91178165D01*
X126055823Y-91137018D01*
X126067088Y-91097338D01*
X126075371Y-91059482D01*
X126080481Y-91023808D01*
X126082226Y-90990670D01*
X126082226Y-90877781D01*
X127422783Y-90877781D01*
X127422783Y-90976559D01*
X127421325Y-91005620D01*
X127417071Y-91039549D01*
X127410202Y-91077839D01*
X127400899Y-91119985D01*
X127389344Y-91165479D01*
X127375716Y-91213815D01*
X127342967Y-91316989D01*
X127304099Y-91425455D01*
X127260560Y-91535160D01*
X127213796Y-91642055D01*
X127165254Y-91742086D01*
X127151631Y-91766742D01*
X127135971Y-91792984D01*
X127118389Y-91820663D01*
X127098998Y-91849629D01*
X127055246Y-91910821D01*
X127005622Y-91975361D01*
X126951038Y-92042051D01*
X126892403Y-92109693D01*
X126830626Y-92177086D01*
X126766617Y-92243032D01*
X126680627Y-92328622D01*
X126641663Y-92365831D01*
X126604559Y-92399908D01*
X126568696Y-92431298D01*
X126533452Y-92460445D01*
X126498209Y-92487794D01*
X126462345Y-92513788D01*
X126425242Y-92538874D01*
X126386278Y-92563494D01*
X126344833Y-92588094D01*
X126300288Y-92613118D01*
X126199416Y-92666214D01*
X126078700Y-92726338D01*
X125991849Y-92766507D01*
X125899831Y-92806925D01*
X125805414Y-92846516D01*
X125711370Y-92884205D01*
X125620467Y-92918918D01*
X125535477Y-92949579D01*
X125459168Y-92975114D01*
X125394310Y-92994448D01*
X125229438Y-93032039D01*
X125057104Y-93062834D01*
X124878528Y-93086900D01*
X124694928Y-93104306D01*
X124507525Y-93115117D01*
X124317539Y-93119402D01*
X124126188Y-93117227D01*
X123934692Y-93108660D01*
X123744271Y-93093767D01*
X123556145Y-93072617D01*
X123371533Y-93045276D01*
X123191654Y-93011811D01*
X123017728Y-92972289D01*
X122850975Y-92926779D01*
X122692615Y-92875346D01*
X122543866Y-92818058D01*
X122281175Y-92693755D01*
X122033144Y-92547598D01*
X121800213Y-92380388D01*
X121582822Y-92192926D01*
X121381409Y-91986012D01*
X121196413Y-91760449D01*
X121028274Y-91517037D01*
X120877432Y-91256576D01*
X120744324Y-90979869D01*
X120629392Y-90687715D01*
X120533073Y-90380917D01*
X120455807Y-90060274D01*
X120398034Y-89726588D01*
X120360192Y-89380660D01*
X120342721Y-89023291D01*
X120346060Y-88655282D01*
X120355341Y-88430269D01*
X120368054Y-88232334D01*
X120376046Y-88141441D01*
X120385314Y-88054822D01*
X120395998Y-87971645D01*
X120396648Y-87967366D01*
X121743060Y-87967366D01*
X121919945Y-87974586D01*
X122401432Y-87980153D01*
X123983198Y-87985003D01*
X126223338Y-87985003D01*
X126223338Y-87762754D01*
X126221898Y-87711994D01*
X126217771Y-87653669D01*
X126211246Y-87589803D01*
X126202613Y-87522424D01*
X126192160Y-87453557D01*
X126180178Y-87385227D01*
X126166955Y-87319460D01*
X126152782Y-87258282D01*
X126112367Y-87115426D01*
X126065277Y-86977975D01*
X126011613Y-86846043D01*
X125951479Y-86719744D01*
X125884978Y-86599192D01*
X125812214Y-86484499D01*
X125733291Y-86375781D01*
X125648311Y-86273150D01*
X125557378Y-86176720D01*
X125460595Y-86086604D01*
X125358065Y-86002918D01*
X125249893Y-85925774D01*
X125136180Y-85855285D01*
X125017032Y-85791566D01*
X124892550Y-85734731D01*
X124762839Y-85684893D01*
X124688074Y-85661248D01*
X124610875Y-85640596D01*
X124531620Y-85622951D01*
X124450685Y-85608329D01*
X124368448Y-85596746D01*
X124285286Y-85588216D01*
X124201576Y-85582757D01*
X124117696Y-85580382D01*
X124034022Y-85581108D01*
X123950932Y-85584951D01*
X123868804Y-85591924D01*
X123788014Y-85602045D01*
X123708939Y-85615329D01*
X123631957Y-85631790D01*
X123557446Y-85651445D01*
X123485782Y-85674310D01*
X123325457Y-85734915D01*
X123171390Y-85805437D01*
X123023803Y-85885622D01*
X122882919Y-85975218D01*
X122748959Y-86073971D01*
X122622146Y-86181627D01*
X122502702Y-86297934D01*
X122390849Y-86422639D01*
X122286810Y-86555488D01*
X122190806Y-86696228D01*
X122103061Y-86844606D01*
X122023795Y-87000368D01*
X121953232Y-87163262D01*
X121891593Y-87333034D01*
X121839101Y-87509431D01*
X121795978Y-87692199D01*
X121758935Y-87878730D01*
X121747360Y-87939750D01*
X121744176Y-87958291D01*
X121743060Y-87967366D01*
X120396648Y-87967366D01*
X120408238Y-87891077D01*
X120422172Y-87812287D01*
X120437941Y-87734442D01*
X120455685Y-87656711D01*
X120475541Y-87578262D01*
X120497651Y-87498263D01*
X120522153Y-87415881D01*
X120578894Y-87240643D01*
X120687001Y-86944143D01*
X120807593Y-86664506D01*
X120940670Y-86401725D01*
X121086232Y-86155796D01*
X121244279Y-85926713D01*
X121414811Y-85714472D01*
X121597828Y-85519067D01*
X121793331Y-85340493D01*
X122001318Y-85178745D01*
X122221790Y-85033818D01*
X122454748Y-84905706D01*
X122700190Y-84794404D01*
X122958117Y-84699908D01*
X123228530Y-84622212D01*
X123511427Y-84561311D01*
X123806810Y-84517199D01*
X123897030Y-84508104D01*
X123996759Y-84501985D01*
X124103598Y-84498843D01*
X124215150Y-84498678D01*
X124329018Y-84501489D01*
G37*
G36*
X112000000Y-84500000D02*
G01*
X112148315Y-84506590D01*
X112296692Y-84518659D01*
X112444283Y-84536060D01*
X112590242Y-84558649D01*
X112733720Y-84586282D01*
X112873870Y-84618815D01*
X113009844Y-84656101D01*
X113140796Y-84697997D01*
X113265877Y-84744357D01*
X113384240Y-84795038D01*
X113495038Y-84849895D01*
X113597423Y-84908782D01*
X113630475Y-84929177D01*
X113665387Y-84950233D01*
X113701044Y-84971290D01*
X113736329Y-84991685D01*
X113770125Y-85010757D01*
X113801317Y-85027844D01*
X113828788Y-85042286D01*
X113851422Y-85053421D01*
X113892975Y-85077772D01*
X113939107Y-85109328D01*
X113989104Y-85147353D01*
X114042253Y-85191114D01*
X114097841Y-85239878D01*
X114155155Y-85292910D01*
X114213483Y-85349477D01*
X114272110Y-85408845D01*
X114330323Y-85470279D01*
X114387410Y-85533047D01*
X114442657Y-85596415D01*
X114495352Y-85659648D01*
X114544780Y-85722012D01*
X114590230Y-85782775D01*
X114630987Y-85841202D01*
X114666339Y-85896559D01*
X114699321Y-85954809D01*
X114733250Y-86019260D01*
X114802765Y-86163788D01*
X114872528Y-86324192D01*
X114940182Y-86494517D01*
X115003372Y-86668812D01*
X115059741Y-86841122D01*
X115106932Y-87005494D01*
X115126349Y-87082844D01*
X115142589Y-87155976D01*
X115159690Y-87290059D01*
X115178197Y-87512282D01*
X115196539Y-87790728D01*
X115213144Y-88093483D01*
X115226442Y-88388631D01*
X115234862Y-88644257D01*
X115236833Y-88828446D01*
X115234909Y-88883777D01*
X115230784Y-88909281D01*
X115168427Y-88915558D01*
X114997179Y-88921133D01*
X114375297Y-88930007D01*
X112345061Y-88937504D01*
X109476978Y-88937504D01*
X109452284Y-89106837D01*
X109447930Y-89150726D01*
X109445400Y-89201136D01*
X109444617Y-89257231D01*
X109445504Y-89318173D01*
X109451974Y-89451250D01*
X109464190Y-89593670D01*
X109481533Y-89738736D01*
X109503381Y-89879751D01*
X109529116Y-90010017D01*
X109543247Y-90069026D01*
X109558117Y-90122837D01*
X109608867Y-90281482D01*
X109668277Y-90435693D01*
X109735997Y-90585088D01*
X109811676Y-90729284D01*
X109894961Y-90867899D01*
X109985502Y-91000551D01*
X110082946Y-91126857D01*
X110186943Y-91246434D01*
X110297142Y-91358901D01*
X110413190Y-91463875D01*
X110534736Y-91560973D01*
X110661429Y-91649814D01*
X110792918Y-91730014D01*
X110928851Y-91801191D01*
X111068877Y-91862964D01*
X111212644Y-91914949D01*
X111263012Y-91929582D01*
X111316273Y-91943054D01*
X111431808Y-91966487D01*
X111559910Y-91985208D01*
X111701242Y-91999174D01*
X111856464Y-92008345D01*
X112026238Y-92012679D01*
X112211226Y-92012135D01*
X112412089Y-92006671D01*
X112559298Y-92000084D01*
X112622239Y-91996656D01*
X112678932Y-91993000D01*
X112730024Y-91989014D01*
X112776160Y-91984594D01*
X112817986Y-91979637D01*
X112856148Y-91974038D01*
X112891292Y-91967696D01*
X112924064Y-91960506D01*
X112955111Y-91952365D01*
X112985077Y-91943170D01*
X113014609Y-91932818D01*
X113044353Y-91921204D01*
X113074955Y-91908227D01*
X113107061Y-91893782D01*
X113150669Y-91872580D01*
X113195972Y-91849188D01*
X113241688Y-91824390D01*
X113286537Y-91798972D01*
X113329235Y-91773720D01*
X113368503Y-91749418D01*
X113403057Y-91726853D01*
X113431617Y-91706810D01*
X113461680Y-91682429D01*
X113492202Y-91654472D01*
X113522983Y-91623249D01*
X113553821Y-91589070D01*
X113584514Y-91552245D01*
X113614861Y-91513085D01*
X113644660Y-91471899D01*
X113673710Y-91428997D01*
X113701809Y-91384690D01*
X113728756Y-91339287D01*
X113754349Y-91293098D01*
X113778386Y-91246435D01*
X113800666Y-91199606D01*
X113820988Y-91152921D01*
X113839150Y-91106692D01*
X113854950Y-91061227D01*
X113918450Y-90877781D01*
X115227255Y-90877781D01*
X115209617Y-91011837D01*
X115197158Y-91083113D01*
X115178570Y-91158874D01*
X115154256Y-91238397D01*
X115124619Y-91320959D01*
X115090063Y-91405835D01*
X115050991Y-91492304D01*
X115007805Y-91579640D01*
X114960909Y-91667122D01*
X114910705Y-91754024D01*
X114857597Y-91839624D01*
X114801988Y-91923199D01*
X114744281Y-92004024D01*
X114684879Y-92081377D01*
X114624185Y-92154534D01*
X114562602Y-92222771D01*
X114500533Y-92285365D01*
X114417341Y-92364836D01*
X114379874Y-92399358D01*
X114344319Y-92430996D01*
X114310045Y-92460195D01*
X114276423Y-92487399D01*
X114242821Y-92513053D01*
X114208610Y-92537601D01*
X114173158Y-92561487D01*
X114135835Y-92585157D01*
X114096012Y-92609054D01*
X114053057Y-92633622D01*
X113955230Y-92686553D01*
X113837311Y-92747503D01*
X113709178Y-92808550D01*
X113573913Y-92864636D01*
X113432158Y-92915679D01*
X113284553Y-92961595D01*
X113131739Y-93002302D01*
X112974356Y-93037718D01*
X112813047Y-93067759D01*
X112648450Y-93092343D01*
X112481208Y-93111388D01*
X112311961Y-93124810D01*
X112141349Y-93132527D01*
X111970014Y-93134456D01*
X111798597Y-93130515D01*
X111627737Y-93120621D01*
X111458077Y-93104691D01*
X111290256Y-93082643D01*
X111022585Y-93034286D01*
X110765988Y-92971290D01*
X110520543Y-92893731D01*
X110286327Y-92801688D01*
X110063418Y-92695237D01*
X109851894Y-92574456D01*
X109750425Y-92508716D01*
X109651831Y-92439423D01*
X109556122Y-92366586D01*
X109463308Y-92290215D01*
X109373398Y-92210320D01*
X109286401Y-92126910D01*
X109121189Y-91949585D01*
X108967749Y-91758317D01*
X108826158Y-91553185D01*
X108696494Y-91334266D01*
X108578835Y-91101637D01*
X108473257Y-90855375D01*
X108379839Y-90595559D01*
X108303351Y-90353879D01*
X108242201Y-90137830D01*
X108216899Y-90036162D01*
X108194858Y-89936995D01*
X108175887Y-89839027D01*
X108159794Y-89740955D01*
X108146388Y-89641478D01*
X108135479Y-89539293D01*
X108126874Y-89433098D01*
X108120382Y-89321590D01*
X108112975Y-89077430D01*
X108111728Y-88796392D01*
X108114381Y-88561788D01*
X108123028Y-88350955D01*
X108129923Y-88252373D01*
X108138703Y-88157238D01*
X108149499Y-88064717D01*
X108160868Y-87985003D01*
X109551061Y-87985003D01*
X114024283Y-87985003D01*
X113999589Y-87727476D01*
X113981525Y-87575963D01*
X113957772Y-87429675D01*
X113928345Y-87288627D01*
X113893259Y-87152834D01*
X113852531Y-87022312D01*
X113806174Y-86897077D01*
X113754206Y-86777144D01*
X113696641Y-86662528D01*
X113633495Y-86553245D01*
X113564783Y-86449311D01*
X113490522Y-86350741D01*
X113410725Y-86257550D01*
X113325410Y-86169755D01*
X113234591Y-86087369D01*
X113138285Y-86010410D01*
X113036505Y-85938893D01*
X112976637Y-85901355D01*
X112912096Y-85863487D01*
X112844827Y-85826280D01*
X112776773Y-85790726D01*
X112709876Y-85757819D01*
X112646080Y-85728549D01*
X112587327Y-85703910D01*
X112560450Y-85693636D01*
X112535561Y-85684893D01*
X112477262Y-85667867D01*
X112412792Y-85652536D01*
X112343092Y-85638942D01*
X112269104Y-85627125D01*
X112191766Y-85617127D01*
X112112021Y-85608990D01*
X112030808Y-85602754D01*
X111949068Y-85598462D01*
X111867741Y-85596154D01*
X111787769Y-85595871D01*
X111710090Y-85597656D01*
X111635647Y-85601549D01*
X111565379Y-85607592D01*
X111500227Y-85615825D01*
X111441132Y-85626292D01*
X111389033Y-85639031D01*
X111337922Y-85654767D01*
X111282924Y-85673965D01*
X111224702Y-85696284D01*
X111163917Y-85721383D01*
X111101230Y-85748921D01*
X111037303Y-85778558D01*
X110908374Y-85842761D01*
X110844695Y-85876645D01*
X110782421Y-85911263D01*
X110722215Y-85946274D01*
X110664737Y-85981336D01*
X110610649Y-86016110D01*
X110560612Y-86050252D01*
X110515288Y-86083423D01*
X110475339Y-86115282D01*
X110387567Y-86192187D01*
X110302995Y-86274445D01*
X110221843Y-86361623D01*
X110144334Y-86453287D01*
X110070691Y-86549002D01*
X110001135Y-86648335D01*
X109935890Y-86750850D01*
X109875176Y-86856115D01*
X109819216Y-86963695D01*
X109768233Y-87073156D01*
X109722449Y-87184064D01*
X109682085Y-87295985D01*
X109647365Y-87408485D01*
X109618510Y-87521129D01*
X109595742Y-87633484D01*
X109579284Y-87745115D01*
X109551061Y-87985003D01*
X108160868Y-87985003D01*
X108162440Y-87973979D01*
X108177654Y-87884192D01*
X108195272Y-87794524D01*
X108215421Y-87704143D01*
X108238232Y-87612217D01*
X108263833Y-87517913D01*
X108292355Y-87420401D01*
X108358673Y-87212420D01*
X108433216Y-87004263D01*
X108513991Y-86804432D01*
X108601030Y-86612899D01*
X108694363Y-86429640D01*
X108794021Y-86254628D01*
X108900035Y-86087838D01*
X109012436Y-85929244D01*
X109131256Y-85778820D01*
X109256525Y-85636540D01*
X109388274Y-85502378D01*
X109526534Y-85376309D01*
X109671336Y-85258307D01*
X109822712Y-85148346D01*
X109980692Y-85046399D01*
X110145307Y-84952442D01*
X110316589Y-84866448D01*
X110373794Y-84839933D01*
X110435231Y-84813414D01*
X110568550Y-84761000D01*
X110712038Y-84710489D01*
X110861190Y-84663160D01*
X111011499Y-84620296D01*
X111158460Y-84583179D01*
X111297566Y-84553089D01*
X111424311Y-84531309D01*
X111563903Y-84514542D01*
X111706947Y-84503831D01*
X111852595Y-84499032D01*
X112000000Y-84500000D01*
G37*
D12*
X159600000Y-66100000D02*
X158800000Y-66600000D01*
X158800000Y-65600000D01*
X159600000Y-66100000D01*
G36*
X159600000Y-66100000D02*
G01*
X158800000Y-66600000D01*
X158800000Y-65600000D01*
X159600000Y-66100000D01*
G37*
D13*
%TO.C,R16*%
X118880000Y-97246359D02*
X118880000Y-97553641D01*
X118120000Y-97246359D02*
X118120000Y-97553641D01*
%TO.C,R19*%
X155890000Y-57627064D02*
X155890000Y-56172936D01*
X157710000Y-57627064D02*
X157710000Y-56172936D01*
%TO.C,R18*%
X160510000Y-56172936D02*
X160510000Y-57627064D01*
X158690000Y-56172936D02*
X158690000Y-57627064D01*
%TO.C,R15*%
X105522500Y-96862742D02*
X105522500Y-97337258D01*
X104477500Y-96862742D02*
X104477500Y-97337258D01*
%TO.C,R14*%
X103622500Y-96862742D02*
X103622500Y-97337258D01*
X102577500Y-96862742D02*
X102577500Y-97337258D01*
%TO.C,R13*%
X107522500Y-96862742D02*
X107522500Y-97337258D01*
X106477500Y-96862742D02*
X106477500Y-97337258D01*
%TO.C,R12*%
X105522500Y-93337742D02*
X105522500Y-93812258D01*
X104477500Y-93337742D02*
X104477500Y-93812258D01*
%TO.C,R11*%
X163272936Y-60190000D02*
X164727064Y-60190000D01*
X163272936Y-62010000D02*
X164727064Y-62010000D01*
%TO.C,R10*%
X159222500Y-95362742D02*
X159222500Y-95837258D01*
X158177500Y-95362742D02*
X158177500Y-95837258D01*
%TO.C,R9*%
X153722500Y-95362742D02*
X153722500Y-95837258D01*
X152677500Y-95362742D02*
X152677500Y-95837258D01*
%TO.C,R8*%
X144722500Y-95362742D02*
X144722500Y-95837258D01*
X143677500Y-95362742D02*
X143677500Y-95837258D01*
%TO.C,R4*%
X145410000Y-69772936D02*
X145410000Y-71227064D01*
X143590000Y-69772936D02*
X143590000Y-71227064D01*
%TO.C,R3*%
X156410000Y-69772936D02*
X156410000Y-71227064D01*
X154590000Y-69772936D02*
X154590000Y-71227064D01*
%TO.C,R5*%
X134410000Y-69772936D02*
X134410000Y-71227064D01*
X132590000Y-69772936D02*
X132590000Y-71227064D01*
%TO.C,R6*%
X125410000Y-69772936D02*
X125410000Y-71227064D01*
X123590000Y-69772936D02*
X123590000Y-71227064D01*
%TO.C,R7*%
X112910000Y-69772936D02*
X112910000Y-71227064D01*
X111090000Y-69772936D02*
X111090000Y-71227064D01*
%TO.C,R2*%
X153910000Y-56172936D02*
X153910000Y-57627064D01*
X152090000Y-56172936D02*
X152090000Y-57627064D01*
%TO.C,R1*%
X149290000Y-57627064D02*
X149290000Y-56172936D01*
X151110000Y-57627064D02*
X151110000Y-56172936D01*
%TO.C,J2*%
X102170000Y-71295000D02*
X102170000Y-76495000D01*
X102230000Y-71295000D02*
X102170000Y-71295000D01*
X102230000Y-71295000D02*
X102230000Y-73895000D01*
X102230000Y-73895000D02*
X104830000Y-73895000D01*
X103500000Y-71295000D02*
X104830000Y-71295000D01*
X104830000Y-71295000D02*
X104830000Y-72625000D01*
X104830000Y-73895000D02*
X104830000Y-76495000D01*
X104830000Y-76495000D02*
X102170000Y-76495000D01*
%TO.C,D3*%
X132515000Y-77000000D02*
X132515000Y-79860000D01*
X132515000Y-79860000D02*
X134435000Y-79860000D01*
X134435000Y-79860000D02*
X134435000Y-77000000D01*
%TO.C,D1*%
X154515000Y-79000000D02*
X154515000Y-81860000D01*
X154515000Y-81860000D02*
X156435000Y-81860000D01*
X156435000Y-81860000D02*
X156435000Y-79000000D01*
%TO.C,C2*%
X164223752Y-62765000D02*
X163701248Y-62765000D01*
X164223752Y-64235000D02*
X163701248Y-64235000D01*
%TO.C,D2*%
X143515000Y-78000000D02*
X143515000Y-80860000D01*
X143515000Y-80860000D02*
X145435000Y-80860000D01*
X145435000Y-80860000D02*
X145435000Y-78000000D01*
%TO.C,D8*%
X157740000Y-90025000D02*
X157740000Y-92885000D01*
X157740000Y-92885000D02*
X159660000Y-92885000D01*
X159660000Y-92885000D02*
X159660000Y-90025000D01*
%TO.C,U1*%
X163725000Y-65445000D02*
X160275000Y-65445000D01*
X163725000Y-65445000D02*
X165675000Y-65445000D01*
X163725000Y-70565000D02*
X161775000Y-70565000D01*
X163725000Y-70565000D02*
X165675000Y-70565000D01*
%TO.C,D7*%
X152240000Y-90025000D02*
X152240000Y-92885000D01*
X152240000Y-92885000D02*
X154160000Y-92885000D01*
X154160000Y-92885000D02*
X154160000Y-90025000D01*
%TO.C,C1*%
X149165000Y-65238748D02*
X149165000Y-65761252D01*
X150635000Y-65238748D02*
X150635000Y-65761252D01*
%TO.C,D6*%
X143240000Y-90025000D02*
X143240000Y-92885000D01*
X143240000Y-92885000D02*
X145160000Y-92885000D01*
X145160000Y-92885000D02*
X145160000Y-90025000D01*
%TO.C,D4*%
X123515000Y-75500000D02*
X123515000Y-78360000D01*
X123515000Y-78360000D02*
X125435000Y-78360000D01*
X125435000Y-78360000D02*
X125435000Y-75500000D01*
%TO.C,C3*%
X153465000Y-65276248D02*
X153465000Y-65798752D01*
X154935000Y-65276248D02*
X154935000Y-65798752D01*
%TO.C,D5*%
X111015000Y-77500000D02*
X111015000Y-80360000D01*
X111015000Y-80360000D02*
X112935000Y-80360000D01*
X112935000Y-80360000D02*
X112935000Y-77500000D01*
%TO.C,R21*%
X121880000Y-97236359D02*
X121880000Y-97543641D01*
X121120000Y-97236359D02*
X121120000Y-97543641D01*
%TO.C,R20*%
X120380000Y-97246359D02*
X120380000Y-97553641D01*
X119620000Y-97246359D02*
X119620000Y-97553641D01*
%TO.C,R17*%
X120380000Y-94946359D02*
X120380000Y-95253641D01*
X119620000Y-94946359D02*
X119620000Y-95253641D01*
%TD*%
M02*
